ISO-10303-21;
HEADER;
/* Generated by software containing ST-Developer
 * from STEP Tools, Inc. (www.steptools.com) 
 */

FILE_DESCRIPTION(
/* description */ (''),
/* implementation_level */ '2;1');

FILE_NAME(
/* name */ 'Block_extention_z-axis_40mm.step',
/* time_stamp */ '2026-10-02T15:41:21-04:00',
/* author */ (''),
/* organization */ (''),
/* preprocessor_version */ 'ST-DEVELOPER v20.2',
/* originating_system */ 'Autodesk Translation Framework v15.15.0.0',
/* authorisation */ '');

FILE_SCHEMA (('AUTOMOTIVE_DESIGN { 1 0 10303 214 3 1 1 }'));
ENDSEC;

DATA;
#10=MECHANICAL_DESIGN_GEOMETRIC_PRESENTATION_REPRESENTATION('',(#13),#865);
#11=SHAPE_REPRESENTATION_RELATIONSHIP('SRR','None',#872,#12);
#12=ADVANCED_BREP_SHAPE_REPRESENTATION('',(#14),#864);
#13=STYLED_ITEM('',(#881),#14);
#14=MANIFOLD_SOLID_BREP('Body1',#509);
#15=FACE_BOUND('',#79,.T.);
#16=FACE_BOUND('',#89,.T.);
#17=FACE_BOUND('',#106,.T.);
#18=FACE_BOUND('',#107,.T.);
#19=FACE_BOUND('',#108,.T.);
#20=FACE_BOUND('',#109,.T.);
#21=FACE_BOUND('',#110,.T.);
#22=FACE_BOUND('',#112,.T.);
#23=FACE_BOUND('',#113,.T.);
#24=FACE_BOUND('',#114,.T.);
#25=PLANE('',#526);
#26=PLANE('',#530);
#27=PLANE('',#537);
#28=PLANE('',#538);
#29=PLANE('',#545);
#30=PLANE('',#549);
#31=PLANE('',#559);
#32=PLANE('',#560);
#33=PLANE('',#561);
#34=PLANE('',#562);
#35=PLANE('',#563);
#36=PLANE('',#564);
#37=PLANE('',#565);
#38=PLANE('',#566);
#39=PLANE('',#567);
#40=PLANE('',#568);
#41=PLANE('',#569);
#42=PLANE('',#570);
#43=PLANE('',#571);
#44=PLANE('',#572);
#45=FACE_OUTER_BOUND('',#75,.T.);
#46=FACE_OUTER_BOUND('',#76,.T.);
#47=FACE_OUTER_BOUND('',#77,.T.);
#48=FACE_OUTER_BOUND('',#78,.T.);
#49=FACE_OUTER_BOUND('',#80,.T.);
#50=FACE_OUTER_BOUND('',#81,.T.);
#51=FACE_OUTER_BOUND('',#82,.T.);
#52=FACE_OUTER_BOUND('',#83,.T.);
#53=FACE_OUTER_BOUND('',#84,.T.);
#54=FACE_OUTER_BOUND('',#85,.T.);
#55=FACE_OUTER_BOUND('',#86,.T.);
#56=FACE_OUTER_BOUND('',#87,.T.);
#57=FACE_OUTER_BOUND('',#88,.T.);
#58=FACE_OUTER_BOUND('',#90,.T.);
#59=FACE_OUTER_BOUND('',#91,.T.);
#60=FACE_OUTER_BOUND('',#92,.T.);
#61=FACE_OUTER_BOUND('',#93,.T.);
#62=FACE_OUTER_BOUND('',#94,.T.);
#63=FACE_OUTER_BOUND('',#95,.T.);
#64=FACE_OUTER_BOUND('',#96,.T.);
#65=FACE_OUTER_BOUND('',#97,.T.);
#66=FACE_OUTER_BOUND('',#98,.T.);
#67=FACE_OUTER_BOUND('',#99,.T.);
#68=FACE_OUTER_BOUND('',#100,.T.);
#69=FACE_OUTER_BOUND('',#101,.T.);
#70=FACE_OUTER_BOUND('',#102,.T.);
#71=FACE_OUTER_BOUND('',#103,.T.);
#72=FACE_OUTER_BOUND('',#104,.T.);
#73=FACE_OUTER_BOUND('',#105,.T.);
#74=FACE_OUTER_BOUND('',#111,.T.);
#75=EDGE_LOOP('',(#337,#338,#339,#340));
#76=EDGE_LOOP('',(#341));
#77=EDGE_LOOP('',(#342,#343,#344,#345));
#78=EDGE_LOOP('',(#346));
#79=EDGE_LOOP('',(#347));
#80=EDGE_LOOP('',(#348,#349,#350,#351));
#81=EDGE_LOOP('',(#352,#353,#354,#355));
#82=EDGE_LOOP('',(#356,#357,#358,#359));
#83=EDGE_LOOP('',(#360,#361,#362,#363));
#84=EDGE_LOOP('',(#364,#365,#366,#367));
#85=EDGE_LOOP('',(#368,#369,#370,#371));
#86=EDGE_LOOP('',(#372));
#87=EDGE_LOOP('',(#373,#374,#375,#376));
#88=EDGE_LOOP('',(#377));
#89=EDGE_LOOP('',(#378));
#90=EDGE_LOOP('',(#379,#380,#381,#382));
#91=EDGE_LOOP('',(#383,#384,#385,#386));
#92=EDGE_LOOP('',(#387,#388,#389,#390));
#93=EDGE_LOOP('',(#391,#392,#393,#394));
#94=EDGE_LOOP('',(#395,#396,#397,#398));
#95=EDGE_LOOP('',(#399,#400,#401,#402));
#96=EDGE_LOOP('',(#403,#404,#405,#406));
#97=EDGE_LOOP('',(#407,#408,#409,#410));
#98=EDGE_LOOP('',(#411,#412,#413,#414));
#99=EDGE_LOOP('',(#415,#416,#417,#418));
#100=EDGE_LOOP('',(#419,#420,#421,#422));
#101=EDGE_LOOP('',(#423,#424,#425,#426));
#102=EDGE_LOOP('',(#427,#428,#429,#430));
#103=EDGE_LOOP('',(#431,#432,#433,#434));
#104=EDGE_LOOP('',(#435,#436,#437,#438));
#105=EDGE_LOOP('',(#439,#440,#441,#442,#443,#444,#445,#446));
#106=EDGE_LOOP('',(#447));
#107=EDGE_LOOP('',(#448));
#108=EDGE_LOOP('',(#449));
#109=EDGE_LOOP('',(#450));
#110=EDGE_LOOP('',(#451,#452,#453,#454));
#111=EDGE_LOOP('',(#455,#456,#457,#458,#459,#460,#461,#462));
#112=EDGE_LOOP('',(#463));
#113=EDGE_LOOP('',(#464));
#114=EDGE_LOOP('',(#465,#466,#467,#468));
#115=LINE('',#726,#161);
#116=LINE('',#733,#162);
#117=LINE('',#740,#163);
#118=LINE('',#747,#164);
#119=LINE('',#750,#165);
#120=LINE('',#753,#166);
#121=LINE('',#755,#167);
#122=LINE('',#756,#168);
#123=LINE('',#759,#169);
#124=LINE('',#761,#170);
#125=LINE('',#762,#171);
#126=LINE('',#768,#172);
#127=LINE('',#773,#173);
#128=LINE('',#780,#174);
#129=LINE('',#787,#175);
#130=LINE('',#794,#176);
#131=LINE('',#797,#177);
#132=LINE('',#802,#178);
#133=LINE('',#807,#179);
#134=LINE('',#809,#180);
#135=LINE('',#811,#181);
#136=LINE('',#812,#182);
#137=LINE('',#815,#183);
#138=LINE('',#817,#184);
#139=LINE('',#818,#185);
#140=LINE('',#821,#186);
#141=LINE('',#823,#187);
#142=LINE('',#824,#188);
#143=LINE('',#826,#189);
#144=LINE('',#827,#190);
#145=LINE('',#832,#191);
#146=LINE('',#834,#192);
#147=LINE('',#836,#193);
#148=LINE('',#837,#194);
#149=LINE('',#840,#195);
#150=LINE('',#842,#196);
#151=LINE('',#843,#197);
#152=LINE('',#846,#198);
#153=LINE('',#848,#199);
#154=LINE('',#849,#200);
#155=LINE('',#851,#201);
#156=LINE('',#852,#202);
#157=LINE('',#855,#203);
#158=LINE('',#856,#204);
#159=LINE('',#858,#205);
#160=LINE('',#859,#206);
#161=VECTOR('',#579,3.4);
#162=VECTOR('',#588,4.75);
#163=VECTOR('',#597,3.);
#164=VECTOR('',#604,10.);
#165=VECTOR('',#607,10.);
#166=VECTOR('',#610,10.);
#167=VECTOR('',#611,10.);
#168=VECTOR('',#612,10.);
#169=VECTOR('',#615,10.);
#170=VECTOR('',#616,10.);
#171=VECTOR('',#617,10.);
#172=VECTOR('',#624,10.);
#173=VECTOR('',#629,3.4);
#174=VECTOR('',#638,4.75);
#175=VECTOR('',#647,3.);
#176=VECTOR('',#654,10.);
#177=VECTOR('',#657,10.);
#178=VECTOR('',#662,10.);
#179=VECTOR('',#667,10.);
#180=VECTOR('',#668,10.);
#181=VECTOR('',#669,10.);
#182=VECTOR('',#670,10.);
#183=VECTOR('',#673,10.);
#184=VECTOR('',#674,10.);
#185=VECTOR('',#675,10.);
#186=VECTOR('',#678,10.);
#187=VECTOR('',#679,10.);
#188=VECTOR('',#680,10.);
#189=VECTOR('',#683,10.);
#190=VECTOR('',#684,10.);
#191=VECTOR('',#689,10.);
#192=VECTOR('',#690,10.);
#193=VECTOR('',#691,10.);
#194=VECTOR('',#692,10.);
#195=VECTOR('',#695,10.);
#196=VECTOR('',#696,10.);
#197=VECTOR('',#697,10.);
#198=VECTOR('',#700,10.);
#199=VECTOR('',#701,10.);
#200=VECTOR('',#702,10.);
#201=VECTOR('',#705,10.);
#202=VECTOR('',#706,10.);
#203=VECTOR('',#711,10.);
#204=VECTOR('',#712,10.);
#205=VECTOR('',#715,10.);
#206=VECTOR('',#716,10.);
#207=CIRCLE('',#524,3.4);
#208=CIRCLE('',#525,3.4);
#209=CIRCLE('',#528,4.75);
#210=CIRCLE('',#529,4.75);
#211=CIRCLE('',#531,3.);
#212=CIRCLE('',#533,3.);
#213=CIRCLE('',#535,7.5);
#214=CIRCLE('',#536,7.5);
#215=CIRCLE('',#540,7.5);
#216=CIRCLE('',#541,7.5);
#217=CIRCLE('',#543,3.4);
#218=CIRCLE('',#544,3.4);
#219=CIRCLE('',#547,4.75);
#220=CIRCLE('',#548,4.75);
#221=CIRCLE('',#550,3.);
#222=CIRCLE('',#552,3.);
#223=CIRCLE('',#554,7.5);
#224=CIRCLE('',#555,7.5);
#225=CIRCLE('',#557,7.5);
#226=CIRCLE('',#558,7.5);
#227=VERTEX_POINT('',#723);
#228=VERTEX_POINT('',#725);
#229=VERTEX_POINT('',#730);
#230=VERTEX_POINT('',#732);
#231=VERTEX_POINT('',#736);
#232=VERTEX_POINT('',#739);
#233=VERTEX_POINT('',#743);
#234=VERTEX_POINT('',#744);
#235=VERTEX_POINT('',#746);
#236=VERTEX_POINT('',#748);
#237=VERTEX_POINT('',#752);
#238=VERTEX_POINT('',#754);
#239=VERTEX_POINT('',#758);
#240=VERTEX_POINT('',#760);
#241=VERTEX_POINT('',#764);
#242=VERTEX_POINT('',#766);
#243=VERTEX_POINT('',#770);
#244=VERTEX_POINT('',#772);
#245=VERTEX_POINT('',#777);
#246=VERTEX_POINT('',#779);
#247=VERTEX_POINT('',#783);
#248=VERTEX_POINT('',#786);
#249=VERTEX_POINT('',#790);
#250=VERTEX_POINT('',#791);
#251=VERTEX_POINT('',#793);
#252=VERTEX_POINT('',#795);
#253=VERTEX_POINT('',#799);
#254=VERTEX_POINT('',#801);
#255=VERTEX_POINT('',#805);
#256=VERTEX_POINT('',#806);
#257=VERTEX_POINT('',#808);
#258=VERTEX_POINT('',#810);
#259=VERTEX_POINT('',#814);
#260=VERTEX_POINT('',#816);
#261=VERTEX_POINT('',#820);
#262=VERTEX_POINT('',#822);
#263=VERTEX_POINT('',#830);
#264=VERTEX_POINT('',#831);
#265=VERTEX_POINT('',#833);
#266=VERTEX_POINT('',#835);
#267=VERTEX_POINT('',#839);
#268=VERTEX_POINT('',#841);
#269=VERTEX_POINT('',#845);
#270=VERTEX_POINT('',#847);
#271=EDGE_CURVE('',#227,#227,#207,.T.);
#272=EDGE_CURVE('',#227,#228,#115,.T.);
#273=EDGE_CURVE('',#228,#228,#208,.T.);
#274=EDGE_CURVE('',#229,#229,#209,.T.);
#275=EDGE_CURVE('',#229,#230,#116,.T.);
#276=EDGE_CURVE('',#230,#230,#210,.T.);
#277=EDGE_CURVE('',#231,#231,#211,.T.);
#278=EDGE_CURVE('',#231,#232,#117,.T.);
#279=EDGE_CURVE('',#232,#232,#212,.T.);
#280=EDGE_CURVE('',#233,#234,#213,.T.);
#281=EDGE_CURVE('',#233,#235,#118,.T.);
#282=EDGE_CURVE('',#236,#235,#214,.T.);
#283=EDGE_CURVE('',#236,#234,#119,.T.);
#284=EDGE_CURVE('',#233,#237,#120,.T.);
#285=EDGE_CURVE('',#238,#237,#121,.T.);
#286=EDGE_CURVE('',#238,#235,#122,.T.);
#287=EDGE_CURVE('',#236,#239,#123,.T.);
#288=EDGE_CURVE('',#240,#239,#124,.T.);
#289=EDGE_CURVE('',#240,#234,#125,.T.);
#290=EDGE_CURVE('',#240,#241,#215,.T.);
#291=EDGE_CURVE('',#242,#239,#216,.T.);
#292=EDGE_CURVE('',#242,#241,#126,.T.);
#293=EDGE_CURVE('',#243,#243,#217,.T.);
#294=EDGE_CURVE('',#243,#244,#127,.T.);
#295=EDGE_CURVE('',#244,#244,#218,.T.);
#296=EDGE_CURVE('',#245,#245,#219,.T.);
#297=EDGE_CURVE('',#245,#246,#128,.T.);
#298=EDGE_CURVE('',#246,#246,#220,.T.);
#299=EDGE_CURVE('',#247,#247,#221,.T.);
#300=EDGE_CURVE('',#247,#248,#129,.T.);
#301=EDGE_CURVE('',#248,#248,#222,.T.);
#302=EDGE_CURVE('',#249,#250,#223,.T.);
#303=EDGE_CURVE('',#249,#251,#130,.T.);
#304=EDGE_CURVE('',#252,#251,#224,.T.);
#305=EDGE_CURVE('',#252,#250,#131,.T.);
#306=EDGE_CURVE('',#253,#237,#225,.T.);
#307=EDGE_CURVE('',#253,#254,#132,.T.);
#308=EDGE_CURVE('',#238,#254,#226,.T.);
#309=EDGE_CURVE('',#255,#256,#133,.T.);
#310=EDGE_CURVE('',#256,#257,#134,.T.);
#311=EDGE_CURVE('',#258,#257,#135,.T.);
#312=EDGE_CURVE('',#255,#258,#136,.T.);
#313=EDGE_CURVE('',#259,#255,#137,.T.);
#314=EDGE_CURVE('',#260,#258,#138,.T.);
#315=EDGE_CURVE('',#259,#260,#139,.T.);
#316=EDGE_CURVE('',#261,#259,#140,.T.);
#317=EDGE_CURVE('',#262,#260,#141,.T.);
#318=EDGE_CURVE('',#261,#262,#142,.T.);
#319=EDGE_CURVE('',#256,#261,#143,.T.);
#320=EDGE_CURVE('',#257,#262,#144,.T.);
#321=EDGE_CURVE('',#263,#264,#145,.T.);
#322=EDGE_CURVE('',#264,#265,#146,.T.);
#323=EDGE_CURVE('',#265,#266,#147,.T.);
#324=EDGE_CURVE('',#263,#266,#148,.T.);
#325=EDGE_CURVE('',#264,#267,#149,.T.);
#326=EDGE_CURVE('',#267,#268,#150,.T.);
#327=EDGE_CURVE('',#268,#265,#151,.T.);
#328=EDGE_CURVE('',#267,#269,#152,.T.);
#329=EDGE_CURVE('',#269,#270,#153,.T.);
#330=EDGE_CURVE('',#270,#268,#154,.T.);
#331=EDGE_CURVE('',#269,#263,#155,.T.);
#332=EDGE_CURVE('',#266,#270,#156,.T.);
#333=EDGE_CURVE('',#242,#251,#157,.T.);
#334=EDGE_CURVE('',#249,#241,#158,.T.);
#335=EDGE_CURVE('',#252,#254,#159,.T.);
#336=EDGE_CURVE('',#253,#250,#160,.T.);
#337=ORIENTED_EDGE('',*,*,#271,.T.);
#338=ORIENTED_EDGE('',*,*,#272,.T.);
#339=ORIENTED_EDGE('',*,*,#273,.F.);
#340=ORIENTED_EDGE('',*,*,#272,.F.);
#341=ORIENTED_EDGE('',*,*,#273,.T.);
#342=ORIENTED_EDGE('',*,*,#274,.T.);
#343=ORIENTED_EDGE('',*,*,#275,.T.);
#344=ORIENTED_EDGE('',*,*,#276,.T.);
#345=ORIENTED_EDGE('',*,*,#275,.F.);
#346=ORIENTED_EDGE('',*,*,#274,.F.);
#347=ORIENTED_EDGE('',*,*,#277,.T.);
#348=ORIENTED_EDGE('',*,*,#277,.F.);
#349=ORIENTED_EDGE('',*,*,#278,.T.);
#350=ORIENTED_EDGE('',*,*,#279,.T.);
#351=ORIENTED_EDGE('',*,*,#278,.F.);
#352=ORIENTED_EDGE('',*,*,#280,.F.);
#353=ORIENTED_EDGE('',*,*,#281,.T.);
#354=ORIENTED_EDGE('',*,*,#282,.F.);
#355=ORIENTED_EDGE('',*,*,#283,.T.);
#356=ORIENTED_EDGE('',*,*,#281,.F.);
#357=ORIENTED_EDGE('',*,*,#284,.T.);
#358=ORIENTED_EDGE('',*,*,#285,.F.);
#359=ORIENTED_EDGE('',*,*,#286,.T.);
#360=ORIENTED_EDGE('',*,*,#283,.F.);
#361=ORIENTED_EDGE('',*,*,#287,.T.);
#362=ORIENTED_EDGE('',*,*,#288,.F.);
#363=ORIENTED_EDGE('',*,*,#289,.T.);
#364=ORIENTED_EDGE('',*,*,#290,.F.);
#365=ORIENTED_EDGE('',*,*,#288,.T.);
#366=ORIENTED_EDGE('',*,*,#291,.F.);
#367=ORIENTED_EDGE('',*,*,#292,.T.);
#368=ORIENTED_EDGE('',*,*,#293,.T.);
#369=ORIENTED_EDGE('',*,*,#294,.T.);
#370=ORIENTED_EDGE('',*,*,#295,.F.);
#371=ORIENTED_EDGE('',*,*,#294,.F.);
#372=ORIENTED_EDGE('',*,*,#295,.T.);
#373=ORIENTED_EDGE('',*,*,#296,.T.);
#374=ORIENTED_EDGE('',*,*,#297,.T.);
#375=ORIENTED_EDGE('',*,*,#298,.T.);
#376=ORIENTED_EDGE('',*,*,#297,.F.);
#377=ORIENTED_EDGE('',*,*,#296,.F.);
#378=ORIENTED_EDGE('',*,*,#299,.T.);
#379=ORIENTED_EDGE('',*,*,#299,.F.);
#380=ORIENTED_EDGE('',*,*,#300,.T.);
#381=ORIENTED_EDGE('',*,*,#301,.T.);
#382=ORIENTED_EDGE('',*,*,#300,.F.);
#383=ORIENTED_EDGE('',*,*,#302,.F.);
#384=ORIENTED_EDGE('',*,*,#303,.T.);
#385=ORIENTED_EDGE('',*,*,#304,.F.);
#386=ORIENTED_EDGE('',*,*,#305,.T.);
#387=ORIENTED_EDGE('',*,*,#306,.F.);
#388=ORIENTED_EDGE('',*,*,#307,.T.);
#389=ORIENTED_EDGE('',*,*,#308,.F.);
#390=ORIENTED_EDGE('',*,*,#285,.T.);
#391=ORIENTED_EDGE('',*,*,#309,.T.);
#392=ORIENTED_EDGE('',*,*,#310,.T.);
#393=ORIENTED_EDGE('',*,*,#311,.F.);
#394=ORIENTED_EDGE('',*,*,#312,.F.);
#395=ORIENTED_EDGE('',*,*,#313,.T.);
#396=ORIENTED_EDGE('',*,*,#312,.T.);
#397=ORIENTED_EDGE('',*,*,#314,.F.);
#398=ORIENTED_EDGE('',*,*,#315,.F.);
#399=ORIENTED_EDGE('',*,*,#316,.T.);
#400=ORIENTED_EDGE('',*,*,#315,.T.);
#401=ORIENTED_EDGE('',*,*,#317,.F.);
#402=ORIENTED_EDGE('',*,*,#318,.F.);
#403=ORIENTED_EDGE('',*,*,#319,.T.);
#404=ORIENTED_EDGE('',*,*,#318,.T.);
#405=ORIENTED_EDGE('',*,*,#320,.F.);
#406=ORIENTED_EDGE('',*,*,#310,.F.);
#407=ORIENTED_EDGE('',*,*,#320,.T.);
#408=ORIENTED_EDGE('',*,*,#317,.T.);
#409=ORIENTED_EDGE('',*,*,#314,.T.);
#410=ORIENTED_EDGE('',*,*,#311,.T.);
#411=ORIENTED_EDGE('',*,*,#321,.T.);
#412=ORIENTED_EDGE('',*,*,#322,.T.);
#413=ORIENTED_EDGE('',*,*,#323,.T.);
#414=ORIENTED_EDGE('',*,*,#324,.F.);
#415=ORIENTED_EDGE('',*,*,#325,.T.);
#416=ORIENTED_EDGE('',*,*,#326,.T.);
#417=ORIENTED_EDGE('',*,*,#327,.T.);
#418=ORIENTED_EDGE('',*,*,#322,.F.);
#419=ORIENTED_EDGE('',*,*,#328,.T.);
#420=ORIENTED_EDGE('',*,*,#329,.T.);
#421=ORIENTED_EDGE('',*,*,#330,.T.);
#422=ORIENTED_EDGE('',*,*,#326,.F.);
#423=ORIENTED_EDGE('',*,*,#331,.T.);
#424=ORIENTED_EDGE('',*,*,#324,.T.);
#425=ORIENTED_EDGE('',*,*,#332,.T.);
#426=ORIENTED_EDGE('',*,*,#329,.F.);
#427=ORIENTED_EDGE('',*,*,#332,.F.);
#428=ORIENTED_EDGE('',*,*,#323,.F.);
#429=ORIENTED_EDGE('',*,*,#327,.F.);
#430=ORIENTED_EDGE('',*,*,#330,.F.);
#431=ORIENTED_EDGE('',*,*,#292,.F.);
#432=ORIENTED_EDGE('',*,*,#333,.T.);
#433=ORIENTED_EDGE('',*,*,#303,.F.);
#434=ORIENTED_EDGE('',*,*,#334,.T.);
#435=ORIENTED_EDGE('',*,*,#305,.F.);
#436=ORIENTED_EDGE('',*,*,#335,.T.);
#437=ORIENTED_EDGE('',*,*,#307,.F.);
#438=ORIENTED_EDGE('',*,*,#336,.T.);
#439=ORIENTED_EDGE('',*,*,#284,.F.);
#440=ORIENTED_EDGE('',*,*,#280,.T.);
#441=ORIENTED_EDGE('',*,*,#289,.F.);
#442=ORIENTED_EDGE('',*,*,#290,.T.);
#443=ORIENTED_EDGE('',*,*,#334,.F.);
#444=ORIENTED_EDGE('',*,*,#302,.T.);
#445=ORIENTED_EDGE('',*,*,#336,.F.);
#446=ORIENTED_EDGE('',*,*,#306,.T.);
#447=ORIENTED_EDGE('',*,*,#271,.F.);
#448=ORIENTED_EDGE('',*,*,#276,.F.);
#449=ORIENTED_EDGE('',*,*,#293,.F.);
#450=ORIENTED_EDGE('',*,*,#298,.F.);
#451=ORIENTED_EDGE('',*,*,#321,.F.);
#452=ORIENTED_EDGE('',*,*,#331,.F.);
#453=ORIENTED_EDGE('',*,*,#328,.F.);
#454=ORIENTED_EDGE('',*,*,#325,.F.);
#455=ORIENTED_EDGE('',*,*,#286,.F.);
#456=ORIENTED_EDGE('',*,*,#308,.T.);
#457=ORIENTED_EDGE('',*,*,#335,.F.);
#458=ORIENTED_EDGE('',*,*,#304,.T.);
#459=ORIENTED_EDGE('',*,*,#333,.F.);
#460=ORIENTED_EDGE('',*,*,#291,.T.);
#461=ORIENTED_EDGE('',*,*,#287,.F.);
#462=ORIENTED_EDGE('',*,*,#282,.T.);
#463=ORIENTED_EDGE('',*,*,#279,.F.);
#464=ORIENTED_EDGE('',*,*,#301,.F.);
#465=ORIENTED_EDGE('',*,*,#309,.F.);
#466=ORIENTED_EDGE('',*,*,#313,.F.);
#467=ORIENTED_EDGE('',*,*,#316,.F.);
#468=ORIENTED_EDGE('',*,*,#319,.F.);
#469=CYLINDRICAL_SURFACE('',#523,3.4);
#470=CYLINDRICAL_SURFACE('',#527,4.75);
#471=CYLINDRICAL_SURFACE('',#532,3.);
#472=CYLINDRICAL_SURFACE('',#534,7.5);
#473=CYLINDRICAL_SURFACE('',#539,7.5);
#474=CYLINDRICAL_SURFACE('',#542,3.4);
#475=CYLINDRICAL_SURFACE('',#546,4.75);
#476=CYLINDRICAL_SURFACE('',#551,3.);
#477=CYLINDRICAL_SURFACE('',#553,7.5);
#478=CYLINDRICAL_SURFACE('',#556,7.5);
#479=ADVANCED_FACE('',(#45),#469,.F.);
#480=ADVANCED_FACE('',(#46),#25,.F.);
#481=ADVANCED_FACE('',(#47),#470,.F.);
#482=ADVANCED_FACE('',(#48,#15),#26,.F.);
#483=ADVANCED_FACE('',(#49),#471,.F.);
#484=ADVANCED_FACE('',(#50),#472,.T.);
#485=ADVANCED_FACE('',(#51),#27,.F.);
#486=ADVANCED_FACE('',(#52),#28,.F.);
#487=ADVANCED_FACE('',(#53),#473,.T.);
#488=ADVANCED_FACE('',(#54),#474,.F.);
#489=ADVANCED_FACE('',(#55),#29,.F.);
#490=ADVANCED_FACE('',(#56),#475,.F.);
#491=ADVANCED_FACE('',(#57,#16),#30,.F.);
#492=ADVANCED_FACE('',(#58),#476,.F.);
#493=ADVANCED_FACE('',(#59),#477,.T.);
#494=ADVANCED_FACE('',(#60),#478,.T.);
#495=ADVANCED_FACE('',(#61),#31,.T.);
#496=ADVANCED_FACE('',(#62),#32,.T.);
#497=ADVANCED_FACE('',(#63),#33,.T.);
#498=ADVANCED_FACE('',(#64),#34,.T.);
#499=ADVANCED_FACE('',(#65),#35,.T.);
#500=ADVANCED_FACE('',(#66),#36,.F.);
#501=ADVANCED_FACE('',(#67),#37,.F.);
#502=ADVANCED_FACE('',(#68),#38,.F.);
#503=ADVANCED_FACE('',(#69),#39,.F.);
#504=ADVANCED_FACE('',(#70),#40,.F.);
#505=ADVANCED_FACE('',(#71),#41,.F.);
#506=ADVANCED_FACE('',(#72),#42,.F.);
#507=ADVANCED_FACE('',(#73,#17,#18,#19,#20,#21),#43,.F.);
#508=ADVANCED_FACE('',(#74,#22,#23,#24),#44,.T.);
#509=CLOSED_SHELL('',(#479,#480,#481,#482,#483,#484,#485,#486,#487,#488,
#489,#490,#491,#492,#493,#494,#495,#496,#497,#498,#499,#500,#501,#502,#503,
#504,#505,#506,#507,#508));
#510=DERIVED_UNIT_ELEMENT(#512,1.);
#511=DERIVED_UNIT_ELEMENT(#867,-3.);
#512=(
MASS_UNIT()
NAMED_UNIT(*)
SI_UNIT(.KILO.,.GRAM.)
);
#513=DERIVED_UNIT((#510,#511));
#514=MEASURE_REPRESENTATION_ITEM('density measure',
POSITIVE_RATIO_MEASURE(7850.),#513);
#515=PROPERTY_DEFINITION_REPRESENTATION(#520,#517);
#516=PROPERTY_DEFINITION_REPRESENTATION(#521,#518);
#517=REPRESENTATION('material name',(#519),#864);
#518=REPRESENTATION('density',(#514),#864);
#519=DESCRIPTIVE_REPRESENTATION_ITEM('Steel','Steel');
#520=PROPERTY_DEFINITION('material property','material name',#874);
#521=PROPERTY_DEFINITION('material property','density of part',#874);
#522=AXIS2_PLACEMENT_3D('',#721,#573,#574);
#523=AXIS2_PLACEMENT_3D('',#722,#575,#576);
#524=AXIS2_PLACEMENT_3D('',#724,#577,#578);
#525=AXIS2_PLACEMENT_3D('',#727,#580,#581);
#526=AXIS2_PLACEMENT_3D('',#728,#582,#583);
#527=AXIS2_PLACEMENT_3D('',#729,#584,#585);
#528=AXIS2_PLACEMENT_3D('',#731,#586,#587);
#529=AXIS2_PLACEMENT_3D('',#734,#589,#590);
#530=AXIS2_PLACEMENT_3D('',#735,#591,#592);
#531=AXIS2_PLACEMENT_3D('',#737,#593,#594);
#532=AXIS2_PLACEMENT_3D('',#738,#595,#596);
#533=AXIS2_PLACEMENT_3D('',#741,#598,#599);
#534=AXIS2_PLACEMENT_3D('',#742,#600,#601);
#535=AXIS2_PLACEMENT_3D('',#745,#602,#603);
#536=AXIS2_PLACEMENT_3D('',#749,#605,#606);
#537=AXIS2_PLACEMENT_3D('',#751,#608,#609);
#538=AXIS2_PLACEMENT_3D('',#757,#613,#614);
#539=AXIS2_PLACEMENT_3D('',#763,#618,#619);
#540=AXIS2_PLACEMENT_3D('',#765,#620,#621);
#541=AXIS2_PLACEMENT_3D('',#767,#622,#623);
#542=AXIS2_PLACEMENT_3D('',#769,#625,#626);
#543=AXIS2_PLACEMENT_3D('',#771,#627,#628);
#544=AXIS2_PLACEMENT_3D('',#774,#630,#631);
#545=AXIS2_PLACEMENT_3D('',#775,#632,#633);
#546=AXIS2_PLACEMENT_3D('',#776,#634,#635);
#547=AXIS2_PLACEMENT_3D('',#778,#636,#637);
#548=AXIS2_PLACEMENT_3D('',#781,#639,#640);
#549=AXIS2_PLACEMENT_3D('',#782,#641,#642);
#550=AXIS2_PLACEMENT_3D('',#784,#643,#644);
#551=AXIS2_PLACEMENT_3D('',#785,#645,#646);
#552=AXIS2_PLACEMENT_3D('',#788,#648,#649);
#553=AXIS2_PLACEMENT_3D('',#789,#650,#651);
#554=AXIS2_PLACEMENT_3D('',#792,#652,#653);
#555=AXIS2_PLACEMENT_3D('',#796,#655,#656);
#556=AXIS2_PLACEMENT_3D('',#798,#658,#659);
#557=AXIS2_PLACEMENT_3D('',#800,#660,#661);
#558=AXIS2_PLACEMENT_3D('',#803,#663,#664);
#559=AXIS2_PLACEMENT_3D('',#804,#665,#666);
#560=AXIS2_PLACEMENT_3D('',#813,#671,#672);
#561=AXIS2_PLACEMENT_3D('',#819,#676,#677);
#562=AXIS2_PLACEMENT_3D('',#825,#681,#682);
#563=AXIS2_PLACEMENT_3D('',#828,#685,#686);
#564=AXIS2_PLACEMENT_3D('',#829,#687,#688);
#565=AXIS2_PLACEMENT_3D('',#838,#693,#694);
#566=AXIS2_PLACEMENT_3D('',#844,#698,#699);
#567=AXIS2_PLACEMENT_3D('',#850,#703,#704);
#568=AXIS2_PLACEMENT_3D('',#853,#707,#708);
#569=AXIS2_PLACEMENT_3D('',#854,#709,#710);
#570=AXIS2_PLACEMENT_3D('',#857,#713,#714);
#571=AXIS2_PLACEMENT_3D('',#860,#717,#718);
#572=AXIS2_PLACEMENT_3D('',#861,#719,#720);
#573=DIRECTION('axis',(0.,0.,1.));
#574=DIRECTION('refdir',(1.,0.,0.));
#575=DIRECTION('center_axis',(0.,0.,-1.));
#576=DIRECTION('ref_axis',(1.,-1.22464679914735E-16,0.));
#577=DIRECTION('center_axis',(0.,0.,-1.));
#578=DIRECTION('ref_axis',(1.,-1.22464679914735E-16,0.));
#579=DIRECTION('',(0.,0.,1.));
#580=DIRECTION('center_axis',(0.,0.,-1.));
#581=DIRECTION('ref_axis',(1.,-1.22464679914735E-16,0.));
#582=DIRECTION('center_axis',(0.,0.,1.));
#583=DIRECTION('ref_axis',(1.,-1.22464679914735E-16,0.));
#584=DIRECTION('center_axis',(0.,0.,1.));
#585=DIRECTION('ref_axis',(1.,-1.22464679914735E-16,0.));
#586=DIRECTION('center_axis',(0.,0.,1.));
#587=DIRECTION('ref_axis',(1.,-1.22464679914735E-16,0.));
#588=DIRECTION('',(0.,0.,-1.));
#589=DIRECTION('center_axis',(0.,0.,-1.));
#590=DIRECTION('ref_axis',(1.,-1.22464679914735E-16,0.));
#591=DIRECTION('center_axis',(0.,0.,1.));
#592=DIRECTION('ref_axis',(1.,-1.22464679914735E-16,0.));
#593=DIRECTION('center_axis',(0.,0.,1.));
#594=DIRECTION('ref_axis',(1.,-1.22464679914735E-16,0.));
#595=DIRECTION('center_axis',(0.,0.,-1.));
#596=DIRECTION('ref_axis',(1.,-1.22464679914735E-16,0.));
#597=DIRECTION('',(0.,0.,1.));
#598=DIRECTION('center_axis',(0.,0.,1.));
#599=DIRECTION('ref_axis',(1.,-1.22464679914735E-16,0.));
#600=DIRECTION('center_axis',(0.,0.,1.));
#601=DIRECTION('ref_axis',(1.,-1.22464679914735E-16,0.));
#602=DIRECTION('center_axis',(0.,0.,-1.));
#603=DIRECTION('ref_axis',(1.,-1.22464679914735E-16,0.));
#604=DIRECTION('',(0.,0.,1.));
#605=DIRECTION('center_axis',(0.,0.,1.));
#606=DIRECTION('ref_axis',(1.,-1.22464679914735E-16,0.));
#607=DIRECTION('',(0.,0.,-1.));
#608=DIRECTION('center_axis',(3.52451753849256E-17,-1.,0.));
#609=DIRECTION('ref_axis',(-1.,-3.52451753849256E-17,0.));
#610=DIRECTION('',(-1.,-3.52451753849256E-17,0.));
#611=DIRECTION('',(0.,0.,-1.));
#612=DIRECTION('',(1.,3.52451753849256E-17,0.));
#613=DIRECTION('center_axis',(-1.,0.,0.));
#614=DIRECTION('ref_axis',(0.,1.,0.));
#615=DIRECTION('',(0.,-1.,0.));
#616=DIRECTION('',(0.,0.,1.));
#617=DIRECTION('',(0.,1.,0.));
#618=DIRECTION('center_axis',(0.,0.,1.));
#619=DIRECTION('ref_axis',(1.,-1.22464679914735E-16,0.));
#620=DIRECTION('center_axis',(0.,0.,-1.));
#621=DIRECTION('ref_axis',(1.,-1.22464679914735E-16,0.));
#622=DIRECTION('center_axis',(0.,0.,1.));
#623=DIRECTION('ref_axis',(1.,-1.22464679914735E-16,0.));
#624=DIRECTION('',(0.,0.,-1.));
#625=DIRECTION('center_axis',(0.,0.,-1.));
#626=DIRECTION('ref_axis',(-1.,0.,0.));
#627=DIRECTION('center_axis',(0.,0.,-1.));
#628=DIRECTION('ref_axis',(-1.,0.,0.));
#629=DIRECTION('',(0.,0.,1.));
#630=DIRECTION('center_axis',(0.,0.,-1.));
#631=DIRECTION('ref_axis',(-1.,0.,0.));
#632=DIRECTION('center_axis',(0.,0.,1.));
#633=DIRECTION('ref_axis',(-1.,0.,0.));
#634=DIRECTION('center_axis',(0.,0.,1.));
#635=DIRECTION('ref_axis',(-1.,0.,0.));
#636=DIRECTION('center_axis',(0.,0.,1.));
#637=DIRECTION('ref_axis',(-1.,0.,0.));
#638=DIRECTION('',(0.,0.,-1.));
#639=DIRECTION('center_axis',(0.,0.,-1.));
#640=DIRECTION('ref_axis',(-1.,0.,0.));
#641=DIRECTION('center_axis',(0.,0.,1.));
#642=DIRECTION('ref_axis',(-1.,0.,0.));
#643=DIRECTION('center_axis',(0.,0.,1.));
#644=DIRECTION('ref_axis',(-1.,0.,0.));
#645=DIRECTION('center_axis',(0.,0.,-1.));
#646=DIRECTION('ref_axis',(-1.,0.,0.));
#647=DIRECTION('',(0.,0.,1.));
#648=DIRECTION('center_axis',(0.,0.,1.));
#649=DIRECTION('ref_axis',(-1.,0.,0.));
#650=DIRECTION('center_axis',(0.,0.,1.));
#651=DIRECTION('ref_axis',(-1.,0.,0.));
#652=DIRECTION('center_axis',(0.,0.,-1.));
#653=DIRECTION('ref_axis',(-1.,0.,0.));
#654=DIRECTION('',(0.,0.,1.));
#655=DIRECTION('center_axis',(0.,0.,1.));
#656=DIRECTION('ref_axis',(-1.,0.,0.));
#657=DIRECTION('',(0.,0.,-1.));
#658=DIRECTION('center_axis',(0.,0.,1.));
#659=DIRECTION('ref_axis',(-1.,0.,0.));
#660=DIRECTION('center_axis',(0.,0.,-1.));
#661=DIRECTION('ref_axis',(-1.,0.,0.));
#662=DIRECTION('',(0.,0.,1.));
#663=DIRECTION('center_axis',(0.,0.,1.));
#664=DIRECTION('ref_axis',(-1.,0.,0.));
#665=DIRECTION('center_axis',(1.,0.,0.));
#666=DIRECTION('ref_axis',(0.,-1.,0.));
#667=DIRECTION('',(0.,-1.,0.));
#668=DIRECTION('',(0.,0.,-1.));
#669=DIRECTION('',(0.,-1.,0.));
#670=DIRECTION('',(0.,0.,-1.));
#671=DIRECTION('center_axis',(6.03382078600629E-17,-1.,0.));
#672=DIRECTION('ref_axis',(-1.,-6.03382078600629E-17,0.));
#673=DIRECTION('',(-1.,-6.03382078600629E-17,0.));
#674=DIRECTION('',(-1.,-6.03382078600629E-17,0.));
#675=DIRECTION('',(0.,0.,-1.));
#676=DIRECTION('center_axis',(-1.,8.67361737988403E-17,0.));
#677=DIRECTION('ref_axis',(8.67361737988403E-17,1.,0.));
#678=DIRECTION('',(8.67361737988403E-17,1.,0.));
#679=DIRECTION('',(8.67361737988403E-17,1.,0.));
#680=DIRECTION('',(0.,0.,-1.));
#681=DIRECTION('center_axis',(0.,1.,0.));
#682=DIRECTION('ref_axis',(1.,0.,0.));
#683=DIRECTION('',(1.,0.,0.));
#684=DIRECTION('',(1.,0.,0.));
#685=DIRECTION('center_axis',(0.,0.,1.));
#686=DIRECTION('ref_axis',(1.,0.,0.));
#687=DIRECTION('center_axis',(-1.,0.,0.));
#688=DIRECTION('ref_axis',(0.,1.,0.));
#689=DIRECTION('',(0.,-1.,0.));
#690=DIRECTION('',(0.,0.,-1.));
#691=DIRECTION('',(0.,1.,0.));
#692=DIRECTION('',(0.,0.,-1.));
#693=DIRECTION('center_axis',(0.,1.,0.));
#694=DIRECTION('ref_axis',(1.,0.,0.));
#695=DIRECTION('',(-1.,0.,0.));
#696=DIRECTION('',(0.,0.,-1.));
#697=DIRECTION('',(1.,0.,0.));
#698=DIRECTION('center_axis',(1.,0.,0.));
#699=DIRECTION('ref_axis',(0.,-1.,0.));
#700=DIRECTION('',(0.,1.,0.));
#701=DIRECTION('',(0.,0.,-1.));
#702=DIRECTION('',(0.,-1.,0.));
#703=DIRECTION('center_axis',(0.,-1.,0.));
#704=DIRECTION('ref_axis',(-1.,0.,0.));
#705=DIRECTION('',(1.,0.,0.));
#706=DIRECTION('',(-1.,0.,0.));
#707=DIRECTION('center_axis',(0.,0.,1.));
#708=DIRECTION('ref_axis',(1.,0.,0.));
#709=DIRECTION('center_axis',(0.,1.,0.));
#710=DIRECTION('ref_axis',(1.,0.,0.));
#711=DIRECTION('',(-1.,0.,0.));
#712=DIRECTION('',(1.,0.,0.));
#713=DIRECTION('center_axis',(1.,0.,0.));
#714=DIRECTION('ref_axis',(0.,-1.,0.));
#715=DIRECTION('',(0.,1.,0.));
#716=DIRECTION('',(0.,-1.,0.));
#717=DIRECTION('center_axis',(0.,0.,1.));
#718=DIRECTION('ref_axis',(1.,0.,0.));
#719=DIRECTION('center_axis',(0.,0.,1.));
#720=DIRECTION('ref_axis',(1.,0.,0.));
#721=CARTESIAN_POINT('',(0.,0.,0.));
#722=CARTESIAN_POINT('Origin',(26.0000003695488,15.5,-40.));
#723=CARTESIAN_POINT('',(22.6000003695488,15.5,-40.));
#724=CARTESIAN_POINT('Origin',(26.0000003695488,15.5,-40.));
#725=CARTESIAN_POINT('',(22.6000003695488,15.5,-25.));
#726=CARTESIAN_POINT('',(22.6000003695488,15.5,-40.));
#727=CARTESIAN_POINT('Origin',(26.0000003695488,15.5,-25.));
#728=CARTESIAN_POINT('Origin',(26.0000003695488,15.5,-25.));
#729=CARTESIAN_POINT('Origin',(26.,-15.5,-10.));
#730=CARTESIAN_POINT('',(21.25,-15.5,-10.));
#731=CARTESIAN_POINT('Origin',(26.,-15.5,-10.));
#732=CARTESIAN_POINT('',(21.25,-15.5,-40.));
#733=CARTESIAN_POINT('',(21.25,-15.5,-10.));
#734=CARTESIAN_POINT('Origin',(26.,-15.5,-40.));
#735=CARTESIAN_POINT('Origin',(26.,-15.5,-10.));
#736=CARTESIAN_POINT('',(23.,-15.5,-10.));
#737=CARTESIAN_POINT('Origin',(26.,-15.5,-10.));
#738=CARTESIAN_POINT('Origin',(26.,-15.5,-40.));
#739=CARTESIAN_POINT('',(23.,-15.5,0.));
#740=CARTESIAN_POINT('',(23.,-15.5,-40.));
#741=CARTESIAN_POINT('Origin',(26.,-15.5,0.));
#742=CARTESIAN_POINT('Origin',(26.0000003695488,15.5,0.));
#743=CARTESIAN_POINT('',(20.0000003695488,20.,-40.));
#744=CARTESIAN_POINT('',(31.5,10.4009800877976,-40.));
#745=CARTESIAN_POINT('Origin',(26.0000003695488,15.5,-40.));
#746=CARTESIAN_POINT('',(20.0000003695488,20.,0.));
#747=CARTESIAN_POINT('',(20.0000003695488,20.,0.));
#748=CARTESIAN_POINT('',(31.5,10.4009800877976,0.));
#749=CARTESIAN_POINT('Origin',(26.0000003695488,15.5,0.));
#750=CARTESIAN_POINT('',(31.5,10.4009800877976,0.));
#751=CARTESIAN_POINT('Origin',(31.5,20.,0.));
#752=CARTESIAN_POINT('',(-20.,20.,-40.));
#753=CARTESIAN_POINT('',(-31.5,20.,-40.));
#754=CARTESIAN_POINT('',(-20.,20.,0.));
#755=CARTESIAN_POINT('',(-20.,20.,0.));
#756=CARTESIAN_POINT('',(-31.5,20.,0.));
#757=CARTESIAN_POINT('Origin',(31.5,-20.,0.));
#758=CARTESIAN_POINT('',(31.5,-10.4009804864072,0.));
#759=CARTESIAN_POINT('',(31.5,20.,0.));
#760=CARTESIAN_POINT('',(31.5,-10.4009804864072,-40.));
#761=CARTESIAN_POINT('',(31.5,-10.4009804864072,0.));
#762=CARTESIAN_POINT('',(31.5,20.,-40.));
#763=CARTESIAN_POINT('Origin',(26.,-15.5,0.));
#764=CARTESIAN_POINT('',(20.,-20.,-40.));
#765=CARTESIAN_POINT('Origin',(26.,-15.5,-40.));
#766=CARTESIAN_POINT('',(20.,-20.,0.));
#767=CARTESIAN_POINT('Origin',(26.,-15.5,0.));
#768=CARTESIAN_POINT('',(20.,-20.,0.));
#769=CARTESIAN_POINT('Origin',(-26.0000003695488,-15.5,-40.));
#770=CARTESIAN_POINT('',(-22.6000003695488,-15.5,-40.));
#771=CARTESIAN_POINT('Origin',(-26.0000003695488,-15.5,-40.));
#772=CARTESIAN_POINT('',(-22.6000003695488,-15.5,-25.));
#773=CARTESIAN_POINT('',(-22.6000003695488,-15.5,-40.));
#774=CARTESIAN_POINT('Origin',(-26.0000003695488,-15.5,-25.));
#775=CARTESIAN_POINT('Origin',(-26.0000003695488,-15.5,-25.));
#776=CARTESIAN_POINT('Origin',(-26.,15.5,-10.));
#777=CARTESIAN_POINT('',(-21.25,15.5,-10.));
#778=CARTESIAN_POINT('Origin',(-26.,15.5,-10.));
#779=CARTESIAN_POINT('',(-21.25,15.5,-40.));
#780=CARTESIAN_POINT('',(-21.25,15.5,-10.));
#781=CARTESIAN_POINT('Origin',(-26.,15.5,-40.));
#782=CARTESIAN_POINT('Origin',(-26.,15.5,-10.));
#783=CARTESIAN_POINT('',(-23.,15.5,-10.));
#784=CARTESIAN_POINT('Origin',(-26.,15.5,-10.));
#785=CARTESIAN_POINT('Origin',(-26.,15.5,-40.));
#786=CARTESIAN_POINT('',(-23.,15.5,0.));
#787=CARTESIAN_POINT('',(-23.,15.5,-40.));
#788=CARTESIAN_POINT('Origin',(-26.,15.5,0.));
#789=CARTESIAN_POINT('Origin',(-26.0000003695488,-15.5,0.));
#790=CARTESIAN_POINT('',(-20.0000003695488,-20.,-40.));
#791=CARTESIAN_POINT('',(-31.5,-10.4009800877976,-40.));
#792=CARTESIAN_POINT('Origin',(-26.0000003695488,-15.5,-40.));
#793=CARTESIAN_POINT('',(-20.0000003695488,-20.,0.));
#794=CARTESIAN_POINT('',(-20.0000003695488,-20.,0.));
#795=CARTESIAN_POINT('',(-31.5,-10.4009800877976,0.));
#796=CARTESIAN_POINT('Origin',(-26.0000003695488,-15.5,0.));
#797=CARTESIAN_POINT('',(-31.5,-10.4009800877976,0.));
#798=CARTESIAN_POINT('Origin',(-26.,15.5,0.));
#799=CARTESIAN_POINT('',(-31.5,10.4009804864072,-40.));
#800=CARTESIAN_POINT('Origin',(-26.,15.5,-40.));
#801=CARTESIAN_POINT('',(-31.5,10.4009804864072,0.));
#802=CARTESIAN_POINT('',(-31.5,10.4009804864072,0.));
#803=CARTESIAN_POINT('Origin',(-26.,15.5,0.));
#804=CARTESIAN_POINT('Origin',(-9.2,6.4,0.));
#805=CARTESIAN_POINT('',(-9.2,6.4,0.));
#806=CARTESIAN_POINT('',(-9.2,-6.4,0.));
#807=CARTESIAN_POINT('',(-9.2,3.2,0.));
#808=CARTESIAN_POINT('',(-9.2,-6.4,-4.));
#809=CARTESIAN_POINT('',(-9.2,-6.4,0.));
#810=CARTESIAN_POINT('',(-9.2,6.4,-4.));
#811=CARTESIAN_POINT('',(-9.2,6.4,-4.));
#812=CARTESIAN_POINT('',(-9.2,6.4,0.));
#813=CARTESIAN_POINT('Origin',(9.2,6.4,0.));
#814=CARTESIAN_POINT('',(9.2,6.4,0.));
#815=CARTESIAN_POINT('',(4.6,6.4,0.));
#816=CARTESIAN_POINT('',(9.2,6.4,-4.));
#817=CARTESIAN_POINT('',(9.2,6.4,-4.));
#818=CARTESIAN_POINT('',(9.2,6.4,0.));
#819=CARTESIAN_POINT('Origin',(9.2,-6.4,0.));
#820=CARTESIAN_POINT('',(9.2,-6.4,0.));
#821=CARTESIAN_POINT('',(9.2,-3.2,0.));
#822=CARTESIAN_POINT('',(9.2,-6.4,-4.));
#823=CARTESIAN_POINT('',(9.2,-6.4,-4.));
#824=CARTESIAN_POINT('',(9.2,-6.4,0.));
#825=CARTESIAN_POINT('Origin',(-9.2,-6.4,0.));
#826=CARTESIAN_POINT('',(-4.6,-6.4,0.));
#827=CARTESIAN_POINT('',(-9.2,-6.4,-4.));
#828=CARTESIAN_POINT('Origin',(0.,1.11022302462516E-15,-4.));
#829=CARTESIAN_POINT('Origin',(8.85,-6.2,-40.));
#830=CARTESIAN_POINT('',(8.85,6.2,-40.));
#831=CARTESIAN_POINT('',(8.85,-6.2,-40.));
#832=CARTESIAN_POINT('',(8.85,-3.1,-40.));
#833=CARTESIAN_POINT('',(8.85,-6.2,-42.9));
#834=CARTESIAN_POINT('',(8.85,-6.2,-40.));
#835=CARTESIAN_POINT('',(8.85,6.2,-42.9));
#836=CARTESIAN_POINT('',(8.85,6.2,-42.9));
#837=CARTESIAN_POINT('',(8.85,6.2,-40.));
#838=CARTESIAN_POINT('Origin',(-8.85,-6.2,-40.));
#839=CARTESIAN_POINT('',(-8.85,-6.2,-40.));
#840=CARTESIAN_POINT('',(-4.425,-6.2,-40.));
#841=CARTESIAN_POINT('',(-8.85,-6.2,-42.9));
#842=CARTESIAN_POINT('',(-8.85,-6.2,-40.));
#843=CARTESIAN_POINT('',(8.85,-6.2,-42.9));
#844=CARTESIAN_POINT('Origin',(-8.85,6.2,-40.));
#845=CARTESIAN_POINT('',(-8.85,6.2,-40.));
#846=CARTESIAN_POINT('',(-8.85,3.1,-40.));
#847=CARTESIAN_POINT('',(-8.85,6.2,-42.9));
#848=CARTESIAN_POINT('',(-8.85,6.2,-40.));
#849=CARTESIAN_POINT('',(-8.85,-6.2,-42.9));
#850=CARTESIAN_POINT('Origin',(8.85,6.2,-40.));
#851=CARTESIAN_POINT('',(4.425,6.2,-40.));
#852=CARTESIAN_POINT('',(-8.85,6.2,-42.9));
#853=CARTESIAN_POINT('Origin',(2.22044604925031E-15,1.11022302462516E-15,
-42.9));
#854=CARTESIAN_POINT('Origin',(-31.5,-20.,0.));
#855=CARTESIAN_POINT('',(31.5,-20.,0.));
#856=CARTESIAN_POINT('',(31.5,-20.,-40.));
#857=CARTESIAN_POINT('Origin',(-31.5,20.,0.));
#858=CARTESIAN_POINT('',(-31.5,-20.,0.));
#859=CARTESIAN_POINT('',(-31.5,-20.,-40.));
#860=CARTESIAN_POINT('Origin',(0.,0.,-40.));
#861=CARTESIAN_POINT('Origin',(0.,0.,0.));
#862=UNCERTAINTY_MEASURE_WITH_UNIT(LENGTH_MEASURE(0.01),#866,
'DISTANCE_ACCURACY_VALUE',
'Maximum model space distance between geometric entities at asserted c
onnectivities');
#863=UNCERTAINTY_MEASURE_WITH_UNIT(LENGTH_MEASURE(0.01),#866,
'DISTANCE_ACCURACY_VALUE',
'Maximum model space distance between geometric entities at asserted c
onnectivities');
#864=(
GEOMETRIC_REPRESENTATION_CONTEXT(3)
GLOBAL_UNCERTAINTY_ASSIGNED_CONTEXT((#862))
GLOBAL_UNIT_ASSIGNED_CONTEXT((#866,#868,#869))
REPRESENTATION_CONTEXT('','3D')
);
#865=(
GEOMETRIC_REPRESENTATION_CONTEXT(3)
GLOBAL_UNCERTAINTY_ASSIGNED_CONTEXT((#863))
GLOBAL_UNIT_ASSIGNED_CONTEXT((#866,#868,#869))
REPRESENTATION_CONTEXT('','3D')
);
#866=(
LENGTH_UNIT()
NAMED_UNIT(*)
SI_UNIT(.MILLI.,.METRE.)
);
#867=(
LENGTH_UNIT()
NAMED_UNIT(*)
SI_UNIT($,.METRE.)
);
#868=(
NAMED_UNIT(*)
PLANE_ANGLE_UNIT()
SI_UNIT($,.RADIAN.)
);
#869=(
NAMED_UNIT(*)
SI_UNIT($,.STERADIAN.)
SOLID_ANGLE_UNIT()
);
#870=SHAPE_DEFINITION_REPRESENTATION(#871,#872);
#871=PRODUCT_DEFINITION_SHAPE('',$,#874);
#872=SHAPE_REPRESENTATION('',(#522),#864);
#873=PRODUCT_DEFINITION_CONTEXT('part definition',#878,'design');
#874=PRODUCT_DEFINITION('Block_extention_z-axis_40mm v2(Mirror)',
'Block_extention_z-axis_40mm v2(Mirror)',#875,#873);
#875=PRODUCT_DEFINITION_FORMATION('',$,#880);
#876=PRODUCT_RELATED_PRODUCT_CATEGORY(
'Block_extention_z-axis_40mm v2(Mirror)',
'Block_extention_z-axis_40mm v2(Mirror)',(#880));
#877=APPLICATION_PROTOCOL_DEFINITION('international standard',
'automotive_design',2009,#878);
#878=APPLICATION_CONTEXT(
'Core Data for Automotive Mechanical Design Process');
#879=PRODUCT_CONTEXT('part definition',#878,'mechanical');
#880=PRODUCT('Block_extention_z-axis_40mm v2(Mirror)',
'Block_extention_z-axis_40mm v2(Mirror)',$,(#879));
#881=PRESENTATION_STYLE_ASSIGNMENT((#882));
#882=SURFACE_STYLE_USAGE(.BOTH.,#883);
#883=SURFACE_SIDE_STYLE('',(#884));
#884=SURFACE_STYLE_FILL_AREA(#885);
#885=FILL_AREA_STYLE('Steel - Satin',(#886));
#886=FILL_AREA_STYLE_COLOUR('Steel - Satin',#887);
#887=COLOUR_RGB('Steel - Satin',0.627450980392157,0.627450980392157,0.627450980392157);
ENDSEC;
END-ISO-10303-21;
