ISO-10303-21;
HEADER;
/* Generated by software containing ST-Developer
 * from STEP Tools, Inc. (www.steptools.com) 
 */

FILE_DESCRIPTION(
/* description */ (''),
/* implementation_level */ '2;1');

FILE_NAME(
/* name */ 'PRT_Upper Plate.step',
/* time_stamp */ '2026-10-02T15:59:25-04:00',
/* author */ (''),
/* organization */ (''),
/* preprocessor_version */ 'ST-DEVELOPER v20.2',
/* originating_system */ 'Autodesk Translation Framework v15.15.0.0',
/* authorisation */ '');

FILE_SCHEMA (('AUTOMOTIVE_DESIGN { 1 0 10303 214 3 1 1 }'));
ENDSEC;

DATA;
#10=MECHANICAL_DESIGN_GEOMETRIC_PRESENTATION_REPRESENTATION('',(#13),#799);
#11=SHAPE_REPRESENTATION_RELATIONSHIP('SRR','None',#806,#12);
#12=ADVANCED_BREP_SHAPE_REPRESENTATION('',(#14),#798);
#13=STYLED_ITEM('',(#815),#14);
#14=MANIFOLD_SOLID_BREP('Body1',#383);
#15=TOROIDAL_SURFACE('',#411,35.5,4.);
#16=TOROIDAL_SURFACE('',#416,35.5,4.);
#17=TOROIDAL_SURFACE('',#421,35.5,4.);
#18=TOROIDAL_SURFACE('',#426,35.5,4.);
#19=B_SPLINE_CURVE_WITH_KNOTS('',3,(#582,#583,#584,#585,#586,#587,#588,
#589,#590,#591,#592,#593,#594,#595,#596,#597,#598,#599),.UNSPECIFIED.,.F.,
 .F.,(4,2,2,2,2,2,2,2,4),(0.,0.0739866919678845,0.147973383935769,0.222052188542155,
0.296130993148542,0.370334477175722,0.444537961202902,0.51886897737189,
0.593199993540877),.UNSPECIFIED.);
#20=B_SPLINE_CURVE_WITH_KNOTS('',3,(#606,#607,#608,#609,#610,#611,#612,
#613,#614,#615,#616,#617,#618,#619,#620,#621,#622,#623),.UNSPECIFIED.,.F.,
 .F.,(4,2,2,2,2,2,2,2,4),(-0.593199993540877,-0.51886897737189,-0.444537961202903,
-0.370334477175722,-0.296130993148542,-0.222052188542155,-0.147973383935769,
-0.0739866919678844,0.),.UNSPECIFIED.);
#21=B_SPLINE_CURVE_WITH_KNOTS('',3,(#631,#632,#633,#634,#635,#636,#637,
#638,#639,#640,#641,#642,#643,#644,#645,#646,#647,#648),.UNSPECIFIED.,.F.,
 .F.,(4,2,2,2,2,2,2,2,4),(-0.593199993540877,-0.51886897737189,-0.444537961202903,
-0.370334477175722,-0.296130993148542,-0.222052188542155,-0.147973383935769,
-0.0739866919678844,0.),.UNSPECIFIED.);
#22=B_SPLINE_CURVE_WITH_KNOTS('',3,(#653,#654,#655,#656,#657,#658,#659,
#660,#661,#662,#663,#664,#665,#666,#667,#668,#669,#670),.UNSPECIFIED.,.F.,
 .F.,(4,2,2,2,2,2,2,2,4),(0.,0.0739866919678845,0.147973383935769,0.222052188542155,
0.296130993148542,0.370334477175722,0.444537961202902,0.51886897737189,
0.593199993540877),.UNSPECIFIED.);
#23=B_SPLINE_CURVE_WITH_KNOTS('',3,(#677,#678,#679,#680,#681,#682,#683,
#684,#685,#686,#687,#688,#689,#690,#691,#692,#693,#694),.UNSPECIFIED.,.F.,
 .F.,(4,2,2,2,2,2,2,2,4),(-0.593199993540877,-0.51886897737189,-0.444537961202903,
-0.370334477175722,-0.296130993148542,-0.222052188542155,-0.147973383935769,
-0.0739866919678844,0.),.UNSPECIFIED.);
#24=B_SPLINE_CURVE_WITH_KNOTS('',3,(#704,#705,#706,#707,#708,#709,#710,
#711,#712,#713,#714,#715,#716,#717,#718,#719,#720,#721),.UNSPECIFIED.,.F.,
 .F.,(4,2,2,2,2,2,2,2,4),(0.,0.0739866919678845,0.147973383935769,0.222052188542155,
0.296130993148542,0.370334477175722,0.444537961202902,0.51886897737189,
0.593199993540877),.UNSPECIFIED.);
#25=B_SPLINE_CURVE_WITH_KNOTS('',3,(#728,#729,#730,#731,#732,#733,#734,
#735,#736,#737,#738,#739,#740,#741,#742,#743,#744,#745),.UNSPECIFIED.,.F.,
 .F.,(4,2,2,2,2,2,2,2,4),(-0.593199993540877,-0.51886897737189,-0.444537961202903,
-0.370334477175722,-0.296130993148542,-0.222052188542155,-0.147973383935769,
-0.0739866919678844,0.),.UNSPECIFIED.);
#26=B_SPLINE_CURVE_WITH_KNOTS('',3,(#755,#756,#757,#758,#759,#760,#761,
#762,#763,#764,#765,#766,#767,#768,#769,#770,#771,#772),.UNSPECIFIED.,.F.,
 .F.,(4,2,2,2,2,2,2,2,4),(0.,0.0739866919678845,0.147973383935769,0.222052188542155,
0.296130993148542,0.370334477175722,0.444537961202902,0.51886897737189,
0.593199993540877),.UNSPECIFIED.);
#27=CYLINDRICAL_SURFACE('',#401,1.);
#28=CYLINDRICAL_SURFACE('',#408,40.5);
#29=CYLINDRICAL_SURFACE('',#429,39.5);
#30=CYLINDRICAL_SURFACE('',#437,1.6);
#31=FACE_BOUND('',#56,.T.);
#32=FACE_BOUND('',#59,.T.);
#33=FACE_BOUND('',#77,.T.);
#34=FACE_OUTER_BOUND('',#55,.T.);
#35=FACE_OUTER_BOUND('',#57,.T.);
#36=FACE_OUTER_BOUND('',#58,.T.);
#37=FACE_OUTER_BOUND('',#60,.T.);
#38=FACE_OUTER_BOUND('',#61,.T.);
#39=FACE_OUTER_BOUND('',#62,.T.);
#40=FACE_OUTER_BOUND('',#63,.T.);
#41=FACE_OUTER_BOUND('',#64,.T.);
#42=FACE_OUTER_BOUND('',#65,.T.);
#43=FACE_OUTER_BOUND('',#66,.T.);
#44=FACE_OUTER_BOUND('',#67,.T.);
#45=FACE_OUTER_BOUND('',#68,.T.);
#46=FACE_OUTER_BOUND('',#69,.T.);
#47=FACE_OUTER_BOUND('',#70,.T.);
#48=FACE_OUTER_BOUND('',#71,.T.);
#49=FACE_OUTER_BOUND('',#72,.T.);
#50=FACE_OUTER_BOUND('',#73,.T.);
#51=FACE_OUTER_BOUND('',#74,.T.);
#52=FACE_OUTER_BOUND('',#75,.T.);
#53=FACE_OUTER_BOUND('',#76,.T.);
#54=FACE_OUTER_BOUND('',#78,.T.);
#55=EDGE_LOOP('',(#241,#242,#243,#244));
#56=EDGE_LOOP('',(#245));
#57=EDGE_LOOP('',(#246,#247,#248,#249));
#58=EDGE_LOOP('',(#250,#251,#252,#253));
#59=EDGE_LOOP('',(#254));
#60=EDGE_LOOP('',(#255,#256,#257,#258));
#61=EDGE_LOOP('',(#259,#260,#261,#262));
#62=EDGE_LOOP('',(#263,#264,#265,#266));
#63=EDGE_LOOP('',(#267,#268,#269));
#64=EDGE_LOOP('',(#270,#271,#272));
#65=EDGE_LOOP('',(#273,#274,#275,#276));
#66=EDGE_LOOP('',(#277,#278,#279));
#67=EDGE_LOOP('',(#280,#281,#282));
#68=EDGE_LOOP('',(#283,#284,#285,#286));
#69=EDGE_LOOP('',(#287,#288,#289));
#70=EDGE_LOOP('',(#290,#291,#292));
#71=EDGE_LOOP('',(#293,#294,#295,#296));
#72=EDGE_LOOP('',(#297,#298,#299));
#73=EDGE_LOOP('',(#300,#301,#302));
#74=EDGE_LOOP('',(#303,#304,#305,#306));
#75=EDGE_LOOP('',(#307,#308,#309,#310,#311,#312,#313,#314,#315,#316,#317,
#318,#319,#320,#321,#322,#323,#324,#325,#326));
#76=EDGE_LOOP('',(#327,#328,#329,#330,#331,#332,#333,#334,#335,#336,#337,
#338,#339,#340,#341,#342,#343));
#77=EDGE_LOOP('',(#344));
#78=EDGE_LOOP('',(#345,#346,#347,#348));
#79=LINE('',#554,#105);
#80=LINE('',#557,#106);
#81=LINE('',#562,#107);
#82=LINE('',#565,#108);
#83=LINE('',#568,#109);
#84=LINE('',#571,#110);
#85=LINE('',#575,#111);
#86=LINE('',#577,#112);
#87=LINE('',#601,#113);
#88=LINE('',#602,#114);
#89=LINE('',#625,#115);
#90=LINE('',#626,#116);
#91=LINE('',#672,#117);
#92=LINE('',#673,#118);
#93=LINE('',#696,#119);
#94=LINE('',#697,#120);
#95=LINE('',#723,#121);
#96=LINE('',#724,#122);
#97=LINE('',#747,#123);
#98=LINE('',#748,#124);
#99=LINE('',#774,#125);
#100=LINE('',#775,#126);
#101=LINE('',#778,#127);
#102=LINE('',#779,#128);
#103=LINE('',#785,#129);
#104=LINE('',#795,#130);
#105=VECTOR('',#444,10.);
#106=VECTOR('',#447,10.);
#107=VECTOR('',#452,10.);
#108=VECTOR('',#455,10.);
#109=VECTOR('',#458,10.);
#110=VECTOR('',#461,10.);
#111=VECTOR('',#466,10.);
#112=VECTOR('',#469,10.);
#113=VECTOR('',#474,10.);
#114=VECTOR('',#475,10.);
#115=VECTOR('',#478,10.);
#116=VECTOR('',#479,10.);
#117=VECTOR('',#488,10.);
#118=VECTOR('',#489,10.);
#119=VECTOR('',#492,10.);
#120=VECTOR('',#493,10.);
#121=VECTOR('',#502,10.);
#122=VECTOR('',#503,10.);
#123=VECTOR('',#506,10.);
#124=VECTOR('',#507,10.);
#125=VECTOR('',#516,10.);
#126=VECTOR('',#517,10.);
#127=VECTOR('',#520,10.);
#128=VECTOR('',#521,10.);
#129=VECTOR('',#530,39.5);
#130=VECTOR('',#547,1.6);
#131=CIRCLE('',#398,1.);
#132=CIRCLE('',#399,40.5);
#133=CIRCLE('',#400,39.5);
#134=CIRCLE('',#402,1.);
#135=CIRCLE('',#404,40.5);
#136=CIRCLE('',#405,1.6);
#137=CIRCLE('',#412,35.5);
#138=CIRCLE('',#413,39.5);
#139=CIRCLE('',#417,39.5);
#140=CIRCLE('',#418,35.5);
#141=CIRCLE('',#422,39.5);
#142=CIRCLE('',#423,35.5);
#143=CIRCLE('',#427,39.5);
#144=CIRCLE('',#428,35.5);
#145=CIRCLE('',#430,39.5);
#146=CIRCLE('',#431,39.5);
#147=CIRCLE('',#432,39.5);
#148=CIRCLE('',#433,39.5);
#149=CIRCLE('',#434,39.5);
#150=CIRCLE('',#436,1.6);
#151=VERTEX_POINT('',#550);
#152=VERTEX_POINT('',#551);
#153=VERTEX_POINT('',#553);
#154=VERTEX_POINT('',#555);
#155=VERTEX_POINT('',#558);
#156=VERTEX_POINT('',#561);
#157=VERTEX_POINT('',#563);
#158=VERTEX_POINT('',#567);
#159=VERTEX_POINT('',#569);
#160=VERTEX_POINT('',#572);
#161=VERTEX_POINT('',#580);
#162=VERTEX_POINT('',#581);
#163=VERTEX_POINT('',#600);
#164=VERTEX_POINT('',#604);
#165=VERTEX_POINT('',#605);
#166=VERTEX_POINT('',#624);
#167=VERTEX_POINT('',#628);
#168=VERTEX_POINT('',#630);
#169=VERTEX_POINT('',#651);
#170=VERTEX_POINT('',#652);
#171=VERTEX_POINT('',#671);
#172=VERTEX_POINT('',#675);
#173=VERTEX_POINT('',#676);
#174=VERTEX_POINT('',#695);
#175=VERTEX_POINT('',#702);
#176=VERTEX_POINT('',#703);
#177=VERTEX_POINT('',#722);
#178=VERTEX_POINT('',#726);
#179=VERTEX_POINT('',#727);
#180=VERTEX_POINT('',#746);
#181=VERTEX_POINT('',#753);
#182=VERTEX_POINT('',#754);
#183=VERTEX_POINT('',#773);
#184=VERTEX_POINT('',#777);
#185=VERTEX_POINT('',#784);
#186=VERTEX_POINT('',#792);
#187=EDGE_CURVE('',#151,#152,#131,.T.);
#188=EDGE_CURVE('',#153,#151,#79,.T.);
#189=EDGE_CURVE('',#153,#154,#132,.T.);
#190=EDGE_CURVE('',#152,#154,#80,.T.);
#191=EDGE_CURVE('',#155,#155,#133,.T.);
#192=EDGE_CURVE('',#152,#156,#81,.T.);
#193=EDGE_CURVE('',#156,#157,#134,.T.);
#194=EDGE_CURVE('',#157,#151,#82,.T.);
#195=EDGE_CURVE('',#158,#156,#83,.T.);
#196=EDGE_CURVE('',#158,#159,#135,.T.);
#197=EDGE_CURVE('',#157,#159,#84,.T.);
#198=EDGE_CURVE('',#160,#160,#136,.T.);
#199=EDGE_CURVE('',#153,#159,#85,.T.);
#200=EDGE_CURVE('',#158,#154,#86,.T.);
#201=EDGE_CURVE('',#161,#162,#19,.T.);
#202=EDGE_CURVE('',#161,#163,#87,.T.);
#203=EDGE_CURVE('',#163,#162,#88,.T.);
#204=EDGE_CURVE('',#164,#165,#20,.T.);
#205=EDGE_CURVE('',#164,#166,#89,.T.);
#206=EDGE_CURVE('',#165,#166,#90,.T.);
#207=EDGE_CURVE('',#162,#167,#137,.T.);
#208=EDGE_CURVE('',#167,#168,#21,.T.);
#209=EDGE_CURVE('',#168,#161,#138,.T.);
#210=EDGE_CURVE('',#169,#170,#22,.T.);
#211=EDGE_CURVE('',#169,#171,#91,.T.);
#212=EDGE_CURVE('',#171,#170,#92,.T.);
#213=EDGE_CURVE('',#172,#173,#23,.T.);
#214=EDGE_CURVE('',#172,#174,#93,.T.);
#215=EDGE_CURVE('',#173,#174,#94,.T.);
#216=EDGE_CURVE('',#165,#169,#139,.T.);
#217=EDGE_CURVE('',#170,#164,#140,.T.);
#218=EDGE_CURVE('',#175,#176,#24,.T.);
#219=EDGE_CURVE('',#175,#177,#95,.T.);
#220=EDGE_CURVE('',#177,#176,#96,.T.);
#221=EDGE_CURVE('',#178,#179,#25,.T.);
#222=EDGE_CURVE('',#178,#180,#97,.T.);
#223=EDGE_CURVE('',#179,#180,#98,.T.);
#224=EDGE_CURVE('',#173,#175,#141,.T.);
#225=EDGE_CURVE('',#176,#172,#142,.T.);
#226=EDGE_CURVE('',#181,#182,#26,.T.);
#227=EDGE_CURVE('',#181,#183,#99,.T.);
#228=EDGE_CURVE('',#183,#182,#100,.T.);
#229=EDGE_CURVE('',#167,#184,#101,.T.);
#230=EDGE_CURVE('',#168,#184,#102,.T.);
#231=EDGE_CURVE('',#179,#181,#143,.T.);
#232=EDGE_CURVE('',#182,#178,#144,.T.);
#233=EDGE_CURVE('',#155,#185,#103,.T.);
#234=EDGE_CURVE('',#185,#177,#145,.T.);
#235=EDGE_CURVE('',#174,#171,#146,.T.);
#236=EDGE_CURVE('',#166,#163,#147,.T.);
#237=EDGE_CURVE('',#184,#183,#148,.T.);
#238=EDGE_CURVE('',#180,#185,#149,.T.);
#239=EDGE_CURVE('',#186,#186,#150,.T.);
#240=EDGE_CURVE('',#186,#160,#104,.T.);
#241=ORIENTED_EDGE('',*,*,#187,.F.);
#242=ORIENTED_EDGE('',*,*,#188,.F.);
#243=ORIENTED_EDGE('',*,*,#189,.T.);
#244=ORIENTED_EDGE('',*,*,#190,.F.);
#245=ORIENTED_EDGE('',*,*,#191,.T.);
#246=ORIENTED_EDGE('',*,*,#187,.T.);
#247=ORIENTED_EDGE('',*,*,#192,.T.);
#248=ORIENTED_EDGE('',*,*,#193,.T.);
#249=ORIENTED_EDGE('',*,*,#194,.T.);
#250=ORIENTED_EDGE('',*,*,#193,.F.);
#251=ORIENTED_EDGE('',*,*,#195,.F.);
#252=ORIENTED_EDGE('',*,*,#196,.T.);
#253=ORIENTED_EDGE('',*,*,#197,.F.);
#254=ORIENTED_EDGE('',*,*,#198,.T.);
#255=ORIENTED_EDGE('',*,*,#194,.F.);
#256=ORIENTED_EDGE('',*,*,#197,.T.);
#257=ORIENTED_EDGE('',*,*,#199,.F.);
#258=ORIENTED_EDGE('',*,*,#188,.T.);
#259=ORIENTED_EDGE('',*,*,#192,.F.);
#260=ORIENTED_EDGE('',*,*,#190,.T.);
#261=ORIENTED_EDGE('',*,*,#200,.F.);
#262=ORIENTED_EDGE('',*,*,#195,.T.);
#263=ORIENTED_EDGE('',*,*,#199,.T.);
#264=ORIENTED_EDGE('',*,*,#196,.F.);
#265=ORIENTED_EDGE('',*,*,#200,.T.);
#266=ORIENTED_EDGE('',*,*,#189,.F.);
#267=ORIENTED_EDGE('',*,*,#201,.F.);
#268=ORIENTED_EDGE('',*,*,#202,.T.);
#269=ORIENTED_EDGE('',*,*,#203,.T.);
#270=ORIENTED_EDGE('',*,*,#204,.F.);
#271=ORIENTED_EDGE('',*,*,#205,.T.);
#272=ORIENTED_EDGE('',*,*,#206,.F.);
#273=ORIENTED_EDGE('',*,*,#201,.T.);
#274=ORIENTED_EDGE('',*,*,#207,.T.);
#275=ORIENTED_EDGE('',*,*,#208,.T.);
#276=ORIENTED_EDGE('',*,*,#209,.T.);
#277=ORIENTED_EDGE('',*,*,#210,.F.);
#278=ORIENTED_EDGE('',*,*,#211,.T.);
#279=ORIENTED_EDGE('',*,*,#212,.T.);
#280=ORIENTED_EDGE('',*,*,#213,.F.);
#281=ORIENTED_EDGE('',*,*,#214,.T.);
#282=ORIENTED_EDGE('',*,*,#215,.F.);
#283=ORIENTED_EDGE('',*,*,#204,.T.);
#284=ORIENTED_EDGE('',*,*,#216,.T.);
#285=ORIENTED_EDGE('',*,*,#210,.T.);
#286=ORIENTED_EDGE('',*,*,#217,.T.);
#287=ORIENTED_EDGE('',*,*,#218,.F.);
#288=ORIENTED_EDGE('',*,*,#219,.T.);
#289=ORIENTED_EDGE('',*,*,#220,.T.);
#290=ORIENTED_EDGE('',*,*,#221,.F.);
#291=ORIENTED_EDGE('',*,*,#222,.T.);
#292=ORIENTED_EDGE('',*,*,#223,.F.);
#293=ORIENTED_EDGE('',*,*,#213,.T.);
#294=ORIENTED_EDGE('',*,*,#224,.T.);
#295=ORIENTED_EDGE('',*,*,#218,.T.);
#296=ORIENTED_EDGE('',*,*,#225,.T.);
#297=ORIENTED_EDGE('',*,*,#226,.F.);
#298=ORIENTED_EDGE('',*,*,#227,.T.);
#299=ORIENTED_EDGE('',*,*,#228,.T.);
#300=ORIENTED_EDGE('',*,*,#208,.F.);
#301=ORIENTED_EDGE('',*,*,#229,.T.);
#302=ORIENTED_EDGE('',*,*,#230,.F.);
#303=ORIENTED_EDGE('',*,*,#221,.T.);
#304=ORIENTED_EDGE('',*,*,#231,.T.);
#305=ORIENTED_EDGE('',*,*,#226,.T.);
#306=ORIENTED_EDGE('',*,*,#232,.T.);
#307=ORIENTED_EDGE('',*,*,#191,.F.);
#308=ORIENTED_EDGE('',*,*,#233,.T.);
#309=ORIENTED_EDGE('',*,*,#234,.T.);
#310=ORIENTED_EDGE('',*,*,#219,.F.);
#311=ORIENTED_EDGE('',*,*,#224,.F.);
#312=ORIENTED_EDGE('',*,*,#215,.T.);
#313=ORIENTED_EDGE('',*,*,#235,.T.);
#314=ORIENTED_EDGE('',*,*,#211,.F.);
#315=ORIENTED_EDGE('',*,*,#216,.F.);
#316=ORIENTED_EDGE('',*,*,#206,.T.);
#317=ORIENTED_EDGE('',*,*,#236,.T.);
#318=ORIENTED_EDGE('',*,*,#202,.F.);
#319=ORIENTED_EDGE('',*,*,#209,.F.);
#320=ORIENTED_EDGE('',*,*,#230,.T.);
#321=ORIENTED_EDGE('',*,*,#237,.T.);
#322=ORIENTED_EDGE('',*,*,#227,.F.);
#323=ORIENTED_EDGE('',*,*,#231,.F.);
#324=ORIENTED_EDGE('',*,*,#223,.T.);
#325=ORIENTED_EDGE('',*,*,#238,.T.);
#326=ORIENTED_EDGE('',*,*,#233,.F.);
#327=ORIENTED_EDGE('',*,*,#232,.F.);
#328=ORIENTED_EDGE('',*,*,#228,.F.);
#329=ORIENTED_EDGE('',*,*,#237,.F.);
#330=ORIENTED_EDGE('',*,*,#229,.F.);
#331=ORIENTED_EDGE('',*,*,#207,.F.);
#332=ORIENTED_EDGE('',*,*,#203,.F.);
#333=ORIENTED_EDGE('',*,*,#236,.F.);
#334=ORIENTED_EDGE('',*,*,#205,.F.);
#335=ORIENTED_EDGE('',*,*,#217,.F.);
#336=ORIENTED_EDGE('',*,*,#212,.F.);
#337=ORIENTED_EDGE('',*,*,#235,.F.);
#338=ORIENTED_EDGE('',*,*,#214,.F.);
#339=ORIENTED_EDGE('',*,*,#225,.F.);
#340=ORIENTED_EDGE('',*,*,#220,.F.);
#341=ORIENTED_EDGE('',*,*,#234,.F.);
#342=ORIENTED_EDGE('',*,*,#238,.F.);
#343=ORIENTED_EDGE('',*,*,#222,.F.);
#344=ORIENTED_EDGE('',*,*,#239,.T.);
#345=ORIENTED_EDGE('',*,*,#239,.F.);
#346=ORIENTED_EDGE('',*,*,#240,.T.);
#347=ORIENTED_EDGE('',*,*,#198,.F.);
#348=ORIENTED_EDGE('',*,*,#240,.F.);
#349=PLANE('',#397);
#350=PLANE('',#403);
#351=PLANE('',#406);
#352=PLANE('',#407);
#353=PLANE('',#409);
#354=PLANE('',#410);
#355=PLANE('',#414);
#356=PLANE('',#415);
#357=PLANE('',#419);
#358=PLANE('',#420);
#359=PLANE('',#424);
#360=PLANE('',#425);
#361=PLANE('',#435);
#362=ADVANCED_FACE('',(#34,#31),#349,.T.);
#363=ADVANCED_FACE('',(#35),#27,.T.);
#364=ADVANCED_FACE('',(#36,#32),#350,.T.);
#365=ADVANCED_FACE('',(#37),#351,.T.);
#366=ADVANCED_FACE('',(#38),#352,.T.);
#367=ADVANCED_FACE('',(#39),#28,.T.);
#368=ADVANCED_FACE('',(#40),#353,.F.);
#369=ADVANCED_FACE('',(#41),#354,.F.);
#370=ADVANCED_FACE('',(#42),#15,.F.);
#371=ADVANCED_FACE('',(#43),#355,.F.);
#372=ADVANCED_FACE('',(#44),#356,.F.);
#373=ADVANCED_FACE('',(#45),#16,.F.);
#374=ADVANCED_FACE('',(#46),#357,.F.);
#375=ADVANCED_FACE('',(#47),#358,.F.);
#376=ADVANCED_FACE('',(#48),#17,.F.);
#377=ADVANCED_FACE('',(#49),#359,.F.);
#378=ADVANCED_FACE('',(#50),#360,.F.);
#379=ADVANCED_FACE('',(#51),#18,.F.);
#380=ADVANCED_FACE('',(#52),#29,.F.);
#381=ADVANCED_FACE('',(#53,#33),#361,.F.);
#382=ADVANCED_FACE('',(#54),#30,.F.);
#383=CLOSED_SHELL('',(#362,#363,#364,#365,#366,#367,#368,#369,#370,#371,
#372,#373,#374,#375,#376,#377,#378,#379,#380,#381,#382));
#384=DERIVED_UNIT_ELEMENT(#386,1.);
#385=DERIVED_UNIT_ELEMENT(#801,-3.);
#386=(
MASS_UNIT()
NAMED_UNIT(*)
SI_UNIT(.KILO.,.GRAM.)
);
#387=DERIVED_UNIT((#384,#385));
#388=MEASURE_REPRESENTATION_ITEM('density measure',
POSITIVE_RATIO_MEASURE(7850.),#387);
#389=PROPERTY_DEFINITION_REPRESENTATION(#394,#391);
#390=PROPERTY_DEFINITION_REPRESENTATION(#395,#392);
#391=REPRESENTATION('material name',(#393),#798);
#392=REPRESENTATION('density',(#388),#798);
#393=DESCRIPTIVE_REPRESENTATION_ITEM('Steel','Steel');
#394=PROPERTY_DEFINITION('material property','material name',#808);
#395=PROPERTY_DEFINITION('material property','density of part',#808);
#396=AXIS2_PLACEMENT_3D('',#548,#438,#439);
#397=AXIS2_PLACEMENT_3D('',#549,#440,#441);
#398=AXIS2_PLACEMENT_3D('',#552,#442,#443);
#399=AXIS2_PLACEMENT_3D('',#556,#445,#446);
#400=AXIS2_PLACEMENT_3D('',#559,#448,#449);
#401=AXIS2_PLACEMENT_3D('',#560,#450,#451);
#402=AXIS2_PLACEMENT_3D('',#564,#453,#454);
#403=AXIS2_PLACEMENT_3D('',#566,#456,#457);
#404=AXIS2_PLACEMENT_3D('',#570,#459,#460);
#405=AXIS2_PLACEMENT_3D('',#573,#462,#463);
#406=AXIS2_PLACEMENT_3D('',#574,#464,#465);
#407=AXIS2_PLACEMENT_3D('',#576,#467,#468);
#408=AXIS2_PLACEMENT_3D('',#578,#470,#471);
#409=AXIS2_PLACEMENT_3D('',#579,#472,#473);
#410=AXIS2_PLACEMENT_3D('',#603,#476,#477);
#411=AXIS2_PLACEMENT_3D('',#627,#480,#481);
#412=AXIS2_PLACEMENT_3D('',#629,#482,#483);
#413=AXIS2_PLACEMENT_3D('',#649,#484,#485);
#414=AXIS2_PLACEMENT_3D('',#650,#486,#487);
#415=AXIS2_PLACEMENT_3D('',#674,#490,#491);
#416=AXIS2_PLACEMENT_3D('',#698,#494,#495);
#417=AXIS2_PLACEMENT_3D('',#699,#496,#497);
#418=AXIS2_PLACEMENT_3D('',#700,#498,#499);
#419=AXIS2_PLACEMENT_3D('',#701,#500,#501);
#420=AXIS2_PLACEMENT_3D('',#725,#504,#505);
#421=AXIS2_PLACEMENT_3D('',#749,#508,#509);
#422=AXIS2_PLACEMENT_3D('',#750,#510,#511);
#423=AXIS2_PLACEMENT_3D('',#751,#512,#513);
#424=AXIS2_PLACEMENT_3D('',#752,#514,#515);
#425=AXIS2_PLACEMENT_3D('',#776,#518,#519);
#426=AXIS2_PLACEMENT_3D('',#780,#522,#523);
#427=AXIS2_PLACEMENT_3D('',#781,#524,#525);
#428=AXIS2_PLACEMENT_3D('',#782,#526,#527);
#429=AXIS2_PLACEMENT_3D('',#783,#528,#529);
#430=AXIS2_PLACEMENT_3D('',#786,#531,#532);
#431=AXIS2_PLACEMENT_3D('',#787,#533,#534);
#432=AXIS2_PLACEMENT_3D('',#788,#535,#536);
#433=AXIS2_PLACEMENT_3D('',#789,#537,#538);
#434=AXIS2_PLACEMENT_3D('',#790,#539,#540);
#435=AXIS2_PLACEMENT_3D('',#791,#541,#542);
#436=AXIS2_PLACEMENT_3D('',#793,#543,#544);
#437=AXIS2_PLACEMENT_3D('',#794,#545,#546);
#438=DIRECTION('axis',(0.,0.,1.));
#439=DIRECTION('refdir',(1.,0.,0.));
#440=DIRECTION('center_axis',(0.,0.,-1.));
#441=DIRECTION('ref_axis',(-1.,0.,0.));
#442=DIRECTION('center_axis',(0.,0.,1.));
#443=DIRECTION('ref_axis',(-0.707106781186549,0.707106781186546,0.));
#444=DIRECTION('',(2.77555756156288E-16,1.,0.));
#445=DIRECTION('center_axis',(0.,0.,-1.));
#446=DIRECTION('ref_axis',(1.,0.,0.));
#447=DIRECTION('',(-6.93889390390719E-16,-1.,0.));
#448=DIRECTION('center_axis',(0.,0.,1.));
#449=DIRECTION('ref_axis',(1.,0.,0.));
#450=DIRECTION('center_axis',(0.,0.,-1.));
#451=DIRECTION('ref_axis',(0.707106781186549,0.707106781186546,0.));
#452=DIRECTION('',(0.,0.,1.));
#453=DIRECTION('center_axis',(0.,0.,-1.));
#454=DIRECTION('ref_axis',(0.707106781186549,0.707106781186546,0.));
#455=DIRECTION('',(0.,0.,-1.));
#456=DIRECTION('center_axis',(0.,0.,1.));
#457=DIRECTION('ref_axis',(1.,0.,0.));
#458=DIRECTION('',(6.93889390390719E-16,1.,0.));
#459=DIRECTION('center_axis',(0.,0.,1.));
#460=DIRECTION('ref_axis',(1.,0.,0.));
#461=DIRECTION('',(-2.77555756156288E-16,-1.,0.));
#462=DIRECTION('center_axis',(0.,0.,-1.));
#463=DIRECTION('ref_axis',(1.,0.,0.));
#464=DIRECTION('center_axis',(1.,-2.77555756156288E-16,0.));
#465=DIRECTION('ref_axis',(-2.77555756156288E-16,-1.,0.));
#466=DIRECTION('',(0.,0.,1.));
#467=DIRECTION('center_axis',(-1.,6.93889390390719E-16,0.));
#468=DIRECTION('ref_axis',(6.93889390390719E-16,1.,0.));
#469=DIRECTION('',(0.,0.,-1.));
#470=DIRECTION('center_axis',(0.,0.,-1.));
#471=DIRECTION('ref_axis',(6.12323399573677E-17,-1.,0.));
#472=DIRECTION('center_axis',(8.90309506677932E-15,1.,0.));
#473=DIRECTION('ref_axis',(-1.,8.90309506677932E-15,0.));
#474=DIRECTION('',(0.,0.,1.));
#475=DIRECTION('',(-1.,8.90309506677932E-15,0.));
#476=DIRECTION('center_axis',(-1.83697019872103E-16,-1.,0.));
#477=DIRECTION('ref_axis',(1.,-1.83697019872103E-16,0.));
#478=DIRECTION('',(1.,-1.83697019872103E-16,0.));
#479=DIRECTION('',(0.,0.,1.));
#480=DIRECTION('center_axis',(0.,0.,-1.));
#481=DIRECTION('ref_axis',(-1.,0.,0.));
#482=DIRECTION('center_axis',(0.,0.,1.));
#483=DIRECTION('ref_axis',(1.,0.,0.));
#484=DIRECTION('center_axis',(0.,0.,-1.));
#485=DIRECTION('ref_axis',(1.,0.,0.));
#486=DIRECTION('center_axis',(1.,-8.84186272682195E-15,0.));
#487=DIRECTION('ref_axis',(8.84186272682195E-15,1.,0.));
#488=DIRECTION('',(0.,0.,1.));
#489=DIRECTION('',(8.84186272682195E-15,1.,0.));
#490=DIRECTION('center_axis',(-1.,1.22464679914735E-16,0.));
#491=DIRECTION('ref_axis',(-1.22464679914735E-16,-1.,0.));
#492=DIRECTION('',(-1.22464679914735E-16,-1.,0.));
#493=DIRECTION('',(0.,0.,1.));
#494=DIRECTION('center_axis',(0.,0.,-1.));
#495=DIRECTION('ref_axis',(-1.,0.,0.));
#496=DIRECTION('center_axis',(0.,0.,-1.));
#497=DIRECTION('ref_axis',(1.,0.,0.));
#498=DIRECTION('center_axis',(0.,0.,1.));
#499=DIRECTION('ref_axis',(1.,0.,0.));
#500=DIRECTION('center_axis',(-8.78063038686458E-15,-1.,0.));
#501=DIRECTION('ref_axis',(1.,-8.78063038686458E-15,0.));
#502=DIRECTION('',(0.,0.,1.));
#503=DIRECTION('',(1.,-8.78063038686458E-15,0.));
#504=DIRECTION('center_axis',(6.12323399573677E-17,1.,0.));
#505=DIRECTION('ref_axis',(-1.,6.12323399573677E-17,0.));
#506=DIRECTION('',(-1.,6.12323399573677E-17,0.));
#507=DIRECTION('',(0.,0.,1.));
#508=DIRECTION('center_axis',(0.,0.,-1.));
#509=DIRECTION('ref_axis',(-1.,0.,0.));
#510=DIRECTION('center_axis',(0.,0.,-1.));
#511=DIRECTION('ref_axis',(1.,0.,0.));
#512=DIRECTION('center_axis',(0.,0.,1.));
#513=DIRECTION('ref_axis',(1.,0.,0.));
#514=DIRECTION('center_axis',(-1.,8.71939804690721E-15,0.));
#515=DIRECTION('ref_axis',(-8.71939804690721E-15,-1.,0.));
#516=DIRECTION('',(0.,0.,1.));
#517=DIRECTION('',(-8.71939804690721E-15,-1.,0.));
#518=DIRECTION('center_axis',(1.,0.,0.));
#519=DIRECTION('ref_axis',(0.,1.,0.));
#520=DIRECTION('',(0.,1.,0.));
#521=DIRECTION('',(0.,0.,1.));
#522=DIRECTION('center_axis',(0.,0.,-1.));
#523=DIRECTION('ref_axis',(-1.,0.,0.));
#524=DIRECTION('center_axis',(0.,0.,-1.));
#525=DIRECTION('ref_axis',(1.,0.,0.));
#526=DIRECTION('center_axis',(0.,0.,1.));
#527=DIRECTION('ref_axis',(1.,0.,0.));
#528=DIRECTION('center_axis',(0.,0.,-1.));
#529=DIRECTION('ref_axis',(1.,0.,0.));
#530=DIRECTION('',(0.,0.,1.));
#531=DIRECTION('center_axis',(0.,0.,1.));
#532=DIRECTION('ref_axis',(6.12323399573676E-17,1.,0.));
#533=DIRECTION('center_axis',(0.,0.,1.));
#534=DIRECTION('ref_axis',(-1.,1.22464679914735E-16,0.));
#535=DIRECTION('center_axis',(0.,0.,1.));
#536=DIRECTION('ref_axis',(-1.83697019872103E-16,-1.,0.));
#537=DIRECTION('center_axis',(0.,0.,1.));
#538=DIRECTION('ref_axis',(1.,0.,0.));
#539=DIRECTION('center_axis',(0.,0.,1.));
#540=DIRECTION('ref_axis',(6.12323399573676E-17,1.,0.));
#541=DIRECTION('center_axis',(0.,0.,1.));
#542=DIRECTION('ref_axis',(1.,0.,0.));
#543=DIRECTION('center_axis',(0.,0.,1.));
#544=DIRECTION('ref_axis',(1.,0.,0.));
#545=DIRECTION('center_axis',(0.,0.,-1.));
#546=DIRECTION('ref_axis',(1.,0.,0.));
#547=DIRECTION('',(0.,0.,1.));
#548=CARTESIAN_POINT('',(0.,0.,0.));
#549=CARTESIAN_POINT('Origin',(0.,0.,-7.));
#550=CARTESIAN_POINT('',(1.,41.4876524387374,-7.));
#551=CARTESIAN_POINT('',(-1.,41.4876524387374,-7.));
#552=CARTESIAN_POINT('Origin',(-1.38777878078141E-16,41.4876524387374,-7.));
#553=CARTESIAN_POINT('',(1.,40.4876524387374,-7.));
#554=CARTESIAN_POINT('',(1.,41.9876524387374,-7.));
#555=CARTESIAN_POINT('',(-1.,40.4876524387374,-7.));
#556=CARTESIAN_POINT('Origin',(0.,0.,-7.));
#557=CARTESIAN_POINT('',(-1.,40.9876524387374,-7.));
#558=CARTESIAN_POINT('',(-39.5,4.83735485663204E-15,-7.));
#559=CARTESIAN_POINT('Origin',(0.,0.,-7.));
#560=CARTESIAN_POINT('Origin',(2.77555756156289E-16,41.4876524387374,0.));
#561=CARTESIAN_POINT('',(-1.,41.4876524387374,0.));
#562=CARTESIAN_POINT('',(-1.,41.4876524387374,0.));
#563=CARTESIAN_POINT('',(1.,41.4876524387374,0.));
#564=CARTESIAN_POINT('Origin',(2.77555756156289E-16,41.4876524387374,0.));
#565=CARTESIAN_POINT('',(1.,41.4876524387374,0.));
#566=CARTESIAN_POINT('Origin',(0.,0.,0.));
#567=CARTESIAN_POINT('',(-1.,40.4876524387374,0.));
#568=CARTESIAN_POINT('',(-1.,40.4876524387374,0.));
#569=CARTESIAN_POINT('',(1.,40.4876524387374,0.));
#570=CARTESIAN_POINT('Origin',(0.,0.,0.));
#571=CARTESIAN_POINT('',(1.,42.4876524387374,0.));
#572=CARTESIAN_POINT('',(-1.6,-1.95943487863577E-16,0.));
#573=CARTESIAN_POINT('Origin',(0.,0.,0.));
#574=CARTESIAN_POINT('Origin',(1.,42.4876524387374,0.));
#575=CARTESIAN_POINT('',(1.,40.4876524387374,0.));
#576=CARTESIAN_POINT('Origin',(-1.,40.4876524387374,0.));
#577=CARTESIAN_POINT('',(-1.,40.4876524387374,0.));
#578=CARTESIAN_POINT('Origin',(0.,0.,0.));
#579=CARTESIAN_POINT('Origin',(39.404155872192,2.74999999999997,-7.));
#580=CARTESIAN_POINT('',(39.404155872192,2.74999999999998,-6.));
#581=CARTESIAN_POINT('',(35.3933256419907,2.75,-2.));
#582=CARTESIAN_POINT('Ctrl Pts',(39.404155872192,2.74999999999997,-6.));
#583=CARTESIAN_POINT('Ctrl Pts',(39.404155872192,2.74999999999997,-5.75337769344038));
#584=CARTESIAN_POINT('Ctrl Pts',(39.3797835752597,2.74999999999997,-5.48404075843438));
#585=CARTESIAN_POINT('Ctrl Pts',(39.2747049813543,2.74999999999997,-4.956587304843));
#586=CARTESIAN_POINT('Ctrl Pts',(39.1939999191005,2.74999999999997,-4.69847054027919));
#587=CARTESIAN_POINT('Ctrl Pts',(39.004901012867,2.74999999999998,-4.24258147476116));
#588=CARTESIAN_POINT('Ctrl Pts',(38.8790331243152,2.74999999999998,-4.00284117169717));
#589=CARTESIAN_POINT('Ctrl Pts',(38.57952572061,2.74999999999998,-3.55532520848971));
#590=CARTESIAN_POINT('Ctrl Pts',(38.4058889592728,2.74999999999998,-3.34754770531572));
#591=CARTESIAN_POINT('Ctrl Pts',(38.0561189860982,2.74999999999998,-2.99830846782471));
#592=CARTESIAN_POINT('Ctrl Pts',(37.8477042553929,2.74999999999999,-2.82473090166478));
#593=CARTESIAN_POINT('Ctrl Pts',(37.3989595413929,2.74999999999999,-2.52541054708667));
#594=CARTESIAN_POINT('Ctrl Pts',(37.1586317776781,2.74999999999999,-2.39966443106058));
#595=CARTESIAN_POINT('Ctrl Pts',(36.7011008997191,2.75,-2.21044403156163));
#596=CARTESIAN_POINT('Ctrl Pts',(36.4417047603338,2.75,-2.12961116534466));
#597=CARTESIAN_POINT('Ctrl Pts',(35.9117019015868,2.75,-2.02439044322893));
#598=CARTESIAN_POINT('Ctrl Pts',(35.6410956958874,2.75000000000001,-2.));
#599=CARTESIAN_POINT('Ctrl Pts',(35.3933256419907,2.75000000000001,-2.));
#600=CARTESIAN_POINT('',(39.404155872192,2.74999999999998,-2.));
#601=CARTESIAN_POINT('',(39.404155872192,2.74999999999998,-7.));
#602=CARTESIAN_POINT('',(38.4254093465937,2.74999999999998,-2.));
#603=CARTESIAN_POINT('Origin',(35.3933256419908,-2.74999999999999,-7.));
#604=CARTESIAN_POINT('',(35.3933256419907,-2.74999999999998,-2.));
#605=CARTESIAN_POINT('',(39.404155872192,-2.74999999999999,-6.));
#606=CARTESIAN_POINT('Ctrl Pts',(35.3933256419908,-2.74999999999999,-2.));
#607=CARTESIAN_POINT('Ctrl Pts',(35.6410956958874,-2.74999999999999,-2.));
#608=CARTESIAN_POINT('Ctrl Pts',(35.9117019015868,-2.74999999999999,-2.02439044322893));
#609=CARTESIAN_POINT('Ctrl Pts',(36.4417047603338,-2.74999999999999,-2.12961116534466));
#610=CARTESIAN_POINT('Ctrl Pts',(36.7011008997191,-2.74999999999999,-2.21044403156163));
#611=CARTESIAN_POINT('Ctrl Pts',(37.1586317776781,-2.74999999999999,-2.39966443106058));
#612=CARTESIAN_POINT('Ctrl Pts',(37.3989595413929,-2.74999999999999,-2.52541054708667));
#613=CARTESIAN_POINT('Ctrl Pts',(37.8477042553929,-2.74999999999999,-2.82473090166478));
#614=CARTESIAN_POINT('Ctrl Pts',(38.0561189860982,-2.74999999999999,-2.99830846782471));
#615=CARTESIAN_POINT('Ctrl Pts',(38.4058889592728,-2.74999999999999,-3.34754770531572));
#616=CARTESIAN_POINT('Ctrl Pts',(38.57952572061,-2.74999999999999,-3.55532520848972));
#617=CARTESIAN_POINT('Ctrl Pts',(38.8790331243152,-2.74999999999999,-4.00284117169717));
#618=CARTESIAN_POINT('Ctrl Pts',(39.004901012867,-2.74999999999999,-4.24258147476116));
#619=CARTESIAN_POINT('Ctrl Pts',(39.1939999191005,-2.74999999999999,-4.69847054027919));
#620=CARTESIAN_POINT('Ctrl Pts',(39.2747049813543,-2.74999999999999,-4.956587304843));
#621=CARTESIAN_POINT('Ctrl Pts',(39.3797835752597,-2.74999999999999,-5.48404075843439));
#622=CARTESIAN_POINT('Ctrl Pts',(39.404155872192,-2.74999999999999,-5.75337769344039));
#623=CARTESIAN_POINT('Ctrl Pts',(39.404155872192,-2.74999999999999,-6.));
#624=CARTESIAN_POINT('',(39.404155872192,-2.74999999999999,-2.));
#625=CARTESIAN_POINT('',(36.4199942314931,-2.74999999999999,-2.));
#626=CARTESIAN_POINT('',(39.404155872192,-2.74999999999999,-7.));
#627=CARTESIAN_POINT('Origin',(0.,0.,-6.));
#628=CARTESIAN_POINT('',(2.74999999999997,35.3933256419907,-2.));
#629=CARTESIAN_POINT('Origin',(0.,0.,-2.));
#630=CARTESIAN_POINT('',(2.74999999999998,39.404155872192,-6.));
#631=CARTESIAN_POINT('Ctrl Pts',(2.74999999999998,35.3933256419908,-2.));
#632=CARTESIAN_POINT('Ctrl Pts',(2.74999999999998,35.6410956958874,-2.));
#633=CARTESIAN_POINT('Ctrl Pts',(2.74999999999998,35.9117019015868,-2.02439044322893));
#634=CARTESIAN_POINT('Ctrl Pts',(2.74999999999998,36.4417047603338,-2.12961116534466));
#635=CARTESIAN_POINT('Ctrl Pts',(2.74999999999998,36.7011008997191,-2.21044403156163));
#636=CARTESIAN_POINT('Ctrl Pts',(2.74999999999998,37.1586317776781,-2.39966443106058));
#637=CARTESIAN_POINT('Ctrl Pts',(2.74999999999998,37.3989595413929,-2.52541054708667));
#638=CARTESIAN_POINT('Ctrl Pts',(2.74999999999998,37.8477042553929,-2.82473090166478));
#639=CARTESIAN_POINT('Ctrl Pts',(2.74999999999998,38.0561189860982,-2.99830846782471));
#640=CARTESIAN_POINT('Ctrl Pts',(2.74999999999998,38.4058889592728,-3.34754770531572));
#641=CARTESIAN_POINT('Ctrl Pts',(2.74999999999998,38.57952572061,-3.55532520848972));
#642=CARTESIAN_POINT('Ctrl Pts',(2.74999999999998,38.8790331243152,-4.00284117169717));
#643=CARTESIAN_POINT('Ctrl Pts',(2.74999999999998,39.004901012867,-4.24258147476116));
#644=CARTESIAN_POINT('Ctrl Pts',(2.74999999999998,39.1939999191005,-4.69847054027919));
#645=CARTESIAN_POINT('Ctrl Pts',(2.74999999999998,39.2747049813543,-4.956587304843));
#646=CARTESIAN_POINT('Ctrl Pts',(2.74999999999998,39.3797835752597,-5.48404075843439));
#647=CARTESIAN_POINT('Ctrl Pts',(2.74999999999998,39.404155872192,-5.75337769344039));
#648=CARTESIAN_POINT('Ctrl Pts',(2.74999999999998,39.404155872192,-6.));
#649=CARTESIAN_POINT('Origin',(0.,0.,-6.));
#650=CARTESIAN_POINT('Origin',(2.74999999999997,-39.404155872192,-7.));
#651=CARTESIAN_POINT('',(2.74999999999998,-39.404155872192,-6.));
#652=CARTESIAN_POINT('',(2.75,-35.3933256419907,-2.));
#653=CARTESIAN_POINT('Ctrl Pts',(2.74999999999997,-39.404155872192,-6.));
#654=CARTESIAN_POINT('Ctrl Pts',(2.74999999999997,-39.404155872192,-5.75337769344038));
#655=CARTESIAN_POINT('Ctrl Pts',(2.74999999999997,-39.3797835752597,-5.48404075843438));
#656=CARTESIAN_POINT('Ctrl Pts',(2.74999999999998,-39.2747049813543,-4.956587304843));
#657=CARTESIAN_POINT('Ctrl Pts',(2.74999999999998,-39.1939999191005,-4.69847054027919));
#658=CARTESIAN_POINT('Ctrl Pts',(2.74999999999998,-39.004901012867,-4.24258147476116));
#659=CARTESIAN_POINT('Ctrl Pts',(2.74999999999998,-38.8790331243152,-4.00284117169717));
#660=CARTESIAN_POINT('Ctrl Pts',(2.74999999999998,-38.57952572061,-3.55532520848971));
#661=CARTESIAN_POINT('Ctrl Pts',(2.74999999999998,-38.4058889592728,-3.34754770531572));
#662=CARTESIAN_POINT('Ctrl Pts',(2.74999999999999,-38.0561189860982,-2.99830846782471));
#663=CARTESIAN_POINT('Ctrl Pts',(2.74999999999999,-37.8477042553929,-2.82473090166478));
#664=CARTESIAN_POINT('Ctrl Pts',(2.74999999999999,-37.3989595413929,-2.52541054708667));
#665=CARTESIAN_POINT('Ctrl Pts',(2.74999999999999,-37.1586317776781,-2.39966443106058));
#666=CARTESIAN_POINT('Ctrl Pts',(2.75,-36.7011008997191,-2.21044403156163));
#667=CARTESIAN_POINT('Ctrl Pts',(2.75,-36.4417047603338,-2.12961116534466));
#668=CARTESIAN_POINT('Ctrl Pts',(2.75000000000001,-35.9117019015868,-2.02439044322893));
#669=CARTESIAN_POINT('Ctrl Pts',(2.75000000000001,-35.6410956958874,-2.));
#670=CARTESIAN_POINT('Ctrl Pts',(2.75000000000001,-35.3933256419907,-2.));
#671=CARTESIAN_POINT('',(2.74999999999998,-39.404155872192,-2.));
#672=CARTESIAN_POINT('',(2.74999999999998,-39.404155872192,-7.));
#673=CARTESIAN_POINT('',(2.74999999999998,-38.4254093465937,-2.));
#674=CARTESIAN_POINT('Origin',(-2.74999999999999,-35.3933256419908,-7.));
#675=CARTESIAN_POINT('',(-2.74999999999998,-35.3933256419907,-2.));
#676=CARTESIAN_POINT('',(-2.74999999999998,-39.404155872192,-6.));
#677=CARTESIAN_POINT('Ctrl Pts',(-2.74999999999999,-35.3933256419908,-2.));
#678=CARTESIAN_POINT('Ctrl Pts',(-2.74999999999999,-35.6410956958874,-2.));
#679=CARTESIAN_POINT('Ctrl Pts',(-2.74999999999999,-35.9117019015868,-2.02439044322893));
#680=CARTESIAN_POINT('Ctrl Pts',(-2.74999999999999,-36.4417047603338,-2.12961116534466));
#681=CARTESIAN_POINT('Ctrl Pts',(-2.74999999999999,-36.7011008997191,-2.21044403156163));
#682=CARTESIAN_POINT('Ctrl Pts',(-2.74999999999999,-37.1586317776781,-2.39966443106058));
#683=CARTESIAN_POINT('Ctrl Pts',(-2.74999999999999,-37.3989595413929,-2.52541054708667));
#684=CARTESIAN_POINT('Ctrl Pts',(-2.74999999999999,-37.8477042553929,-2.82473090166478));
#685=CARTESIAN_POINT('Ctrl Pts',(-2.74999999999999,-38.0561189860982,-2.99830846782471));
#686=CARTESIAN_POINT('Ctrl Pts',(-2.74999999999999,-38.4058889592728,-3.34754770531572));
#687=CARTESIAN_POINT('Ctrl Pts',(-2.74999999999999,-38.57952572061,-3.55532520848972));
#688=CARTESIAN_POINT('Ctrl Pts',(-2.74999999999999,-38.8790331243152,-4.00284117169717));
#689=CARTESIAN_POINT('Ctrl Pts',(-2.74999999999999,-39.004901012867,-4.24258147476116));
#690=CARTESIAN_POINT('Ctrl Pts',(-2.74999999999999,-39.1939999191005,-4.69847054027919));
#691=CARTESIAN_POINT('Ctrl Pts',(-2.74999999999999,-39.2747049813543,-4.956587304843));
#692=CARTESIAN_POINT('Ctrl Pts',(-2.74999999999999,-39.3797835752597,-5.48404075843439));
#693=CARTESIAN_POINT('Ctrl Pts',(-2.74999999999999,-39.404155872192,-5.75337769344039));
#694=CARTESIAN_POINT('Ctrl Pts',(-2.74999999999999,-39.404155872192,-6.));
#695=CARTESIAN_POINT('',(-2.74999999999998,-39.404155872192,-2.));
#696=CARTESIAN_POINT('',(-2.74999999999999,-36.4199942314931,-2.));
#697=CARTESIAN_POINT('',(-2.74999999999998,-39.404155872192,-7.));
#698=CARTESIAN_POINT('Origin',(0.,0.,-6.));
#699=CARTESIAN_POINT('Origin',(0.,0.,-6.));
#700=CARTESIAN_POINT('Origin',(0.,0.,-2.));
#701=CARTESIAN_POINT('Origin',(-39.404155872192,-2.74999999999998,-7.));
#702=CARTESIAN_POINT('',(-39.404155872192,-2.74999999999998,-6.));
#703=CARTESIAN_POINT('',(-35.3933256419907,-2.75,-2.));
#704=CARTESIAN_POINT('Ctrl Pts',(-39.404155872192,-2.74999999999998,-6.));
#705=CARTESIAN_POINT('Ctrl Pts',(-39.404155872192,-2.74999999999998,-5.75337769344038));
#706=CARTESIAN_POINT('Ctrl Pts',(-39.3797835752597,-2.74999999999998,-5.48404075843438));
#707=CARTESIAN_POINT('Ctrl Pts',(-39.2747049813543,-2.74999999999998,-4.956587304843));
#708=CARTESIAN_POINT('Ctrl Pts',(-39.1939999191005,-2.74999999999998,-4.69847054027919));
#709=CARTESIAN_POINT('Ctrl Pts',(-39.004901012867,-2.74999999999998,-4.24258147476116));
#710=CARTESIAN_POINT('Ctrl Pts',(-38.8790331243152,-2.74999999999998,-4.00284117169717));
#711=CARTESIAN_POINT('Ctrl Pts',(-38.57952572061,-2.74999999999998,-3.55532520848971));
#712=CARTESIAN_POINT('Ctrl Pts',(-38.4058889592728,-2.74999999999999,-3.34754770531572));
#713=CARTESIAN_POINT('Ctrl Pts',(-38.0561189860982,-2.74999999999999,-2.99830846782471));
#714=CARTESIAN_POINT('Ctrl Pts',(-37.8477042553929,-2.74999999999999,-2.82473090166478));
#715=CARTESIAN_POINT('Ctrl Pts',(-37.3989595413929,-2.75,-2.52541054708667));
#716=CARTESIAN_POINT('Ctrl Pts',(-37.1586317776781,-2.75,-2.39966443106058));
#717=CARTESIAN_POINT('Ctrl Pts',(-36.7011008997191,-2.75,-2.21044403156163));
#718=CARTESIAN_POINT('Ctrl Pts',(-36.4417047603338,-2.75,-2.12961116534466));
#719=CARTESIAN_POINT('Ctrl Pts',(-35.9117019015868,-2.75000000000001,-2.02439044322893));
#720=CARTESIAN_POINT('Ctrl Pts',(-35.6410956958874,-2.75000000000001,-2.));
#721=CARTESIAN_POINT('Ctrl Pts',(-35.3933256419907,-2.75000000000001,-2.));
#722=CARTESIAN_POINT('',(-39.404155872192,-2.74999999999998,-2.));
#723=CARTESIAN_POINT('',(-39.404155872192,-2.74999999999998,-7.));
#724=CARTESIAN_POINT('',(-38.4254093465937,-2.74999999999999,-2.));
#725=CARTESIAN_POINT('Origin',(-35.3933256419908,2.74999999999998,-7.));
#726=CARTESIAN_POINT('',(-35.3933256419907,2.74999999999998,-2.));
#727=CARTESIAN_POINT('',(-39.404155872192,2.74999999999998,-6.));
#728=CARTESIAN_POINT('Ctrl Pts',(-35.3933256419908,2.74999999999998,-2.));
#729=CARTESIAN_POINT('Ctrl Pts',(-35.6410956958874,2.74999999999998,-2.));
#730=CARTESIAN_POINT('Ctrl Pts',(-35.9117019015868,2.74999999999998,-2.02439044322893));
#731=CARTESIAN_POINT('Ctrl Pts',(-36.4417047603338,2.74999999999998,-2.12961116534466));
#732=CARTESIAN_POINT('Ctrl Pts',(-36.7011008997191,2.74999999999998,-2.21044403156163));
#733=CARTESIAN_POINT('Ctrl Pts',(-37.1586317776781,2.74999999999998,-2.39966443106058));
#734=CARTESIAN_POINT('Ctrl Pts',(-37.3989595413929,2.74999999999998,-2.52541054708667));
#735=CARTESIAN_POINT('Ctrl Pts',(-37.8477042553929,2.74999999999998,-2.82473090166478));
#736=CARTESIAN_POINT('Ctrl Pts',(-38.0561189860982,2.74999999999998,-2.99830846782471));
#737=CARTESIAN_POINT('Ctrl Pts',(-38.4058889592728,2.74999999999998,-3.34754770531572));
#738=CARTESIAN_POINT('Ctrl Pts',(-38.57952572061,2.74999999999998,-3.55532520848972));
#739=CARTESIAN_POINT('Ctrl Pts',(-38.8790331243152,2.74999999999998,-4.00284117169717));
#740=CARTESIAN_POINT('Ctrl Pts',(-39.004901012867,2.74999999999998,-4.24258147476116));
#741=CARTESIAN_POINT('Ctrl Pts',(-39.1939999191005,2.74999999999998,-4.69847054027919));
#742=CARTESIAN_POINT('Ctrl Pts',(-39.2747049813543,2.74999999999998,-4.956587304843));
#743=CARTESIAN_POINT('Ctrl Pts',(-39.3797835752597,2.74999999999998,-5.48404075843439));
#744=CARTESIAN_POINT('Ctrl Pts',(-39.404155872192,2.74999999999998,-5.75337769344039));
#745=CARTESIAN_POINT('Ctrl Pts',(-39.404155872192,2.74999999999998,-6.));
#746=CARTESIAN_POINT('',(-39.404155872192,2.74999999999998,-2.));
#747=CARTESIAN_POINT('',(-36.4199942314931,2.74999999999998,-2.));
#748=CARTESIAN_POINT('',(-39.404155872192,2.74999999999998,-7.));
#749=CARTESIAN_POINT('Origin',(0.,0.,-6.));
#750=CARTESIAN_POINT('Origin',(0.,0.,-6.));
#751=CARTESIAN_POINT('Origin',(0.,0.,-2.));
#752=CARTESIAN_POINT('Origin',(-2.74999999999998,39.404155872192,-7.));
#753=CARTESIAN_POINT('',(-2.74999999999998,39.404155872192,-6.));
#754=CARTESIAN_POINT('',(-2.75,35.3933256419907,-2.));
#755=CARTESIAN_POINT('Ctrl Pts',(-2.74999999999998,39.404155872192,-6.));
#756=CARTESIAN_POINT('Ctrl Pts',(-2.74999999999998,39.404155872192,-5.75337769344038));
#757=CARTESIAN_POINT('Ctrl Pts',(-2.74999999999998,39.3797835752597,-5.48404075843438));
#758=CARTESIAN_POINT('Ctrl Pts',(-2.74999999999998,39.2747049813543,-4.956587304843));
#759=CARTESIAN_POINT('Ctrl Pts',(-2.74999999999998,39.1939999191005,-4.69847054027919));
#760=CARTESIAN_POINT('Ctrl Pts',(-2.74999999999998,39.004901012867,-4.24258147476116));
#761=CARTESIAN_POINT('Ctrl Pts',(-2.74999999999998,38.8790331243152,-4.00284117169717));
#762=CARTESIAN_POINT('Ctrl Pts',(-2.74999999999999,38.57952572061,-3.55532520848971));
#763=CARTESIAN_POINT('Ctrl Pts',(-2.74999999999999,38.4058889592728,-3.34754770531572));
#764=CARTESIAN_POINT('Ctrl Pts',(-2.74999999999999,38.0561189860982,-2.99830846782471));
#765=CARTESIAN_POINT('Ctrl Pts',(-2.74999999999999,37.8477042553929,-2.82473090166478));
#766=CARTESIAN_POINT('Ctrl Pts',(-2.75,37.3989595413929,-2.52541054708668));
#767=CARTESIAN_POINT('Ctrl Pts',(-2.75,37.1586317776781,-2.39966443106058));
#768=CARTESIAN_POINT('Ctrl Pts',(-2.75,36.7011008997191,-2.21044403156163));
#769=CARTESIAN_POINT('Ctrl Pts',(-2.75000000000001,36.4417047603338,-2.12961116534466));
#770=CARTESIAN_POINT('Ctrl Pts',(-2.75000000000001,35.9117019015868,-2.02439044322893));
#771=CARTESIAN_POINT('Ctrl Pts',(-2.75000000000001,35.6410956958874,-2.));
#772=CARTESIAN_POINT('Ctrl Pts',(-2.75000000000001,35.3933256419907,-2.));
#773=CARTESIAN_POINT('',(-2.74999999999998,39.404155872192,-2.));
#774=CARTESIAN_POINT('',(-2.74999999999998,39.404155872192,-7.));
#775=CARTESIAN_POINT('',(-2.74999999999999,38.4254093465937,-2.));
#776=CARTESIAN_POINT('Origin',(2.74999999999998,35.3933256419908,-7.));
#777=CARTESIAN_POINT('',(2.74999999999998,39.404155872192,-2.));
#778=CARTESIAN_POINT('',(2.74999999999998,36.4199942314931,-2.));
#779=CARTESIAN_POINT('',(2.74999999999998,39.404155872192,-7.));
#780=CARTESIAN_POINT('Origin',(0.,0.,-6.));
#781=CARTESIAN_POINT('Origin',(0.,0.,-6.));
#782=CARTESIAN_POINT('Origin',(0.,0.,-2.));
#783=CARTESIAN_POINT('Origin',(0.,0.,-2.));
#784=CARTESIAN_POINT('',(-39.5,4.83735485663204E-15,-2.));
#785=CARTESIAN_POINT('',(-39.5,4.83735485663204E-15,-2.));
#786=CARTESIAN_POINT('Origin',(0.,0.,-2.));
#787=CARTESIAN_POINT('Origin',(0.,0.,-2.));
#788=CARTESIAN_POINT('Origin',(0.,0.,-2.));
#789=CARTESIAN_POINT('Origin',(0.,0.,-2.));
#790=CARTESIAN_POINT('Origin',(0.,0.,-2.));
#791=CARTESIAN_POINT('Origin',(0.,0.,-2.));
#792=CARTESIAN_POINT('',(-1.6,-1.95943487863577E-16,-2.));
#793=CARTESIAN_POINT('Origin',(0.,0.,-2.));
#794=CARTESIAN_POINT('Origin',(0.,0.,0.));
#795=CARTESIAN_POINT('',(-1.6,1.95943487863577E-16,0.));
#796=UNCERTAINTY_MEASURE_WITH_UNIT(LENGTH_MEASURE(0.01),#800,
'DISTANCE_ACCURACY_VALUE',
'Maximum model space distance between geometric entities at asserted c
onnectivities');
#797=UNCERTAINTY_MEASURE_WITH_UNIT(LENGTH_MEASURE(0.01),#800,
'DISTANCE_ACCURACY_VALUE',
'Maximum model space distance between geometric entities at asserted c
onnectivities');
#798=(
GEOMETRIC_REPRESENTATION_CONTEXT(3)
GLOBAL_UNCERTAINTY_ASSIGNED_CONTEXT((#796))
GLOBAL_UNIT_ASSIGNED_CONTEXT((#800,#802,#803))
REPRESENTATION_CONTEXT('','3D')
);
#799=(
GEOMETRIC_REPRESENTATION_CONTEXT(3)
GLOBAL_UNCERTAINTY_ASSIGNED_CONTEXT((#797))
GLOBAL_UNIT_ASSIGNED_CONTEXT((#800,#802,#803))
REPRESENTATION_CONTEXT('','3D')
);
#800=(
LENGTH_UNIT()
NAMED_UNIT(*)
SI_UNIT(.MILLI.,.METRE.)
);
#801=(
LENGTH_UNIT()
NAMED_UNIT(*)
SI_UNIT($,.METRE.)
);
#802=(
NAMED_UNIT(*)
PLANE_ANGLE_UNIT()
SI_UNIT($,.RADIAN.)
);
#803=(
NAMED_UNIT(*)
SI_UNIT($,.STERADIAN.)
SOLID_ANGLE_UNIT()
);
#804=SHAPE_DEFINITION_REPRESENTATION(#805,#806);
#805=PRODUCT_DEFINITION_SHAPE('',$,#808);
#806=SHAPE_REPRESENTATION('',(#396),#798);
#807=PRODUCT_DEFINITION_CONTEXT('part definition',#812,'design');
#808=PRODUCT_DEFINITION('Upper Plate','Upper Plate',#809,#807);
#809=PRODUCT_DEFINITION_FORMATION('',$,#814);
#810=PRODUCT_RELATED_PRODUCT_CATEGORY('Upper Plate','Upper Plate',(#814));
#811=APPLICATION_PROTOCOL_DEFINITION('international standard',
'automotive_design',2009,#812);
#812=APPLICATION_CONTEXT(
'Core Data for Automotive Mechanical Design Process');
#813=PRODUCT_CONTEXT('part definition',#812,'mechanical');
#814=PRODUCT('Upper Plate','Upper Plate',$,(#813));
#815=PRESENTATION_STYLE_ASSIGNMENT((#816));
#816=SURFACE_STYLE_USAGE(.BOTH.,#817);
#817=SURFACE_SIDE_STYLE('',(#818));
#818=SURFACE_STYLE_FILL_AREA(#819);
#819=FILL_AREA_STYLE('Steel - Satin',(#820));
#820=FILL_AREA_STYLE_COLOUR('Steel - Satin',#821);
#821=COLOUR_RGB('Steel - Satin',0.627450980392157,0.627450980392157,0.627450980392157);
ENDSEC;
END-ISO-10303-21;
