ISO-10303-21;
HEADER;
/* Generated by software containing ST-Developer
 * from STEP Tools, Inc. (www.steptools.com) 
 */

FILE_DESCRIPTION(
/* description */ (''),
/* implementation_level */ '2;1');

FILE_NAME(
/* name */ 'PRT_Inner Container.step',
/* time_stamp */ '2026-10-02T15:59:56-04:00',
/* author */ (''),
/* organization */ (''),
/* preprocessor_version */ 'ST-DEVELOPER v20.2',
/* originating_system */ 'Autodesk Translation Framework v15.15.0.0',
/* authorisation */ '');

FILE_SCHEMA (('AUTOMOTIVE_DESIGN { 1 0 10303 214 3 1 1 }'));
ENDSEC;

DATA;
#10=MECHANICAL_DESIGN_GEOMETRIC_PRESENTATION_REPRESENTATION('',(#13),#605);
#11=SHAPE_REPRESENTATION_RELATIONSHIP('SRR','None',#612,#12);
#12=ADVANCED_BREP_SHAPE_REPRESENTATION('',(#14),#604);
#13=STYLED_ITEM('',(#621),#14);
#14=MANIFOLD_SOLID_BREP('Body1',#357);
#15=FACE_BOUND('',#74,.T.);
#16=FACE_BOUND('',#75,.T.);
#17=FACE_BOUND('',#76,.T.);
#18=FACE_BOUND('',#78,.T.);
#19=FACE_BOUND('',#79,.T.);
#20=FACE_BOUND('',#80,.T.);
#21=CYLINDRICAL_SURFACE('',#386,14.3);
#22=CYLINDRICAL_SURFACE('',#389,14.3);
#23=CYLINDRICAL_SURFACE('',#392,14.3);
#24=CYLINDRICAL_SURFACE('',#395,35.4);
#25=CIRCLE('',#375,35.4);
#26=CIRCLE('',#380,35.4);
#27=CIRCLE('',#385,35.4);
#28=CIRCLE('',#387,14.3);
#29=CIRCLE('',#388,14.3);
#30=CIRCLE('',#390,14.3);
#31=CIRCLE('',#391,14.3);
#32=CIRCLE('',#393,14.3);
#33=CIRCLE('',#394,14.3);
#34=CIRCLE('',#396,35.4);
#35=CIRCLE('',#397,35.4);
#36=CIRCLE('',#398,35.4);
#37=CIRCLE('',#399,35.4);
#38=CIRCLE('',#400,35.4);
#39=FACE_OUTER_BOUND('',#57,.T.);
#40=FACE_OUTER_BOUND('',#58,.T.);
#41=FACE_OUTER_BOUND('',#59,.T.);
#42=FACE_OUTER_BOUND('',#60,.T.);
#43=FACE_OUTER_BOUND('',#61,.T.);
#44=FACE_OUTER_BOUND('',#62,.T.);
#45=FACE_OUTER_BOUND('',#63,.T.);
#46=FACE_OUTER_BOUND('',#64,.T.);
#47=FACE_OUTER_BOUND('',#65,.T.);
#48=FACE_OUTER_BOUND('',#66,.T.);
#49=FACE_OUTER_BOUND('',#67,.T.);
#50=FACE_OUTER_BOUND('',#68,.T.);
#51=FACE_OUTER_BOUND('',#69,.T.);
#52=FACE_OUTER_BOUND('',#70,.T.);
#53=FACE_OUTER_BOUND('',#71,.T.);
#54=FACE_OUTER_BOUND('',#72,.T.);
#55=FACE_OUTER_BOUND('',#73,.T.);
#56=FACE_OUTER_BOUND('',#77,.T.);
#57=EDGE_LOOP('',(#229,#230,#231,#232));
#58=EDGE_LOOP('',(#233,#234,#235,#236));
#59=EDGE_LOOP('',(#237,#238,#239,#240));
#60=EDGE_LOOP('',(#241,#242,#243,#244));
#61=EDGE_LOOP('',(#245,#246,#247,#248));
#62=EDGE_LOOP('',(#249,#250,#251,#252));
#63=EDGE_LOOP('',(#253,#254,#255,#256));
#64=EDGE_LOOP('',(#257,#258,#259,#260));
#65=EDGE_LOOP('',(#261,#262,#263,#264));
#66=EDGE_LOOP('',(#265,#266,#267,#268));
#67=EDGE_LOOP('',(#269,#270,#271,#272));
#68=EDGE_LOOP('',(#273,#274,#275,#276));
#69=EDGE_LOOP('',(#277,#278,#279,#280));
#70=EDGE_LOOP('',(#281,#282,#283,#284));
#71=EDGE_LOOP('',(#285,#286,#287,#288));
#72=EDGE_LOOP('',(#289,#290,#291,#292,#293,#294,#295,#296,#297,#298,#299,
#300,#301,#302,#303,#304));
#73=EDGE_LOOP('',(#305));
#74=EDGE_LOOP('',(#306));
#75=EDGE_LOOP('',(#307));
#76=EDGE_LOOP('',(#308));
#77=EDGE_LOOP('',(#309,#310,#311,#312,#313,#314,#315,#316,#317,#318,#319,
#320,#321));
#78=EDGE_LOOP('',(#322));
#79=EDGE_LOOP('',(#323));
#80=EDGE_LOOP('',(#324));
#81=LINE('',#507,#115);
#82=LINE('',#509,#116);
#83=LINE('',#511,#117);
#84=LINE('',#512,#118);
#85=LINE('',#515,#119);
#86=LINE('',#517,#120);
#87=LINE('',#518,#121);
#88=LINE('',#521,#122);
#89=LINE('',#523,#123);
#90=LINE('',#524,#124);
#91=LINE('',#530,#125);
#92=LINE('',#532,#126);
#93=LINE('',#534,#127);
#94=LINE('',#535,#128);
#95=LINE('',#538,#129);
#96=LINE('',#540,#130);
#97=LINE('',#541,#131);
#98=LINE('',#544,#132);
#99=LINE('',#546,#133);
#100=LINE('',#547,#134);
#101=LINE('',#553,#135);
#102=LINE('',#555,#136);
#103=LINE('',#557,#137);
#104=LINE('',#558,#138);
#105=LINE('',#561,#139);
#106=LINE('',#563,#140);
#107=LINE('',#564,#141);
#108=LINE('',#567,#142);
#109=LINE('',#569,#143);
#110=LINE('',#570,#144);
#111=LINE('',#577,#145);
#112=LINE('',#583,#146);
#113=LINE('',#589,#147);
#114=LINE('',#595,#148);
#115=VECTOR('',#407,10.);
#116=VECTOR('',#408,10.);
#117=VECTOR('',#409,10.);
#118=VECTOR('',#410,10.);
#119=VECTOR('',#413,10.);
#120=VECTOR('',#414,10.);
#121=VECTOR('',#415,10.);
#122=VECTOR('',#418,10.);
#123=VECTOR('',#419,10.);
#124=VECTOR('',#420,10.);
#125=VECTOR('',#427,10.);
#126=VECTOR('',#428,10.);
#127=VECTOR('',#429,10.);
#128=VECTOR('',#430,10.);
#129=VECTOR('',#433,10.);
#130=VECTOR('',#434,10.);
#131=VECTOR('',#435,10.);
#132=VECTOR('',#438,10.);
#133=VECTOR('',#439,10.);
#134=VECTOR('',#440,10.);
#135=VECTOR('',#447,10.);
#136=VECTOR('',#448,10.);
#137=VECTOR('',#449,10.);
#138=VECTOR('',#450,10.);
#139=VECTOR('',#453,10.);
#140=VECTOR('',#454,10.);
#141=VECTOR('',#455,10.);
#142=VECTOR('',#458,10.);
#143=VECTOR('',#459,10.);
#144=VECTOR('',#460,10.);
#145=VECTOR('',#469,14.3);
#146=VECTOR('',#476,14.3);
#147=VECTOR('',#483,14.3);
#148=VECTOR('',#490,35.4);
#149=VERTEX_POINT('',#505);
#150=VERTEX_POINT('',#506);
#151=VERTEX_POINT('',#508);
#152=VERTEX_POINT('',#510);
#153=VERTEX_POINT('',#514);
#154=VERTEX_POINT('',#516);
#155=VERTEX_POINT('',#520);
#156=VERTEX_POINT('',#522);
#157=VERTEX_POINT('',#528);
#158=VERTEX_POINT('',#529);
#159=VERTEX_POINT('',#531);
#160=VERTEX_POINT('',#533);
#161=VERTEX_POINT('',#537);
#162=VERTEX_POINT('',#539);
#163=VERTEX_POINT('',#543);
#164=VERTEX_POINT('',#545);
#165=VERTEX_POINT('',#551);
#166=VERTEX_POINT('',#552);
#167=VERTEX_POINT('',#554);
#168=VERTEX_POINT('',#556);
#169=VERTEX_POINT('',#560);
#170=VERTEX_POINT('',#562);
#171=VERTEX_POINT('',#566);
#172=VERTEX_POINT('',#568);
#173=VERTEX_POINT('',#574);
#174=VERTEX_POINT('',#576);
#175=VERTEX_POINT('',#580);
#176=VERTEX_POINT('',#582);
#177=VERTEX_POINT('',#586);
#178=VERTEX_POINT('',#588);
#179=VERTEX_POINT('',#592);
#180=VERTEX_POINT('',#594);
#181=EDGE_CURVE('',#149,#150,#81,.T.);
#182=EDGE_CURVE('',#149,#151,#82,.T.);
#183=EDGE_CURVE('',#152,#151,#83,.T.);
#184=EDGE_CURVE('',#150,#152,#84,.T.);
#185=EDGE_CURVE('',#150,#153,#85,.T.);
#186=EDGE_CURVE('',#154,#152,#86,.T.);
#187=EDGE_CURVE('',#153,#154,#87,.T.);
#188=EDGE_CURVE('',#155,#149,#88,.T.);
#189=EDGE_CURVE('',#155,#156,#89,.T.);
#190=EDGE_CURVE('',#151,#156,#90,.T.);
#191=EDGE_CURVE('',#156,#154,#25,.T.);
#192=EDGE_CURVE('',#157,#158,#91,.T.);
#193=EDGE_CURVE('',#157,#159,#92,.T.);
#194=EDGE_CURVE('',#160,#159,#93,.T.);
#195=EDGE_CURVE('',#158,#160,#94,.T.);
#196=EDGE_CURVE('',#158,#161,#95,.T.);
#197=EDGE_CURVE('',#162,#160,#96,.T.);
#198=EDGE_CURVE('',#161,#162,#97,.T.);
#199=EDGE_CURVE('',#163,#157,#98,.T.);
#200=EDGE_CURVE('',#163,#164,#99,.T.);
#201=EDGE_CURVE('',#159,#164,#100,.T.);
#202=EDGE_CURVE('',#164,#162,#26,.T.);
#203=EDGE_CURVE('',#165,#166,#101,.T.);
#204=EDGE_CURVE('',#165,#167,#102,.T.);
#205=EDGE_CURVE('',#168,#167,#103,.T.);
#206=EDGE_CURVE('',#166,#168,#104,.T.);
#207=EDGE_CURVE('',#166,#169,#105,.T.);
#208=EDGE_CURVE('',#170,#168,#106,.T.);
#209=EDGE_CURVE('',#169,#170,#107,.T.);
#210=EDGE_CURVE('',#171,#165,#108,.T.);
#211=EDGE_CURVE('',#171,#172,#109,.T.);
#212=EDGE_CURVE('',#167,#172,#110,.T.);
#213=EDGE_CURVE('',#172,#170,#27,.T.);
#214=EDGE_CURVE('',#173,#173,#28,.T.);
#215=EDGE_CURVE('',#173,#174,#111,.T.);
#216=EDGE_CURVE('',#174,#174,#29,.T.);
#217=EDGE_CURVE('',#175,#175,#30,.T.);
#218=EDGE_CURVE('',#175,#176,#112,.T.);
#219=EDGE_CURVE('',#176,#176,#31,.T.);
#220=EDGE_CURVE('',#177,#177,#32,.T.);
#221=EDGE_CURVE('',#177,#178,#113,.T.);
#222=EDGE_CURVE('',#178,#178,#33,.T.);
#223=EDGE_CURVE('',#179,#179,#34,.T.);
#224=EDGE_CURVE('',#179,#180,#114,.T.);
#225=EDGE_CURVE('',#180,#169,#35,.T.);
#226=EDGE_CURVE('',#171,#161,#36,.T.);
#227=EDGE_CURVE('',#163,#153,#37,.T.);
#228=EDGE_CURVE('',#155,#180,#38,.T.);
#229=ORIENTED_EDGE('',*,*,#181,.F.);
#230=ORIENTED_EDGE('',*,*,#182,.T.);
#231=ORIENTED_EDGE('',*,*,#183,.F.);
#232=ORIENTED_EDGE('',*,*,#184,.F.);
#233=ORIENTED_EDGE('',*,*,#185,.F.);
#234=ORIENTED_EDGE('',*,*,#184,.T.);
#235=ORIENTED_EDGE('',*,*,#186,.F.);
#236=ORIENTED_EDGE('',*,*,#187,.F.);
#237=ORIENTED_EDGE('',*,*,#188,.F.);
#238=ORIENTED_EDGE('',*,*,#189,.T.);
#239=ORIENTED_EDGE('',*,*,#190,.F.);
#240=ORIENTED_EDGE('',*,*,#182,.F.);
#241=ORIENTED_EDGE('',*,*,#190,.T.);
#242=ORIENTED_EDGE('',*,*,#191,.T.);
#243=ORIENTED_EDGE('',*,*,#186,.T.);
#244=ORIENTED_EDGE('',*,*,#183,.T.);
#245=ORIENTED_EDGE('',*,*,#192,.F.);
#246=ORIENTED_EDGE('',*,*,#193,.T.);
#247=ORIENTED_EDGE('',*,*,#194,.F.);
#248=ORIENTED_EDGE('',*,*,#195,.F.);
#249=ORIENTED_EDGE('',*,*,#196,.F.);
#250=ORIENTED_EDGE('',*,*,#195,.T.);
#251=ORIENTED_EDGE('',*,*,#197,.F.);
#252=ORIENTED_EDGE('',*,*,#198,.F.);
#253=ORIENTED_EDGE('',*,*,#199,.F.);
#254=ORIENTED_EDGE('',*,*,#200,.T.);
#255=ORIENTED_EDGE('',*,*,#201,.F.);
#256=ORIENTED_EDGE('',*,*,#193,.F.);
#257=ORIENTED_EDGE('',*,*,#201,.T.);
#258=ORIENTED_EDGE('',*,*,#202,.T.);
#259=ORIENTED_EDGE('',*,*,#197,.T.);
#260=ORIENTED_EDGE('',*,*,#194,.T.);
#261=ORIENTED_EDGE('',*,*,#203,.F.);
#262=ORIENTED_EDGE('',*,*,#204,.T.);
#263=ORIENTED_EDGE('',*,*,#205,.F.);
#264=ORIENTED_EDGE('',*,*,#206,.F.);
#265=ORIENTED_EDGE('',*,*,#207,.F.);
#266=ORIENTED_EDGE('',*,*,#206,.T.);
#267=ORIENTED_EDGE('',*,*,#208,.F.);
#268=ORIENTED_EDGE('',*,*,#209,.F.);
#269=ORIENTED_EDGE('',*,*,#210,.F.);
#270=ORIENTED_EDGE('',*,*,#211,.T.);
#271=ORIENTED_EDGE('',*,*,#212,.F.);
#272=ORIENTED_EDGE('',*,*,#204,.F.);
#273=ORIENTED_EDGE('',*,*,#212,.T.);
#274=ORIENTED_EDGE('',*,*,#213,.T.);
#275=ORIENTED_EDGE('',*,*,#208,.T.);
#276=ORIENTED_EDGE('',*,*,#205,.T.);
#277=ORIENTED_EDGE('',*,*,#214,.F.);
#278=ORIENTED_EDGE('',*,*,#215,.T.);
#279=ORIENTED_EDGE('',*,*,#216,.F.);
#280=ORIENTED_EDGE('',*,*,#215,.F.);
#281=ORIENTED_EDGE('',*,*,#217,.F.);
#282=ORIENTED_EDGE('',*,*,#218,.T.);
#283=ORIENTED_EDGE('',*,*,#219,.F.);
#284=ORIENTED_EDGE('',*,*,#218,.F.);
#285=ORIENTED_EDGE('',*,*,#220,.F.);
#286=ORIENTED_EDGE('',*,*,#221,.T.);
#287=ORIENTED_EDGE('',*,*,#222,.F.);
#288=ORIENTED_EDGE('',*,*,#221,.F.);
#289=ORIENTED_EDGE('',*,*,#223,.F.);
#290=ORIENTED_EDGE('',*,*,#224,.T.);
#291=ORIENTED_EDGE('',*,*,#225,.T.);
#292=ORIENTED_EDGE('',*,*,#209,.T.);
#293=ORIENTED_EDGE('',*,*,#213,.F.);
#294=ORIENTED_EDGE('',*,*,#211,.F.);
#295=ORIENTED_EDGE('',*,*,#226,.T.);
#296=ORIENTED_EDGE('',*,*,#198,.T.);
#297=ORIENTED_EDGE('',*,*,#202,.F.);
#298=ORIENTED_EDGE('',*,*,#200,.F.);
#299=ORIENTED_EDGE('',*,*,#227,.T.);
#300=ORIENTED_EDGE('',*,*,#187,.T.);
#301=ORIENTED_EDGE('',*,*,#191,.F.);
#302=ORIENTED_EDGE('',*,*,#189,.F.);
#303=ORIENTED_EDGE('',*,*,#228,.T.);
#304=ORIENTED_EDGE('',*,*,#224,.F.);
#305=ORIENTED_EDGE('',*,*,#223,.T.);
#306=ORIENTED_EDGE('',*,*,#214,.T.);
#307=ORIENTED_EDGE('',*,*,#217,.T.);
#308=ORIENTED_EDGE('',*,*,#220,.T.);
#309=ORIENTED_EDGE('',*,*,#185,.T.);
#310=ORIENTED_EDGE('',*,*,#227,.F.);
#311=ORIENTED_EDGE('',*,*,#199,.T.);
#312=ORIENTED_EDGE('',*,*,#192,.T.);
#313=ORIENTED_EDGE('',*,*,#196,.T.);
#314=ORIENTED_EDGE('',*,*,#226,.F.);
#315=ORIENTED_EDGE('',*,*,#210,.T.);
#316=ORIENTED_EDGE('',*,*,#203,.T.);
#317=ORIENTED_EDGE('',*,*,#207,.T.);
#318=ORIENTED_EDGE('',*,*,#225,.F.);
#319=ORIENTED_EDGE('',*,*,#228,.F.);
#320=ORIENTED_EDGE('',*,*,#188,.T.);
#321=ORIENTED_EDGE('',*,*,#181,.T.);
#322=ORIENTED_EDGE('',*,*,#216,.T.);
#323=ORIENTED_EDGE('',*,*,#219,.T.);
#324=ORIENTED_EDGE('',*,*,#222,.T.);
#325=PLANE('',#371);
#326=PLANE('',#372);
#327=PLANE('',#373);
#328=PLANE('',#374);
#329=PLANE('',#376);
#330=PLANE('',#377);
#331=PLANE('',#378);
#332=PLANE('',#379);
#333=PLANE('',#381);
#334=PLANE('',#382);
#335=PLANE('',#383);
#336=PLANE('',#384);
#337=PLANE('',#401);
#338=PLANE('',#402);
#339=ADVANCED_FACE('',(#39),#325,.T.);
#340=ADVANCED_FACE('',(#40),#326,.T.);
#341=ADVANCED_FACE('',(#41),#327,.T.);
#342=ADVANCED_FACE('',(#42),#328,.T.);
#343=ADVANCED_FACE('',(#43),#329,.T.);
#344=ADVANCED_FACE('',(#44),#330,.T.);
#345=ADVANCED_FACE('',(#45),#331,.T.);
#346=ADVANCED_FACE('',(#46),#332,.T.);
#347=ADVANCED_FACE('',(#47),#333,.T.);
#348=ADVANCED_FACE('',(#48),#334,.T.);
#349=ADVANCED_FACE('',(#49),#335,.T.);
#350=ADVANCED_FACE('',(#50),#336,.T.);
#351=ADVANCED_FACE('',(#51),#21,.F.);
#352=ADVANCED_FACE('',(#52),#22,.F.);
#353=ADVANCED_FACE('',(#53),#23,.F.);
#354=ADVANCED_FACE('',(#54),#24,.T.);
#355=ADVANCED_FACE('',(#55,#15,#16,#17),#337,.T.);
#356=ADVANCED_FACE('',(#56,#18,#19,#20),#338,.F.);
#357=CLOSED_SHELL('',(#339,#340,#341,#342,#343,#344,#345,#346,#347,#348,
#349,#350,#351,#352,#353,#354,#355,#356));
#358=DERIVED_UNIT_ELEMENT(#360,1.);
#359=DERIVED_UNIT_ELEMENT(#607,-3.);
#360=(
MASS_UNIT()
NAMED_UNIT(*)
SI_UNIT(.KILO.,.GRAM.)
);
#361=DERIVED_UNIT((#358,#359));
#362=MEASURE_REPRESENTATION_ITEM('density measure',
POSITIVE_RATIO_MEASURE(7850.),#361);
#363=PROPERTY_DEFINITION_REPRESENTATION(#368,#365);
#364=PROPERTY_DEFINITION_REPRESENTATION(#369,#366);
#365=REPRESENTATION('material name',(#367),#604);
#366=REPRESENTATION('density',(#362),#604);
#367=DESCRIPTIVE_REPRESENTATION_ITEM('Steel','Steel');
#368=PROPERTY_DEFINITION('material property','material name',#614);
#369=PROPERTY_DEFINITION('material property','density of part',#614);
#370=AXIS2_PLACEMENT_3D('',#503,#403,#404);
#371=AXIS2_PLACEMENT_3D('',#504,#405,#406);
#372=AXIS2_PLACEMENT_3D('',#513,#411,#412);
#373=AXIS2_PLACEMENT_3D('',#519,#416,#417);
#374=AXIS2_PLACEMENT_3D('',#525,#421,#422);
#375=AXIS2_PLACEMENT_3D('',#526,#423,#424);
#376=AXIS2_PLACEMENT_3D('',#527,#425,#426);
#377=AXIS2_PLACEMENT_3D('',#536,#431,#432);
#378=AXIS2_PLACEMENT_3D('',#542,#436,#437);
#379=AXIS2_PLACEMENT_3D('',#548,#441,#442);
#380=AXIS2_PLACEMENT_3D('',#549,#443,#444);
#381=AXIS2_PLACEMENT_3D('',#550,#445,#446);
#382=AXIS2_PLACEMENT_3D('',#559,#451,#452);
#383=AXIS2_PLACEMENT_3D('',#565,#456,#457);
#384=AXIS2_PLACEMENT_3D('',#571,#461,#462);
#385=AXIS2_PLACEMENT_3D('',#572,#463,#464);
#386=AXIS2_PLACEMENT_3D('',#573,#465,#466);
#387=AXIS2_PLACEMENT_3D('',#575,#467,#468);
#388=AXIS2_PLACEMENT_3D('',#578,#470,#471);
#389=AXIS2_PLACEMENT_3D('',#579,#472,#473);
#390=AXIS2_PLACEMENT_3D('',#581,#474,#475);
#391=AXIS2_PLACEMENT_3D('',#584,#477,#478);
#392=AXIS2_PLACEMENT_3D('',#585,#479,#480);
#393=AXIS2_PLACEMENT_3D('',#587,#481,#482);
#394=AXIS2_PLACEMENT_3D('',#590,#484,#485);
#395=AXIS2_PLACEMENT_3D('',#591,#486,#487);
#396=AXIS2_PLACEMENT_3D('',#593,#488,#489);
#397=AXIS2_PLACEMENT_3D('',#596,#491,#492);
#398=AXIS2_PLACEMENT_3D('',#597,#493,#494);
#399=AXIS2_PLACEMENT_3D('',#598,#495,#496);
#400=AXIS2_PLACEMENT_3D('',#599,#497,#498);
#401=AXIS2_PLACEMENT_3D('',#600,#499,#500);
#402=AXIS2_PLACEMENT_3D('',#601,#501,#502);
#403=DIRECTION('axis',(0.,0.,1.));
#404=DIRECTION('refdir',(1.,0.,0.));
#405=DIRECTION('center_axis',(0.866025403784438,-0.5,0.));
#406=DIRECTION('ref_axis',(-0.5,-0.866025403784438,0.));
#407=DIRECTION('',(0.5,0.866025403784438,0.));
#408=DIRECTION('',(0.,0.,-1.));
#409=DIRECTION('',(-0.5,-0.866025403784438,0.));
#410=DIRECTION('',(0.,0.,-1.));
#411=DIRECTION('center_axis',(0.5,0.866025403784438,0.));
#412=DIRECTION('ref_axis',(0.866025403784438,-0.5,0.));
#413=DIRECTION('',(-0.866025403784438,0.5,0.));
#414=DIRECTION('',(0.866025403784438,-0.5,0.));
#415=DIRECTION('',(0.,0.,-1.));
#416=DIRECTION('center_axis',(-0.5,-0.866025403784439,0.));
#417=DIRECTION('ref_axis',(-0.866025403784439,0.499999999999999,0.));
#418=DIRECTION('',(0.866025403784439,-0.499999999999999,0.));
#419=DIRECTION('',(0.,0.,-1.));
#420=DIRECTION('',(-0.866025403784439,0.499999999999999,0.));
#421=DIRECTION('center_axis',(0.,0.,-1.));
#422=DIRECTION('ref_axis',(-0.5,-0.866025403784438,0.));
#423=DIRECTION('center_axis',(0.,0.,-1.));
#424=DIRECTION('ref_axis',(-0.500000000000001,-0.866025403784438,0.));
#425=DIRECTION('center_axis',(-0.866025403784439,-0.5,0.));
#426=DIRECTION('ref_axis',(-0.5,0.866025403784439,0.));
#427=DIRECTION('',(0.5,-0.866025403784439,0.));
#428=DIRECTION('',(0.,0.,-1.));
#429=DIRECTION('',(-0.5,0.866025403784439,0.));
#430=DIRECTION('',(0.,0.,-1.));
#431=DIRECTION('center_axis',(0.5,-0.866025403784439,0.));
#432=DIRECTION('ref_axis',(-0.866025403784439,-0.5,0.));
#433=DIRECTION('',(0.866025403784439,0.5,0.));
#434=DIRECTION('',(-0.866025403784439,-0.5,0.));
#435=DIRECTION('',(0.,0.,-1.));
#436=DIRECTION('center_axis',(-0.500000000000001,0.866025403784438,0.));
#437=DIRECTION('ref_axis',(0.866025403784438,0.500000000000001,0.));
#438=DIRECTION('',(-0.866025403784438,-0.500000000000001,0.));
#439=DIRECTION('',(0.,0.,-1.));
#440=DIRECTION('',(0.866025403784438,0.500000000000001,0.));
#441=DIRECTION('center_axis',(0.,0.,-1.));
#442=DIRECTION('ref_axis',(-0.5,0.866025403784439,0.));
#443=DIRECTION('center_axis',(0.,0.,-1.));
#444=DIRECTION('ref_axis',(-0.5,0.866025403784439,0.));
#445=DIRECTION('center_axis',(0.,1.,0.));
#446=DIRECTION('ref_axis',(1.,0.,0.));
#447=DIRECTION('',(-1.,0.,0.));
#448=DIRECTION('',(0.,0.,-1.));
#449=DIRECTION('',(1.,0.,0.));
#450=DIRECTION('',(0.,0.,-1.));
#451=DIRECTION('center_axis',(-1.,0.,0.));
#452=DIRECTION('ref_axis',(0.,1.,0.));
#453=DIRECTION('',(0.,-1.,0.));
#454=DIRECTION('',(0.,1.,0.));
#455=DIRECTION('',(0.,0.,-1.));
#456=DIRECTION('center_axis',(1.,1.11022302462516E-15,0.));
#457=DIRECTION('ref_axis',(1.11022302462516E-15,-1.,0.));
#458=DIRECTION('',(-1.11022302462516E-15,1.,0.));
#459=DIRECTION('',(0.,0.,-1.));
#460=DIRECTION('',(1.11022302462516E-15,-1.,0.));
#461=DIRECTION('center_axis',(0.,0.,-1.));
#462=DIRECTION('ref_axis',(1.,0.,0.));
#463=DIRECTION('center_axis',(0.,0.,-1.));
#464=DIRECTION('ref_axis',(1.,0.,0.));
#465=DIRECTION('center_axis',(0.,0.,-1.));
#466=DIRECTION('ref_axis',(-0.5,-0.866025403784438,0.));
#467=DIRECTION('center_axis',(0.,0.,-1.));
#468=DIRECTION('ref_axis',(-0.5,-0.866025403784438,0.));
#469=DIRECTION('',(0.,0.,-1.));
#470=DIRECTION('center_axis',(0.,0.,1.));
#471=DIRECTION('ref_axis',(-0.5,-0.866025403784438,0.));
#472=DIRECTION('center_axis',(0.,0.,-1.));
#473=DIRECTION('ref_axis',(-0.5,0.866025403784439,0.));
#474=DIRECTION('center_axis',(0.,0.,-1.));
#475=DIRECTION('ref_axis',(-0.5,0.866025403784439,0.));
#476=DIRECTION('',(0.,0.,-1.));
#477=DIRECTION('center_axis',(0.,0.,1.));
#478=DIRECTION('ref_axis',(-0.5,0.866025403784439,0.));
#479=DIRECTION('center_axis',(0.,0.,-1.));
#480=DIRECTION('ref_axis',(1.,0.,0.));
#481=DIRECTION('center_axis',(0.,0.,-1.));
#482=DIRECTION('ref_axis',(1.,0.,0.));
#483=DIRECTION('',(0.,0.,-1.));
#484=DIRECTION('center_axis',(0.,0.,1.));
#485=DIRECTION('ref_axis',(1.,0.,0.));
#486=DIRECTION('center_axis',(0.,0.,1.));
#487=DIRECTION('ref_axis',(1.,0.,0.));
#488=DIRECTION('center_axis',(0.,0.,1.));
#489=DIRECTION('ref_axis',(1.,0.,0.));
#490=DIRECTION('',(0.,0.,-1.));
#491=DIRECTION('center_axis',(0.,0.,1.));
#492=DIRECTION('ref_axis',(1.,0.,0.));
#493=DIRECTION('center_axis',(0.,0.,1.));
#494=DIRECTION('ref_axis',(1.,0.,0.));
#495=DIRECTION('center_axis',(0.,0.,1.));
#496=DIRECTION('ref_axis',(1.,0.,0.));
#497=DIRECTION('center_axis',(0.,0.,1.));
#498=DIRECTION('ref_axis',(1.,0.,0.));
#499=DIRECTION('center_axis',(0.,0.,1.));
#500=DIRECTION('ref_axis',(1.,0.,0.));
#501=DIRECTION('center_axis',(0.,0.,1.));
#502=DIRECTION('ref_axis',(1.,0.,0.));
#503=CARTESIAN_POINT('',(0.,0.,0.));
#504=CARTESIAN_POINT('Origin',(-27.7479748415822,19.4844023593922,45.));
#505=CARTESIAN_POINT('',(-30.7479748415822,14.2882499366856,45.));
#506=CARTESIAN_POINT('',(-27.7479748415822,19.4844023593922,45.));
#507=CARTESIAN_POINT('',(-28.4979748415822,18.1853642537156,45.));
#508=CARTESIAN_POINT('',(-30.7479748415822,14.2882499366856,42.));
#509=CARTESIAN_POINT('',(-30.7479748415822,14.2882499366856,45.));
#510=CARTESIAN_POINT('',(-27.7479748415822,19.4844023593922,42.));
#511=CARTESIAN_POINT('',(-27.7479748415822,19.4844023593922,42.));
#512=CARTESIAN_POINT('',(-27.7479748415822,19.4844023593922,45.));
#513=CARTESIAN_POINT('Origin',(-29.0470129472589,20.2344023593922,45.));
#514=CARTESIAN_POINT('',(-29.0470129472589,20.2344023593922,45.));
#515=CARTESIAN_POINT('',(-13.7735064736294,11.4162392853728,45.));
#516=CARTESIAN_POINT('',(-29.0470129472589,20.2344023593922,42.));
#517=CARTESIAN_POINT('',(-29.0470129472589,20.2344023593922,42.));
#518=CARTESIAN_POINT('',(-29.0470129472589,20.2344023593922,45.));
#519=CARTESIAN_POINT('Origin',(-30.7479748415822,14.2882499366856,45.));
#520=CARTESIAN_POINT('',(-32.0470129472589,15.0382499366856,45.));
#521=CARTESIAN_POINT('',(-16.1239874207911,5.84508686266614,45.));
#522=CARTESIAN_POINT('',(-32.0470129472589,15.0382499366856,42.));
#523=CARTESIAN_POINT('',(-32.0470129472589,15.0382499366856,45.));
#524=CARTESIAN_POINT('',(-30.7479748415822,14.2882499366856,42.));
#525=CARTESIAN_POINT('Origin',(-29.9526370677757,17.2931630740194,42.));
#526=CARTESIAN_POINT('Origin',(0.,0.,42.));
#527=CARTESIAN_POINT('Origin',(30.7479748415822,14.2882499366856,45.));
#528=CARTESIAN_POINT('',(27.7479748415822,19.4844023593922,45.));
#529=CARTESIAN_POINT('',(30.7479748415822,14.2882499366856,45.));
#530=CARTESIAN_POINT('',(29.9979748415822,15.5872880423622,45.));
#531=CARTESIAN_POINT('',(27.7479748415822,19.4844023593922,42.));
#532=CARTESIAN_POINT('',(27.7479748415822,19.4844023593922,45.));
#533=CARTESIAN_POINT('',(30.7479748415822,14.2882499366856,42.));
#534=CARTESIAN_POINT('',(30.7479748415822,14.2882499366856,42.));
#535=CARTESIAN_POINT('',(30.7479748415822,14.2882499366856,45.));
#536=CARTESIAN_POINT('Origin',(32.0470129472589,15.0382499366856,45.));
#537=CARTESIAN_POINT('',(32.0470129472589,15.0382499366856,45.));
#538=CARTESIAN_POINT('',(16.7735064736294,6.22008686266615,45.));
#539=CARTESIAN_POINT('',(32.0470129472589,15.0382499366856,42.));
#540=CARTESIAN_POINT('',(32.0470129472589,15.0382499366856,42.));
#541=CARTESIAN_POINT('',(32.0470129472589,15.0382499366856,45.));
#542=CARTESIAN_POINT('Origin',(27.7479748415822,19.4844023593922,45.));
#543=CARTESIAN_POINT('',(29.0470129472589,20.2344023593922,45.));
#544=CARTESIAN_POINT('',(13.1239874207911,11.0412392853728,45.));
#545=CARTESIAN_POINT('',(29.0470129472589,20.2344023593922,42.));
#546=CARTESIAN_POINT('',(29.0470129472589,20.2344023593922,45.));
#547=CARTESIAN_POINT('',(27.7479748415822,19.4844023593922,42.));
#548=CARTESIAN_POINT('Origin',(29.9526370677757,17.2931630740195,42.));
#549=CARTESIAN_POINT('Origin',(0.,0.,42.));
#550=CARTESIAN_POINT('Origin',(-2.99999999999998,-33.7726522960778,45.));
#551=CARTESIAN_POINT('',(3.00000000000002,-33.7726522960778,45.));
#552=CARTESIAN_POINT('',(-2.99999999999998,-33.7726522960778,45.));
#553=CARTESIAN_POINT('',(-1.49999999999999,-33.7726522960778,45.));
#554=CARTESIAN_POINT('',(3.00000000000002,-33.7726522960778,42.));
#555=CARTESIAN_POINT('',(3.00000000000002,-33.7726522960778,45.));
#556=CARTESIAN_POINT('',(-2.99999999999998,-33.7726522960778,42.));
#557=CARTESIAN_POINT('',(-2.99999999999998,-33.7726522960778,42.));
#558=CARTESIAN_POINT('',(-2.99999999999998,-33.7726522960778,45.));
#559=CARTESIAN_POINT('Origin',(-2.99999999999998,-35.2726522960778,45.));
#560=CARTESIAN_POINT('',(-2.99999999999998,-35.2726522960778,45.));
#561=CARTESIAN_POINT('',(-2.99999999999998,-17.6363261480389,45.));
#562=CARTESIAN_POINT('',(-2.99999999999998,-35.2726522960778,42.));
#563=CARTESIAN_POINT('',(-2.99999999999998,-35.2726522960778,42.));
#564=CARTESIAN_POINT('',(-2.99999999999998,-35.2726522960778,45.));
#565=CARTESIAN_POINT('Origin',(3.00000000000002,-33.7726522960778,45.));
#566=CARTESIAN_POINT('',(3.00000000000003,-35.2726522960778,45.));
#567=CARTESIAN_POINT('',(3.00000000000001,-16.8863261480389,45.));
#568=CARTESIAN_POINT('',(3.00000000000003,-35.2726522960778,42.));
#569=CARTESIAN_POINT('',(3.00000000000003,-35.2726522960778,45.));
#570=CARTESIAN_POINT('',(3.00000000000002,-33.7726522960778,42.));
#571=CARTESIAN_POINT('Origin',(2.55351295663786E-14,-34.5863261480389,42.));
#572=CARTESIAN_POINT('Origin',(0.,0.,42.));
#573=CARTESIAN_POINT('Origin',(16.4544826719043,-9.50000000000001,51.));
#574=CARTESIAN_POINT('',(23.6044826719043,2.88416327411746,51.));
#575=CARTESIAN_POINT('Origin',(16.4544826719043,-9.50000000000001,51.));
#576=CARTESIAN_POINT('',(23.6044826719043,2.88416327411746,45.));
#577=CARTESIAN_POINT('',(23.6044826719043,2.88416327411746,51.));
#578=CARTESIAN_POINT('Origin',(16.4544826719043,-9.50000000000001,45.));
#579=CARTESIAN_POINT('Origin',(-16.4544826719043,-9.5,51.));
#580=CARTESIAN_POINT('',(-9.30448267190434,-21.8841632741175,51.));
#581=CARTESIAN_POINT('Origin',(-16.4544826719043,-9.5,51.));
#582=CARTESIAN_POINT('',(-9.30448267190434,-21.8841632741175,45.));
#583=CARTESIAN_POINT('',(-9.30448267190434,-21.8841632741175,51.));
#584=CARTESIAN_POINT('Origin',(-16.4544826719043,-9.5,45.));
#585=CARTESIAN_POINT('Origin',(0.,19.,51.));
#586=CARTESIAN_POINT('',(-14.3,19.,51.));
#587=CARTESIAN_POINT('Origin',(0.,19.,51.));
#588=CARTESIAN_POINT('',(-14.3,19.,45.));
#589=CARTESIAN_POINT('',(-14.3,19.,51.));
#590=CARTESIAN_POINT('Origin',(0.,19.,45.));
#591=CARTESIAN_POINT('Origin',(0.,0.,45.));
#592=CARTESIAN_POINT('',(-35.4,-4.33524966898163E-15,51.));
#593=CARTESIAN_POINT('Origin',(0.,0.,51.));
#594=CARTESIAN_POINT('',(-35.4,-4.33524966898163E-15,45.));
#595=CARTESIAN_POINT('',(-35.4,-4.33524966898163E-15,45.));
#596=CARTESIAN_POINT('Origin',(0.,0.,45.));
#597=CARTESIAN_POINT('Origin',(0.,0.,45.));
#598=CARTESIAN_POINT('Origin',(0.,0.,45.));
#599=CARTESIAN_POINT('Origin',(0.,0.,45.));
#600=CARTESIAN_POINT('Origin',(0.,0.,51.));
#601=CARTESIAN_POINT('Origin',(0.,0.,45.));
#602=UNCERTAINTY_MEASURE_WITH_UNIT(LENGTH_MEASURE(0.01),#606,
'DISTANCE_ACCURACY_VALUE',
'Maximum model space distance between geometric entities at asserted c
onnectivities');
#603=UNCERTAINTY_MEASURE_WITH_UNIT(LENGTH_MEASURE(0.01),#606,
'DISTANCE_ACCURACY_VALUE',
'Maximum model space distance between geometric entities at asserted c
onnectivities');
#604=(
GEOMETRIC_REPRESENTATION_CONTEXT(3)
GLOBAL_UNCERTAINTY_ASSIGNED_CONTEXT((#602))
GLOBAL_UNIT_ASSIGNED_CONTEXT((#606,#608,#609))
REPRESENTATION_CONTEXT('','3D')
);
#605=(
GEOMETRIC_REPRESENTATION_CONTEXT(3)
GLOBAL_UNCERTAINTY_ASSIGNED_CONTEXT((#603))
GLOBAL_UNIT_ASSIGNED_CONTEXT((#606,#608,#609))
REPRESENTATION_CONTEXT('','3D')
);
#606=(
LENGTH_UNIT()
NAMED_UNIT(*)
SI_UNIT(.MILLI.,.METRE.)
);
#607=(
LENGTH_UNIT()
NAMED_UNIT(*)
SI_UNIT($,.METRE.)
);
#608=(
NAMED_UNIT(*)
PLANE_ANGLE_UNIT()
SI_UNIT($,.RADIAN.)
);
#609=(
NAMED_UNIT(*)
SI_UNIT($,.STERADIAN.)
SOLID_ANGLE_UNIT()
);
#610=SHAPE_DEFINITION_REPRESENTATION(#611,#612);
#611=PRODUCT_DEFINITION_SHAPE('',$,#614);
#612=SHAPE_REPRESENTATION('',(#370),#604);
#613=PRODUCT_DEFINITION_CONTEXT('part definition',#618,'design');
#614=PRODUCT_DEFINITION('Inner Container','Inner Container',#615,#613);
#615=PRODUCT_DEFINITION_FORMATION('',$,#620);
#616=PRODUCT_RELATED_PRODUCT_CATEGORY('Inner Container',
'Inner Container',(#620));
#617=APPLICATION_PROTOCOL_DEFINITION('international standard',
'automotive_design',2009,#618);
#618=APPLICATION_CONTEXT(
'Core Data for Automotive Mechanical Design Process');
#619=PRODUCT_CONTEXT('part definition',#618,'mechanical');
#620=PRODUCT('Inner Container','Inner Container',$,(#619));
#621=PRESENTATION_STYLE_ASSIGNMENT((#622));
#622=SURFACE_STYLE_USAGE(.BOTH.,#623);
#623=SURFACE_SIDE_STYLE('',(#624));
#624=SURFACE_STYLE_FILL_AREA(#625);
#625=FILL_AREA_STYLE('Steel - Satin',(#626));
#626=FILL_AREA_STYLE_COLOUR('Steel - Satin',#627);
#627=COLOUR_RGB('Steel - Satin',0.627450980392157,0.627450980392157,0.627450980392157);
ENDSEC;
END-ISO-10303-21;
