ISO-10303-21;
HEADER;
/* Generated by software containing ST-Developer
 * from STEP Tools, Inc. (www.steptools.com) 
 */

FILE_DESCRIPTION(
/* description */ (''),
/* implementation_level */ '2;1');

FILE_NAME(
/* name */ 'Lower Plate.step',
/* time_stamp */ '2026-10-02T15:59:04-04:00',
/* author */ (''),
/* organization */ (''),
/* preprocessor_version */ 'ST-DEVELOPER v20.2',
/* originating_system */ 'Autodesk Translation Framework v15.15.0.0',
/* authorisation */ '');

FILE_SCHEMA (('AUTOMOTIVE_DESIGN { 1 0 10303 214 3 1 1 }'));
ENDSEC;

DATA;
#10=MECHANICAL_DESIGN_GEOMETRIC_PRESENTATION_REPRESENTATION('',(#13),#427);
#11=SHAPE_REPRESENTATION_RELATIONSHIP('SRR','None',#434,#12);
#12=ADVANCED_BREP_SHAPE_REPRESENTATION('',(#14),#426);
#13=STYLED_ITEM('',(#443),#14);
#14=MANIFOLD_SOLID_BREP('Body1',#243);
#15=CONICAL_SURFACE('',#275,5.25,0.020943951023932);
#16=CONICAL_SURFACE('',#278,7.4,0.020943951023932);
#17=FACE_BOUND('',#47,.T.);
#18=FACE_BOUND('',#52,.T.);
#19=FACE_BOUND('',#56,.T.);
#20=FACE_BOUND('',#58,.T.);
#21=FACE_BOUND('',#60,.T.);
#22=CYLINDRICAL_SURFACE('',#259,1.);
#23=CYLINDRICAL_SURFACE('',#261,1.4);
#24=CYLINDRICAL_SURFACE('',#269,20.);
#25=CYLINDRICAL_SURFACE('',#271,5.25);
#26=FACE_OUTER_BOUND('',#41,.T.);
#27=FACE_OUTER_BOUND('',#42,.T.);
#28=FACE_OUTER_BOUND('',#43,.T.);
#29=FACE_OUTER_BOUND('',#44,.T.);
#30=FACE_OUTER_BOUND('',#45,.T.);
#31=FACE_OUTER_BOUND('',#46,.T.);
#32=FACE_OUTER_BOUND('',#48,.T.);
#33=FACE_OUTER_BOUND('',#49,.T.);
#34=FACE_OUTER_BOUND('',#50,.T.);
#35=FACE_OUTER_BOUND('',#51,.T.);
#36=FACE_OUTER_BOUND('',#53,.T.);
#37=FACE_OUTER_BOUND('',#54,.T.);
#38=FACE_OUTER_BOUND('',#55,.T.);
#39=FACE_OUTER_BOUND('',#57,.T.);
#40=FACE_OUTER_BOUND('',#59,.T.);
#41=EDGE_LOOP('',(#159,#160,#161,#162));
#42=EDGE_LOOP('',(#163,#164,#165,#166));
#43=EDGE_LOOP('',(#167,#168,#169,#170));
#44=EDGE_LOOP('',(#171,#172,#173,#174));
#45=EDGE_LOOP('',(#175,#176,#177,#178,#179,#180));
#46=EDGE_LOOP('',(#181,#182,#183,#184));
#47=EDGE_LOOP('',(#185));
#48=EDGE_LOOP('',(#186,#187,#188,#189,#190,#191));
#49=EDGE_LOOP('',(#192,#193,#194,#195));
#50=EDGE_LOOP('',(#196,#197,#198,#199));
#51=EDGE_LOOP('',(#200));
#52=EDGE_LOOP('',(#201));
#53=EDGE_LOOP('',(#202,#203,#204,#205));
#54=EDGE_LOOP('',(#206,#207,#208,#209));
#55=EDGE_LOOP('',(#210));
#56=EDGE_LOOP('',(#211));
#57=EDGE_LOOP('',(#212,#213,#214,#215));
#58=EDGE_LOOP('',(#216));
#59=EDGE_LOOP('',(#217));
#60=EDGE_LOOP('',(#218));
#61=LINE('',#364,#79);
#62=LINE('',#366,#80);
#63=LINE('',#367,#81);
#64=LINE('',#370,#82);
#65=LINE('',#373,#83);
#66=LINE('',#378,#84);
#67=LINE('',#383,#85);
#68=LINE('',#384,#86);
#69=LINE('',#385,#87);
#70=LINE('',#388,#88);
#71=LINE('',#390,#89);
#72=LINE('',#391,#90);
#73=LINE('',#394,#91);
#74=LINE('',#398,#92);
#75=LINE('',#399,#93);
#76=LINE('',#406,#94);
#77=LINE('',#413,#95);
#78=LINE('',#419,#96);
#79=VECTOR('',#290,10.);
#80=VECTOR('',#291,10.);
#81=VECTOR('',#292,10.);
#82=VECTOR('',#295,10.);
#83=VECTOR('',#298,10.);
#84=VECTOR('',#303,1.4);
#85=VECTOR('',#308,10.);
#86=VECTOR('',#309,10.);
#87=VECTOR('',#310,10.);
#88=VECTOR('',#313,10.);
#89=VECTOR('',#314,10.);
#90=VECTOR('',#315,10.);
#91=VECTOR('',#318,10.);
#92=VECTOR('',#323,10.);
#93=VECTOR('',#324,10.);
#94=VECTOR('',#333,5.25);
#95=VECTOR('',#342,5.25);
#96=VECTOR('',#349,7.4);
#97=CIRCLE('',#258,1.);
#98=CIRCLE('',#260,1.);
#99=CIRCLE('',#262,1.4);
#100=CIRCLE('',#263,1.4);
#101=CIRCLE('',#267,20.);
#102=CIRCLE('',#270,20.);
#103=CIRCLE('',#272,5.25);
#104=CIRCLE('',#273,5.25);
#105=CIRCLE('',#276,5.31284104172898);
#106=CIRCLE('',#277,5.57467871559973);
#107=CIRCLE('',#279,7.07532128440027);
#108=CIRCLE('',#280,7.33715895827102);
#109=VERTEX_POINT('',#360);
#110=VERTEX_POINT('',#361);
#111=VERTEX_POINT('',#363);
#112=VERTEX_POINT('',#365);
#113=VERTEX_POINT('',#369);
#114=VERTEX_POINT('',#371);
#115=VERTEX_POINT('',#375);
#116=VERTEX_POINT('',#377);
#117=VERTEX_POINT('',#381);
#118=VERTEX_POINT('',#382);
#119=VERTEX_POINT('',#387);
#120=VERTEX_POINT('',#389);
#121=VERTEX_POINT('',#393);
#122=VERTEX_POINT('',#397);
#123=VERTEX_POINT('',#403);
#124=VERTEX_POINT('',#405);
#125=VERTEX_POINT('',#410);
#126=VERTEX_POINT('',#412);
#127=VERTEX_POINT('',#416);
#128=VERTEX_POINT('',#418);
#129=EDGE_CURVE('',#109,#110,#97,.T.);
#130=EDGE_CURVE('',#109,#111,#61,.T.);
#131=EDGE_CURVE('',#111,#112,#62,.T.);
#132=EDGE_CURVE('',#112,#110,#63,.T.);
#133=EDGE_CURVE('',#110,#113,#64,.T.);
#134=EDGE_CURVE('',#113,#114,#98,.T.);
#135=EDGE_CURVE('',#114,#109,#65,.T.);
#136=EDGE_CURVE('',#115,#115,#99,.T.);
#137=EDGE_CURVE('',#115,#116,#66,.T.);
#138=EDGE_CURVE('',#116,#116,#100,.T.);
#139=EDGE_CURVE('',#117,#118,#67,.T.);
#140=EDGE_CURVE('',#117,#112,#68,.T.);
#141=EDGE_CURVE('',#118,#111,#69,.T.);
#142=EDGE_CURVE('',#114,#119,#70,.T.);
#143=EDGE_CURVE('',#120,#119,#71,.T.);
#144=EDGE_CURVE('',#120,#118,#72,.T.);
#145=EDGE_CURVE('',#121,#113,#73,.T.);
#146=EDGE_CURVE('',#119,#121,#101,.T.);
#147=EDGE_CURVE('',#117,#122,#74,.T.);
#148=EDGE_CURVE('',#121,#122,#75,.T.);
#149=EDGE_CURVE('',#120,#122,#102,.T.);
#150=EDGE_CURVE('',#123,#123,#103,.T.);
#151=EDGE_CURVE('',#123,#124,#76,.T.);
#152=EDGE_CURVE('',#124,#124,#104,.T.);
#153=EDGE_CURVE('',#125,#125,#105,.T.);
#154=EDGE_CURVE('',#125,#126,#77,.T.);
#155=EDGE_CURVE('',#126,#126,#106,.T.);
#156=EDGE_CURVE('',#127,#127,#107,.T.);
#157=EDGE_CURVE('',#127,#128,#78,.T.);
#158=EDGE_CURVE('',#128,#128,#108,.T.);
#159=ORIENTED_EDGE('',*,*,#129,.F.);
#160=ORIENTED_EDGE('',*,*,#130,.T.);
#161=ORIENTED_EDGE('',*,*,#131,.T.);
#162=ORIENTED_EDGE('',*,*,#132,.T.);
#163=ORIENTED_EDGE('',*,*,#129,.T.);
#164=ORIENTED_EDGE('',*,*,#133,.T.);
#165=ORIENTED_EDGE('',*,*,#134,.T.);
#166=ORIENTED_EDGE('',*,*,#135,.T.);
#167=ORIENTED_EDGE('',*,*,#136,.F.);
#168=ORIENTED_EDGE('',*,*,#137,.T.);
#169=ORIENTED_EDGE('',*,*,#138,.F.);
#170=ORIENTED_EDGE('',*,*,#137,.F.);
#171=ORIENTED_EDGE('',*,*,#139,.F.);
#172=ORIENTED_EDGE('',*,*,#140,.T.);
#173=ORIENTED_EDGE('',*,*,#131,.F.);
#174=ORIENTED_EDGE('',*,*,#141,.F.);
#175=ORIENTED_EDGE('',*,*,#135,.F.);
#176=ORIENTED_EDGE('',*,*,#142,.T.);
#177=ORIENTED_EDGE('',*,*,#143,.F.);
#178=ORIENTED_EDGE('',*,*,#144,.T.);
#179=ORIENTED_EDGE('',*,*,#141,.T.);
#180=ORIENTED_EDGE('',*,*,#130,.F.);
#181=ORIENTED_EDGE('',*,*,#134,.F.);
#182=ORIENTED_EDGE('',*,*,#145,.F.);
#183=ORIENTED_EDGE('',*,*,#146,.F.);
#184=ORIENTED_EDGE('',*,*,#142,.F.);
#185=ORIENTED_EDGE('',*,*,#136,.T.);
#186=ORIENTED_EDGE('',*,*,#133,.F.);
#187=ORIENTED_EDGE('',*,*,#132,.F.);
#188=ORIENTED_EDGE('',*,*,#140,.F.);
#189=ORIENTED_EDGE('',*,*,#147,.T.);
#190=ORIENTED_EDGE('',*,*,#148,.F.);
#191=ORIENTED_EDGE('',*,*,#145,.T.);
#192=ORIENTED_EDGE('',*,*,#143,.T.);
#193=ORIENTED_EDGE('',*,*,#146,.T.);
#194=ORIENTED_EDGE('',*,*,#148,.T.);
#195=ORIENTED_EDGE('',*,*,#149,.F.);
#196=ORIENTED_EDGE('',*,*,#150,.F.);
#197=ORIENTED_EDGE('',*,*,#151,.T.);
#198=ORIENTED_EDGE('',*,*,#152,.F.);
#199=ORIENTED_EDGE('',*,*,#151,.F.);
#200=ORIENTED_EDGE('',*,*,#150,.T.);
#201=ORIENTED_EDGE('',*,*,#138,.T.);
#202=ORIENTED_EDGE('',*,*,#153,.F.);
#203=ORIENTED_EDGE('',*,*,#154,.T.);
#204=ORIENTED_EDGE('',*,*,#155,.F.);
#205=ORIENTED_EDGE('',*,*,#154,.F.);
#206=ORIENTED_EDGE('',*,*,#156,.T.);
#207=ORIENTED_EDGE('',*,*,#157,.T.);
#208=ORIENTED_EDGE('',*,*,#158,.F.);
#209=ORIENTED_EDGE('',*,*,#157,.F.);
#210=ORIENTED_EDGE('',*,*,#156,.F.);
#211=ORIENTED_EDGE('',*,*,#155,.T.);
#212=ORIENTED_EDGE('',*,*,#139,.T.);
#213=ORIENTED_EDGE('',*,*,#144,.F.);
#214=ORIENTED_EDGE('',*,*,#149,.T.);
#215=ORIENTED_EDGE('',*,*,#147,.F.);
#216=ORIENTED_EDGE('',*,*,#158,.T.);
#217=ORIENTED_EDGE('',*,*,#153,.T.);
#218=ORIENTED_EDGE('',*,*,#152,.T.);
#219=PLANE('',#257);
#220=PLANE('',#264);
#221=PLANE('',#265);
#222=PLANE('',#266);
#223=PLANE('',#268);
#224=PLANE('',#274);
#225=PLANE('',#281);
#226=PLANE('',#282);
#227=PLANE('',#283);
#228=ADVANCED_FACE('',(#26),#219,.T.);
#229=ADVANCED_FACE('',(#27),#22,.T.);
#230=ADVANCED_FACE('',(#28),#23,.F.);
#231=ADVANCED_FACE('',(#29),#220,.T.);
#232=ADVANCED_FACE('',(#30),#221,.T.);
#233=ADVANCED_FACE('',(#31,#17),#222,.F.);
#234=ADVANCED_FACE('',(#32),#223,.T.);
#235=ADVANCED_FACE('',(#33),#24,.T.);
#236=ADVANCED_FACE('',(#34),#25,.T.);
#237=ADVANCED_FACE('',(#35,#18),#224,.T.);
#238=ADVANCED_FACE('',(#36),#15,.F.);
#239=ADVANCED_FACE('',(#37),#16,.T.);
#240=ADVANCED_FACE('',(#38,#19),#225,.T.);
#241=ADVANCED_FACE('',(#39,#20),#226,.T.);
#242=ADVANCED_FACE('',(#40,#21),#227,.T.);
#243=CLOSED_SHELL('',(#228,#229,#230,#231,#232,#233,#234,#235,#236,#237,
#238,#239,#240,#241,#242));
#244=DERIVED_UNIT_ELEMENT(#246,1.);
#245=DERIVED_UNIT_ELEMENT(#429,-3.);
#246=(
MASS_UNIT()
NAMED_UNIT(*)
SI_UNIT(.KILO.,.GRAM.)
);
#247=DERIVED_UNIT((#244,#245));
#248=MEASURE_REPRESENTATION_ITEM('density measure',
POSITIVE_RATIO_MEASURE(7850.),#247);
#249=PROPERTY_DEFINITION_REPRESENTATION(#254,#251);
#250=PROPERTY_DEFINITION_REPRESENTATION(#255,#252);
#251=REPRESENTATION('material name',(#253),#426);
#252=REPRESENTATION('density',(#248),#426);
#253=DESCRIPTIVE_REPRESENTATION_ITEM('Steel','Steel');
#254=PROPERTY_DEFINITION('material property','material name',#436);
#255=PROPERTY_DEFINITION('material property','density of part',#436);
#256=AXIS2_PLACEMENT_3D('',#358,#284,#285);
#257=AXIS2_PLACEMENT_3D('',#359,#286,#287);
#258=AXIS2_PLACEMENT_3D('',#362,#288,#289);
#259=AXIS2_PLACEMENT_3D('',#368,#293,#294);
#260=AXIS2_PLACEMENT_3D('',#372,#296,#297);
#261=AXIS2_PLACEMENT_3D('',#374,#299,#300);
#262=AXIS2_PLACEMENT_3D('',#376,#301,#302);
#263=AXIS2_PLACEMENT_3D('',#379,#304,#305);
#264=AXIS2_PLACEMENT_3D('',#380,#306,#307);
#265=AXIS2_PLACEMENT_3D('',#386,#311,#312);
#266=AXIS2_PLACEMENT_3D('',#392,#316,#317);
#267=AXIS2_PLACEMENT_3D('',#395,#319,#320);
#268=AXIS2_PLACEMENT_3D('',#396,#321,#322);
#269=AXIS2_PLACEMENT_3D('',#400,#325,#326);
#270=AXIS2_PLACEMENT_3D('',#401,#327,#328);
#271=AXIS2_PLACEMENT_3D('',#402,#329,#330);
#272=AXIS2_PLACEMENT_3D('',#404,#331,#332);
#273=AXIS2_PLACEMENT_3D('',#407,#334,#335);
#274=AXIS2_PLACEMENT_3D('',#408,#336,#337);
#275=AXIS2_PLACEMENT_3D('',#409,#338,#339);
#276=AXIS2_PLACEMENT_3D('',#411,#340,#341);
#277=AXIS2_PLACEMENT_3D('',#414,#343,#344);
#278=AXIS2_PLACEMENT_3D('',#415,#345,#346);
#279=AXIS2_PLACEMENT_3D('',#417,#347,#348);
#280=AXIS2_PLACEMENT_3D('',#420,#350,#351);
#281=AXIS2_PLACEMENT_3D('',#421,#352,#353);
#282=AXIS2_PLACEMENT_3D('',#422,#354,#355);
#283=AXIS2_PLACEMENT_3D('',#423,#356,#357);
#284=DIRECTION('axis',(0.,0.,1.));
#285=DIRECTION('refdir',(1.,0.,0.));
#286=DIRECTION('center_axis',(0.,0.,1.));
#287=DIRECTION('ref_axis',(1.,0.,0.));
#288=DIRECTION('center_axis',(0.,0.,-1.));
#289=DIRECTION('ref_axis',(-0.707106781186549,0.707106781186546,0.));
#290=DIRECTION('',(-2.46573591506684E-17,-1.,0.));
#291=DIRECTION('',(1.,0.,0.));
#292=DIRECTION('',(-3.69860387260027E-17,1.,0.));
#293=DIRECTION('center_axis',(0.,0.,1.));
#294=DIRECTION('ref_axis',(-0.707106781186549,0.707106781186546,0.));
#295=DIRECTION('',(0.,0.,-1.));
#296=DIRECTION('center_axis',(0.,0.,1.));
#297=DIRECTION('ref_axis',(-0.707106781186549,0.707106781186546,0.));
#298=DIRECTION('',(0.,0.,1.));
#299=DIRECTION('center_axis',(0.,0.,1.));
#300=DIRECTION('ref_axis',(1.,0.,0.));
#301=DIRECTION('center_axis',(0.,0.,1.));
#302=DIRECTION('ref_axis',(1.,0.,0.));
#303=DIRECTION('',(0.,0.,1.));
#304=DIRECTION('center_axis',(0.,0.,-1.));
#305=DIRECTION('ref_axis',(1.,0.,0.));
#306=DIRECTION('center_axis',(0.,-1.,0.));
#307=DIRECTION('ref_axis',(1.,0.,0.));
#308=DIRECTION('',(-1.,0.,0.));
#309=DIRECTION('',(0.,0.,1.));
#310=DIRECTION('',(0.,0.,1.));
#311=DIRECTION('center_axis',(-1.,2.46573591506684E-17,0.));
#312=DIRECTION('ref_axis',(-2.46573591506684E-17,-1.,0.));
#313=DIRECTION('',(-2.46573591506684E-17,-1.,0.));
#314=DIRECTION('',(0.,0.,-1.));
#315=DIRECTION('',(2.46573591506684E-17,1.,0.));
#316=DIRECTION('center_axis',(0.,0.,1.));
#317=DIRECTION('ref_axis',(1.,0.,0.));
#318=DIRECTION('',(-3.69860387260027E-17,1.,0.));
#319=DIRECTION('center_axis',(0.,0.,1.));
#320=DIRECTION('ref_axis',(1.,0.,0.));
#321=DIRECTION('center_axis',(1.,3.69860387260027E-17,0.));
#322=DIRECTION('ref_axis',(-3.69860387260027E-17,1.,0.));
#323=DIRECTION('',(3.69860387260027E-17,-1.,0.));
#324=DIRECTION('',(0.,0.,1.));
#325=DIRECTION('center_axis',(0.,0.,1.));
#326=DIRECTION('ref_axis',(-1.83697019872103E-16,-1.,0.));
#327=DIRECTION('center_axis',(0.,0.,1.));
#328=DIRECTION('ref_axis',(1.,0.,0.));
#329=DIRECTION('center_axis',(0.,0.,1.));
#330=DIRECTION('ref_axis',(1.,0.,0.));
#331=DIRECTION('center_axis',(0.,0.,1.));
#332=DIRECTION('ref_axis',(1.,0.,0.));
#333=DIRECTION('',(0.,0.,-1.));
#334=DIRECTION('center_axis',(0.,0.,-1.));
#335=DIRECTION('ref_axis',(1.,0.,0.));
#336=DIRECTION('center_axis',(0.,0.,1.));
#337=DIRECTION('ref_axis',(1.,0.,0.));
#338=DIRECTION('center_axis',(0.,0.,1.));
#339=DIRECTION('ref_axis',(1.,0.,0.));
#340=DIRECTION('center_axis',(0.,0.,1.));
#341=DIRECTION('ref_axis',(1.,0.,0.));
#342=DIRECTION('',(-0.020942419883357,-2.5647067476553E-18,0.999780683474845));
#343=DIRECTION('center_axis',(0.,0.,-1.));
#344=DIRECTION('ref_axis',(1.,0.,0.));
#345=DIRECTION('center_axis',(0.,0.,-1.));
#346=DIRECTION('ref_axis',(1.,0.,0.));
#347=DIRECTION('center_axis',(0.,0.,-1.));
#348=DIRECTION('ref_axis',(1.,0.,0.));
#349=DIRECTION('',(-0.020942419883357,-2.5647067476553E-18,-0.999780683474845));
#350=DIRECTION('center_axis',(0.,0.,-1.));
#351=DIRECTION('ref_axis',(1.,0.,0.));
#352=DIRECTION('center_axis',(0.,0.,1.));
#353=DIRECTION('ref_axis',(1.,0.,0.));
#354=DIRECTION('center_axis',(0.,0.,1.));
#355=DIRECTION('ref_axis',(1.,0.,0.));
#356=DIRECTION('center_axis',(0.,0.,1.));
#357=DIRECTION('ref_axis',(1.,0.,0.));
#358=CARTESIAN_POINT('',(0.,0.,0.));
#359=CARTESIAN_POINT('Origin',(0.,38.488,13.));
#360=CARTESIAN_POINT('',(-1.,41.488,13.));
#361=CARTESIAN_POINT('',(1.,41.488,13.));
#362=CARTESIAN_POINT('Origin',(0.,41.488,13.));
#363=CARTESIAN_POINT('',(-1.,34.488,13.));
#364=CARTESIAN_POINT('',(-1.,40.488,13.));
#365=CARTESIAN_POINT('',(1.,34.488,13.));
#366=CARTESIAN_POINT('',(-0.5,34.488,13.));
#367=CARTESIAN_POINT('',(1.,36.488,13.));
#368=CARTESIAN_POINT('Origin',(0.,41.488,4.));
#369=CARTESIAN_POINT('',(1.,41.488,4.));
#370=CARTESIAN_POINT('',(1.,41.488,4.));
#371=CARTESIAN_POINT('',(-1.,41.488,4.));
#372=CARTESIAN_POINT('Origin',(0.,41.488,4.));
#373=CARTESIAN_POINT('',(-1.,41.488,4.));
#374=CARTESIAN_POINT('Origin',(0.,0.,4.));
#375=CARTESIAN_POINT('',(-1.4,1.71450551880629E-16,4.));
#376=CARTESIAN_POINT('Origin',(0.,0.,4.));
#377=CARTESIAN_POINT('',(-1.4,1.71450551880629E-16,8.));
#378=CARTESIAN_POINT('',(-1.4,-1.71450551880629E-16,4.));
#379=CARTESIAN_POINT('Origin',(0.,0.,8.));
#380=CARTESIAN_POINT('Origin',(-1.,34.488,4.));
#381=CARTESIAN_POINT('',(1.,34.488,6.));
#382=CARTESIAN_POINT('',(-1.,34.488,6.));
#383=CARTESIAN_POINT('',(-0.5,34.488,6.));
#384=CARTESIAN_POINT('',(1.,34.488,4.));
#385=CARTESIAN_POINT('',(-1.,34.488,4.));
#386=CARTESIAN_POINT('Origin',(-1.,42.488,4.));
#387=CARTESIAN_POINT('',(-1.,19.9749843554382,4.));
#388=CARTESIAN_POINT('',(-1.,36.8597460888595,4.));
#389=CARTESIAN_POINT('',(-1.,19.9749843554382,6.));
#390=CARTESIAN_POINT('',(-1.,19.9749843554382,4.));
#391=CARTESIAN_POINT('',(-1.,36.8597460888595,6.));
#392=CARTESIAN_POINT('Origin',(0.,0.,4.));
#393=CARTESIAN_POINT('',(1.,19.9749843554382,4.));
#394=CARTESIAN_POINT('',(1.,25.6032382665786,4.));
#395=CARTESIAN_POINT('Origin',(0.,0.,4.));
#396=CARTESIAN_POINT('Origin',(1.,19.9749843554382,4.));
#397=CARTESIAN_POINT('',(1.,19.9749843554382,6.));
#398=CARTESIAN_POINT('',(1.,25.6032382665786,6.));
#399=CARTESIAN_POINT('',(1.,19.9749843554382,4.));
#400=CARTESIAN_POINT('Origin',(0.,0.,4.));
#401=CARTESIAN_POINT('Origin',(0.,0.,6.));
#402=CARTESIAN_POINT('Origin',(0.,0.,6.));
#403=CARTESIAN_POINT('',(-5.25,6.42939569552361E-16,8.));
#404=CARTESIAN_POINT('Origin',(0.,0.,8.));
#405=CARTESIAN_POINT('',(-5.25,6.42939569552361E-16,6.));
#406=CARTESIAN_POINT('',(-5.25,-6.42939569552361E-16,6.));
#407=CARTESIAN_POINT('Origin',(0.,0.,6.));
#408=CARTESIAN_POINT('Origin',(0.,0.,8.));
#409=CARTESIAN_POINT('Origin',(0.,0.,3.));
#410=CARTESIAN_POINT('',(-5.31284104172898,-6.50635377613209E-16,6.));
#411=CARTESIAN_POINT('Origin',(0.,0.,6.));
#412=CARTESIAN_POINT('',(-5.57467871559973,6.82701244533409E-16,18.5));
#413=CARTESIAN_POINT('',(-5.25,-6.42939569552361E-16,3.));
#414=CARTESIAN_POINT('Origin',(0.,0.,18.5));
#415=CARTESIAN_POINT('Origin',(0.,0.,3.));
#416=CARTESIAN_POINT('',(-7.07532128440027,-8.66476956387993E-16,18.5));
#417=CARTESIAN_POINT('Origin',(0.,0.,18.5));
#418=CARTESIAN_POINT('',(-7.33715895827102,8.98542823308193E-16,6.));
#419=CARTESIAN_POINT('',(-7.4,-9.06238631369041E-16,3.));
#420=CARTESIAN_POINT('Origin',(0.,0.,6.));
#421=CARTESIAN_POINT('Origin',(0.,0.,18.5));
#422=CARTESIAN_POINT('Origin',(0.,0.,6.));
#423=CARTESIAN_POINT('Origin',(0.,0.,6.));
#424=UNCERTAINTY_MEASURE_WITH_UNIT(LENGTH_MEASURE(0.01),#428,
'DISTANCE_ACCURACY_VALUE',
'Maximum model space distance between geometric entities at asserted c
onnectivities');
#425=UNCERTAINTY_MEASURE_WITH_UNIT(LENGTH_MEASURE(0.01),#428,
'DISTANCE_ACCURACY_VALUE',
'Maximum model space distance between geometric entities at asserted c
onnectivities');
#426=(
GEOMETRIC_REPRESENTATION_CONTEXT(3)
GLOBAL_UNCERTAINTY_ASSIGNED_CONTEXT((#424))
GLOBAL_UNIT_ASSIGNED_CONTEXT((#428,#430,#431))
REPRESENTATION_CONTEXT('','3D')
);
#427=(
GEOMETRIC_REPRESENTATION_CONTEXT(3)
GLOBAL_UNCERTAINTY_ASSIGNED_CONTEXT((#425))
GLOBAL_UNIT_ASSIGNED_CONTEXT((#428,#430,#431))
REPRESENTATION_CONTEXT('','3D')
);
#428=(
LENGTH_UNIT()
NAMED_UNIT(*)
SI_UNIT(.MILLI.,.METRE.)
);
#429=(
LENGTH_UNIT()
NAMED_UNIT(*)
SI_UNIT($,.METRE.)
);
#430=(
NAMED_UNIT(*)
PLANE_ANGLE_UNIT()
SI_UNIT($,.RADIAN.)
);
#431=(
NAMED_UNIT(*)
SI_UNIT($,.STERADIAN.)
SOLID_ANGLE_UNIT()
);
#432=SHAPE_DEFINITION_REPRESENTATION(#433,#434);
#433=PRODUCT_DEFINITION_SHAPE('',$,#436);
#434=SHAPE_REPRESENTATION('',(#256),#426);
#435=PRODUCT_DEFINITION_CONTEXT('part definition',#440,'design');
#436=PRODUCT_DEFINITION('Lower Plate','Lower Plate',#437,#435);
#437=PRODUCT_DEFINITION_FORMATION('',$,#442);
#438=PRODUCT_RELATED_PRODUCT_CATEGORY('Lower Plate','Lower Plate',(#442));
#439=APPLICATION_PROTOCOL_DEFINITION('international standard',
'automotive_design',2009,#440);
#440=APPLICATION_CONTEXT(
'Core Data for Automotive Mechanical Design Process');
#441=PRODUCT_CONTEXT('part definition',#440,'mechanical');
#442=PRODUCT('Lower Plate','Lower Plate',$,(#441));
#443=PRESENTATION_STYLE_ASSIGNMENT((#444));
#444=SURFACE_STYLE_USAGE(.BOTH.,#445);
#445=SURFACE_SIDE_STYLE('',(#446));
#446=SURFACE_STYLE_FILL_AREA(#447);
#447=FILL_AREA_STYLE('Steel - Satin',(#448));
#448=FILL_AREA_STYLE_COLOUR('Steel - Satin',#449);
#449=COLOUR_RGB('Steel - Satin',0.627450980392157,0.627450980392157,0.627450980392157);
ENDSEC;
END-ISO-10303-21;
