ISO-10303-21;
HEADER;
/* Generated by software containing ST-Developer
 * from STEP Tools, Inc. (www.steptools.com) 
 */

FILE_DESCRIPTION(
/* description */ (''),
/* implementation_level */ '2;1');

FILE_NAME(
/* name */ 'PRT_Base attached with CNC.step',
/* time_stamp */ '2026-10-02T15:55:53-04:00',
/* author */ (''),
/* organization */ (''),
/* preprocessor_version */ 'ST-DEVELOPER v20.2',
/* originating_system */ 'Autodesk Translation Framework v15.15.0.0',
/* authorisation */ '');

FILE_SCHEMA (('AUTOMOTIVE_DESIGN { 1 0 10303 214 3 1 1 }'));
ENDSEC;

DATA;
#10=MECHANICAL_DESIGN_GEOMETRIC_PRESENTATION_REPRESENTATION('',(#13),#1260);
#11=SHAPE_REPRESENTATION_RELATIONSHIP('SRR','None',#1267,#12);
#12=ADVANCED_BREP_SHAPE_REPRESENTATION('',(#14),#1259);
#13=STYLED_ITEM('',(#1276),#14);
#14=MANIFOLD_SOLID_BREP('Body1',#760);
#15=FACE_BOUND('',#100,.T.);
#16=FACE_BOUND('',#101,.T.);
#17=FACE_BOUND('',#102,.T.);
#18=FACE_BOUND('',#131,.T.);
#19=FACE_BOUND('',#132,.T.);
#20=PLANE('',#777);
#21=PLANE('',#781);
#22=PLANE('',#785);
#23=PLANE('',#789);
#24=PLANE('',#793);
#25=PLANE('',#799);
#26=PLANE('',#804);
#27=PLANE('',#806);
#28=PLANE('',#808);
#29=PLANE('',#811);
#30=PLANE('',#814);
#31=PLANE('',#815);
#32=PLANE('',#816);
#33=PLANE('',#817);
#34=PLANE('',#818);
#35=PLANE('',#819);
#36=PLANE('',#820);
#37=PLANE('',#821);
#38=PLANE('',#822);
#39=PLANE('',#823);
#40=PLANE('',#824);
#41=PLANE('',#825);
#42=PLANE('',#826);
#43=PLANE('',#827);
#44=PLANE('',#828);
#45=PLANE('',#829);
#46=PLANE('',#830);
#47=PLANE('',#831);
#48=PLANE('',#832);
#49=PLANE('',#833);
#50=FACE_OUTER_BOUND('',#90,.T.);
#51=FACE_OUTER_BOUND('',#91,.T.);
#52=FACE_OUTER_BOUND('',#92,.T.);
#53=FACE_OUTER_BOUND('',#93,.T.);
#54=FACE_OUTER_BOUND('',#94,.T.);
#55=FACE_OUTER_BOUND('',#95,.T.);
#56=FACE_OUTER_BOUND('',#96,.T.);
#57=FACE_OUTER_BOUND('',#97,.T.);
#58=FACE_OUTER_BOUND('',#98,.T.);
#59=FACE_OUTER_BOUND('',#99,.T.);
#60=FACE_OUTER_BOUND('',#103,.T.);
#61=FACE_OUTER_BOUND('',#104,.T.);
#62=FACE_OUTER_BOUND('',#105,.T.);
#63=FACE_OUTER_BOUND('',#106,.T.);
#64=FACE_OUTER_BOUND('',#107,.T.);
#65=FACE_OUTER_BOUND('',#108,.T.);
#66=FACE_OUTER_BOUND('',#109,.T.);
#67=FACE_OUTER_BOUND('',#110,.T.);
#68=FACE_OUTER_BOUND('',#111,.T.);
#69=FACE_OUTER_BOUND('',#112,.T.);
#70=FACE_OUTER_BOUND('',#113,.T.);
#71=FACE_OUTER_BOUND('',#114,.T.);
#72=FACE_OUTER_BOUND('',#115,.T.);
#73=FACE_OUTER_BOUND('',#116,.T.);
#74=FACE_OUTER_BOUND('',#117,.T.);
#75=FACE_OUTER_BOUND('',#118,.T.);
#76=FACE_OUTER_BOUND('',#119,.T.);
#77=FACE_OUTER_BOUND('',#120,.T.);
#78=FACE_OUTER_BOUND('',#121,.T.);
#79=FACE_OUTER_BOUND('',#122,.T.);
#80=FACE_OUTER_BOUND('',#123,.T.);
#81=FACE_OUTER_BOUND('',#124,.T.);
#82=FACE_OUTER_BOUND('',#125,.T.);
#83=FACE_OUTER_BOUND('',#126,.T.);
#84=FACE_OUTER_BOUND('',#127,.T.);
#85=FACE_OUTER_BOUND('',#128,.T.);
#86=FACE_OUTER_BOUND('',#129,.T.);
#87=FACE_OUTER_BOUND('',#130,.T.);
#88=FACE_OUTER_BOUND('',#133,.T.);
#89=FACE_OUTER_BOUND('',#134,.T.);
#90=EDGE_LOOP('',(#500,#501,#502,#503));
#91=EDGE_LOOP('',(#504,#505,#506,#507,#508));
#92=EDGE_LOOP('',(#509,#510,#511,#512));
#93=EDGE_LOOP('',(#513,#514,#515,#516));
#94=EDGE_LOOP('',(#517,#518,#519,#520));
#95=EDGE_LOOP('',(#521,#522,#523,#524));
#96=EDGE_LOOP('',(#525,#526,#527,#528));
#97=EDGE_LOOP('',(#529,#530,#531,#532));
#98=EDGE_LOOP('',(#533,#534,#535,#536));
#99=EDGE_LOOP('',(#537,#538,#539,#540,#541,#542));
#100=EDGE_LOOP('',(#543));
#101=EDGE_LOOP('',(#544));
#102=EDGE_LOOP('',(#545,#546,#547,#548,#549,#550,#551,#552,#553,#554,#555,
#556));
#103=EDGE_LOOP('',(#557,#558,#559,#560));
#104=EDGE_LOOP('',(#561,#562,#563,#564));
#105=EDGE_LOOP('',(#565,#566,#567,#568));
#106=EDGE_LOOP('',(#569,#570,#571,#572,#573,#574,#575,#576,#577,#578,#579,
#580,#581,#582,#583,#584));
#107=EDGE_LOOP('',(#585,#586,#587,#588));
#108=EDGE_LOOP('',(#589,#590,#591,#592));
#109=EDGE_LOOP('',(#593,#594,#595,#596,#597));
#110=EDGE_LOOP('',(#598,#599,#600,#601));
#111=EDGE_LOOP('',(#602));
#112=EDGE_LOOP('',(#603,#604,#605,#606));
#113=EDGE_LOOP('',(#607));
#114=EDGE_LOOP('',(#608,#609,#610,#611));
#115=EDGE_LOOP('',(#612,#613,#614,#615));
#116=EDGE_LOOP('',(#616,#617,#618,#619));
#117=EDGE_LOOP('',(#620,#621,#622,#623));
#118=EDGE_LOOP('',(#624,#625,#626,#627));
#119=EDGE_LOOP('',(#628,#629,#630,#631));
#120=EDGE_LOOP('',(#632,#633,#634,#635,#636,#637));
#121=EDGE_LOOP('',(#638,#639,#640,#641));
#122=EDGE_LOOP('',(#642,#643,#644,#645));
#123=EDGE_LOOP('',(#646,#647,#648,#649));
#124=EDGE_LOOP('',(#650,#651,#652,#653));
#125=EDGE_LOOP('',(#654,#655,#656,#657));
#126=EDGE_LOOP('',(#658,#659,#660,#661));
#127=EDGE_LOOP('',(#662,#663,#664,#665,#666,#667));
#128=EDGE_LOOP('',(#668,#669,#670,#671));
#129=EDGE_LOOP('',(#672,#673,#674,#675,#676,#677,#678,#679,#680,#681));
#130=EDGE_LOOP('',(#682,#683,#684,#685));
#131=EDGE_LOOP('',(#686,#687,#688,#689,#690,#691));
#132=EDGE_LOOP('',(#692,#693,#694,#695,#696,#697));
#133=EDGE_LOOP('',(#698,#699,#700,#701,#702,#703));
#134=EDGE_LOOP('',(#704,#705,#706,#707,#708,#709));
#135=ELLIPSE('',#776,2.09538182678003,2.);
#136=ELLIPSE('',#788,2.09538182678003,2.);
#137=LINE('',#1047,#222);
#138=LINE('',#1050,#223);
#139=LINE('',#1053,#224);
#140=LINE('',#1055,#225);
#141=LINE('',#1057,#226);
#142=LINE('',#1058,#227);
#143=LINE('',#1063,#228);
#144=LINE('',#1067,#229);
#145=LINE('',#1069,#230);
#146=LINE('',#1070,#231);
#147=LINE('',#1075,#232);
#148=LINE('',#1079,#233);
#149=LINE('',#1081,#234);
#150=LINE('',#1082,#235);
#151=LINE('',#1088,#236);
#152=LINE('',#1091,#237);
#153=LINE('',#1093,#238);
#154=LINE('',#1094,#239);
#155=LINE('',#1100,#240);
#156=LINE('',#1103,#241);
#157=LINE('',#1109,#242);
#158=LINE('',#1111,#243);
#159=LINE('',#1113,#244);
#160=LINE('',#1116,#245);
#161=LINE('',#1122,#246);
#162=LINE('',#1124,#247);
#163=LINE('',#1127,#248);
#164=LINE('',#1128,#249);
#165=LINE('',#1135,#250);
#166=LINE('',#1136,#251);
#167=LINE('',#1139,#252);
#168=LINE('',#1141,#253);
#169=LINE('',#1142,#254);
#170=LINE('',#1144,#255);
#171=LINE('',#1148,#256);
#172=LINE('',#1149,#257);
#173=LINE('',#1151,#258);
#174=LINE('',#1153,#259);
#175=LINE('',#1155,#260);
#176=LINE('',#1158,#261);
#177=LINE('',#1163,#262);
#178=LINE('',#1169,#263);
#179=LINE('',#1171,#264);
#180=LINE('',#1173,#265);
#181=LINE('',#1174,#266);
#182=LINE('',#1177,#267);
#183=LINE('',#1179,#268);
#184=LINE('',#1180,#269);
#185=LINE('',#1183,#270);
#186=LINE('',#1185,#271);
#187=LINE('',#1186,#272);
#188=LINE('',#1189,#273);
#189=LINE('',#1191,#274);
#190=LINE('',#1192,#275);
#191=LINE('',#1195,#276);
#192=LINE('',#1197,#277);
#193=LINE('',#1198,#278);
#194=LINE('',#1200,#279);
#195=LINE('',#1201,#280);
#196=LINE('',#1206,#281);
#197=LINE('',#1208,#282);
#198=LINE('',#1210,#283);
#199=LINE('',#1211,#284);
#200=LINE('',#1214,#285);
#201=LINE('',#1216,#286);
#202=LINE('',#1217,#287);
#203=LINE('',#1220,#288);
#204=LINE('',#1222,#289);
#205=LINE('',#1223,#290);
#206=LINE('',#1226,#291);
#207=LINE('',#1228,#292);
#208=LINE('',#1229,#293);
#209=LINE('',#1232,#294);
#210=LINE('',#1234,#295);
#211=LINE('',#1235,#296);
#212=LINE('',#1237,#297);
#213=LINE('',#1238,#298);
#214=LINE('',#1243,#299);
#215=LINE('',#1245,#300);
#216=LINE('',#1247,#301);
#217=LINE('',#1248,#302);
#218=LINE('',#1250,#303);
#219=LINE('',#1251,#304);
#220=LINE('',#1253,#305);
#221=LINE('',#1254,#306);
#222=VECTOR('',#840,10.);
#223=VECTOR('',#843,10.);
#224=VECTOR('',#846,10.);
#225=VECTOR('',#847,10.);
#226=VECTOR('',#848,10.);
#227=VECTOR('',#849,10.);
#228=VECTOR('',#854,10.);
#229=VECTOR('',#859,10.);
#230=VECTOR('',#860,10.);
#231=VECTOR('',#861,10.);
#232=VECTOR('',#866,10.);
#233=VECTOR('',#871,10.);
#234=VECTOR('',#872,10.);
#235=VECTOR('',#873,10.);
#236=VECTOR('',#878,10.);
#237=VECTOR('',#881,10.);
#238=VECTOR('',#884,10.);
#239=VECTOR('',#885,10.);
#240=VECTOR('',#890,10.);
#241=VECTOR('',#893,10.);
#242=VECTOR('',#898,10.);
#243=VECTOR('',#899,10.);
#244=VECTOR('',#900,10.);
#245=VECTOR('',#903,10.);
#246=VECTOR('',#908,10.);
#247=VECTOR('',#911,10.);
#248=VECTOR('',#914,10.);
#249=VECTOR('',#915,10.);
#250=VECTOR('',#924,10.);
#251=VECTOR('',#925,10.);
#252=VECTOR('',#928,10.);
#253=VECTOR('',#929,10.);
#254=VECTOR('',#930,10.);
#255=VECTOR('',#931,10.);
#256=VECTOR('',#934,10.);
#257=VECTOR('',#935,10.);
#258=VECTOR('',#938,10.);
#259=VECTOR('',#941,10.);
#260=VECTOR('',#944,10.);
#261=VECTOR('',#947,2.4);
#262=VECTOR('',#954,2.4);
#263=VECTOR('',#961,10.);
#264=VECTOR('',#962,10.);
#265=VECTOR('',#963,10.);
#266=VECTOR('',#964,10.);
#267=VECTOR('',#967,10.);
#268=VECTOR('',#968,10.);
#269=VECTOR('',#969,10.);
#270=VECTOR('',#972,10.);
#271=VECTOR('',#973,10.);
#272=VECTOR('',#974,10.);
#273=VECTOR('',#977,10.);
#274=VECTOR('',#978,10.);
#275=VECTOR('',#979,10.);
#276=VECTOR('',#982,10.);
#277=VECTOR('',#983,10.);
#278=VECTOR('',#984,10.);
#279=VECTOR('',#987,10.);
#280=VECTOR('',#988,10.);
#281=VECTOR('',#993,10.);
#282=VECTOR('',#994,10.);
#283=VECTOR('',#995,10.);
#284=VECTOR('',#996,10.);
#285=VECTOR('',#999,10.);
#286=VECTOR('',#1000,10.);
#287=VECTOR('',#1001,10.);
#288=VECTOR('',#1004,10.);
#289=VECTOR('',#1005,10.);
#290=VECTOR('',#1006,10.);
#291=VECTOR('',#1009,10.);
#292=VECTOR('',#1010,10.);
#293=VECTOR('',#1011,10.);
#294=VECTOR('',#1014,10.);
#295=VECTOR('',#1015,10.);
#296=VECTOR('',#1016,10.);
#297=VECTOR('',#1019,10.);
#298=VECTOR('',#1020,10.);
#299=VECTOR('',#1025,10.);
#300=VECTOR('',#1026,10.);
#301=VECTOR('',#1027,10.);
#302=VECTOR('',#1028,10.);
#303=VECTOR('',#1031,10.);
#304=VECTOR('',#1032,10.);
#305=VECTOR('',#1035,10.);
#306=VECTOR('',#1036,10.);
#307=CIRCLE('',#775,2.);
#308=CIRCLE('',#779,2.);
#309=CIRCLE('',#780,2.);
#310=CIRCLE('',#783,2.);
#311=CIRCLE('',#784,2.);
#312=CIRCLE('',#787,2.);
#313=CIRCLE('',#791,2.);
#314=CIRCLE('',#792,2.);
#315=CIRCLE('',#794,2.);
#316=CIRCLE('',#795,2.);
#317=CIRCLE('',#796,2.4);
#318=CIRCLE('',#797,2.4);
#319=CIRCLE('',#798,2.);
#320=CIRCLE('',#801,2.);
#321=CIRCLE('',#803,2.);
#322=CIRCLE('',#805,2.);
#323=CIRCLE('',#810,2.4);
#324=CIRCLE('',#813,2.4);
#325=VERTEX_POINT('',#1043);
#326=VERTEX_POINT('',#1044);
#327=VERTEX_POINT('',#1046);
#328=VERTEX_POINT('',#1048);
#329=VERTEX_POINT('',#1052);
#330=VERTEX_POINT('',#1054);
#331=VERTEX_POINT('',#1056);
#332=VERTEX_POINT('',#1060);
#333=VERTEX_POINT('',#1062);
#334=VERTEX_POINT('',#1066);
#335=VERTEX_POINT('',#1068);
#336=VERTEX_POINT('',#1072);
#337=VERTEX_POINT('',#1074);
#338=VERTEX_POINT('',#1078);
#339=VERTEX_POINT('',#1080);
#340=VERTEX_POINT('',#1084);
#341=VERTEX_POINT('',#1085);
#342=VERTEX_POINT('',#1087);
#343=VERTEX_POINT('',#1089);
#344=VERTEX_POINT('',#1096);
#345=VERTEX_POINT('',#1097);
#346=VERTEX_POINT('',#1099);
#347=VERTEX_POINT('',#1101);
#348=VERTEX_POINT('',#1105);
#349=VERTEX_POINT('',#1106);
#350=VERTEX_POINT('',#1108);
#351=VERTEX_POINT('',#1110);
#352=VERTEX_POINT('',#1112);
#353=VERTEX_POINT('',#1114);
#354=VERTEX_POINT('',#1117);
#355=VERTEX_POINT('',#1119);
#356=VERTEX_POINT('',#1121);
#357=VERTEX_POINT('',#1126);
#358=VERTEX_POINT('',#1132);
#359=VERTEX_POINT('',#1133);
#360=VERTEX_POINT('',#1138);
#361=VERTEX_POINT('',#1140);
#362=VERTEX_POINT('',#1143);
#363=VERTEX_POINT('',#1145);
#364=VERTEX_POINT('',#1147);
#365=VERTEX_POINT('',#1157);
#366=VERTEX_POINT('',#1162);
#367=VERTEX_POINT('',#1167);
#368=VERTEX_POINT('',#1168);
#369=VERTEX_POINT('',#1170);
#370=VERTEX_POINT('',#1172);
#371=VERTEX_POINT('',#1176);
#372=VERTEX_POINT('',#1178);
#373=VERTEX_POINT('',#1182);
#374=VERTEX_POINT('',#1184);
#375=VERTEX_POINT('',#1188);
#376=VERTEX_POINT('',#1190);
#377=VERTEX_POINT('',#1194);
#378=VERTEX_POINT('',#1196);
#379=VERTEX_POINT('',#1204);
#380=VERTEX_POINT('',#1205);
#381=VERTEX_POINT('',#1207);
#382=VERTEX_POINT('',#1209);
#383=VERTEX_POINT('',#1213);
#384=VERTEX_POINT('',#1215);
#385=VERTEX_POINT('',#1219);
#386=VERTEX_POINT('',#1221);
#387=VERTEX_POINT('',#1225);
#388=VERTEX_POINT('',#1227);
#389=VERTEX_POINT('',#1231);
#390=VERTEX_POINT('',#1233);
#391=VERTEX_POINT('',#1241);
#392=VERTEX_POINT('',#1242);
#393=VERTEX_POINT('',#1244);
#394=VERTEX_POINT('',#1246);
#395=EDGE_CURVE('',#325,#326,#307,.T.);
#396=EDGE_CURVE('',#326,#327,#137,.T.);
#397=EDGE_CURVE('',#327,#328,#135,.T.);
#398=EDGE_CURVE('',#328,#325,#138,.T.);
#399=EDGE_CURVE('',#329,#326,#139,.T.);
#400=EDGE_CURVE('',#330,#329,#140,.T.);
#401=EDGE_CURVE('',#331,#330,#141,.T.);
#402=EDGE_CURVE('',#327,#331,#142,.T.);
#403=EDGE_CURVE('',#329,#332,#308,.T.);
#404=EDGE_CURVE('',#332,#333,#143,.T.);
#405=EDGE_CURVE('',#333,#330,#309,.T.);
#406=EDGE_CURVE('',#334,#332,#144,.T.);
#407=EDGE_CURVE('',#335,#334,#145,.T.);
#408=EDGE_CURVE('',#333,#335,#146,.T.);
#409=EDGE_CURVE('',#334,#336,#310,.T.);
#410=EDGE_CURVE('',#336,#337,#147,.T.);
#411=EDGE_CURVE('',#337,#335,#311,.T.);
#412=EDGE_CURVE('',#338,#336,#148,.T.);
#413=EDGE_CURVE('',#339,#338,#149,.T.);
#414=EDGE_CURVE('',#337,#339,#150,.T.);
#415=EDGE_CURVE('',#340,#341,#312,.T.);
#416=EDGE_CURVE('',#341,#342,#151,.T.);
#417=EDGE_CURVE('',#342,#343,#136,.T.);
#418=EDGE_CURVE('',#343,#340,#152,.T.);
#419=EDGE_CURVE('',#342,#328,#153,.T.);
#420=EDGE_CURVE('',#325,#341,#154,.T.);
#421=EDGE_CURVE('',#344,#345,#313,.T.);
#422=EDGE_CURVE('',#345,#346,#155,.T.);
#423=EDGE_CURVE('',#346,#347,#314,.T.);
#424=EDGE_CURVE('',#347,#344,#156,.T.);
#425=EDGE_CURVE('',#348,#349,#315,.T.);
#426=EDGE_CURVE('',#350,#348,#157,.T.);
#427=EDGE_CURVE('',#351,#350,#158,.T.);
#428=EDGE_CURVE('',#352,#351,#159,.T.);
#429=EDGE_CURVE('',#353,#352,#316,.T.);
#430=EDGE_CURVE('',#353,#349,#160,.T.);
#431=EDGE_CURVE('',#354,#354,#317,.T.);
#432=EDGE_CURVE('',#355,#355,#318,.T.);
#433=EDGE_CURVE('',#346,#356,#161,.T.);
#434=EDGE_CURVE('',#338,#356,#319,.T.);
#435=EDGE_CURVE('',#340,#347,#162,.T.);
#436=EDGE_CURVE('',#357,#345,#163,.T.);
#437=EDGE_CURVE('',#356,#357,#164,.T.);
#438=EDGE_CURVE('',#357,#339,#320,.T.);
#439=EDGE_CURVE('',#358,#359,#321,.T.);
#440=EDGE_CURVE('',#359,#348,#165,.T.);
#441=EDGE_CURVE('',#349,#358,#166,.T.);
#442=EDGE_CURVE('',#344,#360,#167,.T.);
#443=EDGE_CURVE('',#360,#361,#168,.T.);
#444=EDGE_CURVE('',#359,#361,#169,.T.);
#445=EDGE_CURVE('',#362,#358,#170,.T.);
#446=EDGE_CURVE('',#363,#362,#322,.T.);
#447=EDGE_CURVE('',#364,#363,#171,.T.);
#448=EDGE_CURVE('',#364,#331,#172,.T.);
#449=EDGE_CURVE('',#362,#353,#173,.T.);
#450=EDGE_CURVE('',#352,#363,#174,.T.);
#451=EDGE_CURVE('',#360,#343,#175,.T.);
#452=EDGE_CURVE('',#355,#365,#176,.T.);
#453=EDGE_CURVE('',#365,#365,#323,.T.);
#454=EDGE_CURVE('',#354,#366,#177,.T.);
#455=EDGE_CURVE('',#366,#366,#324,.T.);
#456=EDGE_CURVE('',#367,#368,#178,.T.);
#457=EDGE_CURVE('',#367,#369,#179,.T.);
#458=EDGE_CURVE('',#369,#370,#180,.T.);
#459=EDGE_CURVE('',#368,#370,#181,.T.);
#460=EDGE_CURVE('',#371,#367,#182,.T.);
#461=EDGE_CURVE('',#371,#372,#183,.T.);
#462=EDGE_CURVE('',#372,#369,#184,.T.);
#463=EDGE_CURVE('',#373,#371,#185,.T.);
#464=EDGE_CURVE('',#373,#374,#186,.T.);
#465=EDGE_CURVE('',#374,#372,#187,.T.);
#466=EDGE_CURVE('',#375,#373,#188,.T.);
#467=EDGE_CURVE('',#375,#376,#189,.T.);
#468=EDGE_CURVE('',#376,#374,#190,.T.);
#469=EDGE_CURVE('',#377,#375,#191,.T.);
#470=EDGE_CURVE('',#377,#378,#192,.T.);
#471=EDGE_CURVE('',#378,#376,#193,.T.);
#472=EDGE_CURVE('',#368,#377,#194,.T.);
#473=EDGE_CURVE('',#370,#378,#195,.T.);
#474=EDGE_CURVE('',#379,#380,#196,.T.);
#475=EDGE_CURVE('',#379,#381,#197,.T.);
#476=EDGE_CURVE('',#381,#382,#198,.T.);
#477=EDGE_CURVE('',#380,#382,#199,.T.);
#478=EDGE_CURVE('',#383,#379,#200,.T.);
#479=EDGE_CURVE('',#383,#384,#201,.T.);
#480=EDGE_CURVE('',#384,#381,#202,.T.);
#481=EDGE_CURVE('',#385,#383,#203,.T.);
#482=EDGE_CURVE('',#385,#386,#204,.T.);
#483=EDGE_CURVE('',#386,#384,#205,.T.);
#484=EDGE_CURVE('',#387,#385,#206,.T.);
#485=EDGE_CURVE('',#387,#388,#207,.T.);
#486=EDGE_CURVE('',#388,#386,#208,.T.);
#487=EDGE_CURVE('',#389,#387,#209,.T.);
#488=EDGE_CURVE('',#389,#390,#210,.T.);
#489=EDGE_CURVE('',#390,#388,#211,.T.);
#490=EDGE_CURVE('',#380,#389,#212,.T.);
#491=EDGE_CURVE('',#382,#390,#213,.T.);
#492=EDGE_CURVE('',#391,#392,#214,.T.);
#493=EDGE_CURVE('',#391,#393,#215,.T.);
#494=EDGE_CURVE('',#394,#393,#216,.T.);
#495=EDGE_CURVE('',#392,#394,#217,.T.);
#496=EDGE_CURVE('',#392,#364,#218,.T.);
#497=EDGE_CURVE('',#361,#394,#219,.T.);
#498=EDGE_CURVE('',#391,#351,#220,.T.);
#499=EDGE_CURVE('',#393,#350,#221,.T.);
#500=ORIENTED_EDGE('',*,*,#395,.T.);
#501=ORIENTED_EDGE('',*,*,#396,.T.);
#502=ORIENTED_EDGE('',*,*,#397,.T.);
#503=ORIENTED_EDGE('',*,*,#398,.T.);
#504=ORIENTED_EDGE('',*,*,#396,.F.);
#505=ORIENTED_EDGE('',*,*,#399,.F.);
#506=ORIENTED_EDGE('',*,*,#400,.F.);
#507=ORIENTED_EDGE('',*,*,#401,.F.);
#508=ORIENTED_EDGE('',*,*,#402,.F.);
#509=ORIENTED_EDGE('',*,*,#403,.T.);
#510=ORIENTED_EDGE('',*,*,#404,.T.);
#511=ORIENTED_EDGE('',*,*,#405,.T.);
#512=ORIENTED_EDGE('',*,*,#400,.T.);
#513=ORIENTED_EDGE('',*,*,#404,.F.);
#514=ORIENTED_EDGE('',*,*,#406,.F.);
#515=ORIENTED_EDGE('',*,*,#407,.F.);
#516=ORIENTED_EDGE('',*,*,#408,.F.);
#517=ORIENTED_EDGE('',*,*,#409,.T.);
#518=ORIENTED_EDGE('',*,*,#410,.T.);
#519=ORIENTED_EDGE('',*,*,#411,.T.);
#520=ORIENTED_EDGE('',*,*,#407,.T.);
#521=ORIENTED_EDGE('',*,*,#410,.F.);
#522=ORIENTED_EDGE('',*,*,#412,.F.);
#523=ORIENTED_EDGE('',*,*,#413,.F.);
#524=ORIENTED_EDGE('',*,*,#414,.F.);
#525=ORIENTED_EDGE('',*,*,#415,.T.);
#526=ORIENTED_EDGE('',*,*,#416,.T.);
#527=ORIENTED_EDGE('',*,*,#417,.T.);
#528=ORIENTED_EDGE('',*,*,#418,.T.);
#529=ORIENTED_EDGE('',*,*,#398,.F.);
#530=ORIENTED_EDGE('',*,*,#419,.F.);
#531=ORIENTED_EDGE('',*,*,#416,.F.);
#532=ORIENTED_EDGE('',*,*,#420,.F.);
#533=ORIENTED_EDGE('',*,*,#421,.T.);
#534=ORIENTED_EDGE('',*,*,#422,.T.);
#535=ORIENTED_EDGE('',*,*,#423,.T.);
#536=ORIENTED_EDGE('',*,*,#424,.T.);
#537=ORIENTED_EDGE('',*,*,#425,.F.);
#538=ORIENTED_EDGE('',*,*,#426,.F.);
#539=ORIENTED_EDGE('',*,*,#427,.F.);
#540=ORIENTED_EDGE('',*,*,#428,.F.);
#541=ORIENTED_EDGE('',*,*,#429,.F.);
#542=ORIENTED_EDGE('',*,*,#430,.T.);
#543=ORIENTED_EDGE('',*,*,#431,.T.);
#544=ORIENTED_EDGE('',*,*,#432,.T.);
#545=ORIENTED_EDGE('',*,*,#423,.F.);
#546=ORIENTED_EDGE('',*,*,#433,.T.);
#547=ORIENTED_EDGE('',*,*,#434,.F.);
#548=ORIENTED_EDGE('',*,*,#412,.T.);
#549=ORIENTED_EDGE('',*,*,#409,.F.);
#550=ORIENTED_EDGE('',*,*,#406,.T.);
#551=ORIENTED_EDGE('',*,*,#403,.F.);
#552=ORIENTED_EDGE('',*,*,#399,.T.);
#553=ORIENTED_EDGE('',*,*,#395,.F.);
#554=ORIENTED_EDGE('',*,*,#420,.T.);
#555=ORIENTED_EDGE('',*,*,#415,.F.);
#556=ORIENTED_EDGE('',*,*,#435,.T.);
#557=ORIENTED_EDGE('',*,*,#422,.F.);
#558=ORIENTED_EDGE('',*,*,#436,.F.);
#559=ORIENTED_EDGE('',*,*,#437,.F.);
#560=ORIENTED_EDGE('',*,*,#433,.F.);
#561=ORIENTED_EDGE('',*,*,#434,.T.);
#562=ORIENTED_EDGE('',*,*,#437,.T.);
#563=ORIENTED_EDGE('',*,*,#438,.T.);
#564=ORIENTED_EDGE('',*,*,#413,.T.);
#565=ORIENTED_EDGE('',*,*,#439,.T.);
#566=ORIENTED_EDGE('',*,*,#440,.T.);
#567=ORIENTED_EDGE('',*,*,#425,.T.);
#568=ORIENTED_EDGE('',*,*,#441,.T.);
#569=ORIENTED_EDGE('',*,*,#421,.F.);
#570=ORIENTED_EDGE('',*,*,#442,.T.);
#571=ORIENTED_EDGE('',*,*,#443,.T.);
#572=ORIENTED_EDGE('',*,*,#444,.F.);
#573=ORIENTED_EDGE('',*,*,#439,.F.);
#574=ORIENTED_EDGE('',*,*,#445,.F.);
#575=ORIENTED_EDGE('',*,*,#446,.F.);
#576=ORIENTED_EDGE('',*,*,#447,.F.);
#577=ORIENTED_EDGE('',*,*,#448,.T.);
#578=ORIENTED_EDGE('',*,*,#401,.T.);
#579=ORIENTED_EDGE('',*,*,#405,.F.);
#580=ORIENTED_EDGE('',*,*,#408,.T.);
#581=ORIENTED_EDGE('',*,*,#411,.F.);
#582=ORIENTED_EDGE('',*,*,#414,.T.);
#583=ORIENTED_EDGE('',*,*,#438,.F.);
#584=ORIENTED_EDGE('',*,*,#436,.T.);
#585=ORIENTED_EDGE('',*,*,#441,.F.);
#586=ORIENTED_EDGE('',*,*,#430,.F.);
#587=ORIENTED_EDGE('',*,*,#449,.F.);
#588=ORIENTED_EDGE('',*,*,#445,.T.);
#589=ORIENTED_EDGE('',*,*,#429,.T.);
#590=ORIENTED_EDGE('',*,*,#450,.T.);
#591=ORIENTED_EDGE('',*,*,#446,.T.);
#592=ORIENTED_EDGE('',*,*,#449,.T.);
#593=ORIENTED_EDGE('',*,*,#418,.F.);
#594=ORIENTED_EDGE('',*,*,#451,.F.);
#595=ORIENTED_EDGE('',*,*,#442,.F.);
#596=ORIENTED_EDGE('',*,*,#424,.F.);
#597=ORIENTED_EDGE('',*,*,#435,.F.);
#598=ORIENTED_EDGE('',*,*,#432,.F.);
#599=ORIENTED_EDGE('',*,*,#452,.T.);
#600=ORIENTED_EDGE('',*,*,#453,.T.);
#601=ORIENTED_EDGE('',*,*,#452,.F.);
#602=ORIENTED_EDGE('',*,*,#453,.F.);
#603=ORIENTED_EDGE('',*,*,#431,.F.);
#604=ORIENTED_EDGE('',*,*,#454,.T.);
#605=ORIENTED_EDGE('',*,*,#455,.T.);
#606=ORIENTED_EDGE('',*,*,#454,.F.);
#607=ORIENTED_EDGE('',*,*,#455,.F.);
#608=ORIENTED_EDGE('',*,*,#456,.F.);
#609=ORIENTED_EDGE('',*,*,#457,.T.);
#610=ORIENTED_EDGE('',*,*,#458,.T.);
#611=ORIENTED_EDGE('',*,*,#459,.F.);
#612=ORIENTED_EDGE('',*,*,#460,.F.);
#613=ORIENTED_EDGE('',*,*,#461,.T.);
#614=ORIENTED_EDGE('',*,*,#462,.T.);
#615=ORIENTED_EDGE('',*,*,#457,.F.);
#616=ORIENTED_EDGE('',*,*,#463,.F.);
#617=ORIENTED_EDGE('',*,*,#464,.T.);
#618=ORIENTED_EDGE('',*,*,#465,.T.);
#619=ORIENTED_EDGE('',*,*,#461,.F.);
#620=ORIENTED_EDGE('',*,*,#466,.F.);
#621=ORIENTED_EDGE('',*,*,#467,.T.);
#622=ORIENTED_EDGE('',*,*,#468,.T.);
#623=ORIENTED_EDGE('',*,*,#464,.F.);
#624=ORIENTED_EDGE('',*,*,#469,.F.);
#625=ORIENTED_EDGE('',*,*,#470,.T.);
#626=ORIENTED_EDGE('',*,*,#471,.T.);
#627=ORIENTED_EDGE('',*,*,#467,.F.);
#628=ORIENTED_EDGE('',*,*,#472,.F.);
#629=ORIENTED_EDGE('',*,*,#459,.T.);
#630=ORIENTED_EDGE('',*,*,#473,.T.);
#631=ORIENTED_EDGE('',*,*,#470,.F.);
#632=ORIENTED_EDGE('',*,*,#473,.F.);
#633=ORIENTED_EDGE('',*,*,#458,.F.);
#634=ORIENTED_EDGE('',*,*,#462,.F.);
#635=ORIENTED_EDGE('',*,*,#465,.F.);
#636=ORIENTED_EDGE('',*,*,#468,.F.);
#637=ORIENTED_EDGE('',*,*,#471,.F.);
#638=ORIENTED_EDGE('',*,*,#474,.F.);
#639=ORIENTED_EDGE('',*,*,#475,.T.);
#640=ORIENTED_EDGE('',*,*,#476,.T.);
#641=ORIENTED_EDGE('',*,*,#477,.F.);
#642=ORIENTED_EDGE('',*,*,#478,.F.);
#643=ORIENTED_EDGE('',*,*,#479,.T.);
#644=ORIENTED_EDGE('',*,*,#480,.T.);
#645=ORIENTED_EDGE('',*,*,#475,.F.);
#646=ORIENTED_EDGE('',*,*,#481,.F.);
#647=ORIENTED_EDGE('',*,*,#482,.T.);
#648=ORIENTED_EDGE('',*,*,#483,.T.);
#649=ORIENTED_EDGE('',*,*,#479,.F.);
#650=ORIENTED_EDGE('',*,*,#484,.F.);
#651=ORIENTED_EDGE('',*,*,#485,.T.);
#652=ORIENTED_EDGE('',*,*,#486,.T.);
#653=ORIENTED_EDGE('',*,*,#482,.F.);
#654=ORIENTED_EDGE('',*,*,#487,.F.);
#655=ORIENTED_EDGE('',*,*,#488,.T.);
#656=ORIENTED_EDGE('',*,*,#489,.T.);
#657=ORIENTED_EDGE('',*,*,#485,.F.);
#658=ORIENTED_EDGE('',*,*,#490,.F.);
#659=ORIENTED_EDGE('',*,*,#477,.T.);
#660=ORIENTED_EDGE('',*,*,#491,.T.);
#661=ORIENTED_EDGE('',*,*,#488,.F.);
#662=ORIENTED_EDGE('',*,*,#491,.F.);
#663=ORIENTED_EDGE('',*,*,#476,.F.);
#664=ORIENTED_EDGE('',*,*,#480,.F.);
#665=ORIENTED_EDGE('',*,*,#483,.F.);
#666=ORIENTED_EDGE('',*,*,#486,.F.);
#667=ORIENTED_EDGE('',*,*,#489,.F.);
#668=ORIENTED_EDGE('',*,*,#492,.F.);
#669=ORIENTED_EDGE('',*,*,#493,.T.);
#670=ORIENTED_EDGE('',*,*,#494,.F.);
#671=ORIENTED_EDGE('',*,*,#495,.F.);
#672=ORIENTED_EDGE('',*,*,#402,.T.);
#673=ORIENTED_EDGE('',*,*,#448,.F.);
#674=ORIENTED_EDGE('',*,*,#496,.F.);
#675=ORIENTED_EDGE('',*,*,#495,.T.);
#676=ORIENTED_EDGE('',*,*,#497,.F.);
#677=ORIENTED_EDGE('',*,*,#443,.F.);
#678=ORIENTED_EDGE('',*,*,#451,.T.);
#679=ORIENTED_EDGE('',*,*,#417,.F.);
#680=ORIENTED_EDGE('',*,*,#419,.T.);
#681=ORIENTED_EDGE('',*,*,#397,.F.);
#682=ORIENTED_EDGE('',*,*,#498,.T.);
#683=ORIENTED_EDGE('',*,*,#427,.T.);
#684=ORIENTED_EDGE('',*,*,#499,.F.);
#685=ORIENTED_EDGE('',*,*,#493,.F.);
#686=ORIENTED_EDGE('',*,*,#456,.T.);
#687=ORIENTED_EDGE('',*,*,#472,.T.);
#688=ORIENTED_EDGE('',*,*,#469,.T.);
#689=ORIENTED_EDGE('',*,*,#466,.T.);
#690=ORIENTED_EDGE('',*,*,#463,.T.);
#691=ORIENTED_EDGE('',*,*,#460,.T.);
#692=ORIENTED_EDGE('',*,*,#474,.T.);
#693=ORIENTED_EDGE('',*,*,#490,.T.);
#694=ORIENTED_EDGE('',*,*,#487,.T.);
#695=ORIENTED_EDGE('',*,*,#484,.T.);
#696=ORIENTED_EDGE('',*,*,#481,.T.);
#697=ORIENTED_EDGE('',*,*,#478,.T.);
#698=ORIENTED_EDGE('',*,*,#440,.F.);
#699=ORIENTED_EDGE('',*,*,#444,.T.);
#700=ORIENTED_EDGE('',*,*,#497,.T.);
#701=ORIENTED_EDGE('',*,*,#494,.T.);
#702=ORIENTED_EDGE('',*,*,#499,.T.);
#703=ORIENTED_EDGE('',*,*,#426,.T.);
#704=ORIENTED_EDGE('',*,*,#450,.F.);
#705=ORIENTED_EDGE('',*,*,#428,.T.);
#706=ORIENTED_EDGE('',*,*,#498,.F.);
#707=ORIENTED_EDGE('',*,*,#492,.T.);
#708=ORIENTED_EDGE('',*,*,#496,.T.);
#709=ORIENTED_EDGE('',*,*,#447,.T.);
#710=CYLINDRICAL_SURFACE('',#774,2.);
#711=CYLINDRICAL_SURFACE('',#778,2.);
#712=CYLINDRICAL_SURFACE('',#782,2.);
#713=CYLINDRICAL_SURFACE('',#786,2.);
#714=CYLINDRICAL_SURFACE('',#790,2.);
#715=CYLINDRICAL_SURFACE('',#800,2.);
#716=CYLINDRICAL_SURFACE('',#802,2.);
#717=CYLINDRICAL_SURFACE('',#807,2.);
#718=CYLINDRICAL_SURFACE('',#809,2.4);
#719=CYLINDRICAL_SURFACE('',#812,2.4);
#720=ADVANCED_FACE('',(#50),#710,.F.);
#721=ADVANCED_FACE('',(#51),#20,.F.);
#722=ADVANCED_FACE('',(#52),#711,.F.);
#723=ADVANCED_FACE('',(#53),#21,.F.);
#724=ADVANCED_FACE('',(#54),#712,.F.);
#725=ADVANCED_FACE('',(#55),#22,.F.);
#726=ADVANCED_FACE('',(#56),#713,.F.);
#727=ADVANCED_FACE('',(#57),#23,.F.);
#728=ADVANCED_FACE('',(#58),#714,.T.);
#729=ADVANCED_FACE('',(#59,#15,#16,#17),#24,.T.);
#730=ADVANCED_FACE('',(#60),#25,.F.);
#731=ADVANCED_FACE('',(#61),#715,.F.);
#732=ADVANCED_FACE('',(#62),#716,.T.);
#733=ADVANCED_FACE('',(#63),#26,.T.);
#734=ADVANCED_FACE('',(#64),#27,.T.);
#735=ADVANCED_FACE('',(#65),#717,.T.);
#736=ADVANCED_FACE('',(#66),#28,.F.);
#737=ADVANCED_FACE('',(#67),#718,.F.);
#738=ADVANCED_FACE('',(#68),#29,.T.);
#739=ADVANCED_FACE('',(#69),#719,.F.);
#740=ADVANCED_FACE('',(#70),#30,.T.);
#741=ADVANCED_FACE('',(#71),#31,.F.);
#742=ADVANCED_FACE('',(#72),#32,.F.);
#743=ADVANCED_FACE('',(#73),#33,.F.);
#744=ADVANCED_FACE('',(#74),#34,.F.);
#745=ADVANCED_FACE('',(#75),#35,.F.);
#746=ADVANCED_FACE('',(#76),#36,.F.);
#747=ADVANCED_FACE('',(#77),#37,.F.);
#748=ADVANCED_FACE('',(#78),#38,.F.);
#749=ADVANCED_FACE('',(#79),#39,.F.);
#750=ADVANCED_FACE('',(#80),#40,.F.);
#751=ADVANCED_FACE('',(#81),#41,.F.);
#752=ADVANCED_FACE('',(#82),#42,.F.);
#753=ADVANCED_FACE('',(#83),#43,.F.);
#754=ADVANCED_FACE('',(#84),#44,.F.);
#755=ADVANCED_FACE('',(#85),#45,.T.);
#756=ADVANCED_FACE('',(#86),#46,.T.);
#757=ADVANCED_FACE('',(#87,#18,#19),#47,.T.);
#758=ADVANCED_FACE('',(#88),#48,.T.);
#759=ADVANCED_FACE('',(#89),#49,.F.);
#760=CLOSED_SHELL('',(#720,#721,#722,#723,#724,#725,#726,#727,#728,#729,
#730,#731,#732,#733,#734,#735,#736,#737,#738,#739,#740,#741,#742,#743,#744,
#745,#746,#747,#748,#749,#750,#751,#752,#753,#754,#755,#756,#757,#758,#759));
#761=DERIVED_UNIT_ELEMENT(#763,1.);
#762=DERIVED_UNIT_ELEMENT(#1262,-3.);
#763=(
MASS_UNIT()
NAMED_UNIT(*)
SI_UNIT(.KILO.,.GRAM.)
);
#764=DERIVED_UNIT((#761,#762));
#765=MEASURE_REPRESENTATION_ITEM('density measure',
POSITIVE_RATIO_MEASURE(7850.),#764);
#766=PROPERTY_DEFINITION_REPRESENTATION(#771,#768);
#767=PROPERTY_DEFINITION_REPRESENTATION(#772,#769);
#768=REPRESENTATION('material name',(#770),#1259);
#769=REPRESENTATION('density',(#765),#1259);
#770=DESCRIPTIVE_REPRESENTATION_ITEM('Steel','Steel');
#771=PROPERTY_DEFINITION('material property','material name',#1269);
#772=PROPERTY_DEFINITION('material property','density of part',#1269);
#773=AXIS2_PLACEMENT_3D('',#1041,#834,#835);
#774=AXIS2_PLACEMENT_3D('',#1042,#836,#837);
#775=AXIS2_PLACEMENT_3D('',#1045,#838,#839);
#776=AXIS2_PLACEMENT_3D('',#1049,#841,#842);
#777=AXIS2_PLACEMENT_3D('',#1051,#844,#845);
#778=AXIS2_PLACEMENT_3D('',#1059,#850,#851);
#779=AXIS2_PLACEMENT_3D('',#1061,#852,#853);
#780=AXIS2_PLACEMENT_3D('',#1064,#855,#856);
#781=AXIS2_PLACEMENT_3D('',#1065,#857,#858);
#782=AXIS2_PLACEMENT_3D('',#1071,#862,#863);
#783=AXIS2_PLACEMENT_3D('',#1073,#864,#865);
#784=AXIS2_PLACEMENT_3D('',#1076,#867,#868);
#785=AXIS2_PLACEMENT_3D('',#1077,#869,#870);
#786=AXIS2_PLACEMENT_3D('',#1083,#874,#875);
#787=AXIS2_PLACEMENT_3D('',#1086,#876,#877);
#788=AXIS2_PLACEMENT_3D('',#1090,#879,#880);
#789=AXIS2_PLACEMENT_3D('',#1092,#882,#883);
#790=AXIS2_PLACEMENT_3D('',#1095,#886,#887);
#791=AXIS2_PLACEMENT_3D('',#1098,#888,#889);
#792=AXIS2_PLACEMENT_3D('',#1102,#891,#892);
#793=AXIS2_PLACEMENT_3D('',#1104,#894,#895);
#794=AXIS2_PLACEMENT_3D('',#1107,#896,#897);
#795=AXIS2_PLACEMENT_3D('',#1115,#901,#902);
#796=AXIS2_PLACEMENT_3D('',#1118,#904,#905);
#797=AXIS2_PLACEMENT_3D('',#1120,#906,#907);
#798=AXIS2_PLACEMENT_3D('',#1123,#909,#910);
#799=AXIS2_PLACEMENT_3D('',#1125,#912,#913);
#800=AXIS2_PLACEMENT_3D('',#1129,#916,#917);
#801=AXIS2_PLACEMENT_3D('',#1130,#918,#919);
#802=AXIS2_PLACEMENT_3D('',#1131,#920,#921);
#803=AXIS2_PLACEMENT_3D('',#1134,#922,#923);
#804=AXIS2_PLACEMENT_3D('',#1137,#926,#927);
#805=AXIS2_PLACEMENT_3D('',#1146,#932,#933);
#806=AXIS2_PLACEMENT_3D('',#1150,#936,#937);
#807=AXIS2_PLACEMENT_3D('',#1152,#939,#940);
#808=AXIS2_PLACEMENT_3D('',#1154,#942,#943);
#809=AXIS2_PLACEMENT_3D('',#1156,#945,#946);
#810=AXIS2_PLACEMENT_3D('',#1159,#948,#949);
#811=AXIS2_PLACEMENT_3D('',#1160,#950,#951);
#812=AXIS2_PLACEMENT_3D('',#1161,#952,#953);
#813=AXIS2_PLACEMENT_3D('',#1164,#955,#956);
#814=AXIS2_PLACEMENT_3D('',#1165,#957,#958);
#815=AXIS2_PLACEMENT_3D('',#1166,#959,#960);
#816=AXIS2_PLACEMENT_3D('',#1175,#965,#966);
#817=AXIS2_PLACEMENT_3D('',#1181,#970,#971);
#818=AXIS2_PLACEMENT_3D('',#1187,#975,#976);
#819=AXIS2_PLACEMENT_3D('',#1193,#980,#981);
#820=AXIS2_PLACEMENT_3D('',#1199,#985,#986);
#821=AXIS2_PLACEMENT_3D('',#1202,#989,#990);
#822=AXIS2_PLACEMENT_3D('',#1203,#991,#992);
#823=AXIS2_PLACEMENT_3D('',#1212,#997,#998);
#824=AXIS2_PLACEMENT_3D('',#1218,#1002,#1003);
#825=AXIS2_PLACEMENT_3D('',#1224,#1007,#1008);
#826=AXIS2_PLACEMENT_3D('',#1230,#1012,#1013);
#827=AXIS2_PLACEMENT_3D('',#1236,#1017,#1018);
#828=AXIS2_PLACEMENT_3D('',#1239,#1021,#1022);
#829=AXIS2_PLACEMENT_3D('',#1240,#1023,#1024);
#830=AXIS2_PLACEMENT_3D('',#1249,#1029,#1030);
#831=AXIS2_PLACEMENT_3D('',#1252,#1033,#1034);
#832=AXIS2_PLACEMENT_3D('',#1255,#1037,#1038);
#833=AXIS2_PLACEMENT_3D('',#1256,#1039,#1040);
#834=DIRECTION('axis',(0.,0.,1.));
#835=DIRECTION('refdir',(1.,0.,0.));
#836=DIRECTION('center_axis',(0.,0.,-1.));
#837=DIRECTION('ref_axis',(-0.707106781186548,-0.707106781186547,0.));
#838=DIRECTION('center_axis',(1.11300553847133E-16,0.,1.));
#839=DIRECTION('ref_axis',(-0.707106781186548,-0.707106781186547,0.));
#840=DIRECTION('',(0.,0.,-1.));
#841=DIRECTION('center_axis',(-0.298274993135947,0.,-0.95447997803503));
#842=DIRECTION('ref_axis',(-0.95447997803503,2.64921412039551E-16,0.298274993135947));
#843=DIRECTION('',(0.,0.,1.));
#844=DIRECTION('center_axis',(0.,-1.,0.));
#845=DIRECTION('ref_axis',(-1.,0.,0.));
#846=DIRECTION('',(-1.,0.,1.11300553847133E-16));
#847=DIRECTION('',(0.,0.,1.));
#848=DIRECTION('',(1.,0.,0.));
#849=DIRECTION('',(0.95447997803503,0.,-0.298274993135947));
#850=DIRECTION('center_axis',(0.,0.,-1.));
#851=DIRECTION('ref_axis',(0.70710678118655,-0.707106781186545,0.));
#852=DIRECTION('center_axis',(1.11300553847133E-16,0.,1.));
#853=DIRECTION('ref_axis',(0.70710678118655,-0.707106781186545,0.));
#854=DIRECTION('',(0.,0.,-1.));
#855=DIRECTION('center_axis',(0.,0.,-1.));
#856=DIRECTION('ref_axis',(0.70710678118655,-0.707106781186545,0.));
#857=DIRECTION('center_axis',(1.,0.,0.));
#858=DIRECTION('ref_axis',(0.,-1.,0.));
#859=DIRECTION('',(0.,-1.,0.));
#860=DIRECTION('',(0.,0.,1.));
#861=DIRECTION('',(0.,1.,0.));
#862=DIRECTION('center_axis',(0.,0.,-1.));
#863=DIRECTION('ref_axis',(0.707106781186548,0.707106781186548,0.));
#864=DIRECTION('center_axis',(1.11300553847133E-16,0.,1.));
#865=DIRECTION('ref_axis',(0.707106781186548,0.707106781186548,0.));
#866=DIRECTION('',(0.,0.,-1.));
#867=DIRECTION('center_axis',(0.,0.,-1.));
#868=DIRECTION('ref_axis',(0.707106781186548,0.707106781186548,0.));
#869=DIRECTION('center_axis',(0.,1.,0.));
#870=DIRECTION('ref_axis',(1.,0.,0.));
#871=DIRECTION('',(1.,0.,-1.11300553847133E-16));
#872=DIRECTION('',(0.,0.,1.));
#873=DIRECTION('',(-1.,0.,0.));
#874=DIRECTION('center_axis',(0.,0.,-1.));
#875=DIRECTION('ref_axis',(-0.707106781186548,0.707106781186548,0.));
#876=DIRECTION('center_axis',(1.11300553847133E-16,0.,1.));
#877=DIRECTION('ref_axis',(-0.707106781186548,0.707106781186548,0.));
#878=DIRECTION('',(0.,0.,-1.));
#879=DIRECTION('center_axis',(-0.298274993135947,0.,-0.95447997803503));
#880=DIRECTION('ref_axis',(-0.95447997803503,0.,0.298274993135947));
#881=DIRECTION('',(0.,0.,1.));
#882=DIRECTION('center_axis',(-1.,0.,0.));
#883=DIRECTION('ref_axis',(0.,1.,0.));
#884=DIRECTION('',(0.,-1.,0.));
#885=DIRECTION('',(0.,1.,0.));
#886=DIRECTION('center_axis',(0.,0.,-1.));
#887=DIRECTION('ref_axis',(0.707106781186548,-0.707106781186548,0.));
#888=DIRECTION('center_axis',(0.,0.,1.));
#889=DIRECTION('ref_axis',(0.707106781186548,-0.707106781186548,0.));
#890=DIRECTION('',(0.,0.,1.));
#891=DIRECTION('center_axis',(-1.11300553847133E-16,0.,-1.));
#892=DIRECTION('ref_axis',(0.707106781186548,-0.707106781186548,0.));
#893=DIRECTION('',(0.,0.,-1.));
#894=DIRECTION('center_axis',(1.11300553847133E-16,0.,1.));
#895=DIRECTION('ref_axis',(1.,0.,-1.11300553847133E-16));
#896=DIRECTION('center_axis',(-1.11300553847133E-16,0.,-1.));
#897=DIRECTION('ref_axis',(0.707106781186548,0.707106781186548,0.));
#898=DIRECTION('',(1.,0.,-1.11300553847133E-16));
#899=DIRECTION('',(0.,1.,0.));
#900=DIRECTION('',(-1.,0.,1.11300553847133E-16));
#901=DIRECTION('center_axis',(-1.11300553847133E-16,0.,-1.));
#902=DIRECTION('ref_axis',(0.707106781186549,-0.707106781186546,0.));
#903=DIRECTION('',(0.,1.,0.));
#904=DIRECTION('center_axis',(-1.11300553847133E-16,0.,-1.));
#905=DIRECTION('ref_axis',(-1.,0.,0.));
#906=DIRECTION('center_axis',(-1.11300553847133E-16,0.,-1.));
#907=DIRECTION('ref_axis',(-1.,0.,0.));
#908=DIRECTION('',(0.,1.,0.));
#909=DIRECTION('center_axis',(1.11300553847133E-16,0.,1.));
#910=DIRECTION('ref_axis',(-0.707106781186549,0.707106781186546,0.));
#911=DIRECTION('',(1.,0.,-1.11300553847133E-16));
#912=DIRECTION('center_axis',(-1.,0.,0.));
#913=DIRECTION('ref_axis',(0.,1.,0.));
#914=DIRECTION('',(0.,-1.,0.));
#915=DIRECTION('',(0.,0.,-1.));
#916=DIRECTION('center_axis',(0.,0.,-1.));
#917=DIRECTION('ref_axis',(-0.707106781186549,0.707106781186546,0.));
#918=DIRECTION('center_axis',(0.,0.,-1.));
#919=DIRECTION('ref_axis',(-0.707106781186549,0.707106781186546,0.));
#920=DIRECTION('center_axis',(0.,0.,-1.));
#921=DIRECTION('ref_axis',(0.707106781186548,0.707106781186548,0.));
#922=DIRECTION('center_axis',(0.,0.,1.));
#923=DIRECTION('ref_axis',(0.707106781186548,0.707106781186548,0.));
#924=DIRECTION('',(0.,0.,1.));
#925=DIRECTION('',(0.,0.,-1.));
#926=DIRECTION('center_axis',(0.,0.,-1.));
#927=DIRECTION('ref_axis',(-1.,0.,0.));
#928=DIRECTION('',(-1.,0.,0.));
#929=DIRECTION('',(0.,1.,0.));
#930=DIRECTION('',(-1.,0.,0.));
#931=DIRECTION('',(0.,1.,0.));
#932=DIRECTION('center_axis',(0.,0.,1.));
#933=DIRECTION('ref_axis',(0.707106781186549,-0.707106781186546,0.));
#934=DIRECTION('',(1.,0.,0.));
#935=DIRECTION('',(0.,1.,0.));
#936=DIRECTION('center_axis',(1.,0.,0.));
#937=DIRECTION('ref_axis',(0.,0.,-1.));
#938=DIRECTION('',(0.,0.,1.));
#939=DIRECTION('center_axis',(0.,0.,1.));
#940=DIRECTION('ref_axis',(0.707106781186549,-0.707106781186546,0.));
#941=DIRECTION('',(0.,0.,-1.));
#942=DIRECTION('center_axis',(0.,1.,0.));
#943=DIRECTION('ref_axis',(1.,0.,0.));
#944=DIRECTION('',(-0.95447997803503,0.,0.298274993135947));
#945=DIRECTION('center_axis',(0.,0.,-1.));
#946=DIRECTION('ref_axis',(-1.,0.,0.));
#947=DIRECTION('',(0.,0.,-1.));
#948=DIRECTION('center_axis',(0.,0.,-1.));
#949=DIRECTION('ref_axis',(-1.,0.,0.));
#950=DIRECTION('center_axis',(0.,0.,1.));
#951=DIRECTION('ref_axis',(-1.,0.,0.));
#952=DIRECTION('center_axis',(0.,0.,-1.));
#953=DIRECTION('ref_axis',(-1.,0.,0.));
#954=DIRECTION('',(0.,0.,-1.));
#955=DIRECTION('center_axis',(0.,0.,-1.));
#956=DIRECTION('ref_axis',(-1.,0.,0.));
#957=DIRECTION('center_axis',(0.,0.,1.));
#958=DIRECTION('ref_axis',(-1.,0.,0.));
#959=DIRECTION('center_axis',(0.,-0.866025403784439,0.5));
#960=DIRECTION('ref_axis',(0.,-0.5,-0.866025403784439));
#961=DIRECTION('',(-3.23156449938771E-33,-0.5,-0.866025403784439));
#962=DIRECTION('',(1.,0.,0.));
#963=DIRECTION('',(0.,-0.5,-0.866025403784439));
#964=DIRECTION('',(1.,0.,0.));
#965=DIRECTION('center_axis',(0.,0.,1.));
#966=DIRECTION('ref_axis',(0.,-1.,0.));
#967=DIRECTION('',(0.,-1.,0.));
#968=DIRECTION('',(1.,0.,0.));
#969=DIRECTION('',(0.,-1.,0.));
#970=DIRECTION('center_axis',(0.,0.866025403784439,0.5));
#971=DIRECTION('ref_axis',(0.,-0.5,0.866025403784439));
#972=DIRECTION('',(3.23156449938771E-33,-0.5,0.866025403784439));
#973=DIRECTION('',(1.,0.,0.));
#974=DIRECTION('',(0.,-0.5,0.866025403784439));
#975=DIRECTION('center_axis',(0.,0.866025403784439,-0.5));
#976=DIRECTION('ref_axis',(0.,0.5,0.866025403784439));
#977=DIRECTION('',(3.23156449938771E-33,0.5,0.866025403784439));
#978=DIRECTION('',(1.,0.,0.));
#979=DIRECTION('',(0.,0.5,0.866025403784439));
#980=DIRECTION('center_axis',(0.,7.06971575876312E-16,-1.));
#981=DIRECTION('ref_axis',(0.,1.,7.06971575876312E-16));
#982=DIRECTION('',(2.63805684763347E-48,1.,7.06971575876312E-16));
#983=DIRECTION('',(1.,0.,0.));
#984=DIRECTION('',(0.,1.,7.06971575876312E-16));
#985=DIRECTION('center_axis',(0.,-0.866025403784439,-0.5));
#986=DIRECTION('ref_axis',(0.,0.499999999999999,-0.866025403784439));
#987=DIRECTION('',(-3.23156449938771E-33,0.499999999999999,-0.866025403784439));
#988=DIRECTION('',(0.,0.499999999999999,-0.866025403784439));
#989=DIRECTION('center_axis',(1.,0.,0.));
#990=DIRECTION('ref_axis',(0.,0.,-1.));
#991=DIRECTION('center_axis',(0.,-0.866025403784439,0.499999999999999));
#992=DIRECTION('ref_axis',(0.,-0.499999999999999,-0.866025403784439));
#993=DIRECTION('',(-3.23156449938771E-33,-0.499999999999999,-0.866025403784439));
#994=DIRECTION('',(1.,0.,0.));
#995=DIRECTION('',(0.,-0.499999999999999,-0.866025403784439));
#996=DIRECTION('',(1.,0.,0.));
#997=DIRECTION('center_axis',(0.,-1.1311545214021E-15,1.));
#998=DIRECTION('ref_axis',(0.,-1.,-1.1311545214021E-15));
#999=DIRECTION('',(-4.22089095621354E-48,-1.,-1.1311545214021E-15));
#1000=DIRECTION('',(1.,0.,0.));
#1001=DIRECTION('',(0.,-1.,-1.1311545214021E-15));
#1002=DIRECTION('center_axis',(0.,0.866025403784438,0.500000000000001));
#1003=DIRECTION('ref_axis',(0.,-0.500000000000001,0.866025403784438));
#1004=DIRECTION('',(3.23156449938771E-33,-0.500000000000001,0.866025403784438));
#1005=DIRECTION('',(1.,0.,0.));
#1006=DIRECTION('',(0.,-0.500000000000001,0.866025403784438));
#1007=DIRECTION('center_axis',(0.,0.866025403784439,-0.499999999999999));
#1008=DIRECTION('ref_axis',(0.,0.499999999999999,0.866025403784439));
#1009=DIRECTION('',(3.23156449938772E-33,0.499999999999999,0.866025403784439));
#1010=DIRECTION('',(1.,0.,0.));
#1011=DIRECTION('',(0.,0.499999999999999,0.866025403784439));
#1012=DIRECTION('center_axis',(0.,1.83812609727841E-15,-1.));
#1013=DIRECTION('ref_axis',(0.,1.,1.83812609727841E-15));
#1014=DIRECTION('',(6.858947803847E-48,1.,1.83812609727841E-15));
#1015=DIRECTION('',(1.,0.,0.));
#1016=DIRECTION('',(0.,1.,1.83812609727841E-15));
#1017=DIRECTION('center_axis',(0.,-0.866025403784438,-0.500000000000001));
#1018=DIRECTION('ref_axis',(0.,0.500000000000001,-0.866025403784438));
#1019=DIRECTION('',(-3.23156449938771E-33,0.500000000000001,-0.866025403784438));
#1020=DIRECTION('',(0.,0.500000000000001,-0.866025403784438));
#1021=DIRECTION('center_axis',(1.,0.,0.));
#1022=DIRECTION('ref_axis',(0.,0.,-1.));
#1023=DIRECTION('center_axis',(3.98511141904732E-16,0.,-1.));
#1024=DIRECTION('ref_axis',(-1.,0.,-3.98511141904732E-16));
#1025=DIRECTION('',(1.,0.,3.98511141904732E-16));
#1026=DIRECTION('',(0.,1.,0.));
#1027=DIRECTION('',(-1.,0.,-3.98511141904732E-16));
#1028=DIRECTION('',(0.,1.,0.));
#1029=DIRECTION('center_axis',(-0.298274993135947,0.,-0.95447997803503));
#1030=DIRECTION('ref_axis',(-0.95447997803503,0.,0.298274993135947));
#1031=DIRECTION('',(0.95447997803503,0.,-0.298274993135947));
#1032=DIRECTION('',(-0.95447997803503,0.,0.298274993135947));
#1033=DIRECTION('center_axis',(-1.,0.,3.73148926725027E-33));
#1034=DIRECTION('ref_axis',(3.73148926725027E-33,0.,1.));
#1035=DIRECTION('',(3.73148926725027E-33,0.,1.));
#1036=DIRECTION('',(3.73148926725027E-33,0.,1.));
#1037=DIRECTION('center_axis',(0.,1.,0.));
#1038=DIRECTION('ref_axis',(0.,0.,1.));
#1039=DIRECTION('center_axis',(0.,1.,0.));
#1040=DIRECTION('ref_axis',(1.,0.,0.));
#1041=CARTESIAN_POINT('',(0.,0.,0.));
#1042=CARTESIAN_POINT('Origin',(13.8,14.,16.));
#1043=CARTESIAN_POINT('',(11.8,14.,16.));
#1044=CARTESIAN_POINT('',(13.8,12.,16.));
#1045=CARTESIAN_POINT('Origin',(13.8,14.,16.));
#1046=CARTESIAN_POINT('',(13.8,12.,-3.625));
#1047=CARTESIAN_POINT('',(13.8,12.,16.));
#1048=CARTESIAN_POINT('',(11.8,14.,-3.));
#1049=CARTESIAN_POINT('Origin',(13.8,14.,-3.625));
#1050=CARTESIAN_POINT('',(11.8,14.,16.));
#1051=CARTESIAN_POINT('Origin',(69.8,12.,16.));
#1052=CARTESIAN_POINT('',(67.8,12.,16.));
#1053=CARTESIAN_POINT('',(34.9,12.,16.));
#1054=CARTESIAN_POINT('',(67.8,12.,-4.));
#1055=CARTESIAN_POINT('',(67.8,12.,16.));
#1056=CARTESIAN_POINT('',(15.,12.,-4.));
#1057=CARTESIAN_POINT('',(74.8,12.,-4.));
#1058=CARTESIAN_POINT('',(37.1153024911032,12.,-10.9110320284698));
#1059=CARTESIAN_POINT('Origin',(67.8,14.,16.));
#1060=CARTESIAN_POINT('',(69.8,14.,16.));
#1061=CARTESIAN_POINT('Origin',(67.8,14.,16.));
#1062=CARTESIAN_POINT('',(69.8,14.,-4.));
#1063=CARTESIAN_POINT('',(69.8,14.,16.));
#1064=CARTESIAN_POINT('Origin',(67.8,14.,-4.));
#1065=CARTESIAN_POINT('Origin',(69.8,68.,16.));
#1066=CARTESIAN_POINT('',(69.8,66.,16.));
#1067=CARTESIAN_POINT('',(69.8,34.,16.));
#1068=CARTESIAN_POINT('',(69.8,66.,-4.));
#1069=CARTESIAN_POINT('',(69.8,66.,16.));
#1070=CARTESIAN_POINT('',(69.8,34.,-4.));
#1071=CARTESIAN_POINT('Origin',(67.8,66.,16.));
#1072=CARTESIAN_POINT('',(67.8,68.,16.));
#1073=CARTESIAN_POINT('Origin',(67.8,66.,16.));
#1074=CARTESIAN_POINT('',(67.8,68.,-4.));
#1075=CARTESIAN_POINT('',(67.8,68.,16.));
#1076=CARTESIAN_POINT('Origin',(67.8,66.,-4.));
#1077=CARTESIAN_POINT('Origin',(29.8,68.,16.));
#1078=CARTESIAN_POINT('',(31.8,68.,16.));
#1079=CARTESIAN_POINT('',(14.9,68.,16.));
#1080=CARTESIAN_POINT('',(31.8,68.,-4.));
#1081=CARTESIAN_POINT('',(31.8,68.,16.));
#1082=CARTESIAN_POINT('',(54.8,68.,-4.));
#1083=CARTESIAN_POINT('Origin',(13.8,35.,16.));
#1084=CARTESIAN_POINT('',(13.8,37.,16.));
#1085=CARTESIAN_POINT('',(11.8,35.,16.));
#1086=CARTESIAN_POINT('Origin',(13.8,35.,16.));
#1087=CARTESIAN_POINT('',(11.8,35.,-3.));
#1088=CARTESIAN_POINT('',(11.8,35.,16.));
#1089=CARTESIAN_POINT('',(13.8,37.,-3.625));
#1090=CARTESIAN_POINT('Origin',(13.8,35.,-3.625));
#1091=CARTESIAN_POINT('',(13.8,37.,16.));
#1092=CARTESIAN_POINT('Origin',(11.8,12.,16.));
#1093=CARTESIAN_POINT('',(11.8,6.,-3.));
#1094=CARTESIAN_POINT('',(11.8,6.,16.));
#1095=CARTESIAN_POINT('Origin',(27.8,39.,16.));
#1096=CARTESIAN_POINT('',(27.8,37.,-4.));
#1097=CARTESIAN_POINT('',(29.8,39.,-4.));
#1098=CARTESIAN_POINT('Origin',(27.8,39.,-4.));
#1099=CARTESIAN_POINT('',(29.8,39.,16.));
#1100=CARTESIAN_POINT('',(29.8,39.,16.));
#1101=CARTESIAN_POINT('',(27.8,37.,16.));
#1102=CARTESIAN_POINT('Origin',(27.8,39.,16.));
#1103=CARTESIAN_POINT('',(27.8,37.,16.));
#1104=CARTESIAN_POINT('Origin',(0.,0.,16.));
#1105=CARTESIAN_POINT('',(77.8,80.,16.));
#1106=CARTESIAN_POINT('',(79.8,78.,16.));
#1107=CARTESIAN_POINT('Origin',(77.8,78.,16.));
#1108=CARTESIAN_POINT('',(0.,80.,16.));
#1109=CARTESIAN_POINT('',(79.8,80.,16.));
#1110=CARTESIAN_POINT('',(0.,0.,16.));
#1111=CARTESIAN_POINT('',(0.,0.,16.));
#1112=CARTESIAN_POINT('',(77.8,0.,16.));
#1113=CARTESIAN_POINT('',(79.8,0.,16.));
#1114=CARTESIAN_POINT('',(79.8,2.,16.));
#1115=CARTESIAN_POINT('Origin',(77.8,2.,16.));
#1116=CARTESIAN_POINT('',(79.8,0.,16.));
#1117=CARTESIAN_POINT('',(22.4,53.725,16.));
#1118=CARTESIAN_POINT('Origin',(20.,53.725,16.));
#1119=CARTESIAN_POINT('',(22.4,73.725,16.));
#1120=CARTESIAN_POINT('Origin',(20.,73.725,16.));
#1121=CARTESIAN_POINT('',(29.8,66.,16.));
#1122=CARTESIAN_POINT('',(29.8,18.5,16.));
#1123=CARTESIAN_POINT('Origin',(31.8,66.,16.));
#1124=CARTESIAN_POINT('',(5.9,37.,16.));
#1125=CARTESIAN_POINT('Origin',(29.8,37.,16.));
#1126=CARTESIAN_POINT('',(29.8,66.,-4.));
#1127=CARTESIAN_POINT('',(29.8,18.5,-4.));
#1128=CARTESIAN_POINT('',(29.8,66.,16.));
#1129=CARTESIAN_POINT('Origin',(31.8,66.,16.));
#1130=CARTESIAN_POINT('Origin',(31.8,66.,-4.));
#1131=CARTESIAN_POINT('Origin',(77.8,78.,11.));
#1132=CARTESIAN_POINT('',(79.8,78.,-4.));
#1133=CARTESIAN_POINT('',(77.8,80.,-4.));
#1134=CARTESIAN_POINT('Origin',(77.8,78.,-4.));
#1135=CARTESIAN_POINT('',(77.8,80.,11.));
#1136=CARTESIAN_POINT('',(79.8,78.,11.));
#1137=CARTESIAN_POINT('Origin',(79.8,0.,-4.));
#1138=CARTESIAN_POINT('',(15.,37.,-4.));
#1139=CARTESIAN_POINT('',(45.8,37.,-4.));
#1140=CARTESIAN_POINT('',(15.,80.,-4.));
#1141=CARTESIAN_POINT('',(15.,0.,-4.));
#1142=CARTESIAN_POINT('',(15.,80.,-4.));
#1143=CARTESIAN_POINT('',(79.8,2.,-4.));
#1144=CARTESIAN_POINT('',(79.8,0.,-4.));
#1145=CARTESIAN_POINT('',(77.8,0.,-4.));
#1146=CARTESIAN_POINT('Origin',(77.8,2.,-4.));
#1147=CARTESIAN_POINT('',(15.,0.,-4.));
#1148=CARTESIAN_POINT('',(15.,0.,-4.));
#1149=CARTESIAN_POINT('',(15.,0.,-4.));
#1150=CARTESIAN_POINT('Origin',(79.8,0.,16.));
#1151=CARTESIAN_POINT('',(79.8,2.,11.));
#1152=CARTESIAN_POINT('Origin',(77.8,2.,11.));
#1153=CARTESIAN_POINT('',(77.8,0.,11.));
#1154=CARTESIAN_POINT('Origin',(11.8,37.,16.));
#1155=CARTESIAN_POINT('',(10.6953736654804,37.,-2.65480427046263));
#1156=CARTESIAN_POINT('Origin',(20.,73.725,16.));
#1157=CARTESIAN_POINT('',(22.4,73.725,6.));
#1158=CARTESIAN_POINT('',(22.4,73.725,16.));
#1159=CARTESIAN_POINT('Origin',(20.,73.725,6.));
#1160=CARTESIAN_POINT('Origin',(20.,73.725,6.));
#1161=CARTESIAN_POINT('Origin',(20.,53.725,16.));
#1162=CARTESIAN_POINT('',(22.4,53.725,6.));
#1163=CARTESIAN_POINT('',(22.4,53.725,16.));
#1164=CARTESIAN_POINT('Origin',(20.,53.725,6.));
#1165=CARTESIAN_POINT('Origin',(20.,53.725,6.));
#1166=CARTESIAN_POINT('Origin',(2.98519141380022E-32,73.0370090847553,11.4));
#1167=CARTESIAN_POINT('',(2.98519141380022E-32,73.0370090847553,11.4));
#1168=CARTESIAN_POINT('',(2.98519141380022E-32,71.0740181695106,8.));
#1169=CARTESIAN_POINT('',(-3.24190903957801E-32,61.4392105483752,-8.68797632095822));
#1170=CARTESIAN_POINT('',(10.,73.0370090847553,11.4));
#1171=CARTESIAN_POINT('',(2.98519141380022E-32,73.0370090847553,11.4));
#1172=CARTESIAN_POINT('',(10.,71.0740181695106,8.));
#1173=CARTESIAN_POINT('',(10.,71.0740181695106,8.));
#1174=CARTESIAN_POINT('',(2.98519141380022E-32,71.0740181695106,8.));
#1175=CARTESIAN_POINT('Origin',(2.98519141380022E-32,76.9629909152447,11.4));
#1176=CARTESIAN_POINT('',(2.98519141380022E-32,76.9629909152447,11.4));
#1177=CARTESIAN_POINT('',(4.25389776466531E-32,38.4814954576224,11.4));
#1178=CARTESIAN_POINT('',(10.,76.9629909152447,11.4));
#1179=CARTESIAN_POINT('',(2.98519141380022E-32,76.9629909152447,11.4));
#1180=CARTESIAN_POINT('',(10.,73.0370090847553,11.4));
#1181=CARTESIAN_POINT('Origin',(2.98519141380022E-32,78.9259818304894,8.));
#1182=CARTESIAN_POINT('',(2.98519141380022E-32,78.9259818304894,8.));
#1183=CARTESIAN_POINT('',(8.24210465769337E-32,70.7922849092472,22.0879763209582));
#1184=CARTESIAN_POINT('',(10.,78.9259818304894,8.));
#1185=CARTESIAN_POINT('',(2.98519141380022E-32,78.9259818304894,8.));
#1186=CARTESIAN_POINT('',(10.,76.9629909152447,11.4));
#1187=CARTESIAN_POINT('Origin',(2.98519141380022E-32,76.9629909152447,4.60000000000001));
#1188=CARTESIAN_POINT('',(2.98519141380022E-32,76.9629909152447,4.60000000000001));
#1189=CARTESIAN_POINT('',(-5.14496856587564E-32,66.346687836487,-13.7879763209582));
#1190=CARTESIAN_POINT('',(10.,76.9629909152447,4.60000000000001));
#1191=CARTESIAN_POINT('',(2.98519141380022E-32,76.9629909152447,4.60000000000001));
#1192=CARTESIAN_POINT('',(10.,78.9259818304894,8.));
#1193=CARTESIAN_POINT('Origin',(2.98519141380022E-32,73.0370090847553,4.6));
#1194=CARTESIAN_POINT('',(2.98519141380022E-32,73.0370090847553,4.6));
#1195=CARTESIAN_POINT('',(1.71648506293512E-32,36.5185045423776,4.59999999999998));
#1196=CARTESIAN_POINT('',(10.,73.0370090847553,4.6));
#1197=CARTESIAN_POINT('',(2.98519141380022E-32,73.0370090847553,4.6));
#1198=CARTESIAN_POINT('',(10.,76.9629909152447,4.60000000000001));
#1199=CARTESIAN_POINT('Origin',(2.98519141380022E-32,71.0740181695106,8.));
#1200=CARTESIAN_POINT('',(7.60775148226082E-32,63.9218167058906,20.3879763209582));
#1201=CARTESIAN_POINT('',(10.,73.0370090847553,4.6));
#1202=CARTESIAN_POINT('Origin',(10.,75.,8.));
#1203=CARTESIAN_POINT('Origin',(2.98519141380022E-32,3.03700908475527,11.4));
#1204=CARTESIAN_POINT('',(2.98519141380022E-32,3.03700908475527,11.4));
#1205=CARTESIAN_POINT('',(2.98519141380022E-32,1.07401816951054,8.));
#1206=CARTESIAN_POINT('',(2.41332883435049E-32,0.189210548375213,6.46746824526945));
#1207=CARTESIAN_POINT('',(10.,3.03700908475527,11.4));
#1208=CARTESIAN_POINT('',(2.98519141380022E-32,3.03700908475527,11.4));
#1209=CARTESIAN_POINT('',(10.,1.07401816951054,8.));
#1210=CARTESIAN_POINT('',(10.,1.07401816951054,8.));
#1211=CARTESIAN_POINT('',(2.98519141380022E-32,1.07401816951054,8.));
#1212=CARTESIAN_POINT('Origin',(2.98519141380022E-32,6.96299091524472,11.4));
#1213=CARTESIAN_POINT('',(2.98519141380022E-32,6.96299091524472,11.4));
#1214=CARTESIAN_POINT('',(4.25389776466531E-32,3.48149545762235,11.4));
#1215=CARTESIAN_POINT('',(10.,6.96299091524472,11.4));
#1216=CARTESIAN_POINT('',(2.98519141380022E-32,6.96299091524472,11.4));
#1217=CARTESIAN_POINT('',(10.,3.03700908475527,11.4));
#1218=CARTESIAN_POINT('Origin',(2.98519141380022E-32,8.92598183048946,8.));
#1219=CARTESIAN_POINT('',(2.98519141380022E-32,8.92598183048946,8.));
#1220=CARTESIAN_POINT('',(2.58686678376488E-32,9.54228490924715,6.93253175473056));
#1221=CARTESIAN_POINT('',(10.,8.92598183048946,8.));
#1222=CARTESIAN_POINT('',(2.98519141380022E-32,8.92598183048946,8.));
#1223=CARTESIAN_POINT('',(10.,6.96299091524472,11.4));
#1224=CARTESIAN_POINT('Origin',(2.98519141380022E-32,6.96299091524473,4.6));
#1225=CARTESIAN_POINT('',(2.98519141380022E-32,6.96299091524473,4.6));
#1226=CARTESIAN_POINT('',(5.10269308052852E-33,5.09668783648704,1.36746824526945));
#1227=CARTESIAN_POINT('',(10.,6.96299091524473,4.6));
#1228=CARTESIAN_POINT('',(2.98519141380022E-32,6.96299091524473,4.6));
#1229=CARTESIAN_POINT('',(10.,8.92598183048946,8.));
#1230=CARTESIAN_POINT('Origin',(2.98519141380022E-32,3.03700908475528,4.59999999999999));
#1231=CARTESIAN_POINT('',(2.98519141380022E-32,3.03700908475528,4.59999999999999));
#1232=CARTESIAN_POINT('',(1.71648506293512E-32,1.51850454237763,4.59999999999999));
#1233=CARTESIAN_POINT('',(10.,3.03700908475528,4.59999999999999));
#1234=CARTESIAN_POINT('',(2.98519141380022E-32,3.03700908475528,4.59999999999999));
#1235=CARTESIAN_POINT('',(10.,6.96299091524473,4.6));
#1236=CARTESIAN_POINT('Origin',(2.98519141380022E-32,1.07401816951054,8.));
#1237=CARTESIAN_POINT('',(1.95251360833233E-32,2.6718167058906,5.23253175473055));
#1238=CARTESIAN_POINT('',(10.,3.03700908475528,4.59999999999999));
#1239=CARTESIAN_POINT('Origin',(10.,5.,8.));
#1240=CARTESIAN_POINT('Origin',(2.2,0.,8.76724512190412E-16));
#1241=CARTESIAN_POINT('',(0.,0.,0.));
#1242=CARTESIAN_POINT('',(2.2,0.,8.76724512190412E-16));
#1243=CARTESIAN_POINT('',(0.,0.,0.));
#1244=CARTESIAN_POINT('',(0.,80.,0.));
#1245=CARTESIAN_POINT('',(0.,0.,0.));
#1246=CARTESIAN_POINT('',(2.2,80.,8.76724512190412E-16));
#1247=CARTESIAN_POINT('',(0.,80.,0.));
#1248=CARTESIAN_POINT('',(2.2,0.,8.76724512190412E-16));
#1249=CARTESIAN_POINT('Origin',(15.,0.,-4.));
#1250=CARTESIAN_POINT('',(2.2,0.,8.76724512190412E-16));
#1251=CARTESIAN_POINT('',(2.2,80.,8.76724512190412E-16));
#1252=CARTESIAN_POINT('Origin',(0.,0.,0.));
#1253=CARTESIAN_POINT('',(0.,0.,0.));
#1254=CARTESIAN_POINT('',(0.,80.,0.));
#1255=CARTESIAN_POINT('Origin',(39.9,80.,6.));
#1256=CARTESIAN_POINT('Origin',(39.9,0.,6.));
#1257=UNCERTAINTY_MEASURE_WITH_UNIT(LENGTH_MEASURE(0.01),#1261,
'DISTANCE_ACCURACY_VALUE',
'Maximum model space distance between geometric entities at asserted c
onnectivities');
#1258=UNCERTAINTY_MEASURE_WITH_UNIT(LENGTH_MEASURE(0.01),#1261,
'DISTANCE_ACCURACY_VALUE',
'Maximum model space distance between geometric entities at asserted c
onnectivities');
#1259=(
GEOMETRIC_REPRESENTATION_CONTEXT(3)
GLOBAL_UNCERTAINTY_ASSIGNED_CONTEXT((#1257))
GLOBAL_UNIT_ASSIGNED_CONTEXT((#1261,#1263,#1264))
REPRESENTATION_CONTEXT('','3D')
);
#1260=(
GEOMETRIC_REPRESENTATION_CONTEXT(3)
GLOBAL_UNCERTAINTY_ASSIGNED_CONTEXT((#1258))
GLOBAL_UNIT_ASSIGNED_CONTEXT((#1261,#1263,#1264))
REPRESENTATION_CONTEXT('','3D')
);
#1261=(
LENGTH_UNIT()
NAMED_UNIT(*)
SI_UNIT(.MILLI.,.METRE.)
);
#1262=(
LENGTH_UNIT()
NAMED_UNIT(*)
SI_UNIT($,.METRE.)
);
#1263=(
NAMED_UNIT(*)
PLANE_ANGLE_UNIT()
SI_UNIT($,.RADIAN.)
);
#1264=(
NAMED_UNIT(*)
SI_UNIT($,.STERADIAN.)
SOLID_ANGLE_UNIT()
);
#1265=SHAPE_DEFINITION_REPRESENTATION(#1266,#1267);
#1266=PRODUCT_DEFINITION_SHAPE('',$,#1269);
#1267=SHAPE_REPRESENTATION('',(#773),#1259);
#1268=PRODUCT_DEFINITION_CONTEXT('part definition',#1273,'design');
#1269=PRODUCT_DEFINITION('Base attached with CNC',
'Base attached with CNC v5',#1270,#1268);
#1270=PRODUCT_DEFINITION_FORMATION('',$,#1275);
#1271=PRODUCT_RELATED_PRODUCT_CATEGORY('Base attached with CNC v5',
'Base attached with CNC v5',(#1275));
#1272=APPLICATION_PROTOCOL_DEFINITION('international standard',
'automotive_design',2009,#1273);
#1273=APPLICATION_CONTEXT(
'Core Data for Automotive Mechanical Design Process');
#1274=PRODUCT_CONTEXT('part definition',#1273,'mechanical');
#1275=PRODUCT('Base attached with CNC','Base attached with CNC v5',$,(#1274));
#1276=PRESENTATION_STYLE_ASSIGNMENT((#1277));
#1277=SURFACE_STYLE_USAGE(.BOTH.,#1278);
#1278=SURFACE_SIDE_STYLE('',(#1279));
#1279=SURFACE_STYLE_FILL_AREA(#1280);
#1280=FILL_AREA_STYLE('Steel - Satin',(#1281));
#1281=FILL_AREA_STYLE_COLOUR('Steel - Satin',#1282);
#1282=COLOUR_RGB('Steel - Satin',0.627450980392157,0.627450980392157,0.627450980392157);
ENDSEC;
END-ISO-10303-21;
