ISO-10303-21;
HEADER;
/* Generated by software containing ST-Developer
 * from STEP Tools, Inc. (www.steptools.com) 
 */

FILE_DESCRIPTION(
/* description */ (''),
/* implementation_level */ '2;1');

FILE_NAME(
/* name */ 'PRT_lock_actuator_motor_clip.step',
/* time_stamp */ '2026-10-02T15:55:39-04:00',
/* author */ (''),
/* organization */ (''),
/* preprocessor_version */ 'ST-DEVELOPER v20.2',
/* originating_system */ 'Autodesk Translation Framework v15.15.0.0',
/* authorisation */ '');

FILE_SCHEMA (('AUTOMOTIVE_DESIGN { 1 0 10303 214 3 1 1 }'));
ENDSEC;

DATA;
#10=MECHANICAL_DESIGN_GEOMETRIC_PRESENTATION_REPRESENTATION('',(#13),#742);
#11=SHAPE_REPRESENTATION_RELATIONSHIP('SRR','None',#749,#12);
#12=ADVANCED_BREP_SHAPE_REPRESENTATION('',(#14),#741);
#13=STYLED_ITEM('',(#758),#14);
#14=MANIFOLD_SOLID_BREP('Body1',#422);
#15=FACE_BOUND('',#133,.T.);
#16=FACE_BOUND('',#134,.T.);
#17=FACE_BOUND('',#137,.T.);
#18=FACE_BOUND('',#155,.T.);
#19=FACE_BOUND('',#156,.T.);
#20=FACE_BOUND('',#159,.T.);
#21=FACE_BOUND('',#160,.T.);
#22=PLANE('',#443);
#23=PLANE('',#452);
#24=PLANE('',#456);
#25=PLANE('',#461);
#26=PLANE('',#464);
#27=PLANE('',#475);
#28=PLANE('',#478);
#29=PLANE('',#481);
#30=PLANE('',#482);
#31=PLANE('',#483);
#32=PLANE('',#484);
#33=PLANE('',#485);
#34=LINE('',#631,#65);
#35=LINE('',#634,#66);
#36=LINE('',#637,#67);
#37=LINE('',#641,#68);
#38=LINE('',#645,#69);
#39=LINE('',#657,#70);
#40=LINE('',#661,#71);
#41=LINE('',#664,#72);
#42=LINE('',#669,#73);
#43=LINE('',#671,#74);
#44=LINE('',#673,#75);
#45=LINE('',#675,#76);
#46=LINE('',#676,#77);
#47=LINE('',#680,#78);
#48=LINE('',#683,#79);
#49=LINE('',#687,#80);
#50=LINE('',#688,#81);
#51=LINE('',#691,#82);
#52=LINE('',#694,#83);
#53=LINE('',#697,#84);
#54=LINE('',#699,#85);
#55=LINE('',#701,#86);
#56=LINE('',#702,#87);
#57=LINE('',#709,#88);
#58=LINE('',#715,#89);
#59=LINE('',#719,#90);
#60=LINE('',#724,#91);
#61=LINE('',#729,#92);
#62=LINE('',#733,#93);
#63=LINE('',#734,#94);
#64=LINE('',#736,#95);
#65=VECTOR('',#500,10.);
#66=VECTOR('',#503,10.);
#67=VECTOR('',#506,10.);
#68=VECTOR('',#509,10.);
#69=VECTOR('',#512,10.);
#70=VECTOR('',#527,10.);
#71=VECTOR('',#530,10.);
#72=VECTOR('',#533,10.);
#73=VECTOR('',#538,10.);
#74=VECTOR('',#539,10.);
#75=VECTOR('',#540,10.);
#76=VECTOR('',#541,10.);
#77=VECTOR('',#542,10.);
#78=VECTOR('',#547,10.);
#79=VECTOR('',#550,10.);
#80=VECTOR('',#555,10.);
#81=VECTOR('',#556,10.);
#82=VECTOR('',#559,10.);
#83=VECTOR('',#562,10.);
#84=VECTOR('',#565,10.);
#85=VECTOR('',#566,10.);
#86=VECTOR('',#567,10.);
#87=VECTOR('',#568,10.);
#88=VECTOR('',#577,1.75);
#89=VECTOR('',#584,1.75);
#90=VECTOR('',#589,2.55);
#91=VECTOR('',#596,2.55);
#92=VECTOR('',#603,2.55);
#93=VECTOR('',#610,10.);
#94=VECTOR('',#611,10.);
#95=VECTOR('',#614,10.);
#96=CYLINDRICAL_SURFACE('',#441,14.);
#97=CYLINDRICAL_SURFACE('',#457,2.);
#98=CYLINDRICAL_SURFACE('',#459,2.);
#99=CYLINDRICAL_SURFACE('',#462,2.);
#100=CYLINDRICAL_SURFACE('',#465,2.);
#101=CYLINDRICAL_SURFACE('',#467,1.75);
#102=CYLINDRICAL_SURFACE('',#470,1.75);
#103=CYLINDRICAL_SURFACE('',#473,2.55);
#104=CYLINDRICAL_SURFACE('',#476,2.55);
#105=CYLINDRICAL_SURFACE('',#479,2.55);
#106=FACE_OUTER_BOUND('',#130,.T.);
#107=FACE_OUTER_BOUND('',#131,.T.);
#108=FACE_OUTER_BOUND('',#132,.T.);
#109=FACE_OUTER_BOUND('',#135,.T.);
#110=FACE_OUTER_BOUND('',#136,.T.);
#111=FACE_OUTER_BOUND('',#138,.T.);
#112=FACE_OUTER_BOUND('',#139,.T.);
#113=FACE_OUTER_BOUND('',#140,.T.);
#114=FACE_OUTER_BOUND('',#141,.T.);
#115=FACE_OUTER_BOUND('',#142,.T.);
#116=FACE_OUTER_BOUND('',#143,.T.);
#117=FACE_OUTER_BOUND('',#144,.T.);
#118=FACE_OUTER_BOUND('',#145,.T.);
#119=FACE_OUTER_BOUND('',#146,.T.);
#120=FACE_OUTER_BOUND('',#147,.T.);
#121=FACE_OUTER_BOUND('',#148,.T.);
#122=FACE_OUTER_BOUND('',#149,.T.);
#123=FACE_OUTER_BOUND('',#150,.T.);
#124=FACE_OUTER_BOUND('',#151,.T.);
#125=FACE_OUTER_BOUND('',#152,.T.);
#126=FACE_OUTER_BOUND('',#153,.T.);
#127=FACE_OUTER_BOUND('',#154,.T.);
#128=FACE_OUTER_BOUND('',#157,.T.);
#129=FACE_OUTER_BOUND('',#158,.T.);
#130=EDGE_LOOP('',(#282,#283,#284,#285));
#131=EDGE_LOOP('',(#286,#287,#288,#289));
#132=EDGE_LOOP('',(#290,#291,#292,#293,#294,#295,#296,#297));
#133=EDGE_LOOP('',(#298));
#134=EDGE_LOOP('',(#299));
#135=EDGE_LOOP('',(#300,#301,#302,#303));
#136=EDGE_LOOP('',(#304,#305,#306,#307,#308,#309,#310,#311));
#137=EDGE_LOOP('',(#312));
#138=EDGE_LOOP('',(#313,#314,#315,#316,#317,#318,#319,#320));
#139=EDGE_LOOP('',(#321,#322,#323,#324));
#140=EDGE_LOOP('',(#325,#326,#327,#328));
#141=EDGE_LOOP('',(#329,#330,#331,#332));
#142=EDGE_LOOP('',(#333,#334,#335,#336));
#143=EDGE_LOOP('',(#337,#338,#339,#340,#341,#342,#343,#344));
#144=EDGE_LOOP('',(#345,#346,#347,#348));
#145=EDGE_LOOP('',(#349,#350,#351,#352));
#146=EDGE_LOOP('',(#353,#354,#355,#356));
#147=EDGE_LOOP('',(#357,#358,#359,#360));
#148=EDGE_LOOP('',(#361));
#149=EDGE_LOOP('',(#362,#363,#364,#365));
#150=EDGE_LOOP('',(#366));
#151=EDGE_LOOP('',(#367,#368,#369,#370));
#152=EDGE_LOOP('',(#371));
#153=EDGE_LOOP('',(#372,#373,#374,#375));
#154=EDGE_LOOP('',(#376,#377,#378,#379,#380,#381));
#155=EDGE_LOOP('',(#382));
#156=EDGE_LOOP('',(#383));
#157=EDGE_LOOP('',(#384,#385,#386,#387));
#158=EDGE_LOOP('',(#388,#389,#390,#391,#392,#393));
#159=EDGE_LOOP('',(#394));
#160=EDGE_LOOP('',(#395));
#161=CIRCLE('',#437,0.5);
#162=CIRCLE('',#438,14.5);
#163=CIRCLE('',#439,0.5);
#164=CIRCLE('',#440,14.);
#165=CIRCLE('',#442,14.);
#166=CIRCLE('',#444,2.);
#167=CIRCLE('',#445,2.);
#168=CIRCLE('',#446,0.5);
#169=CIRCLE('',#447,2.55);
#170=CIRCLE('',#448,2.55);
#171=CIRCLE('',#450,14.5);
#172=CIRCLE('',#451,0.5);
#173=CIRCLE('',#453,2.);
#174=CIRCLE('',#454,2.);
#175=CIRCLE('',#455,2.55);
#176=CIRCLE('',#458,2.);
#177=CIRCLE('',#460,2.);
#178=CIRCLE('',#463,2.);
#179=CIRCLE('',#466,2.);
#180=CIRCLE('',#468,1.75);
#181=CIRCLE('',#469,1.75);
#182=CIRCLE('',#471,1.75);
#183=CIRCLE('',#472,1.75);
#184=CIRCLE('',#474,2.55);
#185=CIRCLE('',#477,2.55);
#186=CIRCLE('',#480,2.55);
#187=VERTEX_POINT('',#621);
#188=VERTEX_POINT('',#622);
#189=VERTEX_POINT('',#624);
#190=VERTEX_POINT('',#626);
#191=VERTEX_POINT('',#630);
#192=VERTEX_POINT('',#632);
#193=VERTEX_POINT('',#636);
#194=VERTEX_POINT('',#638);
#195=VERTEX_POINT('',#640);
#196=VERTEX_POINT('',#642);
#197=VERTEX_POINT('',#644);
#198=VERTEX_POINT('',#647);
#199=VERTEX_POINT('',#649);
#200=VERTEX_POINT('',#652);
#201=VERTEX_POINT('',#656);
#202=VERTEX_POINT('',#658);
#203=VERTEX_POINT('',#660);
#204=VERTEX_POINT('',#662);
#205=VERTEX_POINT('',#665);
#206=VERTEX_POINT('',#668);
#207=VERTEX_POINT('',#670);
#208=VERTEX_POINT('',#672);
#209=VERTEX_POINT('',#674);
#210=VERTEX_POINT('',#678);
#211=VERTEX_POINT('',#682);
#212=VERTEX_POINT('',#686);
#213=VERTEX_POINT('',#690);
#214=VERTEX_POINT('',#692);
#215=VERTEX_POINT('',#696);
#216=VERTEX_POINT('',#698);
#217=VERTEX_POINT('',#700);
#218=VERTEX_POINT('',#706);
#219=VERTEX_POINT('',#708);
#220=VERTEX_POINT('',#712);
#221=VERTEX_POINT('',#714);
#222=VERTEX_POINT('',#718);
#223=VERTEX_POINT('',#723);
#224=VERTEX_POINT('',#728);
#225=EDGE_CURVE('',#187,#188,#161,.T.);
#226=EDGE_CURVE('',#188,#189,#162,.T.);
#227=EDGE_CURVE('',#189,#190,#163,.T.);
#228=EDGE_CURVE('',#190,#187,#164,.T.);
#229=EDGE_CURVE('',#191,#190,#34,.T.);
#230=EDGE_CURVE('',#192,#191,#165,.T.);
#231=EDGE_CURVE('',#192,#187,#35,.T.);
#232=EDGE_CURVE('',#193,#189,#36,.T.);
#233=EDGE_CURVE('',#194,#193,#166,.T.);
#234=EDGE_CURVE('',#195,#194,#37,.T.);
#235=EDGE_CURVE('',#196,#195,#167,.T.);
#236=EDGE_CURVE('',#196,#197,#38,.T.);
#237=EDGE_CURVE('',#191,#197,#168,.T.);
#238=EDGE_CURVE('',#198,#198,#169,.T.);
#239=EDGE_CURVE('',#199,#199,#170,.T.);
#240=EDGE_CURVE('',#197,#200,#171,.T.);
#241=EDGE_CURVE('',#200,#192,#172,.T.);
#242=EDGE_CURVE('',#201,#200,#39,.T.);
#243=EDGE_CURVE('',#202,#201,#173,.T.);
#244=EDGE_CURVE('',#202,#203,#40,.T.);
#245=EDGE_CURVE('',#204,#203,#174,.T.);
#246=EDGE_CURVE('',#188,#204,#41,.T.);
#247=EDGE_CURVE('',#205,#205,#175,.T.);
#248=EDGE_CURVE('',#206,#196,#42,.T.);
#249=EDGE_CURVE('',#207,#206,#43,.T.);
#250=EDGE_CURVE('',#207,#208,#44,.T.);
#251=EDGE_CURVE('',#208,#209,#45,.T.);
#252=EDGE_CURVE('',#201,#209,#46,.T.);
#253=EDGE_CURVE('',#209,#210,#176,.F.);
#254=EDGE_CURVE('',#210,#202,#47,.T.);
#255=EDGE_CURVE('',#195,#211,#48,.T.);
#256=EDGE_CURVE('',#211,#206,#177,.T.);
#257=EDGE_CURVE('',#212,#194,#49,.T.);
#258=EDGE_CURVE('',#211,#212,#50,.T.);
#259=EDGE_CURVE('',#203,#213,#51,.T.);
#260=EDGE_CURVE('',#213,#214,#178,.F.);
#261=EDGE_CURVE('',#214,#204,#52,.T.);
#262=EDGE_CURVE('',#214,#215,#53,.T.);
#263=EDGE_CURVE('',#215,#216,#54,.T.);
#264=EDGE_CURVE('',#216,#217,#55,.T.);
#265=EDGE_CURVE('',#193,#217,#56,.T.);
#266=EDGE_CURVE('',#217,#212,#179,.T.);
#267=EDGE_CURVE('',#218,#218,#180,.T.);
#268=EDGE_CURVE('',#218,#219,#57,.T.);
#269=EDGE_CURVE('',#219,#219,#181,.T.);
#270=EDGE_CURVE('',#220,#220,#182,.T.);
#271=EDGE_CURVE('',#220,#221,#58,.T.);
#272=EDGE_CURVE('',#221,#221,#183,.T.);
#273=EDGE_CURVE('',#205,#222,#59,.T.);
#274=EDGE_CURVE('',#222,#222,#184,.T.);
#275=EDGE_CURVE('',#199,#223,#60,.T.);
#276=EDGE_CURVE('',#223,#223,#185,.T.);
#277=EDGE_CURVE('',#198,#224,#61,.T.);
#278=EDGE_CURVE('',#224,#224,#186,.T.);
#279=EDGE_CURVE('',#207,#216,#62,.T.);
#280=EDGE_CURVE('',#208,#215,#63,.T.);
#281=EDGE_CURVE('',#210,#213,#64,.T.);
#282=ORIENTED_EDGE('',*,*,#225,.T.);
#283=ORIENTED_EDGE('',*,*,#226,.T.);
#284=ORIENTED_EDGE('',*,*,#227,.T.);
#285=ORIENTED_EDGE('',*,*,#228,.T.);
#286=ORIENTED_EDGE('',*,*,#228,.F.);
#287=ORIENTED_EDGE('',*,*,#229,.F.);
#288=ORIENTED_EDGE('',*,*,#230,.F.);
#289=ORIENTED_EDGE('',*,*,#231,.T.);
#290=ORIENTED_EDGE('',*,*,#227,.F.);
#291=ORIENTED_EDGE('',*,*,#232,.F.);
#292=ORIENTED_EDGE('',*,*,#233,.F.);
#293=ORIENTED_EDGE('',*,*,#234,.F.);
#294=ORIENTED_EDGE('',*,*,#235,.F.);
#295=ORIENTED_EDGE('',*,*,#236,.T.);
#296=ORIENTED_EDGE('',*,*,#237,.F.);
#297=ORIENTED_EDGE('',*,*,#229,.T.);
#298=ORIENTED_EDGE('',*,*,#238,.T.);
#299=ORIENTED_EDGE('',*,*,#239,.T.);
#300=ORIENTED_EDGE('',*,*,#237,.T.);
#301=ORIENTED_EDGE('',*,*,#240,.T.);
#302=ORIENTED_EDGE('',*,*,#241,.T.);
#303=ORIENTED_EDGE('',*,*,#230,.T.);
#304=ORIENTED_EDGE('',*,*,#225,.F.);
#305=ORIENTED_EDGE('',*,*,#231,.F.);
#306=ORIENTED_EDGE('',*,*,#241,.F.);
#307=ORIENTED_EDGE('',*,*,#242,.F.);
#308=ORIENTED_EDGE('',*,*,#243,.F.);
#309=ORIENTED_EDGE('',*,*,#244,.T.);
#310=ORIENTED_EDGE('',*,*,#245,.F.);
#311=ORIENTED_EDGE('',*,*,#246,.F.);
#312=ORIENTED_EDGE('',*,*,#247,.T.);
#313=ORIENTED_EDGE('',*,*,#240,.F.);
#314=ORIENTED_EDGE('',*,*,#236,.F.);
#315=ORIENTED_EDGE('',*,*,#248,.F.);
#316=ORIENTED_EDGE('',*,*,#249,.F.);
#317=ORIENTED_EDGE('',*,*,#250,.T.);
#318=ORIENTED_EDGE('',*,*,#251,.T.);
#319=ORIENTED_EDGE('',*,*,#252,.F.);
#320=ORIENTED_EDGE('',*,*,#242,.T.);
#321=ORIENTED_EDGE('',*,*,#243,.T.);
#322=ORIENTED_EDGE('',*,*,#252,.T.);
#323=ORIENTED_EDGE('',*,*,#253,.T.);
#324=ORIENTED_EDGE('',*,*,#254,.T.);
#325=ORIENTED_EDGE('',*,*,#235,.T.);
#326=ORIENTED_EDGE('',*,*,#255,.T.);
#327=ORIENTED_EDGE('',*,*,#256,.T.);
#328=ORIENTED_EDGE('',*,*,#248,.T.);
#329=ORIENTED_EDGE('',*,*,#255,.F.);
#330=ORIENTED_EDGE('',*,*,#234,.T.);
#331=ORIENTED_EDGE('',*,*,#257,.F.);
#332=ORIENTED_EDGE('',*,*,#258,.F.);
#333=ORIENTED_EDGE('',*,*,#245,.T.);
#334=ORIENTED_EDGE('',*,*,#259,.T.);
#335=ORIENTED_EDGE('',*,*,#260,.T.);
#336=ORIENTED_EDGE('',*,*,#261,.T.);
#337=ORIENTED_EDGE('',*,*,#226,.F.);
#338=ORIENTED_EDGE('',*,*,#246,.T.);
#339=ORIENTED_EDGE('',*,*,#261,.F.);
#340=ORIENTED_EDGE('',*,*,#262,.T.);
#341=ORIENTED_EDGE('',*,*,#263,.T.);
#342=ORIENTED_EDGE('',*,*,#264,.T.);
#343=ORIENTED_EDGE('',*,*,#265,.F.);
#344=ORIENTED_EDGE('',*,*,#232,.T.);
#345=ORIENTED_EDGE('',*,*,#233,.T.);
#346=ORIENTED_EDGE('',*,*,#265,.T.);
#347=ORIENTED_EDGE('',*,*,#266,.T.);
#348=ORIENTED_EDGE('',*,*,#257,.T.);
#349=ORIENTED_EDGE('',*,*,#267,.F.);
#350=ORIENTED_EDGE('',*,*,#268,.T.);
#351=ORIENTED_EDGE('',*,*,#269,.F.);
#352=ORIENTED_EDGE('',*,*,#268,.F.);
#353=ORIENTED_EDGE('',*,*,#270,.F.);
#354=ORIENTED_EDGE('',*,*,#271,.T.);
#355=ORIENTED_EDGE('',*,*,#272,.F.);
#356=ORIENTED_EDGE('',*,*,#271,.F.);
#357=ORIENTED_EDGE('',*,*,#247,.F.);
#358=ORIENTED_EDGE('',*,*,#273,.T.);
#359=ORIENTED_EDGE('',*,*,#274,.T.);
#360=ORIENTED_EDGE('',*,*,#273,.F.);
#361=ORIENTED_EDGE('',*,*,#274,.F.);
#362=ORIENTED_EDGE('',*,*,#239,.F.);
#363=ORIENTED_EDGE('',*,*,#275,.T.);
#364=ORIENTED_EDGE('',*,*,#276,.T.);
#365=ORIENTED_EDGE('',*,*,#275,.F.);
#366=ORIENTED_EDGE('',*,*,#276,.F.);
#367=ORIENTED_EDGE('',*,*,#238,.F.);
#368=ORIENTED_EDGE('',*,*,#277,.T.);
#369=ORIENTED_EDGE('',*,*,#278,.T.);
#370=ORIENTED_EDGE('',*,*,#277,.F.);
#371=ORIENTED_EDGE('',*,*,#278,.F.);
#372=ORIENTED_EDGE('',*,*,#250,.F.);
#373=ORIENTED_EDGE('',*,*,#279,.T.);
#374=ORIENTED_EDGE('',*,*,#263,.F.);
#375=ORIENTED_EDGE('',*,*,#280,.F.);
#376=ORIENTED_EDGE('',*,*,#251,.F.);
#377=ORIENTED_EDGE('',*,*,#280,.T.);
#378=ORIENTED_EDGE('',*,*,#262,.F.);
#379=ORIENTED_EDGE('',*,*,#260,.F.);
#380=ORIENTED_EDGE('',*,*,#281,.F.);
#381=ORIENTED_EDGE('',*,*,#253,.F.);
#382=ORIENTED_EDGE('',*,*,#267,.T.);
#383=ORIENTED_EDGE('',*,*,#270,.T.);
#384=ORIENTED_EDGE('',*,*,#254,.F.);
#385=ORIENTED_EDGE('',*,*,#281,.T.);
#386=ORIENTED_EDGE('',*,*,#259,.F.);
#387=ORIENTED_EDGE('',*,*,#244,.F.);
#388=ORIENTED_EDGE('',*,*,#256,.F.);
#389=ORIENTED_EDGE('',*,*,#258,.T.);
#390=ORIENTED_EDGE('',*,*,#266,.F.);
#391=ORIENTED_EDGE('',*,*,#264,.F.);
#392=ORIENTED_EDGE('',*,*,#279,.F.);
#393=ORIENTED_EDGE('',*,*,#249,.T.);
#394=ORIENTED_EDGE('',*,*,#269,.T.);
#395=ORIENTED_EDGE('',*,*,#272,.T.);
#396=TOROIDAL_SURFACE('',#436,14.5,0.5);
#397=TOROIDAL_SURFACE('',#449,14.5,0.5);
#398=ADVANCED_FACE('',(#106),#396,.T.);
#399=ADVANCED_FACE('',(#107),#96,.F.);
#400=ADVANCED_FACE('',(#108,#15,#16),#22,.T.);
#401=ADVANCED_FACE('',(#109),#397,.T.);
#402=ADVANCED_FACE('',(#110,#17),#23,.T.);
#403=ADVANCED_FACE('',(#111),#24,.F.);
#404=ADVANCED_FACE('',(#112),#97,.T.);
#405=ADVANCED_FACE('',(#113),#98,.T.);
#406=ADVANCED_FACE('',(#114),#25,.T.);
#407=ADVANCED_FACE('',(#115),#99,.T.);
#408=ADVANCED_FACE('',(#116),#26,.T.);
#409=ADVANCED_FACE('',(#117),#100,.T.);
#410=ADVANCED_FACE('',(#118),#101,.F.);
#411=ADVANCED_FACE('',(#119),#102,.F.);
#412=ADVANCED_FACE('',(#120),#103,.F.);
#413=ADVANCED_FACE('',(#121),#27,.T.);
#414=ADVANCED_FACE('',(#122),#104,.F.);
#415=ADVANCED_FACE('',(#123),#28,.T.);
#416=ADVANCED_FACE('',(#124),#105,.F.);
#417=ADVANCED_FACE('',(#125),#29,.T.);
#418=ADVANCED_FACE('',(#126),#30,.T.);
#419=ADVANCED_FACE('',(#127,#18,#19),#31,.T.);
#420=ADVANCED_FACE('',(#128),#32,.T.);
#421=ADVANCED_FACE('',(#129,#20,#21),#33,.T.);
#422=CLOSED_SHELL('',(#398,#399,#400,#401,#402,#403,#404,#405,#406,#407,
#408,#409,#410,#411,#412,#413,#414,#415,#416,#417,#418,#419,#420,#421));
#423=DERIVED_UNIT_ELEMENT(#425,1.);
#424=DERIVED_UNIT_ELEMENT(#744,-3.);
#425=(
MASS_UNIT()
NAMED_UNIT(*)
SI_UNIT(.KILO.,.GRAM.)
);
#426=DERIVED_UNIT((#423,#424));
#427=MEASURE_REPRESENTATION_ITEM('density measure',
POSITIVE_RATIO_MEASURE(7850.),#426);
#428=PROPERTY_DEFINITION_REPRESENTATION(#433,#430);
#429=PROPERTY_DEFINITION_REPRESENTATION(#434,#431);
#430=REPRESENTATION('material name',(#432),#741);
#431=REPRESENTATION('density',(#427),#741);
#432=DESCRIPTIVE_REPRESENTATION_ITEM('Steel','Steel');
#433=PROPERTY_DEFINITION('material property','material name',#751);
#434=PROPERTY_DEFINITION('material property','density of part',#751);
#435=AXIS2_PLACEMENT_3D('',#619,#486,#487);
#436=AXIS2_PLACEMENT_3D('',#620,#488,#489);
#437=AXIS2_PLACEMENT_3D('',#623,#490,#491);
#438=AXIS2_PLACEMENT_3D('',#625,#492,#493);
#439=AXIS2_PLACEMENT_3D('',#627,#494,#495);
#440=AXIS2_PLACEMENT_3D('',#628,#496,#497);
#441=AXIS2_PLACEMENT_3D('',#629,#498,#499);
#442=AXIS2_PLACEMENT_3D('',#633,#501,#502);
#443=AXIS2_PLACEMENT_3D('',#635,#504,#505);
#444=AXIS2_PLACEMENT_3D('',#639,#507,#508);
#445=AXIS2_PLACEMENT_3D('',#643,#510,#511);
#446=AXIS2_PLACEMENT_3D('',#646,#513,#514);
#447=AXIS2_PLACEMENT_3D('',#648,#515,#516);
#448=AXIS2_PLACEMENT_3D('',#650,#517,#518);
#449=AXIS2_PLACEMENT_3D('',#651,#519,#520);
#450=AXIS2_PLACEMENT_3D('',#653,#521,#522);
#451=AXIS2_PLACEMENT_3D('',#654,#523,#524);
#452=AXIS2_PLACEMENT_3D('',#655,#525,#526);
#453=AXIS2_PLACEMENT_3D('',#659,#528,#529);
#454=AXIS2_PLACEMENT_3D('',#663,#531,#532);
#455=AXIS2_PLACEMENT_3D('',#666,#534,#535);
#456=AXIS2_PLACEMENT_3D('',#667,#536,#537);
#457=AXIS2_PLACEMENT_3D('',#677,#543,#544);
#458=AXIS2_PLACEMENT_3D('',#679,#545,#546);
#459=AXIS2_PLACEMENT_3D('',#681,#548,#549);
#460=AXIS2_PLACEMENT_3D('',#684,#551,#552);
#461=AXIS2_PLACEMENT_3D('',#685,#553,#554);
#462=AXIS2_PLACEMENT_3D('',#689,#557,#558);
#463=AXIS2_PLACEMENT_3D('',#693,#560,#561);
#464=AXIS2_PLACEMENT_3D('',#695,#563,#564);
#465=AXIS2_PLACEMENT_3D('',#703,#569,#570);
#466=AXIS2_PLACEMENT_3D('',#704,#571,#572);
#467=AXIS2_PLACEMENT_3D('',#705,#573,#574);
#468=AXIS2_PLACEMENT_3D('',#707,#575,#576);
#469=AXIS2_PLACEMENT_3D('',#710,#578,#579);
#470=AXIS2_PLACEMENT_3D('',#711,#580,#581);
#471=AXIS2_PLACEMENT_3D('',#713,#582,#583);
#472=AXIS2_PLACEMENT_3D('',#716,#585,#586);
#473=AXIS2_PLACEMENT_3D('',#717,#587,#588);
#474=AXIS2_PLACEMENT_3D('',#720,#590,#591);
#475=AXIS2_PLACEMENT_3D('',#721,#592,#593);
#476=AXIS2_PLACEMENT_3D('',#722,#594,#595);
#477=AXIS2_PLACEMENT_3D('',#725,#597,#598);
#478=AXIS2_PLACEMENT_3D('',#726,#599,#600);
#479=AXIS2_PLACEMENT_3D('',#727,#601,#602);
#480=AXIS2_PLACEMENT_3D('',#730,#604,#605);
#481=AXIS2_PLACEMENT_3D('',#731,#606,#607);
#482=AXIS2_PLACEMENT_3D('',#732,#608,#609);
#483=AXIS2_PLACEMENT_3D('',#735,#612,#613);
#484=AXIS2_PLACEMENT_3D('',#737,#615,#616);
#485=AXIS2_PLACEMENT_3D('',#738,#617,#618);
#486=DIRECTION('axis',(0.,0.,1.));
#487=DIRECTION('refdir',(1.,0.,0.));
#488=DIRECTION('center_axis',(0.,0.,-1.));
#489=DIRECTION('ref_axis',(-1.,0.,0.));
#490=DIRECTION('center_axis',(-1.15555796663234E-33,-1.,0.));
#491=DIRECTION('ref_axis',(-1.,1.15555796663234E-33,0.));
#492=DIRECTION('center_axis',(0.,0.,1.));
#493=DIRECTION('ref_axis',(0.,-1.,0.));
#494=DIRECTION('center_axis',(-6.60847038467355E-17,-1.,0.));
#495=DIRECTION('ref_axis',(1.,-6.60847038467355E-17,0.));
#496=DIRECTION('center_axis',(0.,0.,-1.));
#497=DIRECTION('ref_axis',(0.,-1.,0.));
#498=DIRECTION('center_axis',(0.,0.,1.));
#499=DIRECTION('ref_axis',(-1.,-8.25398547594529E-34,0.));
#500=DIRECTION('',(0.,0.,1.));
#501=DIRECTION('center_axis',(0.,0.,1.));
#502=DIRECTION('ref_axis',(0.,-1.,0.));
#503=DIRECTION('',(0.,0.,1.));
#504=DIRECTION('center_axis',(6.60847038467355E-17,1.,0.));
#505=DIRECTION('ref_axis',(-1.,6.60847038467355E-17,0.));
#506=DIRECTION('',(-1.,6.60847038467355E-17,0.));
#507=DIRECTION('center_axis',(-6.60847038467355E-17,-1.,0.));
#508=DIRECTION('ref_axis',(0.707106781186549,0.,0.707106781186546));
#509=DIRECTION('',(0.,0.,1.));
#510=DIRECTION('center_axis',(-6.60847038467355E-17,-1.,0.));
#511=DIRECTION('ref_axis',(0.707106781186549,0.,-0.707106781186546));
#512=DIRECTION('',(-1.,6.60847038467355E-17,0.));
#513=DIRECTION('center_axis',(-6.60847038467355E-17,-1.,0.));
#514=DIRECTION('ref_axis',(1.,-6.60847038467355E-17,0.));
#515=DIRECTION('center_axis',(-6.60847038467355E-17,-1.,0.));
#516=DIRECTION('ref_axis',(-1.,0.,0.));
#517=DIRECTION('center_axis',(-6.60847038467355E-17,-1.,0.));
#518=DIRECTION('ref_axis',(-1.,0.,0.));
#519=DIRECTION('center_axis',(0.,0.,1.));
#520=DIRECTION('ref_axis',(1.,0.,0.));
#521=DIRECTION('center_axis',(0.,0.,-1.));
#522=DIRECTION('ref_axis',(0.,-1.,0.));
#523=DIRECTION('center_axis',(-1.15555796663234E-33,-1.,0.));
#524=DIRECTION('ref_axis',(-1.,1.15555796663234E-33,0.));
#525=DIRECTION('center_axis',(1.15555796663234E-33,1.,0.));
#526=DIRECTION('ref_axis',(-1.,1.15555796663234E-33,0.));
#527=DIRECTION('',(1.,-1.15555796663234E-33,0.));
#528=DIRECTION('center_axis',(-1.15555796663234E-33,-1.,0.));
#529=DIRECTION('ref_axis',(-0.707106781186548,0.,-0.707106781186547));
#530=DIRECTION('',(0.,0.,1.));
#531=DIRECTION('center_axis',(-1.15555796663234E-33,-1.,0.));
#532=DIRECTION('ref_axis',(-0.707106781186547,0.,0.707106781186548));
#533=DIRECTION('',(-1.,1.15555796663234E-33,0.));
#534=DIRECTION('center_axis',(-1.15555796663234E-33,-1.,0.));
#535=DIRECTION('ref_axis',(-1.,0.,0.));
#536=DIRECTION('center_axis',(0.,0.,1.));
#537=DIRECTION('ref_axis',(1.,0.,0.));
#538=DIRECTION('',(0.,1.,0.));
#539=DIRECTION('',(1.,-1.62076353959877E-16,0.));
#540=DIRECTION('',(0.,1.,0.));
#541=DIRECTION('',(1.,0.,0.));
#542=DIRECTION('',(1.22464679914735E-16,-1.,0.));
#543=DIRECTION('center_axis',(1.22464679914735E-16,-1.,0.));
#544=DIRECTION('ref_axis',(-0.707106781186548,0.,-0.707106781186547));
#545=DIRECTION('center_axis',(0.,-1.,0.));
#546=DIRECTION('ref_axis',(-0.707106781186548,0.,-0.707106781186547));
#547=DIRECTION('',(-1.22464679914735E-16,1.,0.));
#548=DIRECTION('center_axis',(0.,1.,0.));
#549=DIRECTION('ref_axis',(0.707106781186549,0.,-0.707106781186546));
#550=DIRECTION('',(0.,-1.,0.));
#551=DIRECTION('center_axis',(1.62076353959877E-16,1.,0.));
#552=DIRECTION('ref_axis',(0.707106781186549,0.,-0.707106781186546));
#553=DIRECTION('center_axis',(1.,0.,0.));
#554=DIRECTION('ref_axis',(0.,1.,0.));
#555=DIRECTION('',(0.,1.,0.));
#556=DIRECTION('',(0.,0.,1.));
#557=DIRECTION('center_axis',(1.22464679914735E-16,-1.,0.));
#558=DIRECTION('ref_axis',(-0.707106781186547,0.,0.707106781186548));
#559=DIRECTION('',(1.22464679914735E-16,-1.,0.));
#560=DIRECTION('center_axis',(0.,-1.,0.));
#561=DIRECTION('ref_axis',(-0.707106781186547,0.,0.707106781186548));
#562=DIRECTION('',(-1.22464679914735E-16,1.,0.));
#563=DIRECTION('center_axis',(0.,0.,1.));
#564=DIRECTION('ref_axis',(1.,0.,0.));
#565=DIRECTION('',(-1.,0.,0.));
#566=DIRECTION('',(0.,-1.,0.));
#567=DIRECTION('',(1.,-1.62076353959877E-16,0.));
#568=DIRECTION('',(0.,-1.,0.));
#569=DIRECTION('center_axis',(0.,1.,0.));
#570=DIRECTION('ref_axis',(0.707106781186549,0.,0.707106781186546));
#571=DIRECTION('center_axis',(1.62076353959877E-16,1.,0.));
#572=DIRECTION('ref_axis',(0.707106781186549,0.,0.707106781186546));
#573=DIRECTION('center_axis',(0.,-1.,0.));
#574=DIRECTION('ref_axis',(-1.,0.,0.));
#575=DIRECTION('center_axis',(0.,-1.,0.));
#576=DIRECTION('ref_axis',(-1.,0.,0.));
#577=DIRECTION('',(0.,-1.,0.));
#578=DIRECTION('center_axis',(1.62076353959877E-16,1.,0.));
#579=DIRECTION('ref_axis',(-1.,0.,0.));
#580=DIRECTION('center_axis',(0.,-1.,0.));
#581=DIRECTION('ref_axis',(-1.,0.,0.));
#582=DIRECTION('center_axis',(0.,-1.,0.));
#583=DIRECTION('ref_axis',(-1.,0.,0.));
#584=DIRECTION('',(0.,-1.,0.));
#585=DIRECTION('center_axis',(1.62076353959877E-16,1.,0.));
#586=DIRECTION('ref_axis',(-1.,0.,0.));
#587=DIRECTION('center_axis',(0.,-1.,0.));
#588=DIRECTION('ref_axis',(-1.,0.,0.));
#589=DIRECTION('',(0.,-1.,0.));
#590=DIRECTION('center_axis',(0.,-1.,0.));
#591=DIRECTION('ref_axis',(-1.,0.,0.));
#592=DIRECTION('center_axis',(0.,1.,0.));
#593=DIRECTION('ref_axis',(-1.,0.,0.));
#594=DIRECTION('center_axis',(0.,-1.,0.));
#595=DIRECTION('ref_axis',(-1.,0.,0.));
#596=DIRECTION('',(0.,-1.,0.));
#597=DIRECTION('center_axis',(0.,-1.,0.));
#598=DIRECTION('ref_axis',(-1.,0.,0.));
#599=DIRECTION('center_axis',(0.,1.,0.));
#600=DIRECTION('ref_axis',(-1.,0.,0.));
#601=DIRECTION('center_axis',(0.,-1.,0.));
#602=DIRECTION('ref_axis',(-1.,0.,0.));
#603=DIRECTION('',(0.,-1.,0.));
#604=DIRECTION('center_axis',(0.,-1.,0.));
#605=DIRECTION('ref_axis',(-1.,0.,0.));
#606=DIRECTION('center_axis',(0.,1.,0.));
#607=DIRECTION('ref_axis',(-1.,0.,0.));
#608=DIRECTION('center_axis',(-1.,0.,0.));
#609=DIRECTION('ref_axis',(0.,-1.,0.));
#610=DIRECTION('',(0.,0.,1.));
#611=DIRECTION('',(0.,0.,1.));
#612=DIRECTION('center_axis',(0.,1.,0.));
#613=DIRECTION('ref_axis',(-1.,0.,0.));
#614=DIRECTION('',(0.,0.,1.));
#615=DIRECTION('center_axis',(-1.,-1.22464679914735E-16,0.));
#616=DIRECTION('ref_axis',(1.22464679914735E-16,-1.,0.));
#617=DIRECTION('center_axis',(-1.62076353959877E-16,-1.,0.));
#618=DIRECTION('ref_axis',(1.,-1.62076353959877E-16,0.));
#619=CARTESIAN_POINT('',(0.,0.,0.));
#620=CARTESIAN_POINT('Origin',(24.,0.,32.05));
#621=CARTESIAN_POINT('',(10.,-1.15555796663234E-32,32.05));
#622=CARTESIAN_POINT('',(9.5,-1.09778006830072E-32,32.55));
#623=CARTESIAN_POINT('Origin',(9.5,1.6755590516169E-32,32.05));
#624=CARTESIAN_POINT('',(38.5,1.07718067270179E-15,32.55));
#625=CARTESIAN_POINT('Origin',(24.,0.,32.55));
#626=CARTESIAN_POINT('',(38.,-1.71450551880629E-15,32.05));
#627=CARTESIAN_POINT('Origin',(38.5,-9.58228205777665E-16,32.05));
#628=CARTESIAN_POINT('Origin',(24.,0.,32.05));
#629=CARTESIAN_POINT('Origin',(24.,0.,0.));
#630=CARTESIAN_POINT('',(38.,-1.71450551880629E-15,0.5));
#631=CARTESIAN_POINT('',(38.,-1.71450551880629E-15,0.));
#632=CARTESIAN_POINT('',(10.,-1.15555796663234E-32,0.5));
#633=CARTESIAN_POINT('Origin',(24.,0.,0.5));
#634=CARTESIAN_POINT('',(10.,-1.15555796663234E-32,0.));
#635=CARTESIAN_POINT('Origin',(54.8,0.,0.));
#636=CARTESIAN_POINT('',(52.8,1.32169407693471E-16,32.55));
#637=CARTESIAN_POINT('',(54.8,0.,32.55));
#638=CARTESIAN_POINT('',(54.8,0.,30.55));
#639=CARTESIAN_POINT('Origin',(52.8,0.,30.55));
#640=CARTESIAN_POINT('',(54.8,0.,2.));
#641=CARTESIAN_POINT('',(54.8,0.,0.));
#642=CARTESIAN_POINT('',(52.8,1.32169407693471E-16,0.));
#643=CARTESIAN_POINT('Origin',(52.8,0.,2.));
#644=CARTESIAN_POINT('',(38.5,1.07718067270179E-15,0.));
#645=CARTESIAN_POINT('',(54.8,0.,0.));
#646=CARTESIAN_POINT('Origin',(38.5,-9.58228205777665E-16,0.5));
#647=CARTESIAN_POINT('',(48.95,-5.77778983316171E-33,27.55));
#648=CARTESIAN_POINT('Origin',(46.4,0.,27.55));
#649=CARTESIAN_POINT('',(48.95,-5.77778983316171E-33,5.));
#650=CARTESIAN_POINT('Origin',(46.4,0.,5.));
#651=CARTESIAN_POINT('Origin',(24.,0.,0.5));
#652=CARTESIAN_POINT('',(9.5,-1.09778006830072E-32,0.));
#653=CARTESIAN_POINT('Origin',(24.,0.,0.));
#654=CARTESIAN_POINT('Origin',(9.5,1.6755590516169E-32,0.5));
#655=CARTESIAN_POINT('Origin',(10.,-1.15555796663234E-32,0.));
#656=CARTESIAN_POINT('',(2.,-2.31111593326468E-33,0.));
#657=CARTESIAN_POINT('',(0.,0.,0.));
#658=CARTESIAN_POINT('',(0.,0.,2.));
#659=CARTESIAN_POINT('Origin',(2.,-1.11022302462516E-15,2.));
#660=CARTESIAN_POINT('',(0.,0.,30.55));
#661=CARTESIAN_POINT('',(0.,0.,0.));
#662=CARTESIAN_POINT('',(2.,-2.31111593326468E-33,32.55));
#663=CARTESIAN_POINT('Origin',(2.,-1.11022302462516E-15,30.55));
#664=CARTESIAN_POINT('',(0.,0.,32.55));
#665=CARTESIAN_POINT('',(7.55000007450581,-5.77778983316171E-33,17.0000002533197));
#666=CARTESIAN_POINT('Origin',(5.00000007450581,-1.15555796663234E-32,17.0000002533197));
#667=CARTESIAN_POINT('Origin',(22.3999999254942,-9.,0.));
#668=CARTESIAN_POINT('',(52.8,-18.,0.));
#669=CARTESIAN_POINT('',(52.8,-13.5,0.));
#670=CARTESIAN_POINT('',(-10.0000001490116,-18.,0.));
#671=CARTESIAN_POINT('',(2.20436423846524E-15,-18.,0.));
#672=CARTESIAN_POINT('',(-10.0000001490116,-13.,0.));
#673=CARTESIAN_POINT('',(-10.0000001490116,-18.,0.));
#674=CARTESIAN_POINT('',(2.,-13.,0.));
#675=CARTESIAN_POINT('',(-10.0000001490116,-13.,0.));
#676=CARTESIAN_POINT('',(2.,-4.5,0.));
#677=CARTESIAN_POINT('Origin',(2.,-4.5,2.));
#678=CARTESIAN_POINT('',(2.22044604925031E-15,-13.,2.));
#679=CARTESIAN_POINT('Origin',(2.,-13.,2.));
#680=CARTESIAN_POINT('',(5.55111512312578E-16,-4.5,2.));
#681=CARTESIAN_POINT('Origin',(52.8,-13.5,2.));
#682=CARTESIAN_POINT('',(54.8,-18.,2.));
#683=CARTESIAN_POINT('',(54.8,-13.5,2.));
#684=CARTESIAN_POINT('Origin',(52.8,-18.,2.));
#685=CARTESIAN_POINT('Origin',(54.8,-18.,0.));
#686=CARTESIAN_POINT('',(54.8,-18.,30.55));
#687=CARTESIAN_POINT('',(54.8,-13.5,30.55));
#688=CARTESIAN_POINT('',(54.8,-18.,0.));
#689=CARTESIAN_POINT('Origin',(2.,-4.5,30.55));
#690=CARTESIAN_POINT('',(2.22044604925031E-15,-13.,30.55));
#691=CARTESIAN_POINT('',(5.55111512312578E-16,-4.5,30.55));
#692=CARTESIAN_POINT('',(2.,-13.,32.55));
#693=CARTESIAN_POINT('Origin',(2.,-13.,30.55));
#694=CARTESIAN_POINT('',(2.,-4.5,32.55));
#695=CARTESIAN_POINT('Origin',(22.3999999254942,-9.,32.55));
#696=CARTESIAN_POINT('',(-10.0000001490116,-13.,32.55));
#697=CARTESIAN_POINT('',(-10.0000001490116,-13.,32.55));
#698=CARTESIAN_POINT('',(-10.0000001490116,-18.,32.55));
#699=CARTESIAN_POINT('',(-10.0000001490116,-18.,32.55));
#700=CARTESIAN_POINT('',(52.8,-18.,32.55));
#701=CARTESIAN_POINT('',(2.20436423846524E-15,-18.,32.55));
#702=CARTESIAN_POINT('',(52.8,-13.5,32.55));
#703=CARTESIAN_POINT('Origin',(52.8,-13.5,30.55));
#704=CARTESIAN_POINT('Origin',(52.8,-18.,30.55));
#705=CARTESIAN_POINT('Origin',(-5.00000007450581,-13.,6.275));
#706=CARTESIAN_POINT('',(-3.2500000745058,-13.,6.275));
#707=CARTESIAN_POINT('Origin',(-5.00000007450581,-13.,6.275));
#708=CARTESIAN_POINT('',(-3.2500000745058,-18.,6.275));
#709=CARTESIAN_POINT('',(-3.2500000745058,-13.,6.275));
#710=CARTESIAN_POINT('Origin',(-5.00000007450581,-18.,6.275));
#711=CARTESIAN_POINT('Origin',(-5.00000007450581,-13.,26.2750002980232));
#712=CARTESIAN_POINT('',(-3.25000007450581,-13.,26.2750002980232));
#713=CARTESIAN_POINT('Origin',(-5.00000007450581,-13.,26.2750002980232));
#714=CARTESIAN_POINT('',(-3.25000007450581,-18.,26.2750002980232));
#715=CARTESIAN_POINT('',(-3.25000007450581,-13.,26.2750002980232));
#716=CARTESIAN_POINT('Origin',(-5.00000007450581,-18.,26.2750002980232));
#717=CARTESIAN_POINT('Origin',(5.00000007450581,-5.77778983316171E-33,17.0000002533197));
#718=CARTESIAN_POINT('',(7.55000007450581,-7.,17.0000002533197));
#719=CARTESIAN_POINT('',(7.55000007450581,-5.77778983316171E-33,17.0000002533197));
#720=CARTESIAN_POINT('Origin',(5.00000007450581,-7.,17.0000002533197));
#721=CARTESIAN_POINT('Origin',(5.00000007450581,-7.,17.0000002533197));
#722=CARTESIAN_POINT('Origin',(46.4,-5.77778983316171E-33,5.));
#723=CARTESIAN_POINT('',(48.95,-7.,5.));
#724=CARTESIAN_POINT('',(48.95,-5.77778983316171E-33,5.));
#725=CARTESIAN_POINT('Origin',(46.4,-7.,5.));
#726=CARTESIAN_POINT('Origin',(46.4,-7.,5.));
#727=CARTESIAN_POINT('Origin',(46.4,-5.77778983316171E-33,27.55));
#728=CARTESIAN_POINT('',(48.95,-7.,27.55));
#729=CARTESIAN_POINT('',(48.95,-5.77778983316171E-33,27.55));
#730=CARTESIAN_POINT('Origin',(46.4,-7.,27.55));
#731=CARTESIAN_POINT('Origin',(46.4,-7.,27.55));
#732=CARTESIAN_POINT('Origin',(-10.0000001490116,-13.,0.));
#733=CARTESIAN_POINT('',(-10.0000001490116,-18.,0.));
#734=CARTESIAN_POINT('',(-10.0000001490116,-13.,0.));
#735=CARTESIAN_POINT('Origin',(2.22044604925031E-15,-13.,0.));
#736=CARTESIAN_POINT('',(2.22044604925031E-15,-13.,0.));
#737=CARTESIAN_POINT('Origin',(0.,0.,0.));
#738=CARTESIAN_POINT('Origin',(-10.0000001490116,-18.,0.));
#739=UNCERTAINTY_MEASURE_WITH_UNIT(LENGTH_MEASURE(0.01),#743,
'DISTANCE_ACCURACY_VALUE',
'Maximum model space distance between geometric entities at asserted c
onnectivities');
#740=UNCERTAINTY_MEASURE_WITH_UNIT(LENGTH_MEASURE(0.01),#743,
'DISTANCE_ACCURACY_VALUE',
'Maximum model space distance between geometric entities at asserted c
onnectivities');
#741=(
GEOMETRIC_REPRESENTATION_CONTEXT(3)
GLOBAL_UNCERTAINTY_ASSIGNED_CONTEXT((#739))
GLOBAL_UNIT_ASSIGNED_CONTEXT((#743,#745,#746))
REPRESENTATION_CONTEXT('','3D')
);
#742=(
GEOMETRIC_REPRESENTATION_CONTEXT(3)
GLOBAL_UNCERTAINTY_ASSIGNED_CONTEXT((#740))
GLOBAL_UNIT_ASSIGNED_CONTEXT((#743,#745,#746))
REPRESENTATION_CONTEXT('','3D')
);
#743=(
LENGTH_UNIT()
NAMED_UNIT(*)
SI_UNIT(.MILLI.,.METRE.)
);
#744=(
LENGTH_UNIT()
NAMED_UNIT(*)
SI_UNIT($,.METRE.)
);
#745=(
NAMED_UNIT(*)
PLANE_ANGLE_UNIT()
SI_UNIT($,.RADIAN.)
);
#746=(
NAMED_UNIT(*)
SI_UNIT($,.STERADIAN.)
SOLID_ANGLE_UNIT()
);
#747=SHAPE_DEFINITION_REPRESENTATION(#748,#749);
#748=PRODUCT_DEFINITION_SHAPE('',$,#751);
#749=SHAPE_REPRESENTATION('',(#435),#741);
#750=PRODUCT_DEFINITION_CONTEXT('part definition',#755,'design');
#751=PRODUCT_DEFINITION('lock_actuator_motor_clip_with CNC',
'lock_actuator_motor_clip_with CNC v2',#752,#750);
#752=PRODUCT_DEFINITION_FORMATION('',$,#757);
#753=PRODUCT_RELATED_PRODUCT_CATEGORY(
'lock_actuator_motor_clip_with CNC v2',
'lock_actuator_motor_clip_with CNC v2',(#757));
#754=APPLICATION_PROTOCOL_DEFINITION('international standard',
'automotive_design',2009,#755);
#755=APPLICATION_CONTEXT(
'Core Data for Automotive Mechanical Design Process');
#756=PRODUCT_CONTEXT('part definition',#755,'mechanical');
#757=PRODUCT('lock_actuator_motor_clip_with CNC',
'lock_actuator_motor_clip_with CNC v2',$,(#756));
#758=PRESENTATION_STYLE_ASSIGNMENT((#759));
#759=SURFACE_STYLE_USAGE(.BOTH.,#760);
#760=SURFACE_SIDE_STYLE('',(#761));
#761=SURFACE_STYLE_FILL_AREA(#762);
#762=FILL_AREA_STYLE('Steel - Satin',(#763));
#763=FILL_AREA_STYLE_COLOUR('Steel - Satin',#764);
#764=COLOUR_RGB('Steel - Satin',0.627450980392157,0.627450980392157,0.627450980392157);
ENDSEC;
END-ISO-10303-21;
