ISO-10303-21;
HEADER;
/* Generated by software containing ST-Developer
 * from STEP Tools, Inc. (www.steptools.com) 
 */

FILE_DESCRIPTION(
/* description */ (''),
/* implementation_level */ '2;1');

FILE_NAME(
/* name */ 'PRT_twist_lock_spacer.step',
/* time_stamp */ '2026-10-02T15:53:30-04:00',
/* author */ (''),
/* organization */ (''),
/* preprocessor_version */ 'ST-DEVELOPER v20.2',
/* originating_system */ 'Autodesk Translation Framework v15.15.0.0',
/* authorisation */ '');

FILE_SCHEMA (('AUTOMOTIVE_DESIGN { 1 0 10303 214 3 1 1 }'));
ENDSEC;

DATA;
#10=MECHANICAL_DESIGN_GEOMETRIC_PRESENTATION_REPRESENTATION('',(#13),#261);
#11=SHAPE_REPRESENTATION_RELATIONSHIP('SRR','None',#268,#12);
#12=ADVANCED_BREP_SHAPE_REPRESENTATION('',(#14),#260);
#13=STYLED_ITEM('',(#277),#14);
#14=MANIFOLD_SOLID_BREP('twist_lock_spacer',#137);
#15=PLANE('',#169);
#16=PLANE('',#170);
#17=FACE_OUTER_BOUND('',#25,.T.);
#18=FACE_OUTER_BOUND('',#26,.T.);
#19=FACE_OUTER_BOUND('',#27,.T.);
#20=FACE_OUTER_BOUND('',#28,.T.);
#21=FACE_OUTER_BOUND('',#29,.T.);
#22=FACE_OUTER_BOUND('',#30,.T.);
#23=FACE_OUTER_BOUND('',#31,.T.);
#24=FACE_OUTER_BOUND('',#32,.T.);
#25=EDGE_LOOP('',(#87,#88,#89,#90));
#26=EDGE_LOOP('',(#91,#92,#93,#94));
#27=EDGE_LOOP('',(#95,#96,#97,#98));
#28=EDGE_LOOP('',(#99,#100,#101,#102));
#29=EDGE_LOOP('',(#103,#104,#105,#106));
#30=EDGE_LOOP('',(#107,#108,#109,#110));
#31=EDGE_LOOP('',(#111,#112,#113,#114,#115,#116));
#32=EDGE_LOOP('',(#117,#118,#119,#120,#121,#122));
#33=CIRCLE('',#152,0.620595597635143);
#34=CIRCLE('',#153,0.620595597635143);
#35=CIRCLE('',#155,0.620612715171269);
#36=CIRCLE('',#156,0.620612715171269);
#37=CIRCLE('',#158,0.599997457866547);
#38=CIRCLE('',#159,0.599997457866547);
#39=CIRCLE('',#161,0.599990808397146);
#40=CIRCLE('',#162,0.599990808397146);
#41=CIRCLE('',#164,3.99999978246258);
#42=CIRCLE('',#165,3.99999978246258);
#43=CIRCLE('',#167,2.67499939462627);
#44=CIRCLE('',#168,2.67499939462627);
#45=LINE('',#223,#51);
#46=LINE('',#227,#52);
#47=LINE('',#232,#53);
#48=LINE('',#236,#54);
#49=LINE('',#243,#55);
#50=LINE('',#248,#56);
#51=VECTOR('',#175,10.);
#52=VECTOR('',#178,10.);
#53=VECTOR('',#183,10.);
#54=VECTOR('',#186,10.);
#55=VECTOR('',#195,10.);
#56=VECTOR('',#200,10.);
#57=VERTEX_POINT('',#221);
#58=VERTEX_POINT('',#222);
#59=VERTEX_POINT('',#224);
#60=VERTEX_POINT('',#226);
#61=VERTEX_POINT('',#230);
#62=VERTEX_POINT('',#231);
#63=VERTEX_POINT('',#233);
#64=VERTEX_POINT('',#235);
#65=VERTEX_POINT('',#239);
#66=VERTEX_POINT('',#241);
#67=VERTEX_POINT('',#245);
#68=VERTEX_POINT('',#247);
#69=EDGE_CURVE('',#57,#58,#45,.T.);
#70=EDGE_CURVE('',#59,#57,#33,.T.);
#71=EDGE_CURVE('',#60,#59,#46,.T.);
#72=EDGE_CURVE('',#58,#60,#34,.T.);
#73=EDGE_CURVE('',#61,#62,#47,.T.);
#74=EDGE_CURVE('',#63,#61,#35,.T.);
#75=EDGE_CURVE('',#64,#63,#48,.T.);
#76=EDGE_CURVE('',#62,#64,#36,.T.);
#77=EDGE_CURVE('',#60,#65,#37,.T.);
#78=EDGE_CURVE('',#66,#59,#38,.T.);
#79=EDGE_CURVE('',#65,#66,#49,.T.);
#80=EDGE_CURVE('',#67,#62,#39,.T.);
#81=EDGE_CURVE('',#68,#67,#50,.T.);
#82=EDGE_CURVE('',#61,#68,#40,.T.);
#83=EDGE_CURVE('',#68,#66,#41,.T.);
#84=EDGE_CURVE('',#65,#67,#42,.T.);
#85=EDGE_CURVE('',#57,#63,#43,.T.);
#86=EDGE_CURVE('',#64,#58,#44,.T.);
#87=ORIENTED_EDGE('',*,*,#69,.F.);
#88=ORIENTED_EDGE('',*,*,#70,.F.);
#89=ORIENTED_EDGE('',*,*,#71,.F.);
#90=ORIENTED_EDGE('',*,*,#72,.F.);
#91=ORIENTED_EDGE('',*,*,#73,.F.);
#92=ORIENTED_EDGE('',*,*,#74,.F.);
#93=ORIENTED_EDGE('',*,*,#75,.F.);
#94=ORIENTED_EDGE('',*,*,#76,.F.);
#95=ORIENTED_EDGE('',*,*,#77,.F.);
#96=ORIENTED_EDGE('',*,*,#71,.T.);
#97=ORIENTED_EDGE('',*,*,#78,.F.);
#98=ORIENTED_EDGE('',*,*,#79,.F.);
#99=ORIENTED_EDGE('',*,*,#80,.F.);
#100=ORIENTED_EDGE('',*,*,#81,.F.);
#101=ORIENTED_EDGE('',*,*,#82,.F.);
#102=ORIENTED_EDGE('',*,*,#73,.T.);
#103=ORIENTED_EDGE('',*,*,#79,.T.);
#104=ORIENTED_EDGE('',*,*,#83,.F.);
#105=ORIENTED_EDGE('',*,*,#81,.T.);
#106=ORIENTED_EDGE('',*,*,#84,.F.);
#107=ORIENTED_EDGE('',*,*,#75,.T.);
#108=ORIENTED_EDGE('',*,*,#85,.F.);
#109=ORIENTED_EDGE('',*,*,#69,.T.);
#110=ORIENTED_EDGE('',*,*,#86,.F.);
#111=ORIENTED_EDGE('',*,*,#80,.T.);
#112=ORIENTED_EDGE('',*,*,#76,.T.);
#113=ORIENTED_EDGE('',*,*,#86,.T.);
#114=ORIENTED_EDGE('',*,*,#72,.T.);
#115=ORIENTED_EDGE('',*,*,#77,.T.);
#116=ORIENTED_EDGE('',*,*,#84,.T.);
#117=ORIENTED_EDGE('',*,*,#78,.T.);
#118=ORIENTED_EDGE('',*,*,#70,.T.);
#119=ORIENTED_EDGE('',*,*,#85,.T.);
#120=ORIENTED_EDGE('',*,*,#74,.T.);
#121=ORIENTED_EDGE('',*,*,#82,.T.);
#122=ORIENTED_EDGE('',*,*,#83,.T.);
#123=CYLINDRICAL_SURFACE('',#151,0.620595597635143);
#124=CYLINDRICAL_SURFACE('',#154,0.620612715171269);
#125=CYLINDRICAL_SURFACE('',#157,0.599997457866547);
#126=CYLINDRICAL_SURFACE('',#160,0.599990808397146);
#127=CYLINDRICAL_SURFACE('',#163,3.99999978246258);
#128=CYLINDRICAL_SURFACE('',#166,2.67499939462627);
#129=ADVANCED_FACE('',(#17),#123,.T.);
#130=ADVANCED_FACE('',(#18),#124,.T.);
#131=ADVANCED_FACE('',(#19),#125,.T.);
#132=ADVANCED_FACE('',(#20),#126,.T.);
#133=ADVANCED_FACE('',(#21),#127,.T.);
#134=ADVANCED_FACE('',(#22),#128,.F.);
#135=ADVANCED_FACE('',(#23),#15,.F.);
#136=ADVANCED_FACE('',(#24),#16,.T.);
#137=CLOSED_SHELL('',(#129,#130,#131,#132,#133,#134,#135,#136));
#138=DERIVED_UNIT_ELEMENT(#140,1.);
#139=DERIVED_UNIT_ELEMENT(#263,-3.);
#140=(
MASS_UNIT()
NAMED_UNIT(*)
SI_UNIT(.KILO.,.GRAM.)
);
#141=DERIVED_UNIT((#138,#139));
#142=MEASURE_REPRESENTATION_ITEM('density measure',
POSITIVE_RATIO_MEASURE(7850.),#141);
#143=PROPERTY_DEFINITION_REPRESENTATION(#148,#145);
#144=PROPERTY_DEFINITION_REPRESENTATION(#149,#146);
#145=REPRESENTATION('material name',(#147),#260);
#146=REPRESENTATION('density',(#142),#260);
#147=DESCRIPTIVE_REPRESENTATION_ITEM('Steel','Steel');
#148=PROPERTY_DEFINITION('material property','material name',#270);
#149=PROPERTY_DEFINITION('material property','density of part',#270);
#150=AXIS2_PLACEMENT_3D('',#219,#171,#172);
#151=AXIS2_PLACEMENT_3D('',#220,#173,#174);
#152=AXIS2_PLACEMENT_3D('',#225,#176,#177);
#153=AXIS2_PLACEMENT_3D('',#228,#179,#180);
#154=AXIS2_PLACEMENT_3D('',#229,#181,#182);
#155=AXIS2_PLACEMENT_3D('',#234,#184,#185);
#156=AXIS2_PLACEMENT_3D('',#237,#187,#188);
#157=AXIS2_PLACEMENT_3D('',#238,#189,#190);
#158=AXIS2_PLACEMENT_3D('',#240,#191,#192);
#159=AXIS2_PLACEMENT_3D('',#242,#193,#194);
#160=AXIS2_PLACEMENT_3D('',#244,#196,#197);
#161=AXIS2_PLACEMENT_3D('',#246,#198,#199);
#162=AXIS2_PLACEMENT_3D('',#249,#201,#202);
#163=AXIS2_PLACEMENT_3D('',#250,#203,#204);
#164=AXIS2_PLACEMENT_3D('',#251,#205,#206);
#165=AXIS2_PLACEMENT_3D('',#252,#207,#208);
#166=AXIS2_PLACEMENT_3D('',#253,#209,#210);
#167=AXIS2_PLACEMENT_3D('',#254,#211,#212);
#168=AXIS2_PLACEMENT_3D('',#255,#213,#214);
#169=AXIS2_PLACEMENT_3D('',#256,#215,#216);
#170=AXIS2_PLACEMENT_3D('',#257,#217,#218);
#171=DIRECTION('axis',(0.,0.,1.));
#172=DIRECTION('refdir',(1.,0.,0.));
#173=DIRECTION('center_axis',(2.77668159934268E-10,1.9463999036487E-10,
1.));
#174=DIRECTION('ref_axis',(0.816575720348274,0.577238332872737,-3.39090741264688E-10));
#175=DIRECTION('',(1.51864981980977E-17,-2.4732914071318E-17,-1.));
#176=DIRECTION('center_axis',(0.,0.,1.));
#177=DIRECTION('ref_axis',(-1.,-5.40453279742371E-20,0.));
#178=DIRECTION('',(9.01500120010462E-14,-1.08209306141641E-13,1.));
#179=DIRECTION('center_axis',(0.,0.,-1.));
#180=DIRECTION('ref_axis',(-1.,-5.40453279742371E-20,0.));
#181=DIRECTION('center_axis',(-2.84596232334656E-10,1.9205118428121E-10,
-1.));
#182=DIRECTION('ref_axis',(-0.826527819383442,0.562895872950985,3.43331522343549E-10));
#183=DIRECTION('',(1.14821766956659E-13,1.41994749107643E-13,-1.));
#184=DIRECTION('center_axis',(0.,0.,1.));
#185=DIRECTION('ref_axis',(1.,-5.46570434618412E-20,0.));
#186=DIRECTION('',(-1.51864981980977E-17,2.4732914071318E-17,1.));
#187=DIRECTION('center_axis',(0.,0.,-1.));
#188=DIRECTION('ref_axis',(1.,-5.46570434618412E-20,0.));
#189=DIRECTION('center_axis',(9.01500120010462E-14,-1.08209306141641E-13,
1.));
#190=DIRECTION('ref_axis',(0.658720828300646,-0.75238744697324,-1.40799014163297E-13));
#191=DIRECTION('center_axis',(0.,0.,-1.));
#192=DIRECTION('ref_axis',(-1.,0.,9.01500120010462E-14));
#193=DIRECTION('center_axis',(0.,0.,1.));
#194=DIRECTION('ref_axis',(-1.,0.,9.01500120010462E-14));
#195=DIRECTION('',(-5.05609255572648E-18,3.39207594184015E-17,1.));
#196=DIRECTION('center_axis',(-1.14821766956659E-13,-1.41994749107643E-13,
1.));
#197=DIRECTION('ref_axis',(-1.,0.,-1.14821766956659E-13));
#198=DIRECTION('center_axis',(0.,0.,-1.));
#199=DIRECTION('ref_axis',(-1.,0.,-1.14821766956659E-13));
#200=DIRECTION('',(5.05609255572648E-18,-3.39207594184015E-17,-1.));
#201=DIRECTION('center_axis',(0.,0.,1.));
#202=DIRECTION('ref_axis',(-1.,0.,-1.14821766956659E-13));
#203=DIRECTION('center_axis',(-5.05609255572648E-18,3.39207594184015E-17,
1.));
#204=DIRECTION('ref_axis',(-0.00872685811596395,0.999961920248678,-3.39635915266732E-17));
#205=DIRECTION('center_axis',(0.,0.,1.));
#206=DIRECTION('ref_axis',(-1.,0.,-5.05609255572648E-18));
#207=DIRECTION('center_axis',(0.,0.,-1.));
#208=DIRECTION('ref_axis',(-1.,0.,-5.05609255572648E-18));
#209=DIRECTION('center_axis',(-1.51864981980977E-17,2.4732914071318E-17,
1.));
#210=DIRECTION('ref_axis',(-0.00872682008698685,0.999961920580564,-2.48645020938353E-17));
#211=DIRECTION('center_axis',(0.,0.,-1.));
#212=DIRECTION('ref_axis',(-1.,0.,-1.51864981980977E-17));
#213=DIRECTION('center_axis',(0.,0.,1.));
#214=DIRECTION('ref_axis',(-1.,0.,-1.51864981980977E-17));
#215=DIRECTION('center_axis',(0.,0.,1.));
#216=DIRECTION('ref_axis',(1.,0.,0.));
#217=DIRECTION('center_axis',(0.,0.,1.));
#218=DIRECTION('ref_axis',(1.,0.,0.));
#219=CARTESIAN_POINT('',(0.,0.,0.));
#220=CARTESIAN_POINT('Origin',(-0.613612360592841,-3.25726804890017,-1.26626188646887E-11));
#221=CARTESIAN_POINT('',(-0.48821407919974,-2.65139358126583,26.800000667572));
#222=CARTESIAN_POINT('',(-0.488214079891481,-2.6513935845009,0.));
#223=CARTESIAN_POINT('',(-0.488214083422799,-2.65139360101582,26.800000667572));
#224=CARTESIAN_POINT('',(0.00125096775435264,-3.34142262040432,26.8000006675719));
#225=CARTESIAN_POINT('Origin',(-0.613612353151334,-3.25726804368382,26.800000667572));
#226=CARTESIAN_POINT('',(0.00125096525486396,-3.34142261969622,-1.2224948892171E-13));
#227=CARTESIAN_POINT('',(0.00125096745187914,-3.34142262039187,26.800000667572));
#228=CARTESIAN_POINT('Origin',(-0.613612360592841,-3.25726804890017,0.));
#229=CARTESIAN_POINT('Origin',(0.673714369997,-3.2460438214217,26.8000006675842));
#230=CARTESIAN_POINT('',(0.0603956336520517,-3.34091357558087,26.8000006675719));
#231=CARTESIAN_POINT('',(0.060395631442917,-3.34091357631811,-1.56614170586072E-13));
#232=CARTESIAN_POINT('',(0.0603956339539914,-3.34091357556316,26.800000667572));
#233=CARTESIAN_POINT('',(0.537748141132947,-2.64243984126411,26.800000667572));
#234=CARTESIAN_POINT('Origin',(0.673714369997,-3.2460438214217,26.800000667572));
#235=CARTESIAN_POINT('',(0.537748140375627,-2.64243983800219,0.));
#236=CARTESIAN_POINT('',(0.537748144960902,-2.64243985775176,26.800000667572));
#237=CARTESIAN_POINT('Origin',(0.673714362369821,-3.24604381627473,0.));
#238=CARTESIAN_POINT('Origin',(-0.598143636940387,-3.36831235210785,26.800000667572));
#239=CARTESIAN_POINT('',(-0.704021476107159,-3.95889294638174,-6.36527867451756E-14));
#240=CARTESIAN_POINT('Origin',(-0.598143636942803,-3.36831235210495,-1.90958360235527E-13));
#241=CARTESIAN_POINT('',(-0.704021476106136,-3.95889294638274,26.8000006675719));
#242=CARTESIAN_POINT('Origin',(-0.598143636940387,-3.36831235210785,26.8000006675718));
#243=CARTESIAN_POINT('',(-0.704021373588765,-3.95889237454411,26.800000667572));
#244=CARTESIAN_POINT('Origin',(0.660161698399828,-3.35733423633593,26.800000667572));
#245=CARTESIAN_POINT('',(0.776338857389493,-3.94597195468119,-8.14163551391781E-14));
#246=CARTESIAN_POINT('Origin',(0.660161698402905,-3.35733423633212,-2.44249065417534E-13));
#247=CARTESIAN_POINT('',(0.776338857395783,-3.94597195468102,26.8000006675719));
#248=CARTESIAN_POINT('',(0.77633906115228,-3.94597298710163,26.800000667572));
#249=CARTESIAN_POINT('Origin',(0.660161698399828,-3.35733423633593,26.8000006675718));
#250=CARTESIAN_POINT('Origin',(0.00185430959330361,-0.0216677454947362,
26.800000667572));
#251=CARTESIAN_POINT('Origin',(0.00185430959330361,-0.0216677454947362,
26.800000667572));
#252=CARTESIAN_POINT('Origin',(0.00185430959330375,-0.0216677454947371,
0.));
#253=CARTESIAN_POINT('Origin',(0.0018560539781786,-0.0216687063398192,26.800000667572));
#254=CARTESIAN_POINT('Origin',(0.0018560539781786,-0.0216687063398192,26.800000667572));
#255=CARTESIAN_POINT('Origin',(0.00185605397817901,-0.0216687063398199,
0.));
#256=CARTESIAN_POINT('Origin',(0.0112657289247255,-1.10001478109274,0.));
#257=CARTESIAN_POINT('Origin',(0.0112657289247255,-1.10001478109274,26.800000667572));
#258=UNCERTAINTY_MEASURE_WITH_UNIT(LENGTH_MEASURE(0.01),#262,
'DISTANCE_ACCURACY_VALUE',
'Maximum model space distance between geometric entities at asserted c
onnectivities');
#259=UNCERTAINTY_MEASURE_WITH_UNIT(LENGTH_MEASURE(0.01),#262,
'DISTANCE_ACCURACY_VALUE',
'Maximum model space distance between geometric entities at asserted c
onnectivities');
#260=(
GEOMETRIC_REPRESENTATION_CONTEXT(3)
GLOBAL_UNCERTAINTY_ASSIGNED_CONTEXT((#258))
GLOBAL_UNIT_ASSIGNED_CONTEXT((#262,#264,#265))
REPRESENTATION_CONTEXT('','3D')
);
#261=(
GEOMETRIC_REPRESENTATION_CONTEXT(3)
GLOBAL_UNCERTAINTY_ASSIGNED_CONTEXT((#259))
GLOBAL_UNIT_ASSIGNED_CONTEXT((#262,#264,#265))
REPRESENTATION_CONTEXT('','3D')
);
#262=(
LENGTH_UNIT()
NAMED_UNIT(*)
SI_UNIT(.MILLI.,.METRE.)
);
#263=(
LENGTH_UNIT()
NAMED_UNIT(*)
SI_UNIT($,.METRE.)
);
#264=(
NAMED_UNIT(*)
PLANE_ANGLE_UNIT()
SI_UNIT($,.RADIAN.)
);
#265=(
NAMED_UNIT(*)
SI_UNIT($,.STERADIAN.)
SOLID_ANGLE_UNIT()
);
#266=SHAPE_DEFINITION_REPRESENTATION(#267,#268);
#267=PRODUCT_DEFINITION_SHAPE('',$,#270);
#268=SHAPE_REPRESENTATION('',(#150),#260);
#269=PRODUCT_DEFINITION_CONTEXT('part definition',#274,'design');
#270=PRODUCT_DEFINITION('twist_lock_spacer','twist_lock_spacer v1',#271,
#269);
#271=PRODUCT_DEFINITION_FORMATION('',$,#276);
#272=PRODUCT_RELATED_PRODUCT_CATEGORY('twist_lock_spacer v1',
'twist_lock_spacer v1',(#276));
#273=APPLICATION_PROTOCOL_DEFINITION('international standard',
'automotive_design',2009,#274);
#274=APPLICATION_CONTEXT(
'Core Data for Automotive Mechanical Design Process');
#275=PRODUCT_CONTEXT('part definition',#274,'mechanical');
#276=PRODUCT('twist_lock_spacer','twist_lock_spacer v1',$,(#275));
#277=PRESENTATION_STYLE_ASSIGNMENT((#278));
#278=SURFACE_STYLE_USAGE(.BOTH.,#279);
#279=SURFACE_SIDE_STYLE('',(#280));
#280=SURFACE_STYLE_FILL_AREA(#281);
#281=FILL_AREA_STYLE('Steel - Satin',(#282));
#282=FILL_AREA_STYLE_COLOUR('Steel - Satin',#283);
#283=COLOUR_RGB('Steel - Satin',0.627450980392157,0.627450980392157,0.627450980392157);
ENDSEC;
END-ISO-10303-21;
