ISO-10303-21;
HEADER;
/* Generated by software containing ST-Developer
 * from STEP Tools, Inc. (www.steptools.com) 
 */

FILE_DESCRIPTION(
/* description */ (''),
/* implementation_level */ '2;1');

FILE_NAME(
/* name */ 'PRT_Magnetic connecter cover_12pin.step',
/* time_stamp */ '2026-10-02T15:54:24-04:00',
/* author */ (''),
/* organization */ (''),
/* preprocessor_version */ 'ST-DEVELOPER v20.2',
/* originating_system */ 'Autodesk Translation Framework v15.15.0.0',
/* authorisation */ '');

FILE_SCHEMA (('AUTOMOTIVE_DESIGN { 1 0 10303 214 3 1 1 }'));
ENDSEC;

DATA;
#10=MECHANICAL_DESIGN_GEOMETRIC_PRESENTATION_REPRESENTATION('',(#13),#1473);
#11=SHAPE_REPRESENTATION_RELATIONSHIP('SRR','None',#1480,#12);
#12=ADVANCED_BREP_SHAPE_REPRESENTATION('',(#14),#1472);
#13=STYLED_ITEM('',(#1489),#14);
#14=MANIFOLD_SOLID_BREP('Body5',#867);
#15=CYLINDRICAL_SURFACE('',#890,3.07500351798965);
#16=CYLINDRICAL_SURFACE('',#894,3.);
#17=CYLINDRICAL_SURFACE('',#897,3.);
#18=CYLINDRICAL_SURFACE('',#907,3.);
#19=CYLINDRICAL_SURFACE('',#908,3.);
#20=CYLINDRICAL_SURFACE('',#931,2.);
#21=CYLINDRICAL_SURFACE('',#932,1.25);
#22=CYLINDRICAL_SURFACE('',#952,2.);
#23=CYLINDRICAL_SURFACE('',#955,1.25);
#24=CYLINDRICAL_SURFACE('',#957,4.07500000000397);
#25=CYLINDRICAL_SURFACE('',#960,4.07500351798965);
#26=CYLINDRICAL_SURFACE('',#963,3.07500000000388);
#27=FACE_BOUND('',#82,.T.);
#28=FACE_BOUND('',#83,.T.);
#29=FACE_BOUND('',#84,.T.);
#30=FACE_BOUND('',#92,.T.);
#31=FACE_BOUND('',#93,.T.);
#32=FACE_BOUND('',#94,.T.);
#33=FACE_BOUND('',#134,.T.);
#34=FACE_OUTER_BOUND('',#81,.T.);
#35=FACE_OUTER_BOUND('',#85,.T.);
#36=FACE_OUTER_BOUND('',#86,.T.);
#37=FACE_OUTER_BOUND('',#87,.T.);
#38=FACE_OUTER_BOUND('',#88,.T.);
#39=FACE_OUTER_BOUND('',#89,.T.);
#40=FACE_OUTER_BOUND('',#90,.T.);
#41=FACE_OUTER_BOUND('',#91,.T.);
#42=FACE_OUTER_BOUND('',#95,.T.);
#43=FACE_OUTER_BOUND('',#96,.T.);
#44=FACE_OUTER_BOUND('',#97,.T.);
#45=FACE_OUTER_BOUND('',#98,.T.);
#46=FACE_OUTER_BOUND('',#99,.T.);
#47=FACE_OUTER_BOUND('',#100,.T.);
#48=FACE_OUTER_BOUND('',#101,.T.);
#49=FACE_OUTER_BOUND('',#102,.T.);
#50=FACE_OUTER_BOUND('',#103,.T.);
#51=FACE_OUTER_BOUND('',#104,.T.);
#52=FACE_OUTER_BOUND('',#105,.T.);
#53=FACE_OUTER_BOUND('',#106,.T.);
#54=FACE_OUTER_BOUND('',#107,.T.);
#55=FACE_OUTER_BOUND('',#108,.T.);
#56=FACE_OUTER_BOUND('',#109,.T.);
#57=FACE_OUTER_BOUND('',#110,.T.);
#58=FACE_OUTER_BOUND('',#111,.T.);
#59=FACE_OUTER_BOUND('',#112,.T.);
#60=FACE_OUTER_BOUND('',#113,.T.);
#61=FACE_OUTER_BOUND('',#114,.T.);
#62=FACE_OUTER_BOUND('',#115,.T.);
#63=FACE_OUTER_BOUND('',#116,.T.);
#64=FACE_OUTER_BOUND('',#117,.T.);
#65=FACE_OUTER_BOUND('',#118,.T.);
#66=FACE_OUTER_BOUND('',#119,.T.);
#67=FACE_OUTER_BOUND('',#120,.T.);
#68=FACE_OUTER_BOUND('',#121,.T.);
#69=FACE_OUTER_BOUND('',#122,.T.);
#70=FACE_OUTER_BOUND('',#123,.T.);
#71=FACE_OUTER_BOUND('',#124,.T.);
#72=FACE_OUTER_BOUND('',#125,.T.);
#73=FACE_OUTER_BOUND('',#126,.T.);
#74=FACE_OUTER_BOUND('',#127,.T.);
#75=FACE_OUTER_BOUND('',#128,.T.);
#76=FACE_OUTER_BOUND('',#129,.T.);
#77=FACE_OUTER_BOUND('',#130,.T.);
#78=FACE_OUTER_BOUND('',#131,.T.);
#79=FACE_OUTER_BOUND('',#132,.T.);
#80=FACE_OUTER_BOUND('',#133,.T.);
#81=EDGE_LOOP('',(#541,#542,#543,#544,#545,#546,#547,#548));
#82=EDGE_LOOP('',(#549));
#83=EDGE_LOOP('',(#550));
#84=EDGE_LOOP('',(#551,#552,#553,#554));
#85=EDGE_LOOP('',(#555,#556,#557,#558));
#86=EDGE_LOOP('',(#559,#560,#561,#562));
#87=EDGE_LOOP('',(#563,#564,#565,#566));
#88=EDGE_LOOP('',(#567,#568,#569,#570));
#89=EDGE_LOOP('',(#571,#572,#573,#574));
#90=EDGE_LOOP('',(#575,#576,#577,#578));
#91=EDGE_LOOP('',(#579,#580,#581,#582,#583,#584,#585,#586));
#92=EDGE_LOOP('',(#587));
#93=EDGE_LOOP('',(#588));
#94=EDGE_LOOP('',(#589,#590,#591,#592));
#95=EDGE_LOOP('',(#593,#594,#595,#596));
#96=EDGE_LOOP('',(#597,#598,#599,#600));
#97=EDGE_LOOP('',(#601,#602,#603,#604));
#98=EDGE_LOOP('',(#605,#606,#607,#608));
#99=EDGE_LOOP('',(#609,#610,#611,#612,#613));
#100=EDGE_LOOP('',(#614,#615,#616));
#101=EDGE_LOOP('',(#617,#618,#619));
#102=EDGE_LOOP('',(#620,#621,#622));
#103=EDGE_LOOP('',(#623,#624,#625,#626,#627));
#104=EDGE_LOOP('',(#628,#629,#630));
#105=EDGE_LOOP('',(#631,#632));
#106=EDGE_LOOP('',(#633,#634,#635,#636,#637,#638,#639,#640,#641));
#107=EDGE_LOOP('',(#642,#643,#644,#645,#646,#647,#648,#649,#650));
#108=EDGE_LOOP('',(#651,#652,#653,#654));
#109=EDGE_LOOP('',(#655,#656,#657,#658));
#110=EDGE_LOOP('',(#659,#660,#661));
#111=EDGE_LOOP('',(#662,#663,#664,#665,#666,#667,#668,#669,#670,#671,#672,
#673));
#112=EDGE_LOOP('',(#674,#675,#676,#677,#678,#679,#680));
#113=EDGE_LOOP('',(#681,#682,#683,#684,#685));
#114=EDGE_LOOP('',(#686,#687,#688));
#115=EDGE_LOOP('',(#689,#690,#691));
#116=EDGE_LOOP('',(#692,#693,#694,#695,#696));
#117=EDGE_LOOP('',(#697,#698,#699));
#118=EDGE_LOOP('',(#700,#701,#702));
#119=EDGE_LOOP('',(#703,#704,#705));
#120=EDGE_LOOP('',(#706,#707,#708,#709,#710,#711,#712,#713,#714));
#121=EDGE_LOOP('',(#715,#716,#717,#718,#719,#720,#721,#722,#723));
#122=EDGE_LOOP('',(#724,#725,#726,#727));
#123=EDGE_LOOP('',(#728,#729,#730,#731));
#124=EDGE_LOOP('',(#732,#733,#734,#735,#736,#737,#738,#739,#740,#741,#742,
#743));
#125=EDGE_LOOP('',(#744,#745));
#126=EDGE_LOOP('',(#746,#747,#748,#749,#750,#751,#752));
#127=EDGE_LOOP('',(#753,#754,#755,#756));
#128=EDGE_LOOP('',(#757,#758,#759,#760));
#129=EDGE_LOOP('',(#761,#762,#763,#764));
#130=EDGE_LOOP('',(#765,#766,#767,#768));
#131=EDGE_LOOP('',(#769,#770,#771,#772));
#132=EDGE_LOOP('',(#773,#774,#775,#776));
#133=EDGE_LOOP('',(#777,#778,#779,#780));
#134=EDGE_LOOP('',(#781,#782,#783,#784));
#135=LINE('',#1228,#219);
#136=LINE('',#1232,#220);
#137=LINE('',#1236,#221);
#138=LINE('',#1239,#222);
#139=LINE('',#1246,#223);
#140=LINE('',#1250,#224);
#141=LINE('',#1254,#225);
#142=LINE('',#1257,#226);
#143=LINE('',#1260,#227);
#144=LINE('',#1261,#228);
#145=LINE('',#1264,#229);
#146=LINE('',#1266,#230);
#147=LINE('',#1267,#231);
#148=LINE('',#1270,#232);
#149=LINE('',#1274,#233);
#150=LINE('',#1275,#234);
#151=LINE('',#1278,#235);
#152=LINE('',#1282,#236);
#153=LINE('',#1286,#237);
#154=LINE('',#1294,#238);
#155=LINE('',#1298,#239);
#156=LINE('',#1301,#240);
#157=LINE('',#1303,#241);
#158=LINE('',#1305,#242);
#159=LINE('',#1310,#243);
#160=LINE('',#1312,#244);
#161=LINE('',#1314,#245);
#162=LINE('',#1316,#246);
#163=LINE('',#1317,#247);
#164=LINE('',#1320,#248);
#165=LINE('',#1325,#249);
#166=LINE('',#1327,#250);
#167=LINE('',#1330,#251);
#168=LINE('',#1335,#252);
#169=LINE('',#1337,#253);
#170=LINE('',#1338,#254);
#171=LINE('',#1339,#255);
#172=LINE('',#1341,#256);
#173=LINE('',#1346,#257);
#174=LINE('',#1350,#258);
#175=LINE('',#1351,#259);
#176=LINE('',#1353,#260);
#177=LINE('',#1354,#261);
#178=LINE('',#1358,#262);
#179=LINE('',#1360,#263);
#180=LINE('',#1361,#264);
#181=LINE('',#1363,#265);
#182=LINE('',#1364,#266);
#183=LINE('',#1374,#267);
#184=LINE('',#1376,#268);
#185=LINE('',#1380,#269);
#186=LINE('',#1382,#270);
#187=LINE('',#1384,#271);
#188=LINE('',#1386,#272);
#189=LINE('',#1387,#273);
#190=LINE('',#1391,#274);
#191=LINE('',#1393,#275);
#192=LINE('',#1396,#276);
#193=LINE('',#1401,#277);
#194=LINE('',#1403,#278);
#195=LINE('',#1404,#279);
#196=LINE('',#1405,#280);
#197=LINE('',#1408,#281);
#198=LINE('',#1411,#282);
#199=LINE('',#1416,#283);
#200=LINE('',#1423,#284);
#201=LINE('',#1425,#285);
#202=LINE('',#1426,#286);
#203=LINE('',#1428,#287);
#204=LINE('',#1429,#288);
#205=LINE('',#1432,#289);
#206=LINE('',#1433,#290);
#207=LINE('',#1435,#291);
#208=LINE('',#1436,#292);
#209=LINE('',#1442,#293);
#210=LINE('',#1446,#294);
#211=LINE('',#1449,#295);
#212=LINE('',#1451,#296);
#213=LINE('',#1452,#297);
#214=LINE('',#1455,#298);
#215=LINE('',#1459,#299);
#216=LINE('',#1460,#300);
#217=LINE('',#1465,#301);
#218=LINE('',#1466,#302);
#219=VECTOR('',#972,10.);
#220=VECTOR('',#975,10.);
#221=VECTOR('',#978,10.);
#222=VECTOR('',#981,10.);
#223=VECTOR('',#986,10.);
#224=VECTOR('',#989,10.);
#225=VECTOR('',#994,10.);
#226=VECTOR('',#997,10.);
#227=VECTOR('',#1000,10.);
#228=VECTOR('',#1001,10.);
#229=VECTOR('',#1004,10.);
#230=VECTOR('',#1005,10.);
#231=VECTOR('',#1006,10.);
#232=VECTOR('',#1009,10.);
#233=VECTOR('',#1014,10.);
#234=VECTOR('',#1015,10.);
#235=VECTOR('',#1018,10.);
#236=VECTOR('',#1023,10.);
#237=VECTOR('',#1026,10.);
#238=VECTOR('',#1033,10.);
#239=VECTOR('',#1036,10.);
#240=VECTOR('',#1041,10.);
#241=VECTOR('',#1044,10.);
#242=VECTOR('',#1047,10.);
#243=VECTOR('',#1052,10.);
#244=VECTOR('',#1053,10.);
#245=VECTOR('',#1054,10.);
#246=VECTOR('',#1055,10.);
#247=VECTOR('',#1056,10.);
#248=VECTOR('',#1059,10.);
#249=VECTOR('',#1064,10.);
#250=VECTOR('',#1067,10.);
#251=VECTOR('',#1070,10.);
#252=VECTOR('',#1075,10.);
#253=VECTOR('',#1076,10.);
#254=VECTOR('',#1077,10.);
#255=VECTOR('',#1078,10.);
#256=VECTOR('',#1081,10.);
#257=VECTOR('',#1086,10.);
#258=VECTOR('',#1091,10.);
#259=VECTOR('',#1092,10.);
#260=VECTOR('',#1093,10.);
#261=VECTOR('',#1094,10.);
#262=VECTOR('',#1097,10.);
#263=VECTOR('',#1098,10.);
#264=VECTOR('',#1099,10.);
#265=VECTOR('',#1100,10.);
#266=VECTOR('',#1101,10.);
#267=VECTOR('',#1118,2.);
#268=VECTOR('',#1121,1.25);
#269=VECTOR('',#1124,10.);
#270=VECTOR('',#1125,10.);
#271=VECTOR('',#1126,10.);
#272=VECTOR('',#1127,10.);
#273=VECTOR('',#1128,10.);
#274=VECTOR('',#1131,10.);
#275=VECTOR('',#1132,10.);
#276=VECTOR('',#1137,10.);
#277=VECTOR('',#1142,10.);
#278=VECTOR('',#1143,10.);
#279=VECTOR('',#1144,10.);
#280=VECTOR('',#1145,10.);
#281=VECTOR('',#1148,10.);
#282=VECTOR('',#1153,10.);
#283=VECTOR('',#1158,10.);
#284=VECTOR('',#1165,10.);
#285=VECTOR('',#1166,10.);
#286=VECTOR('',#1167,10.);
#287=VECTOR('',#1168,10.);
#288=VECTOR('',#1169,10.);
#289=VECTOR('',#1172,10.);
#290=VECTOR('',#1173,10.);
#291=VECTOR('',#1174,10.);
#292=VECTOR('',#1175,10.);
#293=VECTOR('',#1186,2.);
#294=VECTOR('',#1193,1.25);
#295=VECTOR('',#1196,10.);
#296=VECTOR('',#1197,10.);
#297=VECTOR('',#1198,10.);
#298=VECTOR('',#1201,10.);
#299=VECTOR('',#1206,10.);
#300=VECTOR('',#1207,10.);
#301=VECTOR('',#1214,10.);
#302=VECTOR('',#1215,10.);
#303=CIRCLE('',#882,3.);
#304=CIRCLE('',#883,3.);
#305=CIRCLE('',#884,3.);
#306=CIRCLE('',#885,3.);
#307=CIRCLE('',#886,2.);
#308=CIRCLE('',#887,2.);
#309=CIRCLE('',#888,3.07500351798965);
#310=CIRCLE('',#889,3.07500000000388);
#311=CIRCLE('',#891,3.07500351798965);
#312=CIRCLE('',#895,3.);
#313=CIRCLE('',#898,3.);
#314=CIRCLE('',#900,3.);
#315=CIRCLE('',#901,3.);
#316=CIRCLE('',#902,1.25);
#317=CIRCLE('',#903,1.25);
#318=CIRCLE('',#904,4.07500000000397);
#319=CIRCLE('',#905,4.07500351798965);
#320=CIRCLE('',#912,1.25);
#321=CIRCLE('',#914,1.25);
#322=CIRCLE('',#916,1.25);
#323=CIRCLE('',#919,1.25);
#324=CIRCLE('',#921,2.);
#325=CIRCLE('',#925,2.);
#326=CIRCLE('',#927,2.);
#327=CIRCLE('',#929,2.);
#328=CIRCLE('',#930,2.);
#329=CIRCLE('',#935,1.25);
#330=CIRCLE('',#937,1.25);
#331=CIRCLE('',#940,1.25);
#332=CIRCLE('',#942,1.25);
#333=CIRCLE('',#944,2.);
#334=CIRCLE('',#945,2.);
#335=CIRCLE('',#949,2.);
#336=CIRCLE('',#951,2.);
#337=CIRCLE('',#953,2.);
#338=CIRCLE('',#958,4.07500000000397);
#339=CIRCLE('',#961,4.07500351798965);
#340=CIRCLE('',#964,3.07500000000388);
#341=VERTEX_POINT('',#1224);
#342=VERTEX_POINT('',#1225);
#343=VERTEX_POINT('',#1227);
#344=VERTEX_POINT('',#1229);
#345=VERTEX_POINT('',#1231);
#346=VERTEX_POINT('',#1233);
#347=VERTEX_POINT('',#1235);
#348=VERTEX_POINT('',#1237);
#349=VERTEX_POINT('',#1240);
#350=VERTEX_POINT('',#1242);
#351=VERTEX_POINT('',#1244);
#352=VERTEX_POINT('',#1245);
#353=VERTEX_POINT('',#1247);
#354=VERTEX_POINT('',#1249);
#355=VERTEX_POINT('',#1253);
#356=VERTEX_POINT('',#1255);
#357=VERTEX_POINT('',#1259);
#358=VERTEX_POINT('',#1263);
#359=VERTEX_POINT('',#1265);
#360=VERTEX_POINT('',#1269);
#361=VERTEX_POINT('',#1273);
#362=VERTEX_POINT('',#1277);
#363=VERTEX_POINT('',#1281);
#364=VERTEX_POINT('',#1283);
#365=VERTEX_POINT('',#1285);
#366=VERTEX_POINT('',#1288);
#367=VERTEX_POINT('',#1290);
#368=VERTEX_POINT('',#1292);
#369=VERTEX_POINT('',#1293);
#370=VERTEX_POINT('',#1295);
#371=VERTEX_POINT('',#1297);
#372=VERTEX_POINT('',#1308);
#373=VERTEX_POINT('',#1309);
#374=VERTEX_POINT('',#1311);
#375=VERTEX_POINT('',#1313);
#376=VERTEX_POINT('',#1315);
#377=VERTEX_POINT('',#1319);
#378=VERTEX_POINT('',#1323);
#379=VERTEX_POINT('',#1324);
#380=VERTEX_POINT('',#1329);
#381=VERTEX_POINT('',#1333);
#382=VERTEX_POINT('',#1334);
#383=VERTEX_POINT('',#1336);
#384=VERTEX_POINT('',#1344);
#385=VERTEX_POINT('',#1345);
#386=VERTEX_POINT('',#1349);
#387=VERTEX_POINT('',#1352);
#388=VERTEX_POINT('',#1356);
#389=VERTEX_POINT('',#1357);
#390=VERTEX_POINT('',#1359);
#391=VERTEX_POINT('',#1362);
#392=VERTEX_POINT('',#1370);
#393=VERTEX_POINT('',#1378);
#394=VERTEX_POINT('',#1379);
#395=VERTEX_POINT('',#1381);
#396=VERTEX_POINT('',#1383);
#397=VERTEX_POINT('',#1385);
#398=VERTEX_POINT('',#1389);
#399=VERTEX_POINT('',#1390);
#400=VERTEX_POINT('',#1392);
#401=VERTEX_POINT('',#1399);
#402=VERTEX_POINT('',#1400);
#403=VERTEX_POINT('',#1402);
#404=VERTEX_POINT('',#1407);
#405=VERTEX_POINT('',#1414);
#406=VERTEX_POINT('',#1415);
#407=VERTEX_POINT('',#1417);
#408=VERTEX_POINT('',#1421);
#409=VERTEX_POINT('',#1422);
#410=VERTEX_POINT('',#1424);
#411=VERTEX_POINT('',#1427);
#412=VERTEX_POINT('',#1431);
#413=VERTEX_POINT('',#1434);
#414=VERTEX_POINT('',#1448);
#415=VERTEX_POINT('',#1450);
#416=VERTEX_POINT('',#1454);
#417=VERTEX_POINT('',#1458);
#418=VERTEX_POINT('',#1464);
#419=EDGE_CURVE('',#341,#342,#303,.T.);
#420=EDGE_CURVE('',#343,#341,#135,.T.);
#421=EDGE_CURVE('',#344,#343,#304,.T.);
#422=EDGE_CURVE('',#345,#344,#136,.T.);
#423=EDGE_CURVE('',#346,#345,#305,.T.);
#424=EDGE_CURVE('',#347,#346,#137,.T.);
#425=EDGE_CURVE('',#348,#347,#306,.T.);
#426=EDGE_CURVE('',#342,#348,#138,.T.);
#427=EDGE_CURVE('',#349,#349,#307,.T.);
#428=EDGE_CURVE('',#350,#350,#308,.T.);
#429=EDGE_CURVE('',#351,#352,#139,.T.);
#430=EDGE_CURVE('',#353,#351,#309,.T.);
#431=EDGE_CURVE('',#354,#353,#140,.T.);
#432=EDGE_CURVE('',#352,#354,#310,.T.);
#433=EDGE_CURVE('',#355,#351,#141,.T.);
#434=EDGE_CURVE('',#355,#356,#311,.T.);
#435=EDGE_CURVE('',#356,#353,#142,.T.);
#436=EDGE_CURVE('',#357,#352,#143,.T.);
#437=EDGE_CURVE('',#357,#355,#144,.T.);
#438=EDGE_CURVE('',#358,#344,#145,.T.);
#439=EDGE_CURVE('',#358,#359,#146,.T.);
#440=EDGE_CURVE('',#345,#359,#147,.T.);
#441=EDGE_CURVE('',#343,#360,#148,.T.);
#442=EDGE_CURVE('',#360,#358,#312,.T.);
#443=EDGE_CURVE('',#361,#341,#149,.T.);
#444=EDGE_CURVE('',#361,#360,#150,.T.);
#445=EDGE_CURVE('',#342,#362,#151,.T.);
#446=EDGE_CURVE('',#362,#361,#313,.T.);
#447=EDGE_CURVE('',#363,#362,#152,.T.);
#448=EDGE_CURVE('',#364,#363,#314,.T.);
#449=EDGE_CURVE('',#365,#364,#153,.T.);
#450=EDGE_CURVE('',#359,#365,#315,.T.);
#451=EDGE_CURVE('',#366,#366,#316,.T.);
#452=EDGE_CURVE('',#367,#367,#317,.T.);
#453=EDGE_CURVE('',#368,#369,#154,.T.);
#454=EDGE_CURVE('',#370,#368,#318,.T.);
#455=EDGE_CURVE('',#371,#370,#155,.T.);
#456=EDGE_CURVE('',#369,#371,#319,.T.);
#457=EDGE_CURVE('',#363,#348,#156,.T.);
#458=EDGE_CURVE('',#347,#364,#157,.T.);
#459=EDGE_CURVE('',#365,#346,#158,.T.);
#460=EDGE_CURVE('',#372,#373,#159,.T.);
#461=EDGE_CURVE('',#372,#374,#160,.T.);
#462=EDGE_CURVE('',#375,#374,#161,.T.);
#463=EDGE_CURVE('',#376,#375,#162,.T.);
#464=EDGE_CURVE('',#373,#376,#163,.T.);
#465=EDGE_CURVE('',#374,#377,#164,.T.);
#466=EDGE_CURVE('',#375,#377,#320,.T.);
#467=EDGE_CURVE('',#378,#379,#165,.T.);
#468=EDGE_CURVE('',#377,#379,#321,.T.);
#469=EDGE_CURVE('',#377,#378,#166,.T.);
#470=EDGE_CURVE('',#380,#376,#167,.T.);
#471=EDGE_CURVE('',#380,#375,#322,.T.);
#472=EDGE_CURVE('',#381,#382,#168,.T.);
#473=EDGE_CURVE('',#381,#383,#169,.T.);
#474=EDGE_CURVE('',#379,#383,#170,.T.);
#475=EDGE_CURVE('',#382,#378,#171,.T.);
#476=EDGE_CURVE('',#383,#380,#172,.T.);
#477=EDGE_CURVE('',#379,#380,#323,.T.);
#478=EDGE_CURVE('',#384,#385,#173,.T.);
#479=EDGE_CURVE('',#384,#385,#324,.T.);
#480=EDGE_CURVE('',#384,#386,#174,.T.);
#481=EDGE_CURVE('',#373,#386,#175,.T.);
#482=EDGE_CURVE('',#387,#381,#176,.T.);
#483=EDGE_CURVE('',#385,#387,#177,.T.);
#484=EDGE_CURVE('',#388,#389,#178,.T.);
#485=EDGE_CURVE('',#388,#390,#179,.T.);
#486=EDGE_CURVE('',#382,#390,#180,.T.);
#487=EDGE_CURVE('',#391,#372,#181,.T.);
#488=EDGE_CURVE('',#389,#391,#182,.T.);
#489=EDGE_CURVE('',#386,#391,#325,.T.);
#490=EDGE_CURVE('',#390,#387,#326,.T.);
#491=EDGE_CURVE('',#392,#389,#327,.T.);
#492=EDGE_CURVE('',#388,#392,#328,.T.);
#493=EDGE_CURVE('',#349,#392,#183,.T.);
#494=EDGE_CURVE('',#366,#377,#184,.T.);
#495=EDGE_CURVE('',#393,#394,#185,.T.);
#496=EDGE_CURVE('',#394,#395,#186,.T.);
#497=EDGE_CURVE('',#395,#396,#187,.T.);
#498=EDGE_CURVE('',#396,#397,#188,.T.);
#499=EDGE_CURVE('',#393,#397,#189,.T.);
#500=EDGE_CURVE('',#398,#399,#190,.T.);
#501=EDGE_CURVE('',#400,#398,#191,.T.);
#502=EDGE_CURVE('',#399,#400,#329,.T.);
#503=EDGE_CURVE('',#399,#395,#192,.T.);
#504=EDGE_CURVE('',#396,#399,#330,.T.);
#505=EDGE_CURVE('',#401,#402,#193,.T.);
#506=EDGE_CURVE('',#402,#403,#194,.T.);
#507=EDGE_CURVE('',#403,#400,#195,.T.);
#508=EDGE_CURVE('',#401,#398,#196,.T.);
#509=EDGE_CURVE('',#404,#403,#197,.T.);
#510=EDGE_CURVE('',#400,#404,#331,.T.);
#511=EDGE_CURVE('',#397,#404,#198,.T.);
#512=EDGE_CURVE('',#404,#396,#332,.T.);
#513=EDGE_CURVE('',#405,#406,#199,.T.);
#514=EDGE_CURVE('',#407,#406,#333,.T.);
#515=EDGE_CURVE('',#405,#407,#334,.T.);
#516=EDGE_CURVE('',#408,#409,#200,.T.);
#517=EDGE_CURVE('',#408,#410,#201,.T.);
#518=EDGE_CURVE('',#410,#393,#202,.T.);
#519=EDGE_CURVE('',#402,#411,#203,.T.);
#520=EDGE_CURVE('',#409,#411,#204,.T.);
#521=EDGE_CURVE('',#405,#412,#205,.T.);
#522=EDGE_CURVE('',#412,#401,#206,.T.);
#523=EDGE_CURVE('',#394,#413,#207,.T.);
#524=EDGE_CURVE('',#406,#413,#208,.T.);
#525=EDGE_CURVE('',#411,#412,#335,.T.);
#526=EDGE_CURVE('',#413,#410,#336,.T.);
#527=EDGE_CURVE('',#350,#407,#209,.T.);
#528=EDGE_CURVE('',#408,#409,#337,.T.);
#529=EDGE_CURVE('',#367,#399,#210,.T.);
#530=EDGE_CURVE('',#414,#370,#211,.T.);
#531=EDGE_CURVE('',#415,#414,#212,.T.);
#532=EDGE_CURVE('',#415,#371,#213,.T.);
#533=EDGE_CURVE('',#416,#368,#214,.T.);
#534=EDGE_CURVE('',#414,#416,#338,.T.);
#535=EDGE_CURVE('',#417,#369,#215,.T.);
#536=EDGE_CURVE('',#416,#417,#216,.T.);
#537=EDGE_CURVE('',#417,#415,#339,.T.);
#538=EDGE_CURVE('',#356,#418,#217,.T.);
#539=EDGE_CURVE('',#418,#354,#218,.T.);
#540=EDGE_CURVE('',#418,#357,#340,.T.);
#541=ORIENTED_EDGE('',*,*,#419,.F.);
#542=ORIENTED_EDGE('',*,*,#420,.F.);
#543=ORIENTED_EDGE('',*,*,#421,.F.);
#544=ORIENTED_EDGE('',*,*,#422,.F.);
#545=ORIENTED_EDGE('',*,*,#423,.F.);
#546=ORIENTED_EDGE('',*,*,#424,.F.);
#547=ORIENTED_EDGE('',*,*,#425,.F.);
#548=ORIENTED_EDGE('',*,*,#426,.F.);
#549=ORIENTED_EDGE('',*,*,#427,.F.);
#550=ORIENTED_EDGE('',*,*,#428,.F.);
#551=ORIENTED_EDGE('',*,*,#429,.F.);
#552=ORIENTED_EDGE('',*,*,#430,.F.);
#553=ORIENTED_EDGE('',*,*,#431,.F.);
#554=ORIENTED_EDGE('',*,*,#432,.F.);
#555=ORIENTED_EDGE('',*,*,#430,.T.);
#556=ORIENTED_EDGE('',*,*,#433,.F.);
#557=ORIENTED_EDGE('',*,*,#434,.T.);
#558=ORIENTED_EDGE('',*,*,#435,.T.);
#559=ORIENTED_EDGE('',*,*,#429,.T.);
#560=ORIENTED_EDGE('',*,*,#436,.F.);
#561=ORIENTED_EDGE('',*,*,#437,.T.);
#562=ORIENTED_EDGE('',*,*,#433,.T.);
#563=ORIENTED_EDGE('',*,*,#422,.T.);
#564=ORIENTED_EDGE('',*,*,#438,.F.);
#565=ORIENTED_EDGE('',*,*,#439,.T.);
#566=ORIENTED_EDGE('',*,*,#440,.F.);
#567=ORIENTED_EDGE('',*,*,#421,.T.);
#568=ORIENTED_EDGE('',*,*,#441,.T.);
#569=ORIENTED_EDGE('',*,*,#442,.T.);
#570=ORIENTED_EDGE('',*,*,#438,.T.);
#571=ORIENTED_EDGE('',*,*,#420,.T.);
#572=ORIENTED_EDGE('',*,*,#443,.F.);
#573=ORIENTED_EDGE('',*,*,#444,.T.);
#574=ORIENTED_EDGE('',*,*,#441,.F.);
#575=ORIENTED_EDGE('',*,*,#419,.T.);
#576=ORIENTED_EDGE('',*,*,#445,.T.);
#577=ORIENTED_EDGE('',*,*,#446,.T.);
#578=ORIENTED_EDGE('',*,*,#443,.T.);
#579=ORIENTED_EDGE('',*,*,#446,.F.);
#580=ORIENTED_EDGE('',*,*,#447,.F.);
#581=ORIENTED_EDGE('',*,*,#448,.F.);
#582=ORIENTED_EDGE('',*,*,#449,.F.);
#583=ORIENTED_EDGE('',*,*,#450,.F.);
#584=ORIENTED_EDGE('',*,*,#439,.F.);
#585=ORIENTED_EDGE('',*,*,#442,.F.);
#586=ORIENTED_EDGE('',*,*,#444,.F.);
#587=ORIENTED_EDGE('',*,*,#451,.T.);
#588=ORIENTED_EDGE('',*,*,#452,.T.);
#589=ORIENTED_EDGE('',*,*,#453,.F.);
#590=ORIENTED_EDGE('',*,*,#454,.F.);
#591=ORIENTED_EDGE('',*,*,#455,.F.);
#592=ORIENTED_EDGE('',*,*,#456,.F.);
#593=ORIENTED_EDGE('',*,*,#426,.T.);
#594=ORIENTED_EDGE('',*,*,#457,.F.);
#595=ORIENTED_EDGE('',*,*,#447,.T.);
#596=ORIENTED_EDGE('',*,*,#445,.F.);
#597=ORIENTED_EDGE('',*,*,#425,.T.);
#598=ORIENTED_EDGE('',*,*,#458,.T.);
#599=ORIENTED_EDGE('',*,*,#448,.T.);
#600=ORIENTED_EDGE('',*,*,#457,.T.);
#601=ORIENTED_EDGE('',*,*,#423,.T.);
#602=ORIENTED_EDGE('',*,*,#440,.T.);
#603=ORIENTED_EDGE('',*,*,#450,.T.);
#604=ORIENTED_EDGE('',*,*,#459,.T.);
#605=ORIENTED_EDGE('',*,*,#424,.T.);
#606=ORIENTED_EDGE('',*,*,#459,.F.);
#607=ORIENTED_EDGE('',*,*,#449,.T.);
#608=ORIENTED_EDGE('',*,*,#458,.F.);
#609=ORIENTED_EDGE('',*,*,#460,.F.);
#610=ORIENTED_EDGE('',*,*,#461,.T.);
#611=ORIENTED_EDGE('',*,*,#462,.F.);
#612=ORIENTED_EDGE('',*,*,#463,.F.);
#613=ORIENTED_EDGE('',*,*,#464,.F.);
#614=ORIENTED_EDGE('',*,*,#465,.T.);
#615=ORIENTED_EDGE('',*,*,#466,.F.);
#616=ORIENTED_EDGE('',*,*,#462,.T.);
#617=ORIENTED_EDGE('',*,*,#467,.T.);
#618=ORIENTED_EDGE('',*,*,#468,.F.);
#619=ORIENTED_EDGE('',*,*,#469,.T.);
#620=ORIENTED_EDGE('',*,*,#470,.T.);
#621=ORIENTED_EDGE('',*,*,#463,.T.);
#622=ORIENTED_EDGE('',*,*,#471,.F.);
#623=ORIENTED_EDGE('',*,*,#472,.F.);
#624=ORIENTED_EDGE('',*,*,#473,.T.);
#625=ORIENTED_EDGE('',*,*,#474,.F.);
#626=ORIENTED_EDGE('',*,*,#467,.F.);
#627=ORIENTED_EDGE('',*,*,#475,.F.);
#628=ORIENTED_EDGE('',*,*,#476,.T.);
#629=ORIENTED_EDGE('',*,*,#477,.F.);
#630=ORIENTED_EDGE('',*,*,#474,.T.);
#631=ORIENTED_EDGE('',*,*,#478,.T.);
#632=ORIENTED_EDGE('',*,*,#479,.F.);
#633=ORIENTED_EDGE('',*,*,#478,.F.);
#634=ORIENTED_EDGE('',*,*,#480,.T.);
#635=ORIENTED_EDGE('',*,*,#481,.F.);
#636=ORIENTED_EDGE('',*,*,#464,.T.);
#637=ORIENTED_EDGE('',*,*,#470,.F.);
#638=ORIENTED_EDGE('',*,*,#476,.F.);
#639=ORIENTED_EDGE('',*,*,#473,.F.);
#640=ORIENTED_EDGE('',*,*,#482,.F.);
#641=ORIENTED_EDGE('',*,*,#483,.F.);
#642=ORIENTED_EDGE('',*,*,#484,.F.);
#643=ORIENTED_EDGE('',*,*,#485,.T.);
#644=ORIENTED_EDGE('',*,*,#486,.F.);
#645=ORIENTED_EDGE('',*,*,#475,.T.);
#646=ORIENTED_EDGE('',*,*,#469,.F.);
#647=ORIENTED_EDGE('',*,*,#465,.F.);
#648=ORIENTED_EDGE('',*,*,#461,.F.);
#649=ORIENTED_EDGE('',*,*,#487,.F.);
#650=ORIENTED_EDGE('',*,*,#488,.F.);
#651=ORIENTED_EDGE('',*,*,#489,.T.);
#652=ORIENTED_EDGE('',*,*,#487,.T.);
#653=ORIENTED_EDGE('',*,*,#460,.T.);
#654=ORIENTED_EDGE('',*,*,#481,.T.);
#655=ORIENTED_EDGE('',*,*,#490,.T.);
#656=ORIENTED_EDGE('',*,*,#482,.T.);
#657=ORIENTED_EDGE('',*,*,#472,.T.);
#658=ORIENTED_EDGE('',*,*,#486,.T.);
#659=ORIENTED_EDGE('',*,*,#484,.T.);
#660=ORIENTED_EDGE('',*,*,#491,.F.);
#661=ORIENTED_EDGE('',*,*,#492,.F.);
#662=ORIENTED_EDGE('',*,*,#427,.T.);
#663=ORIENTED_EDGE('',*,*,#493,.T.);
#664=ORIENTED_EDGE('',*,*,#491,.T.);
#665=ORIENTED_EDGE('',*,*,#488,.T.);
#666=ORIENTED_EDGE('',*,*,#489,.F.);
#667=ORIENTED_EDGE('',*,*,#480,.F.);
#668=ORIENTED_EDGE('',*,*,#479,.T.);
#669=ORIENTED_EDGE('',*,*,#483,.T.);
#670=ORIENTED_EDGE('',*,*,#490,.F.);
#671=ORIENTED_EDGE('',*,*,#485,.F.);
#672=ORIENTED_EDGE('',*,*,#492,.T.);
#673=ORIENTED_EDGE('',*,*,#493,.F.);
#674=ORIENTED_EDGE('',*,*,#451,.F.);
#675=ORIENTED_EDGE('',*,*,#494,.T.);
#676=ORIENTED_EDGE('',*,*,#468,.T.);
#677=ORIENTED_EDGE('',*,*,#477,.T.);
#678=ORIENTED_EDGE('',*,*,#471,.T.);
#679=ORIENTED_EDGE('',*,*,#466,.T.);
#680=ORIENTED_EDGE('',*,*,#494,.F.);
#681=ORIENTED_EDGE('',*,*,#495,.T.);
#682=ORIENTED_EDGE('',*,*,#496,.T.);
#683=ORIENTED_EDGE('',*,*,#497,.T.);
#684=ORIENTED_EDGE('',*,*,#498,.T.);
#685=ORIENTED_EDGE('',*,*,#499,.F.);
#686=ORIENTED_EDGE('',*,*,#500,.F.);
#687=ORIENTED_EDGE('',*,*,#501,.F.);
#688=ORIENTED_EDGE('',*,*,#502,.F.);
#689=ORIENTED_EDGE('',*,*,#497,.F.);
#690=ORIENTED_EDGE('',*,*,#503,.F.);
#691=ORIENTED_EDGE('',*,*,#504,.F.);
#692=ORIENTED_EDGE('',*,*,#505,.T.);
#693=ORIENTED_EDGE('',*,*,#506,.T.);
#694=ORIENTED_EDGE('',*,*,#507,.T.);
#695=ORIENTED_EDGE('',*,*,#501,.T.);
#696=ORIENTED_EDGE('',*,*,#508,.F.);
#697=ORIENTED_EDGE('',*,*,#509,.F.);
#698=ORIENTED_EDGE('',*,*,#510,.F.);
#699=ORIENTED_EDGE('',*,*,#507,.F.);
#700=ORIENTED_EDGE('',*,*,#511,.F.);
#701=ORIENTED_EDGE('',*,*,#498,.F.);
#702=ORIENTED_EDGE('',*,*,#512,.F.);
#703=ORIENTED_EDGE('',*,*,#513,.T.);
#704=ORIENTED_EDGE('',*,*,#514,.F.);
#705=ORIENTED_EDGE('',*,*,#515,.F.);
#706=ORIENTED_EDGE('',*,*,#516,.F.);
#707=ORIENTED_EDGE('',*,*,#517,.T.);
#708=ORIENTED_EDGE('',*,*,#518,.T.);
#709=ORIENTED_EDGE('',*,*,#499,.T.);
#710=ORIENTED_EDGE('',*,*,#511,.T.);
#711=ORIENTED_EDGE('',*,*,#509,.T.);
#712=ORIENTED_EDGE('',*,*,#506,.F.);
#713=ORIENTED_EDGE('',*,*,#519,.T.);
#714=ORIENTED_EDGE('',*,*,#520,.F.);
#715=ORIENTED_EDGE('',*,*,#513,.F.);
#716=ORIENTED_EDGE('',*,*,#521,.T.);
#717=ORIENTED_EDGE('',*,*,#522,.T.);
#718=ORIENTED_EDGE('',*,*,#508,.T.);
#719=ORIENTED_EDGE('',*,*,#500,.T.);
#720=ORIENTED_EDGE('',*,*,#503,.T.);
#721=ORIENTED_EDGE('',*,*,#496,.F.);
#722=ORIENTED_EDGE('',*,*,#523,.T.);
#723=ORIENTED_EDGE('',*,*,#524,.F.);
#724=ORIENTED_EDGE('',*,*,#525,.F.);
#725=ORIENTED_EDGE('',*,*,#519,.F.);
#726=ORIENTED_EDGE('',*,*,#505,.F.);
#727=ORIENTED_EDGE('',*,*,#522,.F.);
#728=ORIENTED_EDGE('',*,*,#526,.F.);
#729=ORIENTED_EDGE('',*,*,#523,.F.);
#730=ORIENTED_EDGE('',*,*,#495,.F.);
#731=ORIENTED_EDGE('',*,*,#518,.F.);
#732=ORIENTED_EDGE('',*,*,#428,.T.);
#733=ORIENTED_EDGE('',*,*,#527,.T.);
#734=ORIENTED_EDGE('',*,*,#514,.T.);
#735=ORIENTED_EDGE('',*,*,#524,.T.);
#736=ORIENTED_EDGE('',*,*,#526,.T.);
#737=ORIENTED_EDGE('',*,*,#517,.F.);
#738=ORIENTED_EDGE('',*,*,#528,.T.);
#739=ORIENTED_EDGE('',*,*,#520,.T.);
#740=ORIENTED_EDGE('',*,*,#525,.T.);
#741=ORIENTED_EDGE('',*,*,#521,.F.);
#742=ORIENTED_EDGE('',*,*,#515,.T.);
#743=ORIENTED_EDGE('',*,*,#527,.F.);
#744=ORIENTED_EDGE('',*,*,#516,.T.);
#745=ORIENTED_EDGE('',*,*,#528,.F.);
#746=ORIENTED_EDGE('',*,*,#452,.F.);
#747=ORIENTED_EDGE('',*,*,#529,.T.);
#748=ORIENTED_EDGE('',*,*,#502,.T.);
#749=ORIENTED_EDGE('',*,*,#510,.T.);
#750=ORIENTED_EDGE('',*,*,#512,.T.);
#751=ORIENTED_EDGE('',*,*,#504,.T.);
#752=ORIENTED_EDGE('',*,*,#529,.F.);
#753=ORIENTED_EDGE('',*,*,#455,.T.);
#754=ORIENTED_EDGE('',*,*,#530,.F.);
#755=ORIENTED_EDGE('',*,*,#531,.F.);
#756=ORIENTED_EDGE('',*,*,#532,.T.);
#757=ORIENTED_EDGE('',*,*,#454,.T.);
#758=ORIENTED_EDGE('',*,*,#533,.F.);
#759=ORIENTED_EDGE('',*,*,#534,.F.);
#760=ORIENTED_EDGE('',*,*,#530,.T.);
#761=ORIENTED_EDGE('',*,*,#453,.T.);
#762=ORIENTED_EDGE('',*,*,#535,.F.);
#763=ORIENTED_EDGE('',*,*,#536,.F.);
#764=ORIENTED_EDGE('',*,*,#533,.T.);
#765=ORIENTED_EDGE('',*,*,#456,.T.);
#766=ORIENTED_EDGE('',*,*,#532,.F.);
#767=ORIENTED_EDGE('',*,*,#537,.F.);
#768=ORIENTED_EDGE('',*,*,#535,.T.);
#769=ORIENTED_EDGE('',*,*,#431,.T.);
#770=ORIENTED_EDGE('',*,*,#435,.F.);
#771=ORIENTED_EDGE('',*,*,#538,.T.);
#772=ORIENTED_EDGE('',*,*,#539,.T.);
#773=ORIENTED_EDGE('',*,*,#432,.T.);
#774=ORIENTED_EDGE('',*,*,#539,.F.);
#775=ORIENTED_EDGE('',*,*,#540,.T.);
#776=ORIENTED_EDGE('',*,*,#436,.T.);
#777=ORIENTED_EDGE('',*,*,#531,.T.);
#778=ORIENTED_EDGE('',*,*,#534,.T.);
#779=ORIENTED_EDGE('',*,*,#536,.T.);
#780=ORIENTED_EDGE('',*,*,#537,.T.);
#781=ORIENTED_EDGE('',*,*,#434,.F.);
#782=ORIENTED_EDGE('',*,*,#437,.F.);
#783=ORIENTED_EDGE('',*,*,#540,.F.);
#784=ORIENTED_EDGE('',*,*,#538,.F.);
#785=PLANE('',#881);
#786=PLANE('',#892);
#787=PLANE('',#893);
#788=PLANE('',#896);
#789=PLANE('',#899);
#790=PLANE('',#906);
#791=PLANE('',#909);
#792=PLANE('',#910);
#793=PLANE('',#911);
#794=PLANE('',#913);
#795=PLANE('',#915);
#796=PLANE('',#917);
#797=PLANE('',#918);
#798=PLANE('',#920);
#799=PLANE('',#922);
#800=PLANE('',#923);
#801=PLANE('',#924);
#802=PLANE('',#926);
#803=PLANE('',#928);
#804=PLANE('',#933);
#805=PLANE('',#934);
#806=PLANE('',#936);
#807=PLANE('',#938);
#808=PLANE('',#939);
#809=PLANE('',#941);
#810=PLANE('',#943);
#811=PLANE('',#946);
#812=PLANE('',#947);
#813=PLANE('',#948);
#814=PLANE('',#950);
#815=PLANE('',#954);
#816=PLANE('',#956);
#817=PLANE('',#959);
#818=PLANE('',#962);
#819=PLANE('',#965);
#820=ADVANCED_FACE('',(#34,#27,#28,#29),#785,.T.);
#821=ADVANCED_FACE('',(#35),#15,.F.);
#822=ADVANCED_FACE('',(#36),#786,.T.);
#823=ADVANCED_FACE('',(#37),#787,.T.);
#824=ADVANCED_FACE('',(#38),#16,.T.);
#825=ADVANCED_FACE('',(#39),#788,.T.);
#826=ADVANCED_FACE('',(#40),#17,.T.);
#827=ADVANCED_FACE('',(#41,#30,#31,#32),#789,.T.);
#828=ADVANCED_FACE('',(#42),#790,.T.);
#829=ADVANCED_FACE('',(#43),#18,.T.);
#830=ADVANCED_FACE('',(#44),#19,.T.);
#831=ADVANCED_FACE('',(#45),#791,.T.);
#832=ADVANCED_FACE('',(#46),#792,.T.);
#833=ADVANCED_FACE('',(#47),#793,.F.);
#834=ADVANCED_FACE('',(#48),#794,.F.);
#835=ADVANCED_FACE('',(#49),#795,.F.);
#836=ADVANCED_FACE('',(#50),#796,.T.);
#837=ADVANCED_FACE('',(#51),#797,.F.);
#838=ADVANCED_FACE('',(#52),#798,.T.);
#839=ADVANCED_FACE('',(#53),#799,.T.);
#840=ADVANCED_FACE('',(#54),#800,.T.);
#841=ADVANCED_FACE('',(#55),#801,.F.);
#842=ADVANCED_FACE('',(#56),#802,.F.);
#843=ADVANCED_FACE('',(#57),#803,.T.);
#844=ADVANCED_FACE('',(#58),#20,.F.);
#845=ADVANCED_FACE('',(#59),#21,.F.);
#846=ADVANCED_FACE('',(#60),#804,.F.);
#847=ADVANCED_FACE('',(#61),#805,.T.);
#848=ADVANCED_FACE('',(#62),#806,.T.);
#849=ADVANCED_FACE('',(#63),#807,.F.);
#850=ADVANCED_FACE('',(#64),#808,.T.);
#851=ADVANCED_FACE('',(#65),#809,.T.);
#852=ADVANCED_FACE('',(#66),#810,.T.);
#853=ADVANCED_FACE('',(#67),#811,.F.);
#854=ADVANCED_FACE('',(#68),#812,.F.);
#855=ADVANCED_FACE('',(#69),#813,.T.);
#856=ADVANCED_FACE('',(#70),#814,.T.);
#857=ADVANCED_FACE('',(#71),#22,.F.);
#858=ADVANCED_FACE('',(#72),#815,.T.);
#859=ADVANCED_FACE('',(#73),#23,.F.);
#860=ADVANCED_FACE('',(#74),#816,.T.);
#861=ADVANCED_FACE('',(#75),#24,.F.);
#862=ADVANCED_FACE('',(#76),#817,.T.);
#863=ADVANCED_FACE('',(#77),#25,.F.);
#864=ADVANCED_FACE('',(#78),#818,.T.);
#865=ADVANCED_FACE('',(#79),#26,.F.);
#866=ADVANCED_FACE('',(#80,#33),#819,.F.);
#867=CLOSED_SHELL('',(#820,#821,#822,#823,#824,#825,#826,#827,#828,#829,
#830,#831,#832,#833,#834,#835,#836,#837,#838,#839,#840,#841,#842,#843,#844,
#845,#846,#847,#848,#849,#850,#851,#852,#853,#854,#855,#856,#857,#858,#859,
#860,#861,#862,#863,#864,#865,#866));
#868=DERIVED_UNIT_ELEMENT(#870,1.);
#869=DERIVED_UNIT_ELEMENT(#1475,-3.);
#870=(
MASS_UNIT()
NAMED_UNIT(*)
SI_UNIT(.KILO.,.GRAM.)
);
#871=DERIVED_UNIT((#868,#869));
#872=MEASURE_REPRESENTATION_ITEM('density measure',
POSITIVE_RATIO_MEASURE(7850.),#871);
#873=PROPERTY_DEFINITION_REPRESENTATION(#878,#875);
#874=PROPERTY_DEFINITION_REPRESENTATION(#879,#876);
#875=REPRESENTATION('material name',(#877),#1472);
#876=REPRESENTATION('density',(#872),#1472);
#877=DESCRIPTIVE_REPRESENTATION_ITEM('Steel','Steel');
#878=PROPERTY_DEFINITION('material property','material name',#1482);
#879=PROPERTY_DEFINITION('material property','density of part',#1482);
#880=AXIS2_PLACEMENT_3D('',#1222,#966,#967);
#881=AXIS2_PLACEMENT_3D('',#1223,#968,#969);
#882=AXIS2_PLACEMENT_3D('',#1226,#970,#971);
#883=AXIS2_PLACEMENT_3D('',#1230,#973,#974);
#884=AXIS2_PLACEMENT_3D('',#1234,#976,#977);
#885=AXIS2_PLACEMENT_3D('',#1238,#979,#980);
#886=AXIS2_PLACEMENT_3D('',#1241,#982,#983);
#887=AXIS2_PLACEMENT_3D('',#1243,#984,#985);
#888=AXIS2_PLACEMENT_3D('',#1248,#987,#988);
#889=AXIS2_PLACEMENT_3D('',#1251,#990,#991);
#890=AXIS2_PLACEMENT_3D('',#1252,#992,#993);
#891=AXIS2_PLACEMENT_3D('',#1256,#995,#996);
#892=AXIS2_PLACEMENT_3D('',#1258,#998,#999);
#893=AXIS2_PLACEMENT_3D('',#1262,#1002,#1003);
#894=AXIS2_PLACEMENT_3D('',#1268,#1007,#1008);
#895=AXIS2_PLACEMENT_3D('',#1271,#1010,#1011);
#896=AXIS2_PLACEMENT_3D('',#1272,#1012,#1013);
#897=AXIS2_PLACEMENT_3D('',#1276,#1016,#1017);
#898=AXIS2_PLACEMENT_3D('',#1279,#1019,#1020);
#899=AXIS2_PLACEMENT_3D('',#1280,#1021,#1022);
#900=AXIS2_PLACEMENT_3D('',#1284,#1024,#1025);
#901=AXIS2_PLACEMENT_3D('',#1287,#1027,#1028);
#902=AXIS2_PLACEMENT_3D('',#1289,#1029,#1030);
#903=AXIS2_PLACEMENT_3D('',#1291,#1031,#1032);
#904=AXIS2_PLACEMENT_3D('',#1296,#1034,#1035);
#905=AXIS2_PLACEMENT_3D('',#1299,#1037,#1038);
#906=AXIS2_PLACEMENT_3D('',#1300,#1039,#1040);
#907=AXIS2_PLACEMENT_3D('',#1302,#1042,#1043);
#908=AXIS2_PLACEMENT_3D('',#1304,#1045,#1046);
#909=AXIS2_PLACEMENT_3D('',#1306,#1048,#1049);
#910=AXIS2_PLACEMENT_3D('',#1307,#1050,#1051);
#911=AXIS2_PLACEMENT_3D('',#1318,#1057,#1058);
#912=AXIS2_PLACEMENT_3D('',#1321,#1060,#1061);
#913=AXIS2_PLACEMENT_3D('',#1322,#1062,#1063);
#914=AXIS2_PLACEMENT_3D('',#1326,#1065,#1066);
#915=AXIS2_PLACEMENT_3D('',#1328,#1068,#1069);
#916=AXIS2_PLACEMENT_3D('',#1331,#1071,#1072);
#917=AXIS2_PLACEMENT_3D('',#1332,#1073,#1074);
#918=AXIS2_PLACEMENT_3D('',#1340,#1079,#1080);
#919=AXIS2_PLACEMENT_3D('',#1342,#1082,#1083);
#920=AXIS2_PLACEMENT_3D('',#1343,#1084,#1085);
#921=AXIS2_PLACEMENT_3D('',#1347,#1087,#1088);
#922=AXIS2_PLACEMENT_3D('',#1348,#1089,#1090);
#923=AXIS2_PLACEMENT_3D('',#1355,#1095,#1096);
#924=AXIS2_PLACEMENT_3D('',#1365,#1102,#1103);
#925=AXIS2_PLACEMENT_3D('',#1366,#1104,#1105);
#926=AXIS2_PLACEMENT_3D('',#1367,#1106,#1107);
#927=AXIS2_PLACEMENT_3D('',#1368,#1108,#1109);
#928=AXIS2_PLACEMENT_3D('',#1369,#1110,#1111);
#929=AXIS2_PLACEMENT_3D('',#1371,#1112,#1113);
#930=AXIS2_PLACEMENT_3D('',#1372,#1114,#1115);
#931=AXIS2_PLACEMENT_3D('',#1373,#1116,#1117);
#932=AXIS2_PLACEMENT_3D('',#1375,#1119,#1120);
#933=AXIS2_PLACEMENT_3D('',#1377,#1122,#1123);
#934=AXIS2_PLACEMENT_3D('',#1388,#1129,#1130);
#935=AXIS2_PLACEMENT_3D('',#1394,#1133,#1134);
#936=AXIS2_PLACEMENT_3D('',#1395,#1135,#1136);
#937=AXIS2_PLACEMENT_3D('',#1397,#1138,#1139);
#938=AXIS2_PLACEMENT_3D('',#1398,#1140,#1141);
#939=AXIS2_PLACEMENT_3D('',#1406,#1146,#1147);
#940=AXIS2_PLACEMENT_3D('',#1409,#1149,#1150);
#941=AXIS2_PLACEMENT_3D('',#1410,#1151,#1152);
#942=AXIS2_PLACEMENT_3D('',#1412,#1154,#1155);
#943=AXIS2_PLACEMENT_3D('',#1413,#1156,#1157);
#944=AXIS2_PLACEMENT_3D('',#1418,#1159,#1160);
#945=AXIS2_PLACEMENT_3D('',#1419,#1161,#1162);
#946=AXIS2_PLACEMENT_3D('',#1420,#1163,#1164);
#947=AXIS2_PLACEMENT_3D('',#1430,#1170,#1171);
#948=AXIS2_PLACEMENT_3D('',#1437,#1176,#1177);
#949=AXIS2_PLACEMENT_3D('',#1438,#1178,#1179);
#950=AXIS2_PLACEMENT_3D('',#1439,#1180,#1181);
#951=AXIS2_PLACEMENT_3D('',#1440,#1182,#1183);
#952=AXIS2_PLACEMENT_3D('',#1441,#1184,#1185);
#953=AXIS2_PLACEMENT_3D('',#1443,#1187,#1188);
#954=AXIS2_PLACEMENT_3D('',#1444,#1189,#1190);
#955=AXIS2_PLACEMENT_3D('',#1445,#1191,#1192);
#956=AXIS2_PLACEMENT_3D('',#1447,#1194,#1195);
#957=AXIS2_PLACEMENT_3D('',#1453,#1199,#1200);
#958=AXIS2_PLACEMENT_3D('',#1456,#1202,#1203);
#959=AXIS2_PLACEMENT_3D('',#1457,#1204,#1205);
#960=AXIS2_PLACEMENT_3D('',#1461,#1208,#1209);
#961=AXIS2_PLACEMENT_3D('',#1462,#1210,#1211);
#962=AXIS2_PLACEMENT_3D('',#1463,#1212,#1213);
#963=AXIS2_PLACEMENT_3D('',#1467,#1216,#1217);
#964=AXIS2_PLACEMENT_3D('',#1468,#1218,#1219);
#965=AXIS2_PLACEMENT_3D('',#1469,#1220,#1221);
#966=DIRECTION('axis',(0.,0.,1.));
#967=DIRECTION('refdir',(1.,0.,0.));
#968=DIRECTION('center_axis',(0.,0.,1.));
#969=DIRECTION('ref_axis',(1.,0.,0.));
#970=DIRECTION('center_axis',(0.,0.,-1.));
#971=DIRECTION('ref_axis',(0.707106781186548,0.707106781186547,0.));
#972=DIRECTION('',(1.,-2.42813588825017E-16,0.));
#973=DIRECTION('center_axis',(0.,0.,-1.));
#974=DIRECTION('ref_axis',(-0.707106781186549,0.707106781186546,0.));
#975=DIRECTION('',(-2.66453525910034E-15,1.,0.));
#976=DIRECTION('center_axis',(0.,0.,-1.));
#977=DIRECTION('ref_axis',(-0.707106781186547,-0.707106781186548,0.));
#978=DIRECTION('',(-1.,0.,0.));
#979=DIRECTION('center_axis',(0.,0.,-1.));
#980=DIRECTION('ref_axis',(0.707106781186547,-0.707106781186548,0.));
#981=DIRECTION('',(0.,-1.,0.));
#982=DIRECTION('center_axis',(0.,0.,1.));
#983=DIRECTION('ref_axis',(-1.,0.,0.));
#984=DIRECTION('center_axis',(0.,0.,1.));
#985=DIRECTION('ref_axis',(1.,0.,0.));
#986=DIRECTION('',(1.,-9.527022768045E-15,0.));
#987=DIRECTION('center_axis',(0.,0.,1.));
#988=DIRECTION('ref_axis',(-0.00151265312056014,0.999998855939614,0.));
#989=DIRECTION('',(-1.,-6.08889609419122E-15,0.));
#990=DIRECTION('center_axis',(0.,0.,1.));
#991=DIRECTION('ref_axis',(-8.66515531413664E-15,-1.,0.));
#992=DIRECTION('center_axis',(0.,0.,1.));
#993=DIRECTION('ref_axis',(-0.00151265312056014,0.999998855939614,0.));
#994=DIRECTION('',(0.,0.,1.));
#995=DIRECTION('center_axis',(0.,0.,-1.));
#996=DIRECTION('ref_axis',(-0.00151265312056014,0.999998855939614,0.));
#997=DIRECTION('',(0.,0.,1.));
#998=DIRECTION('center_axis',(9.527022768045E-15,1.,0.));
#999=DIRECTION('ref_axis',(-1.,9.527022768045E-15,0.));
#1000=DIRECTION('',(0.,0.,1.));
#1001=DIRECTION('',(-1.,9.527022768045E-15,0.));
#1002=DIRECTION('center_axis',(-1.,-2.66453525910034E-15,0.));
#1003=DIRECTION('ref_axis',(2.66453525910034E-15,-1.,0.));
#1004=DIRECTION('',(0.,0.,1.));
#1005=DIRECTION('',(2.66453525910034E-15,-1.,0.));
#1006=DIRECTION('',(0.,0.,-1.));
#1007=DIRECTION('center_axis',(0.,0.,1.));
#1008=DIRECTION('ref_axis',(-0.707106781186549,0.707106781186546,0.));
#1009=DIRECTION('',(0.,0.,-1.));
#1010=DIRECTION('center_axis',(0.,0.,1.));
#1011=DIRECTION('ref_axis',(-0.707106781186549,0.707106781186546,0.));
#1012=DIRECTION('center_axis',(2.42813588825017E-16,1.,0.));
#1013=DIRECTION('ref_axis',(-1.,2.42813588825017E-16,0.));
#1014=DIRECTION('',(0.,0.,1.));
#1015=DIRECTION('',(-1.,2.42813588825017E-16,0.));
#1016=DIRECTION('center_axis',(0.,0.,-1.));
#1017=DIRECTION('ref_axis',(0.707106781186548,0.707106781186547,0.));
#1018=DIRECTION('',(0.,0.,-1.));
#1019=DIRECTION('center_axis',(0.,0.,1.));
#1020=DIRECTION('ref_axis',(0.707106781186548,0.707106781186547,0.));
#1021=DIRECTION('center_axis',(0.,0.,-1.));
#1022=DIRECTION('ref_axis',(-1.,0.,0.));
#1023=DIRECTION('',(0.,1.,0.));
#1024=DIRECTION('center_axis',(0.,0.,1.));
#1025=DIRECTION('ref_axis',(0.707106781186547,-0.707106781186548,0.));
#1026=DIRECTION('',(1.,0.,0.));
#1027=DIRECTION('center_axis',(0.,0.,1.));
#1028=DIRECTION('ref_axis',(-0.707106781186547,-0.707106781186548,0.));
#1029=DIRECTION('center_axis',(0.,0.,1.));
#1030=DIRECTION('ref_axis',(-1.,0.,0.));
#1031=DIRECTION('center_axis',(0.,0.,1.));
#1032=DIRECTION('ref_axis',(1.,0.,0.));
#1033=DIRECTION('',(-1.,3.31833000130519E-9,0.));
#1034=DIRECTION('center_axis',(0.,0.,-1.));
#1035=DIRECTION('ref_axis',(1.45930521654268E-7,-0.999999999999989,0.));
#1036=DIRECTION('',(1.,3.31862203640879E-9,0.));
#1037=DIRECTION('center_axis',(0.,0.,-1.));
#1038=DIRECTION('ref_axis',(-0.00132705164805055,0.999999119466574,0.));
#1039=DIRECTION('center_axis',(1.,0.,0.));
#1040=DIRECTION('ref_axis',(0.,1.,0.));
#1041=DIRECTION('',(0.,0.,1.));
#1042=DIRECTION('center_axis',(0.,0.,1.));
#1043=DIRECTION('ref_axis',(0.707106781186547,-0.707106781186548,0.));
#1044=DIRECTION('',(0.,0.,-1.));
#1045=DIRECTION('center_axis',(0.,0.,1.));
#1046=DIRECTION('ref_axis',(-0.707106781186547,-0.707106781186548,0.));
#1047=DIRECTION('',(0.,0.,1.));
#1048=DIRECTION('center_axis',(0.,-1.,0.));
#1049=DIRECTION('ref_axis',(1.,0.,0.));
#1050=DIRECTION('center_axis',(-1.11022302462516E-16,1.,0.));
#1051=DIRECTION('ref_axis',(1.,1.11022302462516E-16,0.));
#1052=DIRECTION('',(-1.,-1.11022302462516E-16,0.));
#1053=DIRECTION('',(0.,0.,-1.));
#1054=DIRECTION('',(1.,1.11022302462516E-16,0.));
#1055=DIRECTION('',(1.,1.11022302462516E-16,0.));
#1056=DIRECTION('',(0.,0.,-1.));
#1057=DIRECTION('center_axis',(0.,0.,-1.));
#1058=DIRECTION('ref_axis',(1.,0.,0.));
#1059=DIRECTION('',(0.,1.,0.));
#1060=DIRECTION('center_axis',(0.,0.,1.));
#1061=DIRECTION('ref_axis',(-1.,0.,0.));
#1062=DIRECTION('center_axis',(0.,0.,-1.));
#1063=DIRECTION('ref_axis',(1.,0.,0.));
#1064=DIRECTION('',(-1.,0.,0.));
#1065=DIRECTION('center_axis',(0.,0.,1.));
#1066=DIRECTION('ref_axis',(-1.,0.,0.));
#1067=DIRECTION('',(0.,1.,0.));
#1068=DIRECTION('center_axis',(0.,0.,-1.));
#1069=DIRECTION('ref_axis',(1.,0.,0.));
#1070=DIRECTION('',(0.,-1.,0.));
#1071=DIRECTION('center_axis',(0.,0.,1.));
#1072=DIRECTION('ref_axis',(-1.,0.,0.));
#1073=DIRECTION('center_axis',(0.,-1.,0.));
#1074=DIRECTION('ref_axis',(-1.,0.,0.));
#1075=DIRECTION('',(1.,0.,0.));
#1076=DIRECTION('',(0.,0.,-1.));
#1077=DIRECTION('',(-1.,0.,0.));
#1078=DIRECTION('',(0.,0.,-1.));
#1079=DIRECTION('center_axis',(0.,0.,-1.));
#1080=DIRECTION('ref_axis',(1.,0.,0.));
#1081=DIRECTION('',(0.,-1.,0.));
#1082=DIRECTION('center_axis',(0.,0.,1.));
#1083=DIRECTION('ref_axis',(-1.,0.,0.));
#1084=DIRECTION('center_axis',(0.,0.,1.));
#1085=DIRECTION('ref_axis',(1.,0.,0.));
#1086=DIRECTION('',(0.,1.,0.));
#1087=DIRECTION('center_axis',(0.,0.,-1.));
#1088=DIRECTION('ref_axis',(-1.,0.,0.));
#1089=DIRECTION('center_axis',(1.,0.,0.));
#1090=DIRECTION('ref_axis',(0.,-1.,0.));
#1091=DIRECTION('',(0.,0.,-1.));
#1092=DIRECTION('',(0.,-1.,0.));
#1093=DIRECTION('',(0.,-1.,0.));
#1094=DIRECTION('',(0.,0.,-1.));
#1095=DIRECTION('center_axis',(-1.,0.,0.));
#1096=DIRECTION('ref_axis',(0.,1.,0.));
#1097=DIRECTION('',(0.,-1.,0.));
#1098=DIRECTION('',(0.,0.,-1.));
#1099=DIRECTION('',(0.,1.,0.));
#1100=DIRECTION('',(0.,1.,0.));
#1101=DIRECTION('',(0.,0.,-1.));
#1102=DIRECTION('center_axis',(0.,0.,-1.));
#1103=DIRECTION('ref_axis',(1.,0.,0.));
#1104=DIRECTION('center_axis',(0.,0.,1.));
#1105=DIRECTION('ref_axis',(1.,0.,0.));
#1106=DIRECTION('center_axis',(0.,0.,-1.));
#1107=DIRECTION('ref_axis',(1.,0.,0.));
#1108=DIRECTION('center_axis',(0.,0.,1.));
#1109=DIRECTION('ref_axis',(1.,0.,0.));
#1110=DIRECTION('center_axis',(0.,0.,1.));
#1111=DIRECTION('ref_axis',(1.,0.,0.));
#1112=DIRECTION('center_axis',(0.,0.,-1.));
#1113=DIRECTION('ref_axis',(-1.,0.,0.));
#1114=DIRECTION('center_axis',(0.,0.,-1.));
#1115=DIRECTION('ref_axis',(-1.,0.,0.));
#1116=DIRECTION('center_axis',(0.,0.,-1.));
#1117=DIRECTION('ref_axis',(-1.,0.,0.));
#1118=DIRECTION('',(0.,0.,-1.));
#1119=DIRECTION('center_axis',(0.,0.,1.));
#1120=DIRECTION('ref_axis',(-1.,0.,0.));
#1121=DIRECTION('',(0.,0.,1.));
#1122=DIRECTION('center_axis',(0.,1.,0.));
#1123=DIRECTION('ref_axis',(1.,0.,0.));
#1124=DIRECTION('',(-1.,0.,0.));
#1125=DIRECTION('',(0.,0.,-1.));
#1126=DIRECTION('',(1.,0.,0.));
#1127=DIRECTION('',(1.,0.,0.));
#1128=DIRECTION('',(0.,0.,-1.));
#1129=DIRECTION('center_axis',(0.,0.,1.));
#1130=DIRECTION('ref_axis',(-1.,0.,0.));
#1131=DIRECTION('',(0.,1.,0.));
#1132=DIRECTION('',(-1.,1.11022302462516E-16,0.));
#1133=DIRECTION('center_axis',(0.,0.,1.));
#1134=DIRECTION('ref_axis',(1.,0.,0.));
#1135=DIRECTION('center_axis',(0.,0.,1.));
#1136=DIRECTION('ref_axis',(-1.,0.,0.));
#1137=DIRECTION('',(0.,1.,0.));
#1138=DIRECTION('center_axis',(0.,0.,1.));
#1139=DIRECTION('ref_axis',(1.,0.,0.));
#1140=DIRECTION('center_axis',(-1.11022302462516E-16,-1.,0.));
#1141=DIRECTION('ref_axis',(-1.,1.11022302462516E-16,0.));
#1142=DIRECTION('',(1.,-1.11022302462516E-16,0.));
#1143=DIRECTION('',(0.,0.,-1.));
#1144=DIRECTION('',(-1.,1.11022302462516E-16,0.));
#1145=DIRECTION('',(0.,0.,-1.));
#1146=DIRECTION('center_axis',(0.,0.,1.));
#1147=DIRECTION('ref_axis',(-1.,0.,0.));
#1148=DIRECTION('',(0.,-1.,0.));
#1149=DIRECTION('center_axis',(0.,0.,1.));
#1150=DIRECTION('ref_axis',(1.,0.,0.));
#1151=DIRECTION('center_axis',(0.,0.,1.));
#1152=DIRECTION('ref_axis',(-1.,0.,0.));
#1153=DIRECTION('',(0.,-1.,0.));
#1154=DIRECTION('center_axis',(0.,0.,1.));
#1155=DIRECTION('ref_axis',(1.,0.,0.));
#1156=DIRECTION('center_axis',(0.,0.,1.));
#1157=DIRECTION('ref_axis',(1.,0.,0.));
#1158=DIRECTION('',(0.,1.,0.));
#1159=DIRECTION('center_axis',(0.,0.,-1.));
#1160=DIRECTION('ref_axis',(1.,0.,0.));
#1161=DIRECTION('center_axis',(0.,0.,-1.));
#1162=DIRECTION('ref_axis',(1.,0.,0.));
#1163=DIRECTION('center_axis',(1.,0.,0.));
#1164=DIRECTION('ref_axis',(0.,-1.,0.));
#1165=DIRECTION('',(0.,-1.,0.));
#1166=DIRECTION('',(0.,0.,-1.));
#1167=DIRECTION('',(0.,-1.,0.));
#1168=DIRECTION('',(0.,-1.,0.));
#1169=DIRECTION('',(0.,0.,-1.));
#1170=DIRECTION('center_axis',(-1.,0.,0.));
#1171=DIRECTION('ref_axis',(0.,1.,0.));
#1172=DIRECTION('',(0.,0.,-1.));
#1173=DIRECTION('',(0.,1.,0.));
#1174=DIRECTION('',(0.,1.,0.));
#1175=DIRECTION('',(0.,0.,-1.));
#1176=DIRECTION('center_axis',(0.,0.,1.));
#1177=DIRECTION('ref_axis',(-1.,0.,0.));
#1178=DIRECTION('center_axis',(0.,0.,-1.));
#1179=DIRECTION('ref_axis',(-1.,0.,0.));
#1180=DIRECTION('center_axis',(0.,0.,1.));
#1181=DIRECTION('ref_axis',(-1.,0.,0.));
#1182=DIRECTION('center_axis',(0.,0.,-1.));
#1183=DIRECTION('ref_axis',(-1.,0.,0.));
#1184=DIRECTION('center_axis',(0.,0.,-1.));
#1185=DIRECTION('ref_axis',(1.,0.,0.));
#1186=DIRECTION('',(0.,0.,-1.));
#1187=DIRECTION('center_axis',(0.,0.,-1.));
#1188=DIRECTION('ref_axis',(1.,0.,0.));
#1189=DIRECTION('center_axis',(0.,0.,1.));
#1190=DIRECTION('ref_axis',(1.,0.,0.));
#1191=DIRECTION('center_axis',(0.,0.,1.));
#1192=DIRECTION('ref_axis',(1.,0.,0.));
#1193=DIRECTION('',(0.,0.,1.));
#1194=DIRECTION('center_axis',(3.31862203640879E-9,-1.,0.));
#1195=DIRECTION('ref_axis',(-1.,-3.31862203640879E-9,0.));
#1196=DIRECTION('',(0.,0.,-1.));
#1197=DIRECTION('',(1.,3.31862203640879E-9,0.));
#1198=DIRECTION('',(0.,0.,-1.));
#1199=DIRECTION('center_axis',(0.,0.,-1.));
#1200=DIRECTION('ref_axis',(1.45930521654268E-7,-0.999999999999989,0.));
#1201=DIRECTION('',(0.,0.,-1.));
#1202=DIRECTION('center_axis',(0.,0.,-1.));
#1203=DIRECTION('ref_axis',(1.45930521654268E-7,-0.999999999999989,0.));
#1204=DIRECTION('center_axis',(3.31833000130519E-9,1.,0.));
#1205=DIRECTION('ref_axis',(1.,-3.31833000130519E-9,0.));
#1206=DIRECTION('',(0.,0.,-1.));
#1207=DIRECTION('',(-1.,3.31833000130519E-9,0.));
#1208=DIRECTION('center_axis',(0.,0.,-1.));
#1209=DIRECTION('ref_axis',(-0.00132705164805055,0.999999119466574,0.));
#1210=DIRECTION('center_axis',(0.,0.,-1.));
#1211=DIRECTION('ref_axis',(-0.00132705164805055,0.999999119466574,0.));
#1212=DIRECTION('center_axis',(6.08889609419122E-15,-1.,0.));
#1213=DIRECTION('ref_axis',(1.,6.08889609419122E-15,0.));
#1214=DIRECTION('',(1.,6.08889609419122E-15,0.));
#1215=DIRECTION('',(0.,0.,1.));
#1216=DIRECTION('center_axis',(0.,0.,1.));
#1217=DIRECTION('ref_axis',(-8.66515531413664E-15,-1.,0.));
#1218=DIRECTION('center_axis',(0.,0.,-1.));
#1219=DIRECTION('ref_axis',(-8.66515531413664E-15,-1.,0.));
#1220=DIRECTION('center_axis',(0.,0.,1.));
#1221=DIRECTION('ref_axis',(1.,0.,0.));
#1222=CARTESIAN_POINT('',(0.,0.,0.));
#1223=CARTESIAN_POINT('Origin',(-2.35367281220533E-13,5.71764857681956E-14,
0.65));
#1224=CARTESIAN_POINT('',(17.575469581373,5.00000000000011,0.65));
#1225=CARTESIAN_POINT('',(20.575469581373,2.00000000000011,0.65));
#1226=CARTESIAN_POINT('Origin',(17.575469581373,2.00000000000011,0.65));
#1227=CARTESIAN_POINT('',(-17.5754695813735,5.00000000000011,0.65));
#1228=CARTESIAN_POINT('',(10.2877347906864,5.00000000000011,0.65));
#1229=CARTESIAN_POINT('',(-20.5754695813735,2.00000000000011,0.65));
#1230=CARTESIAN_POINT('Origin',(-17.5754695813735,2.00000000000011,0.65));
#1231=CARTESIAN_POINT('',(-20.5754695813735,-2.00000000000001,0.65));
#1232=CARTESIAN_POINT('',(-20.5754695813735,2.50000000000006,0.65));
#1233=CARTESIAN_POINT('',(-17.5754695813735,-5.,0.65));
#1234=CARTESIAN_POINT('Origin',(-17.5754695813735,-2.,0.65));
#1235=CARTESIAN_POINT('',(17.575469581373,-5.,0.65));
#1236=CARTESIAN_POINT('',(-10.2877347906868,-5.,0.65));
#1237=CARTESIAN_POINT('',(20.575469581373,-2.,0.65));
#1238=CARTESIAN_POINT('Origin',(17.575469581373,-2.,0.65));
#1239=CARTESIAN_POINT('',(20.575469581373,-2.49999999999997,0.65));
#1240=CARTESIAN_POINT('',(-15.575469581373,0.,0.65));
#1241=CARTESIAN_POINT('Origin',(-17.575469581373,0.,0.65));
#1242=CARTESIAN_POINT('',(15.575469581373,0.,0.65));
#1243=CARTESIAN_POINT('Origin',(17.575469581373,0.,0.65));
#1244=CARTESIAN_POINT('',(-10.5754695814203,-3.07499999999986,0.65));
#1245=CARTESIAN_POINT('',(10.575469581373,-3.07500000000007,0.65));
#1246=CARTESIAN_POINT('',(5.28773479068636,-3.07500000000002,0.65));
#1247=CARTESIAN_POINT('',(-10.5754695813727,3.07499999999994,0.65));
#1248=CARTESIAN_POINT('Origin',(-10.5708181677055,0.,0.65));
#1249=CARTESIAN_POINT('',(10.575469581373,3.07500000000768,0.65));
#1250=CARTESIAN_POINT('',(-5.28773479068647,3.07499999999997,0.65));
#1251=CARTESIAN_POINT('Origin',(10.575469581373,3.80999381445329E-12,0.65));
#1252=CARTESIAN_POINT('Origin',(-10.5708181677055,0.,0.));
#1253=CARTESIAN_POINT('',(-10.5754695814203,-3.07499999999986,0.));
#1254=CARTESIAN_POINT('',(-10.5754695814203,-3.07499999999986,0.));
#1255=CARTESIAN_POINT('',(-10.5754695813727,3.07499999999994,0.));
#1256=CARTESIAN_POINT('Origin',(-10.5708181677055,0.,0.));
#1257=CARTESIAN_POINT('',(-10.5754695813727,3.07499999999994,0.));
#1258=CARTESIAN_POINT('Origin',(10.575469581373,-3.07500000000007,0.));
#1259=CARTESIAN_POINT('',(10.575469581373,-3.07500000000007,0.));
#1260=CARTESIAN_POINT('',(10.575469581373,-3.07500000000007,0.));
#1261=CARTESIAN_POINT('',(10.575469581373,-3.07500000000007,0.));
#1262=CARTESIAN_POINT('Origin',(-20.5754695813735,5.00000000000012,0.));
#1263=CARTESIAN_POINT('',(-20.5754695813735,2.00000000000011,-3.6));
#1264=CARTESIAN_POINT('',(-20.5754695813735,2.00000000000011,0.));
#1265=CARTESIAN_POINT('',(-20.5754695813735,-2.00000000000001,-3.6));
#1266=CARTESIAN_POINT('',(-20.5754695813735,-2.5,-3.6));
#1267=CARTESIAN_POINT('',(-20.5754695813735,-2.00000000000001,0.));
#1268=CARTESIAN_POINT('Origin',(-17.5754695813735,2.00000000000011,0.));
#1269=CARTESIAN_POINT('',(-17.5754695813735,5.00000000000012,-3.6));
#1270=CARTESIAN_POINT('',(-17.5754695813735,5.00000000000012,0.));
#1271=CARTESIAN_POINT('Origin',(-17.5754695813735,2.00000000000011,-3.6));
#1272=CARTESIAN_POINT('Origin',(20.575469581373,5.00000000000011,0.));
#1273=CARTESIAN_POINT('',(17.575469581373,5.00000000000011,-3.6));
#1274=CARTESIAN_POINT('',(17.575469581373,5.00000000000011,0.));
#1275=CARTESIAN_POINT('',(-10.2877347906869,5.00000000000011,-3.6));
#1276=CARTESIAN_POINT('Origin',(17.575469581373,2.00000000000011,0.));
#1277=CARTESIAN_POINT('',(20.575469581373,2.00000000000011,-3.6));
#1278=CARTESIAN_POINT('',(20.575469581373,2.00000000000011,0.));
#1279=CARTESIAN_POINT('Origin',(17.575469581373,2.00000000000011,-3.6));
#1280=CARTESIAN_POINT('Origin',(-2.35367281220533E-13,5.71764857681956E-14,
-3.6));
#1281=CARTESIAN_POINT('',(20.575469581373,-2.,-3.6));
#1282=CARTESIAN_POINT('',(20.575469581373,2.50000000000008,-3.6));
#1283=CARTESIAN_POINT('',(17.575469581373,-5.,-3.6));
#1284=CARTESIAN_POINT('Origin',(17.575469581373,-2.,-3.6));
#1285=CARTESIAN_POINT('',(-17.5754695813735,-5.,-3.6));
#1286=CARTESIAN_POINT('',(10.2877347906864,-5.,-3.6));
#1287=CARTESIAN_POINT('Origin',(-17.5754695813735,-2.,-3.6));
#1288=CARTESIAN_POINT('',(-16.325469581373,1.53080849893419E-16,-3.6));
#1289=CARTESIAN_POINT('Origin',(-17.575469581373,0.,-3.6));
#1290=CARTESIAN_POINT('',(16.325469581373,-1.53080849893419E-16,-3.6));
#1291=CARTESIAN_POINT('Origin',(17.575469581373,0.,-3.6));
#1292=CARTESIAN_POINT('',(10.5754701760399,-4.07500000000012,-3.6));
#1293=CARTESIAN_POINT('',(-10.5762259086542,-4.07499992981176,-3.6));
#1294=CARTESIAN_POINT('',(-5.28811296108833,-4.07499994735946,-3.6));
#1295=CARTESIAN_POINT('',(10.5754714954972,4.07500000000733,-3.6));
#1296=CARTESIAN_POINT('Origin',(10.575469581373,3.80999381445329E-12,-3.6));
#1297=CARTESIAN_POINT('',(-10.5762259078398,4.07499992981284,-3.6));
#1298=CARTESIAN_POINT('',(5.28773574098677,4.07499998245933,-3.6));
#1299=CARTESIAN_POINT('Origin',(-10.5708181677055,0.,-3.6));
#1300=CARTESIAN_POINT('Origin',(20.575469581373,-5.,0.));
#1301=CARTESIAN_POINT('',(20.575469581373,-2.,0.));
#1302=CARTESIAN_POINT('Origin',(17.575469581373,-2.,0.));
#1303=CARTESIAN_POINT('',(17.575469581373,-5.,0.));
#1304=CARTESIAN_POINT('Origin',(-17.5754695813735,-2.,0.));
#1305=CARTESIAN_POINT('',(-17.5754695813735,-5.,0.));
#1306=CARTESIAN_POINT('Origin',(-20.5754695813735,-5.,0.));
#1307=CARTESIAN_POINT('Origin',(-18.825469581373,-1.25,-1.35));
#1308=CARTESIAN_POINT('',(-16.325469581373,-1.25,-1.55));
#1309=CARTESIAN_POINT('',(-18.825469581373,-1.25,-1.55));
#1310=CARTESIAN_POINT('',(-18.825469581373,-1.25,-1.55));
#1311=CARTESIAN_POINT('',(-16.325469581373,-1.25,-1.75));
#1312=CARTESIAN_POINT('',(-16.325469581373,-1.25,-1.35));
#1313=CARTESIAN_POINT('',(-17.5754695753015,-1.25,-1.75));
#1314=CARTESIAN_POINT('',(-18.825469581373,-1.25,-1.75));
#1315=CARTESIAN_POINT('',(-18.825469581373,-1.25,-1.75));
#1316=CARTESIAN_POINT('',(-18.825469581373,-1.25,-1.75));
#1317=CARTESIAN_POINT('',(-18.825469581373,-1.25,-1.35));
#1318=CARTESIAN_POINT('Origin',(-16.9504695783373,-0.625,-1.75));
#1319=CARTESIAN_POINT('',(-16.325469581373,0.,-1.75));
#1320=CARTESIAN_POINT('',(-16.325469581373,-1.5612494995996,-1.75));
#1321=CARTESIAN_POINT('Origin',(-17.575469581373,0.,-1.75));
#1322=CARTESIAN_POINT('Origin',(-16.950469581373,0.625,-1.75));
#1323=CARTESIAN_POINT('',(-16.325469581373,1.25,-1.75));
#1324=CARTESIAN_POINT('',(-17.575469581373,1.25,-1.75));
#1325=CARTESIAN_POINT('',(-18.825469581373,1.25,-1.75));
#1326=CARTESIAN_POINT('Origin',(-17.575469581373,0.,-1.75));
#1327=CARTESIAN_POINT('',(-16.325469581373,-1.5612494995996,-1.75));
#1328=CARTESIAN_POINT('Origin',(-18.2004695783373,-0.625,-1.75));
#1329=CARTESIAN_POINT('',(-18.825469581373,-2.77555756156289E-16,-1.75));
#1330=CARTESIAN_POINT('',(-18.825469581373,-1.5612494995996,-1.75));
#1331=CARTESIAN_POINT('Origin',(-17.575469581373,0.,-1.75));
#1332=CARTESIAN_POINT('Origin',(-17.575469581373,1.25,-1.35));
#1333=CARTESIAN_POINT('',(-18.825469581373,1.25,-1.55));
#1334=CARTESIAN_POINT('',(-16.325469581373,1.25,-1.55));
#1335=CARTESIAN_POINT('',(-18.825469581373,1.25,-1.55));
#1336=CARTESIAN_POINT('',(-18.825469581373,1.25,-1.75));
#1337=CARTESIAN_POINT('',(-18.825469581373,1.25,-1.35));
#1338=CARTESIAN_POINT('',(-18.825469581373,1.25,-1.75));
#1339=CARTESIAN_POINT('',(-16.325469581373,1.25,-1.35));
#1340=CARTESIAN_POINT('Origin',(-18.200469581373,0.625,-1.75));
#1341=CARTESIAN_POINT('',(-18.825469581373,-1.5612494995996,-1.75));
#1342=CARTESIAN_POINT('Origin',(-17.575469581373,0.,-1.75));
#1343=CARTESIAN_POINT('Origin',(-17.575469581373,0.,-1.35));
#1344=CARTESIAN_POINT('',(-18.825469581373,-1.5612494995996,-1.35));
#1345=CARTESIAN_POINT('',(-18.825469581373,1.5612494995996,-1.35));
#1346=CARTESIAN_POINT('',(-18.825469581373,-0.625,-1.35));
#1347=CARTESIAN_POINT('Origin',(-17.575469581373,0.,-1.35));
#1348=CARTESIAN_POINT('Origin',(-18.825469581373,-1.25,-1.35));
#1349=CARTESIAN_POINT('',(-18.825469581373,-1.5612494995996,-1.55));
#1350=CARTESIAN_POINT('',(-18.825469581373,-1.5612494995996,-1.35));
#1351=CARTESIAN_POINT('',(-18.825469581373,-1.5612494995996,-1.55));
#1352=CARTESIAN_POINT('',(-18.825469581373,1.5612494995996,-1.55));
#1353=CARTESIAN_POINT('',(-18.825469581373,-1.5612494995996,-1.55));
#1354=CARTESIAN_POINT('',(-18.825469581373,1.5612494995996,-1.35));
#1355=CARTESIAN_POINT('Origin',(-16.325469581373,-1.5612494995996,-1.35));
#1356=CARTESIAN_POINT('',(-16.325469581373,1.5612494995996,-1.35));
#1357=CARTESIAN_POINT('',(-16.325469581373,-1.5612494995996,-1.35));
#1358=CARTESIAN_POINT('',(-16.325469581373,0.625,-1.35));
#1359=CARTESIAN_POINT('',(-16.325469581373,1.5612494995996,-1.55));
#1360=CARTESIAN_POINT('',(-16.325469581373,1.5612494995996,-1.35));
#1361=CARTESIAN_POINT('',(-16.325469581373,-1.5612494995996,-1.55));
#1362=CARTESIAN_POINT('',(-16.325469581373,-1.5612494995996,-1.55));
#1363=CARTESIAN_POINT('',(-16.325469581373,-1.5612494995996,-1.55));
#1364=CARTESIAN_POINT('',(-16.325469581373,-1.5612494995996,-1.35));
#1365=CARTESIAN_POINT('Origin',(-17.575469581373,-1.625,-1.55));
#1366=CARTESIAN_POINT('Origin',(-17.575469581373,0.,-1.55));
#1367=CARTESIAN_POINT('Origin',(-17.575469581373,1.625,-1.55));
#1368=CARTESIAN_POINT('Origin',(-17.575469581373,0.,-1.55));
#1369=CARTESIAN_POINT('Origin',(-17.575469581373,0.,-1.35));
#1370=CARTESIAN_POINT('',(-15.575469581373,-2.44929359829471E-16,-1.35));
#1371=CARTESIAN_POINT('Origin',(-17.575469581373,0.,-1.35));
#1372=CARTESIAN_POINT('Origin',(-17.575469581373,0.,-1.35));
#1373=CARTESIAN_POINT('Origin',(-17.575469581373,0.,1.15));
#1374=CARTESIAN_POINT('',(-15.575469581373,-2.44929359829471E-16,1.15));
#1375=CARTESIAN_POINT('Origin',(-17.575469581373,0.,0.));
#1376=CARTESIAN_POINT('',(-16.325469581373,1.53080849893419E-16,0.));
#1377=CARTESIAN_POINT('Origin',(16.325469581373,1.25,-1.35));
#1378=CARTESIAN_POINT('',(18.825469581373,1.25,-1.55));
#1379=CARTESIAN_POINT('',(16.325469581373,1.25,-1.55));
#1380=CARTESIAN_POINT('',(18.825469581373,1.25,-1.55));
#1381=CARTESIAN_POINT('',(16.325469581373,1.25,-1.75));
#1382=CARTESIAN_POINT('',(16.325469581373,1.25,-1.35));
#1383=CARTESIAN_POINT('',(17.575469581373,1.25,-1.75));
#1384=CARTESIAN_POINT('',(18.825469581373,1.25,-1.75));
#1385=CARTESIAN_POINT('',(18.825469581373,1.25,-1.75));
#1386=CARTESIAN_POINT('',(18.825469581373,1.25,-1.75));
#1387=CARTESIAN_POINT('',(18.825469581373,1.25,-1.35));
#1388=CARTESIAN_POINT('Origin',(16.9504695783373,-0.625,-1.75));
#1389=CARTESIAN_POINT('',(16.325469581373,-1.25,-1.75));
#1390=CARTESIAN_POINT('',(16.325469581373,0.,-1.75));
#1391=CARTESIAN_POINT('',(16.325469581373,-1.5612494995996,-1.75));
#1392=CARTESIAN_POINT('',(17.5754695753015,-1.25,-1.75));
#1393=CARTESIAN_POINT('',(18.825469581373,-1.25,-1.75));
#1394=CARTESIAN_POINT('Origin',(17.575469581373,0.,-1.75));
#1395=CARTESIAN_POINT('Origin',(16.950469581373,0.625,-1.75));
#1396=CARTESIAN_POINT('',(16.325469581373,-1.5612494995996,-1.75));
#1397=CARTESIAN_POINT('Origin',(17.575469581373,0.,-1.75));
#1398=CARTESIAN_POINT('Origin',(18.825469581373,-1.25,-1.35));
#1399=CARTESIAN_POINT('',(16.325469581373,-1.25,-1.55));
#1400=CARTESIAN_POINT('',(18.825469581373,-1.25,-1.55));
#1401=CARTESIAN_POINT('',(18.825469581373,-1.25,-1.55));
#1402=CARTESIAN_POINT('',(18.825469581373,-1.25,-1.75));
#1403=CARTESIAN_POINT('',(18.825469581373,-1.25,-1.35));
#1404=CARTESIAN_POINT('',(18.825469581373,-1.25,-1.75));
#1405=CARTESIAN_POINT('',(16.325469581373,-1.25,-1.35));
#1406=CARTESIAN_POINT('Origin',(18.2004695783373,-0.625,-1.75));
#1407=CARTESIAN_POINT('',(18.825469581373,-2.77555756156289E-16,-1.75));
#1408=CARTESIAN_POINT('',(18.825469581373,-1.5612494995996,-1.75));
#1409=CARTESIAN_POINT('Origin',(17.575469581373,0.,-1.75));
#1410=CARTESIAN_POINT('Origin',(18.200469581373,0.625,-1.75));
#1411=CARTESIAN_POINT('',(18.825469581373,-1.5612494995996,-1.75));
#1412=CARTESIAN_POINT('Origin',(17.575469581373,0.,-1.75));
#1413=CARTESIAN_POINT('Origin',(17.575469581373,0.,-1.35));
#1414=CARTESIAN_POINT('',(16.325469581373,-1.5612494995996,-1.35));
#1415=CARTESIAN_POINT('',(16.325469581373,1.5612494995996,-1.35));
#1416=CARTESIAN_POINT('',(16.325469581373,0.625,-1.35));
#1417=CARTESIAN_POINT('',(15.575469581373,2.44929359829471E-16,-1.35));
#1418=CARTESIAN_POINT('Origin',(17.575469581373,0.,-1.35));
#1419=CARTESIAN_POINT('Origin',(17.575469581373,0.,-1.35));
#1420=CARTESIAN_POINT('Origin',(18.825469581373,-1.25,-1.35));
#1421=CARTESIAN_POINT('',(18.825469581373,1.5612494995996,-1.35));
#1422=CARTESIAN_POINT('',(18.825469581373,-1.5612494995996,-1.35));
#1423=CARTESIAN_POINT('',(18.825469581373,-0.625,-1.35));
#1424=CARTESIAN_POINT('',(18.825469581373,1.5612494995996,-1.55));
#1425=CARTESIAN_POINT('',(18.825469581373,1.5612494995996,-1.35));
#1426=CARTESIAN_POINT('',(18.825469581373,-1.5612494995996,-1.55));
#1427=CARTESIAN_POINT('',(18.825469581373,-1.5612494995996,-1.55));
#1428=CARTESIAN_POINT('',(18.825469581373,-1.5612494995996,-1.55));
#1429=CARTESIAN_POINT('',(18.825469581373,-1.5612494995996,-1.35));
#1430=CARTESIAN_POINT('Origin',(16.325469581373,-1.5612494995996,-1.35));
#1431=CARTESIAN_POINT('',(16.325469581373,-1.5612494995996,-1.55));
#1432=CARTESIAN_POINT('',(16.325469581373,-1.5612494995996,-1.35));
#1433=CARTESIAN_POINT('',(16.325469581373,-1.5612494995996,-1.55));
#1434=CARTESIAN_POINT('',(16.325469581373,1.5612494995996,-1.55));
#1435=CARTESIAN_POINT('',(16.325469581373,-1.5612494995996,-1.55));
#1436=CARTESIAN_POINT('',(16.325469581373,1.5612494995996,-1.35));
#1437=CARTESIAN_POINT('Origin',(17.575469581373,-1.625,-1.55));
#1438=CARTESIAN_POINT('Origin',(17.575469581373,0.,-1.55));
#1439=CARTESIAN_POINT('Origin',(17.575469581373,1.625,-1.55));
#1440=CARTESIAN_POINT('Origin',(17.575469581373,0.,-1.55));
#1441=CARTESIAN_POINT('Origin',(17.575469581373,0.,1.15));
#1442=CARTESIAN_POINT('',(15.575469581373,2.44929359829471E-16,1.15));
#1443=CARTESIAN_POINT('Origin',(17.575469581373,0.,-1.35));
#1444=CARTESIAN_POINT('Origin',(17.575469581373,0.,-1.35));
#1445=CARTESIAN_POINT('Origin',(17.575469581373,0.,0.));
#1446=CARTESIAN_POINT('',(16.325469581373,-1.53080849893419E-16,0.));
#1447=CARTESIAN_POINT('Origin',(10.5754714954972,4.07500000000733,0.));
#1448=CARTESIAN_POINT('',(10.5754714954972,4.07500000000733,0.));
#1449=CARTESIAN_POINT('',(10.5754714954972,4.07500000000733,0.));
#1450=CARTESIAN_POINT('',(-10.5762259078398,4.07499992981284,0.));
#1451=CARTESIAN_POINT('',(5.28773574098677,4.07499998245933,0.));
#1452=CARTESIAN_POINT('',(-10.5762259078398,4.07499992981284,0.));
#1453=CARTESIAN_POINT('Origin',(10.575469581373,3.80999381445329E-12,0.));
#1454=CARTESIAN_POINT('',(10.5754701760399,-4.07500000000012,0.));
#1455=CARTESIAN_POINT('',(10.5754701760399,-4.07500000000012,0.));
#1456=CARTESIAN_POINT('Origin',(10.575469581373,3.80999381445329E-12,0.));
#1457=CARTESIAN_POINT('Origin',(-10.5762259086542,-4.07499992981176,0.));
#1458=CARTESIAN_POINT('',(-10.5762259086542,-4.07499992981176,0.));
#1459=CARTESIAN_POINT('',(-10.5762259086542,-4.07499992981176,0.));
#1460=CARTESIAN_POINT('',(-5.28811296108833,-4.07499994735946,0.));
#1461=CARTESIAN_POINT('Origin',(-10.5708181677055,0.,0.));
#1462=CARTESIAN_POINT('Origin',(-10.5708181677055,0.,0.));
#1463=CARTESIAN_POINT('Origin',(-10.5754695813727,3.07499999999994,0.));
#1464=CARTESIAN_POINT('',(10.575469581373,3.07500000000768,0.));
#1465=CARTESIAN_POINT('',(-10.5754695813727,3.07499999999994,0.));
#1466=CARTESIAN_POINT('',(10.575469581373,3.07500000000768,0.));
#1467=CARTESIAN_POINT('Origin',(10.575469581373,3.80999381445329E-12,0.));
#1468=CARTESIAN_POINT('Origin',(10.575469581373,3.80999381445329E-12,0.));
#1469=CARTESIAN_POINT('Origin',(-2.35367281220533E-13,5.6621374255883E-14,
0.));
#1470=UNCERTAINTY_MEASURE_WITH_UNIT(LENGTH_MEASURE(0.01),#1474,
'DISTANCE_ACCURACY_VALUE',
'Maximum model space distance between geometric entities at asserted c
onnectivities');
#1471=UNCERTAINTY_MEASURE_WITH_UNIT(LENGTH_MEASURE(0.01),#1474,
'DISTANCE_ACCURACY_VALUE',
'Maximum model space distance between geometric entities at asserted c
onnectivities');
#1472=(
GEOMETRIC_REPRESENTATION_CONTEXT(3)
GLOBAL_UNCERTAINTY_ASSIGNED_CONTEXT((#1470))
GLOBAL_UNIT_ASSIGNED_CONTEXT((#1474,#1476,#1477))
REPRESENTATION_CONTEXT('','3D')
);
#1473=(
GEOMETRIC_REPRESENTATION_CONTEXT(3)
GLOBAL_UNCERTAINTY_ASSIGNED_CONTEXT((#1471))
GLOBAL_UNIT_ASSIGNED_CONTEXT((#1474,#1476,#1477))
REPRESENTATION_CONTEXT('','3D')
);
#1474=(
LENGTH_UNIT()
NAMED_UNIT(*)
SI_UNIT(.MILLI.,.METRE.)
);
#1475=(
LENGTH_UNIT()
NAMED_UNIT(*)
SI_UNIT($,.METRE.)
);
#1476=(
NAMED_UNIT(*)
PLANE_ANGLE_UNIT()
SI_UNIT($,.RADIAN.)
);
#1477=(
NAMED_UNIT(*)
SI_UNIT($,.STERADIAN.)
SOLID_ANGLE_UNIT()
);
#1478=SHAPE_DEFINITION_REPRESENTATION(#1479,#1480);
#1479=PRODUCT_DEFINITION_SHAPE('',$,#1482);
#1480=SHAPE_REPRESENTATION('',(#880),#1472);
#1481=PRODUCT_DEFINITION_CONTEXT('part definition',#1486,'design');
#1482=PRODUCT_DEFINITION('Magnetic connecter cover_12pin',
'Magnetic connecter cover_12pin v5',#1483,#1481);
#1483=PRODUCT_DEFINITION_FORMATION('',$,#1488);
#1484=PRODUCT_RELATED_PRODUCT_CATEGORY(
'Magnetic connecter cover_12pin v5','Magnetic connecter cover_12pin v5',
(#1488));
#1485=APPLICATION_PROTOCOL_DEFINITION('international standard',
'automotive_design',2009,#1486);
#1486=APPLICATION_CONTEXT(
'Core Data for Automotive Mechanical Design Process');
#1487=PRODUCT_CONTEXT('part definition',#1486,'mechanical');
#1488=PRODUCT('Magnetic connecter cover_12pin',
'Magnetic connecter cover_12pin v5',$,(#1487));
#1489=PRESENTATION_STYLE_ASSIGNMENT((#1490));
#1490=SURFACE_STYLE_USAGE(.BOTH.,#1491);
#1491=SURFACE_SIDE_STYLE('',(#1492));
#1492=SURFACE_STYLE_FILL_AREA(#1493);
#1493=FILL_AREA_STYLE('Steel - Satin',(#1494));
#1494=FILL_AREA_STYLE_COLOUR('Steel - Satin',#1495);
#1495=COLOUR_RGB('Steel - Satin',0.627450980392157,0.627450980392157,0.627450980392157);
ENDSEC;
END-ISO-10303-21;
