ISO-10303-21;
HEADER;
/* Generated by software containing ST-Developer
 * from STEP Tools, Inc. (www.steptools.com) 
 */

FILE_DESCRIPTION(
/* description */ (''),
/* implementation_level */ '2;1');

FILE_NAME(
/* name */ 'PRT_spring_guide_capture.step',
/* time_stamp */ '2026-10-02T15:53:18-04:00',
/* author */ (''),
/* organization */ (''),
/* preprocessor_version */ 'ST-DEVELOPER v20.2',
/* originating_system */ 'Autodesk Translation Framework v15.15.0.0',
/* authorisation */ '');

FILE_SCHEMA (('AUTOMOTIVE_DESIGN { 1 0 10303 214 3 1 1 }'));
ENDSEC;

DATA;
#10=MECHANICAL_DESIGN_GEOMETRIC_PRESENTATION_REPRESENTATION('',(#13),#1659);
#11=SHAPE_REPRESENTATION_RELATIONSHIP('SRR','None',#1666,#12);
#12=ADVANCED_BREP_SHAPE_REPRESENTATION('',(#14),#1658);
#13=STYLED_ITEM('',(#1675),#14);
#14=MANIFOLD_SOLID_BREP('Body2',#899);
#15=CYLINDRICAL_SURFACE('',#947,3.35);
#16=CYLINDRICAL_SURFACE('',#949,1.6);
#17=CYLINDRICAL_SURFACE('',#969,3.35);
#18=CYLINDRICAL_SURFACE('',#973,1.6);
#19=B_SPLINE_SURFACE_WITH_KNOTS('',3,3,((#1266,#1267,#1268,#1269),(#1270,
#1271,#1272,#1273),(#1274,#1275,#1276,#1277),(#1278,#1279,#1280,#1281),
(#1282,#1283,#1284,#1285),(#1286,#1287,#1288,#1289),(#1290,#1291,#1292,
#1293),(#1294,#1295,#1296,#1297),(#1298,#1299,#1300,#1301),(#1302,#1303,
#1304,#1305),(#1306,#1307,#1308,#1309)),.UNSPECIFIED.,.F.,.F.,.F.,(4,1,
1,1,1,1,1,1,4),(4,4),(-8.14660545460651E-24,0.0702203598152552,0.0936271464203403,
0.187254292840681,0.280881439261021,0.374508585681361,0.468135732101701,
0.538356091916957,0.655390024942382),(0.,1.),.UNSPECIFIED.);
#20=B_SPLINE_SURFACE_WITH_KNOTS('',3,3,((#1384,#1385,#1386,#1387),(#1388,
#1389,#1390,#1391),(#1392,#1393,#1394,#1395),(#1396,#1397,#1398,#1399),
(#1400,#1401,#1402,#1403),(#1404,#1405,#1406,#1407),(#1408,#1409,#1410,
#1411),(#1412,#1413,#1414,#1415),(#1416,#1417,#1418,#1419),(#1420,#1421,
#1422,#1423)),.UNSPECIFIED.,.F.,.F.,.F.,(4,1,1,1,1,1,1,4),(4,4),(0.34186348557704,
0.435882987637463,0.529902489697886,0.623921991758309,0.717941493818731,
0.811960995879154,0.905980497939577,1.),(0.,1.),.UNSPECIFIED.);
#21=B_SPLINE_SURFACE_WITH_KNOTS('',3,3,((#1591,#1592,#1593,#1594),(#1595,
#1596,#1597,#1598),(#1599,#1600,#1601,#1602),(#1603,#1604,#1605,#1606)),
 .UNSPECIFIED.,.F.,.F.,.F.,(4,4),(4,4),(0.844588901761484,1.),(0.,1.),
 .UNSPECIFIED.);
#22=B_SPLINE_SURFACE_WITH_KNOTS('',3,3,((#1615,#1616,#1617,#1618),(#1619,
#1620,#1621,#1622),(#1623,#1624,#1625,#1626),(#1627,#1628,#1629,#1630)),
 .UNSPECIFIED.,.F.,.F.,.F.,(4,4),(4,4),(-2.44262078295957E-24,0.158116210209572),
(0.,1.),.UNSPECIFIED.);
#23=FACE_BOUND('',#102,.T.);
#24=FACE_BOUND('',#103,.T.);
#25=FACE_BOUND('',#145,.T.);
#26=FACE_BOUND('',#146,.T.);
#27=CIRCLE('',#918,1.6);
#28=CIRCLE('',#919,1.6);
#29=CIRCLE('',#928,1.6);
#30=CIRCLE('',#930,1.6);
#31=CIRCLE('',#933,1.6);
#32=CIRCLE('',#935,1.6);
#33=CIRCLE('',#937,3.35);
#34=CIRCLE('',#941,3.35);
#35=CIRCLE('',#943,3.35);
#36=CIRCLE('',#945,3.35);
#37=CIRCLE('',#946,3.35);
#38=CIRCLE('',#948,3.35);
#39=CIRCLE('',#952,1.6);
#40=CIRCLE('',#954,1.6);
#41=CIRCLE('',#956,1.6);
#42=CIRCLE('',#959,1.6);
#43=CIRCLE('',#961,3.35);
#44=CIRCLE('',#962,3.35);
#45=CIRCLE('',#966,3.35);
#46=CIRCLE('',#968,3.35);
#47=CIRCLE('',#970,3.35);
#48=CIRCLE('',#971,3.35);
#49=FACE_OUTER_BOUND('',#97,.T.);
#50=FACE_OUTER_BOUND('',#98,.T.);
#51=FACE_OUTER_BOUND('',#99,.T.);
#52=FACE_OUTER_BOUND('',#100,.T.);
#53=FACE_OUTER_BOUND('',#101,.T.);
#54=FACE_OUTER_BOUND('',#104,.T.);
#55=FACE_OUTER_BOUND('',#105,.T.);
#56=FACE_OUTER_BOUND('',#106,.T.);
#57=FACE_OUTER_BOUND('',#107,.T.);
#58=FACE_OUTER_BOUND('',#108,.T.);
#59=FACE_OUTER_BOUND('',#109,.T.);
#60=FACE_OUTER_BOUND('',#110,.T.);
#61=FACE_OUTER_BOUND('',#111,.T.);
#62=FACE_OUTER_BOUND('',#112,.T.);
#63=FACE_OUTER_BOUND('',#113,.T.);
#64=FACE_OUTER_BOUND('',#114,.T.);
#65=FACE_OUTER_BOUND('',#115,.T.);
#66=FACE_OUTER_BOUND('',#116,.T.);
#67=FACE_OUTER_BOUND('',#117,.T.);
#68=FACE_OUTER_BOUND('',#118,.T.);
#69=FACE_OUTER_BOUND('',#119,.T.);
#70=FACE_OUTER_BOUND('',#120,.T.);
#71=FACE_OUTER_BOUND('',#121,.T.);
#72=FACE_OUTER_BOUND('',#122,.T.);
#73=FACE_OUTER_BOUND('',#123,.T.);
#74=FACE_OUTER_BOUND('',#124,.T.);
#75=FACE_OUTER_BOUND('',#125,.T.);
#76=FACE_OUTER_BOUND('',#126,.T.);
#77=FACE_OUTER_BOUND('',#127,.T.);
#78=FACE_OUTER_BOUND('',#128,.T.);
#79=FACE_OUTER_BOUND('',#129,.T.);
#80=FACE_OUTER_BOUND('',#130,.T.);
#81=FACE_OUTER_BOUND('',#131,.T.);
#82=FACE_OUTER_BOUND('',#132,.T.);
#83=FACE_OUTER_BOUND('',#133,.T.);
#84=FACE_OUTER_BOUND('',#134,.T.);
#85=FACE_OUTER_BOUND('',#135,.T.);
#86=FACE_OUTER_BOUND('',#136,.T.);
#87=FACE_OUTER_BOUND('',#137,.T.);
#88=FACE_OUTER_BOUND('',#138,.T.);
#89=FACE_OUTER_BOUND('',#139,.T.);
#90=FACE_OUTER_BOUND('',#140,.T.);
#91=FACE_OUTER_BOUND('',#141,.T.);
#92=FACE_OUTER_BOUND('',#142,.T.);
#93=FACE_OUTER_BOUND('',#143,.T.);
#94=FACE_OUTER_BOUND('',#144,.T.);
#95=FACE_OUTER_BOUND('',#147,.T.);
#96=FACE_OUTER_BOUND('',#148,.T.);
#97=EDGE_LOOP('',(#555,#556,#557,#558,#559));
#98=EDGE_LOOP('',(#560,#561,#562));
#99=EDGE_LOOP('',(#563,#564,#565,#566,#567));
#100=EDGE_LOOP('',(#568,#569,#570));
#101=EDGE_LOOP('',(#571,#572,#573,#574));
#102=EDGE_LOOP('',(#575));
#103=EDGE_LOOP('',(#576));
#104=EDGE_LOOP('',(#577,#578,#579,#580));
#105=EDGE_LOOP('',(#581,#582,#583,#584,#585));
#106=EDGE_LOOP('',(#586,#587,#588,#589,#590));
#107=EDGE_LOOP('',(#591,#592,#593));
#108=EDGE_LOOP('',(#594,#595,#596,#597,#598));
#109=EDGE_LOOP('',(#599,#600,#601));
#110=EDGE_LOOP('',(#602,#603,#604,#605));
#111=EDGE_LOOP('',(#606,#607,#608,#609,#610));
#112=EDGE_LOOP('',(#611,#612,#613,#614,#615));
#113=EDGE_LOOP('',(#616,#617,#618));
#114=EDGE_LOOP('',(#619,#620,#621));
#115=EDGE_LOOP('',(#622,#623,#624,#625,#626));
#116=EDGE_LOOP('',(#627,#628,#629));
#117=EDGE_LOOP('',(#630,#631,#632));
#118=EDGE_LOOP('',(#633,#634));
#119=EDGE_LOOP('',(#635,#636,#637,#638,#639,#640,#641,#642,#643));
#120=EDGE_LOOP('',(#644,#645,#646,#647,#648,#649,#650,#651,#652));
#121=EDGE_LOOP('',(#653,#654,#655,#656));
#122=EDGE_LOOP('',(#657,#658,#659,#660));
#123=EDGE_LOOP('',(#661,#662,#663));
#124=EDGE_LOOP('',(#664,#665,#666,#667,#668,#669,#670,#671,#672,#673,#674,
#675));
#125=EDGE_LOOP('',(#676,#677,#678,#679,#680,#681,#682));
#126=EDGE_LOOP('',(#683,#684,#685,#686,#687));
#127=EDGE_LOOP('',(#688,#689,#690));
#128=EDGE_LOOP('',(#691,#692,#693));
#129=EDGE_LOOP('',(#694,#695,#696));
#130=EDGE_LOOP('',(#697,#698,#699,#700,#701));
#131=EDGE_LOOP('',(#702,#703,#704));
#132=EDGE_LOOP('',(#705,#706,#707));
#133=EDGE_LOOP('',(#708,#709,#710,#711,#712,#713,#714,#715,#716));
#134=EDGE_LOOP('',(#717,#718,#719,#720,#721,#722,#723,#724,#725));
#135=EDGE_LOOP('',(#726,#727,#728,#729));
#136=EDGE_LOOP('',(#730,#731,#732,#733));
#137=EDGE_LOOP('',(#734,#735,#736,#737,#738,#739,#740,#741,#742,#743,#744,
#745));
#138=EDGE_LOOP('',(#746,#747));
#139=EDGE_LOOP('',(#748,#749,#750,#751,#752,#753,#754));
#140=EDGE_LOOP('',(#755,#756,#757,#758,#759));
#141=EDGE_LOOP('',(#760,#761,#762,#763,#764));
#142=EDGE_LOOP('',(#765,#766,#767,#768));
#143=EDGE_LOOP('',(#769,#770,#771,#772));
#144=EDGE_LOOP('',(#773,#774,#775,#776));
#145=EDGE_LOOP('',(#777));
#146=EDGE_LOOP('',(#778));
#147=EDGE_LOOP('',(#779,#780,#781,#782,#783,#784,#785,#786,#787,#788,#789,
#790,#791,#792,#793,#794,#795,#796));
#148=EDGE_LOOP('',(#797,#798,#799,#800,#801,#802,#803,#804,#805,#806,#807,
#808,#809,#810));
#149=LINE('',#1214,#239);
#150=LINE('',#1216,#240);
#151=LINE('',#1218,#241);
#152=LINE('',#1219,#242);
#153=LINE('',#1226,#243);
#154=LINE('',#1237,#244);
#155=LINE('',#1239,#245);
#156=LINE('',#1241,#246);
#157=LINE('',#1242,#247);
#158=LINE('',#1249,#248);
#159=LINE('',#1252,#249);
#160=LINE('',#1254,#250);
#161=LINE('',#1255,#251);
#162=LINE('',#1262,#252);
#163=LINE('',#1264,#253);
#164=LINE('',#1265,#254);
#165=LINE('',#1323,#255);
#166=LINE('',#1345,#256);
#167=LINE('',#1347,#257);
#168=LINE('',#1349,#258);
#169=LINE('',#1350,#259);
#170=LINE('',#1357,#260);
#171=LINE('',#1368,#261);
#172=LINE('',#1369,#262);
#173=LINE('',#1370,#263);
#174=LINE('',#1377,#264);
#175=LINE('',#1380,#265);
#176=LINE('',#1382,#266);
#177=LINE('',#1383,#267);
#178=LINE('',#1436,#268);
#179=LINE('',#1450,#269);
#180=LINE('',#1452,#270);
#181=LINE('',#1454,#271);
#182=LINE('',#1456,#272);
#183=LINE('',#1457,#273);
#184=LINE('',#1461,#274);
#185=LINE('',#1464,#275);
#186=LINE('',#1467,#276);
#187=LINE('',#1472,#277);
#188=LINE('',#1473,#278);
#189=LINE('',#1475,#279);
#190=LINE('',#1476,#280);
#191=LINE('',#1478,#281);
#192=LINE('',#1482,#282);
#193=LINE('',#1486,#283);
#194=LINE('',#1490,#284);
#195=LINE('',#1491,#285);
#196=LINE('',#1493,#286);
#197=LINE('',#1494,#287);
#198=LINE('',#1498,#288);
#199=LINE('',#1500,#289);
#200=LINE('',#1501,#290);
#201=LINE('',#1503,#291);
#202=LINE('',#1504,#292);
#203=LINE('',#1516,#293);
#204=LINE('',#1518,#294);
#205=LINE('',#1522,#295);
#206=LINE('',#1524,#296);
#207=LINE('',#1526,#297);
#208=LINE('',#1528,#298);
#209=LINE('',#1529,#299);
#210=LINE('',#1532,#300);
#211=LINE('',#1537,#301);
#212=LINE('',#1539,#302);
#213=LINE('',#1542,#303);
#214=LINE('',#1547,#304);
#215=LINE('',#1549,#305);
#216=LINE('',#1550,#306);
#217=LINE('',#1551,#307);
#218=LINE('',#1553,#308);
#219=LINE('',#1558,#309);
#220=LINE('',#1565,#310);
#221=LINE('',#1567,#311);
#222=LINE('',#1568,#312);
#223=LINE('',#1570,#313);
#224=LINE('',#1571,#314);
#225=LINE('',#1574,#315);
#226=LINE('',#1575,#316);
#227=LINE('',#1577,#317);
#228=LINE('',#1578,#318);
#229=LINE('',#1586,#319);
#230=LINE('',#1590,#320);
#231=LINE('',#1641,#321);
#232=LINE('',#1643,#322);
#233=LINE('',#1644,#323);
#234=LINE('',#1647,#324);
#235=LINE('',#1649,#325);
#236=LINE('',#1650,#326);
#237=LINE('',#1652,#327);
#238=LINE('',#1653,#328);
#239=VECTOR('',#983,10.);
#240=VECTOR('',#984,10.);
#241=VECTOR('',#985,10.);
#242=VECTOR('',#986,10.);
#243=VECTOR('',#989,10.);
#244=VECTOR('',#992,10.);
#245=VECTOR('',#993,10.);
#246=VECTOR('',#994,10.);
#247=VECTOR('',#995,10.);
#248=VECTOR('',#998,10.);
#249=VECTOR('',#1001,10.);
#250=VECTOR('',#1002,10.);
#251=VECTOR('',#1003,10.);
#252=VECTOR('',#1010,10.);
#253=VECTOR('',#1011,10.);
#254=VECTOR('',#1012,10.);
#255=VECTOR('',#1013,9.31950789526792);
#256=VECTOR('',#1016,10.);
#257=VECTOR('',#1017,10.);
#258=VECTOR('',#1018,10.);
#259=VECTOR('',#1019,10.);
#260=VECTOR('',#1022,10.);
#261=VECTOR('',#1025,10.);
#262=VECTOR('',#1026,10.);
#263=VECTOR('',#1027,10.);
#264=VECTOR('',#1030,10.);
#265=VECTOR('',#1033,10.);
#266=VECTOR('',#1034,10.);
#267=VECTOR('',#1035,10.);
#268=VECTOR('',#1036,9.55140845851016);
#269=VECTOR('',#1039,10.);
#270=VECTOR('',#1040,10.);
#271=VECTOR('',#1041,10.);
#272=VECTOR('',#1042,10.);
#273=VECTOR('',#1043,10.);
#274=VECTOR('',#1046,10.);
#275=VECTOR('',#1049,10.);
#276=VECTOR('',#1052,10.);
#277=VECTOR('',#1057,10.);
#278=VECTOR('',#1058,10.);
#279=VECTOR('',#1059,10.);
#280=VECTOR('',#1060,10.);
#281=VECTOR('',#1063,10.);
#282=VECTOR('',#1070,10.);
#283=VECTOR('',#1073,10.);
#284=VECTOR('',#1078,10.);
#285=VECTOR('',#1079,10.);
#286=VECTOR('',#1080,10.);
#287=VECTOR('',#1081,10.);
#288=VECTOR('',#1084,10.);
#289=VECTOR('',#1085,10.);
#290=VECTOR('',#1086,10.);
#291=VECTOR('',#1087,10.);
#292=VECTOR('',#1088,10.);
#293=VECTOR('',#1107,3.35);
#294=VECTOR('',#1110,1.6);
#295=VECTOR('',#1113,10.);
#296=VECTOR('',#1114,10.);
#297=VECTOR('',#1115,10.);
#298=VECTOR('',#1116,10.);
#299=VECTOR('',#1117,10.);
#300=VECTOR('',#1120,10.);
#301=VECTOR('',#1125,10.);
#302=VECTOR('',#1126,10.);
#303=VECTOR('',#1131,10.);
#304=VECTOR('',#1136,10.);
#305=VECTOR('',#1137,10.);
#306=VECTOR('',#1138,10.);
#307=VECTOR('',#1139,10.);
#308=VECTOR('',#1142,10.);
#309=VECTOR('',#1147,10.);
#310=VECTOR('',#1154,10.);
#311=VECTOR('',#1155,10.);
#312=VECTOR('',#1156,10.);
#313=VECTOR('',#1157,10.);
#314=VECTOR('',#1158,10.);
#315=VECTOR('',#1161,10.);
#316=VECTOR('',#1162,10.);
#317=VECTOR('',#1163,10.);
#318=VECTOR('',#1164,10.);
#319=VECTOR('',#1177,3.35);
#320=VECTOR('',#1184,1.6);
#321=VECTOR('',#1187,10.);
#322=VECTOR('',#1188,10.);
#323=VECTOR('',#1189,10.);
#324=VECTOR('',#1192,10.);
#325=VECTOR('',#1193,10.);
#326=VECTOR('',#1194,10.);
#327=VECTOR('',#1197,10.);
#328=VECTOR('',#1198,10.);
#329=B_SPLINE_CURVE_WITH_KNOTS('',3,(#1207,#1208,#1209,#1210,#1211,#1212),
 .UNSPECIFIED.,.F.,.F.,(4,2,4),(-0.915525689581261,-0.427606418871833,-0.0953109395706857),
 .UNSPECIFIED.);
#330=B_SPLINE_CURVE_WITH_KNOTS('',3,(#1222,#1223,#1224,#1225),
 .UNSPECIFIED.,.F.,.F.,(4,4),(-0.100234588830586,0.),.UNSPECIFIED.);
#331=B_SPLINE_CURVE_WITH_KNOTS('',3,(#1230,#1231,#1232,#1233,#1234,#1235),
 .UNSPECIFIED.,.F.,.F.,(4,2,4),(-0.77766092992282,-0.456919780329595,0.),
 .UNSPECIFIED.);
#332=B_SPLINE_CURVE_WITH_KNOTS('',3,(#1245,#1246,#1247,#1248),
 .UNSPECIFIED.,.F.,.F.,(4,4),(-0.884314406768211,-0.7905317460256),
 .UNSPECIFIED.);
#333=B_SPLINE_CURVE_WITH_KNOTS('',3,(#1311,#1312,#1313,#1314,#1315,#1316,
#1317,#1318,#1319,#1320,#1321),.UNSPECIFIED.,.F.,.F.,(4,1,1,1,1,1,1,1,4),
(-8.14660545460651E-24,0.0702203598152552,0.0936271464203403,0.187254292840681,
0.280881439261021,0.374508585681361,0.468135732101701,0.538356091916957,
0.607450885383304),.UNSPECIFIED.);
#334=B_SPLINE_CURVE_WITH_KNOTS('',3,(#1324,#1325,#1326,#1327,#1328,#1329,
#1330,#1331,#1332,#1333,#1334),.UNSPECIFIED.,.F.,.F.,(4,1,1,1,1,1,1,1,4),
(-0.655390024942382,-0.538356091916957,-0.468135732101701,-0.374508585681361,
-0.280881439261021,-0.187254292840681,-0.0936271464203403,-0.0702203598152552,
8.14660545460651E-24),.UNSPECIFIED.);
#335=B_SPLINE_CURVE_WITH_KNOTS('',3,(#1338,#1339,#1340,#1341,#1342,#1343),
 .UNSPECIFIED.,.F.,.F.,(4,2,4),(-0.916080288729515,-0.424067436289032,-0.0905191751806839),
 .UNSPECIFIED.);
#336=B_SPLINE_CURVE_WITH_KNOTS('',3,(#1353,#1354,#1355,#1356),
 .UNSPECIFIED.,.F.,.F.,(4,4),(-0.0925993882912655,0.),.UNSPECIFIED.);
#337=B_SPLINE_CURVE_WITH_KNOTS('',3,(#1361,#1362,#1363,#1364,#1365,#1366),
 .UNSPECIFIED.,.F.,.F.,(4,2,4),(-0.7748372440877,-0.455731039398215,0.),
 .UNSPECIFIED.);
#338=B_SPLINE_CURVE_WITH_KNOTS('',3,(#1373,#1374,#1375,#1376),
 .UNSPECIFIED.,.F.,.F.,(4,4),(-0.912926709651068,-0.819981437624814),
 .UNSPECIFIED.);
#339=B_SPLINE_CURVE_WITH_KNOTS('',3,(#1425,#1426,#1427,#1428,#1429,#1430,
#1431,#1432,#1433,#1434),.UNSPECIFIED.,.F.,.F.,(4,1,1,1,1,1,1,4),(-1.,-0.905980497939577,
-0.811960995879154,-0.717941493818731,-0.623921991758309,-0.529902489697886,
-0.435882987637463,-0.392549457222696),.UNSPECIFIED.);
#340=B_SPLINE_CURVE_WITH_KNOTS('',3,(#1437,#1438,#1439,#1440,#1441,#1442,
#1443,#1444,#1445,#1446),.UNSPECIFIED.,.F.,.F.,(4,1,1,1,1,1,1,4),(0.34186348557704,
0.435882987637463,0.529902489697886,0.623921991758309,0.717941493818731,
0.811960995879154,0.905980497939577,1.),.UNSPECIFIED.);
#341=B_SPLINE_CURVE_WITH_KNOTS('',3,(#1607,#1608,#1609,#1610),
 .UNSPECIFIED.,.F.,.F.,(4,4),(-1.,-0.844588901761484),.UNSPECIFIED.);
#342=B_SPLINE_CURVE_WITH_KNOTS('',3,(#1611,#1612,#1613,#1614),
 .UNSPECIFIED.,.F.,.F.,(4,4),(0.892549114616696,1.),.UNSPECIFIED.);
#343=B_SPLINE_CURVE_WITH_KNOTS('',3,(#1631,#1632,#1633,#1634),
 .UNSPECIFIED.,.F.,.F.,(4,4),(-2.44262078295957E-24,0.158116210209572),
 .UNSPECIFIED.);
#344=B_SPLINE_CURVE_WITH_KNOTS('',3,(#1635,#1636,#1637,#1638),
 .UNSPECIFIED.,.F.,.F.,(4,4),(-0.107414428319266,2.44262078295957E-24),
 .UNSPECIFIED.);
#345=VERTEX_POINT('',#1205);
#346=VERTEX_POINT('',#1206);
#347=VERTEX_POINT('',#1213);
#348=VERTEX_POINT('',#1215);
#349=VERTEX_POINT('',#1217);
#350=VERTEX_POINT('',#1221);
#351=VERTEX_POINT('',#1228);
#352=VERTEX_POINT('',#1229);
#353=VERTEX_POINT('',#1236);
#354=VERTEX_POINT('',#1238);
#355=VERTEX_POINT('',#1240);
#356=VERTEX_POINT('',#1244);
#357=VERTEX_POINT('',#1251);
#358=VERTEX_POINT('',#1253);
#359=VERTEX_POINT('',#1256);
#360=VERTEX_POINT('',#1258);
#361=VERTEX_POINT('',#1261);
#362=VERTEX_POINT('',#1263);
#363=VERTEX_POINT('',#1310);
#364=VERTEX_POINT('',#1322);
#365=VERTEX_POINT('',#1336);
#366=VERTEX_POINT('',#1337);
#367=VERTEX_POINT('',#1344);
#368=VERTEX_POINT('',#1346);
#369=VERTEX_POINT('',#1348);
#370=VERTEX_POINT('',#1352);
#371=VERTEX_POINT('',#1359);
#372=VERTEX_POINT('',#1360);
#373=VERTEX_POINT('',#1367);
#374=VERTEX_POINT('',#1372);
#375=VERTEX_POINT('',#1379);
#376=VERTEX_POINT('',#1381);
#377=VERTEX_POINT('',#1424);
#378=VERTEX_POINT('',#1435);
#379=VERTEX_POINT('',#1448);
#380=VERTEX_POINT('',#1449);
#381=VERTEX_POINT('',#1451);
#382=VERTEX_POINT('',#1453);
#383=VERTEX_POINT('',#1455);
#384=VERTEX_POINT('',#1459);
#385=VERTEX_POINT('',#1460);
#386=VERTEX_POINT('',#1462);
#387=VERTEX_POINT('',#1466);
#388=VERTEX_POINT('',#1470);
#389=VERTEX_POINT('',#1471);
#390=VERTEX_POINT('',#1474);
#391=VERTEX_POINT('',#1484);
#392=VERTEX_POINT('',#1485);
#393=VERTEX_POINT('',#1489);
#394=VERTEX_POINT('',#1492);
#395=VERTEX_POINT('',#1496);
#396=VERTEX_POINT('',#1497);
#397=VERTEX_POINT('',#1499);
#398=VERTEX_POINT('',#1502);
#399=VERTEX_POINT('',#1510);
#400=VERTEX_POINT('',#1514);
#401=VERTEX_POINT('',#1520);
#402=VERTEX_POINT('',#1521);
#403=VERTEX_POINT('',#1523);
#404=VERTEX_POINT('',#1525);
#405=VERTEX_POINT('',#1527);
#406=VERTEX_POINT('',#1531);
#407=VERTEX_POINT('',#1535);
#408=VERTEX_POINT('',#1536);
#409=VERTEX_POINT('',#1538);
#410=VERTEX_POINT('',#1545);
#411=VERTEX_POINT('',#1546);
#412=VERTEX_POINT('',#1548);
#413=VERTEX_POINT('',#1556);
#414=VERTEX_POINT('',#1557);
#415=VERTEX_POINT('',#1559);
#416=VERTEX_POINT('',#1563);
#417=VERTEX_POINT('',#1564);
#418=VERTEX_POINT('',#1566);
#419=VERTEX_POINT('',#1569);
#420=VERTEX_POINT('',#1573);
#421=VERTEX_POINT('',#1576);
#422=VERTEX_POINT('',#1584);
#423=VERTEX_POINT('',#1640);
#424=VERTEX_POINT('',#1642);
#425=VERTEX_POINT('',#1646);
#426=VERTEX_POINT('',#1648);
#427=EDGE_CURVE('',#345,#346,#329,.T.);
#428=EDGE_CURVE('',#347,#345,#149,.T.);
#429=EDGE_CURVE('',#348,#347,#150,.T.);
#430=EDGE_CURVE('',#349,#348,#151,.T.);
#431=EDGE_CURVE('',#346,#349,#152,.T.);
#432=EDGE_CURVE('',#346,#350,#330,.T.);
#433=EDGE_CURVE('',#350,#349,#153,.T.);
#434=EDGE_CURVE('',#351,#352,#331,.T.);
#435=EDGE_CURVE('',#353,#351,#154,.T.);
#436=EDGE_CURVE('',#354,#353,#155,.T.);
#437=EDGE_CURVE('',#355,#354,#156,.T.);
#438=EDGE_CURVE('',#352,#355,#157,.T.);
#439=EDGE_CURVE('',#356,#351,#332,.T.);
#440=EDGE_CURVE('',#353,#356,#158,.T.);
#441=EDGE_CURVE('',#357,#347,#159,.T.);
#442=EDGE_CURVE('',#357,#358,#160,.T.);
#443=EDGE_CURVE('',#348,#358,#161,.T.);
#444=EDGE_CURVE('',#359,#359,#27,.T.);
#445=EDGE_CURVE('',#360,#360,#28,.T.);
#446=EDGE_CURVE('',#361,#354,#162,.T.);
#447=EDGE_CURVE('',#362,#361,#163,.T.);
#448=EDGE_CURVE('',#355,#362,#164,.T.);
#449=EDGE_CURVE('',#363,#350,#333,.T.);
#450=EDGE_CURVE('',#364,#363,#165,.T.);
#451=EDGE_CURVE('',#345,#364,#334,.T.);
#452=EDGE_CURVE('',#365,#366,#335,.T.);
#453=EDGE_CURVE('',#367,#365,#166,.T.);
#454=EDGE_CURVE('',#368,#367,#167,.T.);
#455=EDGE_CURVE('',#369,#368,#168,.T.);
#456=EDGE_CURVE('',#369,#366,#169,.T.);
#457=EDGE_CURVE('',#366,#370,#336,.T.);
#458=EDGE_CURVE('',#370,#369,#170,.T.);
#459=EDGE_CURVE('',#371,#372,#337,.T.);
#460=EDGE_CURVE('',#371,#373,#171,.T.);
#461=EDGE_CURVE('',#358,#373,#172,.T.);
#462=EDGE_CURVE('',#372,#357,#173,.T.);
#463=EDGE_CURVE('',#374,#371,#338,.T.);
#464=EDGE_CURVE('',#373,#374,#174,.T.);
#465=EDGE_CURVE('',#375,#367,#175,.T.);
#466=EDGE_CURVE('',#375,#376,#176,.T.);
#467=EDGE_CURVE('',#368,#376,#177,.T.);
#468=EDGE_CURVE('',#377,#370,#339,.T.);
#469=EDGE_CURVE('',#378,#377,#178,.T.);
#470=EDGE_CURVE('',#365,#378,#340,.T.);
#471=EDGE_CURVE('',#379,#380,#179,.T.);
#472=EDGE_CURVE('',#379,#381,#180,.T.);
#473=EDGE_CURVE('',#382,#381,#181,.T.);
#474=EDGE_CURVE('',#383,#382,#182,.T.);
#475=EDGE_CURVE('',#380,#383,#183,.T.);
#476=EDGE_CURVE('',#384,#385,#184,.T.);
#477=EDGE_CURVE('',#386,#385,#29,.T.);
#478=EDGE_CURVE('',#386,#384,#185,.T.);
#479=EDGE_CURVE('',#381,#387,#186,.T.);
#480=EDGE_CURVE('',#382,#387,#30,.T.);
#481=EDGE_CURVE('',#388,#389,#187,.T.);
#482=EDGE_CURVE('',#388,#384,#188,.T.);
#483=EDGE_CURVE('',#390,#386,#189,.T.);
#484=EDGE_CURVE('',#389,#390,#190,.T.);
#485=EDGE_CURVE('',#387,#390,#191,.T.);
#486=EDGE_CURVE('',#387,#386,#31,.T.);
#487=EDGE_CURVE('',#385,#382,#32,.T.);
#488=EDGE_CURVE('',#385,#383,#192,.T.);
#489=EDGE_CURVE('',#391,#392,#193,.T.);
#490=EDGE_CURVE('',#392,#391,#33,.T.);
#491=EDGE_CURVE('',#391,#393,#194,.T.);
#492=EDGE_CURVE('',#389,#393,#195,.T.);
#493=EDGE_CURVE('',#394,#379,#196,.T.);
#494=EDGE_CURVE('',#392,#394,#197,.T.);
#495=EDGE_CURVE('',#395,#396,#198,.T.);
#496=EDGE_CURVE('',#395,#397,#199,.T.);
#497=EDGE_CURVE('',#380,#397,#200,.T.);
#498=EDGE_CURVE('',#398,#388,#201,.T.);
#499=EDGE_CURVE('',#396,#398,#202,.T.);
#500=EDGE_CURVE('',#393,#398,#34,.T.);
#501=EDGE_CURVE('',#397,#394,#35,.T.);
#502=EDGE_CURVE('',#396,#399,#36,.T.);
#503=EDGE_CURVE('',#399,#395,#37,.T.);
#504=EDGE_CURVE('',#400,#400,#38,.T.);
#505=EDGE_CURVE('',#400,#399,#203,.T.);
#506=EDGE_CURVE('',#385,#360,#204,.T.);
#507=EDGE_CURVE('',#401,#402,#205,.T.);
#508=EDGE_CURVE('',#402,#403,#206,.T.);
#509=EDGE_CURVE('',#403,#404,#207,.T.);
#510=EDGE_CURVE('',#404,#405,#208,.T.);
#511=EDGE_CURVE('',#401,#405,#209,.T.);
#512=EDGE_CURVE('',#405,#406,#210,.T.);
#513=EDGE_CURVE('',#406,#404,#39,.T.);
#514=EDGE_CURVE('',#407,#408,#211,.T.);
#515=EDGE_CURVE('',#409,#407,#212,.T.);
#516=EDGE_CURVE('',#408,#409,#40,.T.);
#517=EDGE_CURVE('',#408,#403,#213,.T.);
#518=EDGE_CURVE('',#404,#408,#41,.T.);
#519=EDGE_CURVE('',#410,#411,#214,.T.);
#520=EDGE_CURVE('',#411,#412,#215,.T.);
#521=EDGE_CURVE('',#412,#409,#216,.T.);
#522=EDGE_CURVE('',#410,#407,#217,.T.);
#523=EDGE_CURVE('',#406,#412,#218,.T.);
#524=EDGE_CURVE('',#409,#406,#42,.T.);
#525=EDGE_CURVE('',#413,#414,#219,.T.);
#526=EDGE_CURVE('',#415,#414,#43,.T.);
#527=EDGE_CURVE('',#413,#415,#44,.T.);
#528=EDGE_CURVE('',#416,#417,#220,.T.);
#529=EDGE_CURVE('',#416,#418,#221,.T.);
#530=EDGE_CURVE('',#418,#410,#222,.T.);
#531=EDGE_CURVE('',#402,#419,#223,.T.);
#532=EDGE_CURVE('',#417,#419,#224,.T.);
#533=EDGE_CURVE('',#413,#420,#225,.T.);
#534=EDGE_CURVE('',#420,#401,#226,.T.);
#535=EDGE_CURVE('',#411,#421,#227,.T.);
#536=EDGE_CURVE('',#414,#421,#228,.T.);
#537=EDGE_CURVE('',#419,#420,#45,.T.);
#538=EDGE_CURVE('',#421,#418,#46,.T.);
#539=EDGE_CURVE('',#422,#422,#47,.T.);
#540=EDGE_CURVE('',#422,#415,#229,.T.);
#541=EDGE_CURVE('',#416,#417,#48,.T.);
#542=EDGE_CURVE('',#406,#359,#230,.T.);
#543=EDGE_CURVE('',#364,#352,#341,.T.);
#544=EDGE_CURVE('',#356,#363,#342,.T.);
#545=EDGE_CURVE('',#378,#372,#343,.T.);
#546=EDGE_CURVE('',#374,#377,#344,.T.);
#547=EDGE_CURVE('',#423,#375,#231,.T.);
#548=EDGE_CURVE('',#423,#424,#232,.T.);
#549=EDGE_CURVE('',#376,#424,#233,.T.);
#550=EDGE_CURVE('',#362,#425,#234,.T.);
#551=EDGE_CURVE('',#426,#361,#235,.T.);
#552=EDGE_CURVE('',#425,#426,#236,.T.);
#553=EDGE_CURVE('',#425,#423,#237,.T.);
#554=EDGE_CURVE('',#424,#426,#238,.T.);
#555=ORIENTED_EDGE('',*,*,#427,.F.);
#556=ORIENTED_EDGE('',*,*,#428,.F.);
#557=ORIENTED_EDGE('',*,*,#429,.F.);
#558=ORIENTED_EDGE('',*,*,#430,.F.);
#559=ORIENTED_EDGE('',*,*,#431,.F.);
#560=ORIENTED_EDGE('',*,*,#432,.F.);
#561=ORIENTED_EDGE('',*,*,#431,.T.);
#562=ORIENTED_EDGE('',*,*,#433,.F.);
#563=ORIENTED_EDGE('',*,*,#434,.F.);
#564=ORIENTED_EDGE('',*,*,#435,.F.);
#565=ORIENTED_EDGE('',*,*,#436,.F.);
#566=ORIENTED_EDGE('',*,*,#437,.F.);
#567=ORIENTED_EDGE('',*,*,#438,.F.);
#568=ORIENTED_EDGE('',*,*,#439,.F.);
#569=ORIENTED_EDGE('',*,*,#440,.F.);
#570=ORIENTED_EDGE('',*,*,#435,.T.);
#571=ORIENTED_EDGE('',*,*,#429,.T.);
#572=ORIENTED_EDGE('',*,*,#441,.F.);
#573=ORIENTED_EDGE('',*,*,#442,.T.);
#574=ORIENTED_EDGE('',*,*,#443,.F.);
#575=ORIENTED_EDGE('',*,*,#444,.T.);
#576=ORIENTED_EDGE('',*,*,#445,.T.);
#577=ORIENTED_EDGE('',*,*,#437,.T.);
#578=ORIENTED_EDGE('',*,*,#446,.F.);
#579=ORIENTED_EDGE('',*,*,#447,.F.);
#580=ORIENTED_EDGE('',*,*,#448,.F.);
#581=ORIENTED_EDGE('',*,*,#427,.T.);
#582=ORIENTED_EDGE('',*,*,#432,.T.);
#583=ORIENTED_EDGE('',*,*,#449,.F.);
#584=ORIENTED_EDGE('',*,*,#450,.F.);
#585=ORIENTED_EDGE('',*,*,#451,.F.);
#586=ORIENTED_EDGE('',*,*,#452,.F.);
#587=ORIENTED_EDGE('',*,*,#453,.F.);
#588=ORIENTED_EDGE('',*,*,#454,.F.);
#589=ORIENTED_EDGE('',*,*,#455,.F.);
#590=ORIENTED_EDGE('',*,*,#456,.T.);
#591=ORIENTED_EDGE('',*,*,#457,.F.);
#592=ORIENTED_EDGE('',*,*,#456,.F.);
#593=ORIENTED_EDGE('',*,*,#458,.F.);
#594=ORIENTED_EDGE('',*,*,#459,.F.);
#595=ORIENTED_EDGE('',*,*,#460,.T.);
#596=ORIENTED_EDGE('',*,*,#461,.F.);
#597=ORIENTED_EDGE('',*,*,#442,.F.);
#598=ORIENTED_EDGE('',*,*,#462,.F.);
#599=ORIENTED_EDGE('',*,*,#463,.F.);
#600=ORIENTED_EDGE('',*,*,#464,.F.);
#601=ORIENTED_EDGE('',*,*,#460,.F.);
#602=ORIENTED_EDGE('',*,*,#454,.T.);
#603=ORIENTED_EDGE('',*,*,#465,.F.);
#604=ORIENTED_EDGE('',*,*,#466,.T.);
#605=ORIENTED_EDGE('',*,*,#467,.F.);
#606=ORIENTED_EDGE('',*,*,#452,.T.);
#607=ORIENTED_EDGE('',*,*,#457,.T.);
#608=ORIENTED_EDGE('',*,*,#468,.F.);
#609=ORIENTED_EDGE('',*,*,#469,.F.);
#610=ORIENTED_EDGE('',*,*,#470,.F.);
#611=ORIENTED_EDGE('',*,*,#471,.F.);
#612=ORIENTED_EDGE('',*,*,#472,.T.);
#613=ORIENTED_EDGE('',*,*,#473,.F.);
#614=ORIENTED_EDGE('',*,*,#474,.F.);
#615=ORIENTED_EDGE('',*,*,#475,.F.);
#616=ORIENTED_EDGE('',*,*,#476,.T.);
#617=ORIENTED_EDGE('',*,*,#477,.F.);
#618=ORIENTED_EDGE('',*,*,#478,.T.);
#619=ORIENTED_EDGE('',*,*,#479,.T.);
#620=ORIENTED_EDGE('',*,*,#480,.F.);
#621=ORIENTED_EDGE('',*,*,#473,.T.);
#622=ORIENTED_EDGE('',*,*,#481,.F.);
#623=ORIENTED_EDGE('',*,*,#482,.T.);
#624=ORIENTED_EDGE('',*,*,#478,.F.);
#625=ORIENTED_EDGE('',*,*,#483,.F.);
#626=ORIENTED_EDGE('',*,*,#484,.F.);
#627=ORIENTED_EDGE('',*,*,#485,.T.);
#628=ORIENTED_EDGE('',*,*,#483,.T.);
#629=ORIENTED_EDGE('',*,*,#486,.F.);
#630=ORIENTED_EDGE('',*,*,#474,.T.);
#631=ORIENTED_EDGE('',*,*,#487,.F.);
#632=ORIENTED_EDGE('',*,*,#488,.T.);
#633=ORIENTED_EDGE('',*,*,#489,.T.);
#634=ORIENTED_EDGE('',*,*,#490,.T.);
#635=ORIENTED_EDGE('',*,*,#489,.F.);
#636=ORIENTED_EDGE('',*,*,#491,.T.);
#637=ORIENTED_EDGE('',*,*,#492,.F.);
#638=ORIENTED_EDGE('',*,*,#484,.T.);
#639=ORIENTED_EDGE('',*,*,#485,.F.);
#640=ORIENTED_EDGE('',*,*,#479,.F.);
#641=ORIENTED_EDGE('',*,*,#472,.F.);
#642=ORIENTED_EDGE('',*,*,#493,.F.);
#643=ORIENTED_EDGE('',*,*,#494,.F.);
#644=ORIENTED_EDGE('',*,*,#495,.F.);
#645=ORIENTED_EDGE('',*,*,#496,.T.);
#646=ORIENTED_EDGE('',*,*,#497,.F.);
#647=ORIENTED_EDGE('',*,*,#475,.T.);
#648=ORIENTED_EDGE('',*,*,#488,.F.);
#649=ORIENTED_EDGE('',*,*,#476,.F.);
#650=ORIENTED_EDGE('',*,*,#482,.F.);
#651=ORIENTED_EDGE('',*,*,#498,.F.);
#652=ORIENTED_EDGE('',*,*,#499,.F.);
#653=ORIENTED_EDGE('',*,*,#500,.T.);
#654=ORIENTED_EDGE('',*,*,#498,.T.);
#655=ORIENTED_EDGE('',*,*,#481,.T.);
#656=ORIENTED_EDGE('',*,*,#492,.T.);
#657=ORIENTED_EDGE('',*,*,#501,.T.);
#658=ORIENTED_EDGE('',*,*,#493,.T.);
#659=ORIENTED_EDGE('',*,*,#471,.T.);
#660=ORIENTED_EDGE('',*,*,#497,.T.);
#661=ORIENTED_EDGE('',*,*,#495,.T.);
#662=ORIENTED_EDGE('',*,*,#502,.T.);
#663=ORIENTED_EDGE('',*,*,#503,.T.);
#664=ORIENTED_EDGE('',*,*,#504,.F.);
#665=ORIENTED_EDGE('',*,*,#505,.T.);
#666=ORIENTED_EDGE('',*,*,#502,.F.);
#667=ORIENTED_EDGE('',*,*,#499,.T.);
#668=ORIENTED_EDGE('',*,*,#500,.F.);
#669=ORIENTED_EDGE('',*,*,#491,.F.);
#670=ORIENTED_EDGE('',*,*,#490,.F.);
#671=ORIENTED_EDGE('',*,*,#494,.T.);
#672=ORIENTED_EDGE('',*,*,#501,.F.);
#673=ORIENTED_EDGE('',*,*,#496,.F.);
#674=ORIENTED_EDGE('',*,*,#503,.F.);
#675=ORIENTED_EDGE('',*,*,#505,.F.);
#676=ORIENTED_EDGE('',*,*,#487,.T.);
#677=ORIENTED_EDGE('',*,*,#480,.T.);
#678=ORIENTED_EDGE('',*,*,#486,.T.);
#679=ORIENTED_EDGE('',*,*,#477,.T.);
#680=ORIENTED_EDGE('',*,*,#506,.T.);
#681=ORIENTED_EDGE('',*,*,#445,.F.);
#682=ORIENTED_EDGE('',*,*,#506,.F.);
#683=ORIENTED_EDGE('',*,*,#507,.T.);
#684=ORIENTED_EDGE('',*,*,#508,.T.);
#685=ORIENTED_EDGE('',*,*,#509,.T.);
#686=ORIENTED_EDGE('',*,*,#510,.T.);
#687=ORIENTED_EDGE('',*,*,#511,.F.);
#688=ORIENTED_EDGE('',*,*,#512,.F.);
#689=ORIENTED_EDGE('',*,*,#510,.F.);
#690=ORIENTED_EDGE('',*,*,#513,.F.);
#691=ORIENTED_EDGE('',*,*,#514,.F.);
#692=ORIENTED_EDGE('',*,*,#515,.F.);
#693=ORIENTED_EDGE('',*,*,#516,.F.);
#694=ORIENTED_EDGE('',*,*,#517,.F.);
#695=ORIENTED_EDGE('',*,*,#518,.F.);
#696=ORIENTED_EDGE('',*,*,#509,.F.);
#697=ORIENTED_EDGE('',*,*,#519,.T.);
#698=ORIENTED_EDGE('',*,*,#520,.T.);
#699=ORIENTED_EDGE('',*,*,#521,.T.);
#700=ORIENTED_EDGE('',*,*,#515,.T.);
#701=ORIENTED_EDGE('',*,*,#522,.F.);
#702=ORIENTED_EDGE('',*,*,#521,.F.);
#703=ORIENTED_EDGE('',*,*,#523,.F.);
#704=ORIENTED_EDGE('',*,*,#524,.F.);
#705=ORIENTED_EDGE('',*,*,#525,.T.);
#706=ORIENTED_EDGE('',*,*,#526,.F.);
#707=ORIENTED_EDGE('',*,*,#527,.F.);
#708=ORIENTED_EDGE('',*,*,#528,.F.);
#709=ORIENTED_EDGE('',*,*,#529,.T.);
#710=ORIENTED_EDGE('',*,*,#530,.T.);
#711=ORIENTED_EDGE('',*,*,#522,.T.);
#712=ORIENTED_EDGE('',*,*,#514,.T.);
#713=ORIENTED_EDGE('',*,*,#517,.T.);
#714=ORIENTED_EDGE('',*,*,#508,.F.);
#715=ORIENTED_EDGE('',*,*,#531,.T.);
#716=ORIENTED_EDGE('',*,*,#532,.F.);
#717=ORIENTED_EDGE('',*,*,#525,.F.);
#718=ORIENTED_EDGE('',*,*,#533,.T.);
#719=ORIENTED_EDGE('',*,*,#534,.T.);
#720=ORIENTED_EDGE('',*,*,#511,.T.);
#721=ORIENTED_EDGE('',*,*,#512,.T.);
#722=ORIENTED_EDGE('',*,*,#523,.T.);
#723=ORIENTED_EDGE('',*,*,#520,.F.);
#724=ORIENTED_EDGE('',*,*,#535,.T.);
#725=ORIENTED_EDGE('',*,*,#536,.F.);
#726=ORIENTED_EDGE('',*,*,#537,.F.);
#727=ORIENTED_EDGE('',*,*,#531,.F.);
#728=ORIENTED_EDGE('',*,*,#507,.F.);
#729=ORIENTED_EDGE('',*,*,#534,.F.);
#730=ORIENTED_EDGE('',*,*,#538,.F.);
#731=ORIENTED_EDGE('',*,*,#535,.F.);
#732=ORIENTED_EDGE('',*,*,#519,.F.);
#733=ORIENTED_EDGE('',*,*,#530,.F.);
#734=ORIENTED_EDGE('',*,*,#539,.F.);
#735=ORIENTED_EDGE('',*,*,#540,.T.);
#736=ORIENTED_EDGE('',*,*,#526,.T.);
#737=ORIENTED_EDGE('',*,*,#536,.T.);
#738=ORIENTED_EDGE('',*,*,#538,.T.);
#739=ORIENTED_EDGE('',*,*,#529,.F.);
#740=ORIENTED_EDGE('',*,*,#541,.T.);
#741=ORIENTED_EDGE('',*,*,#532,.T.);
#742=ORIENTED_EDGE('',*,*,#537,.T.);
#743=ORIENTED_EDGE('',*,*,#533,.F.);
#744=ORIENTED_EDGE('',*,*,#527,.T.);
#745=ORIENTED_EDGE('',*,*,#540,.F.);
#746=ORIENTED_EDGE('',*,*,#528,.T.);
#747=ORIENTED_EDGE('',*,*,#541,.F.);
#748=ORIENTED_EDGE('',*,*,#524,.T.);
#749=ORIENTED_EDGE('',*,*,#542,.T.);
#750=ORIENTED_EDGE('',*,*,#444,.F.);
#751=ORIENTED_EDGE('',*,*,#542,.F.);
#752=ORIENTED_EDGE('',*,*,#513,.T.);
#753=ORIENTED_EDGE('',*,*,#518,.T.);
#754=ORIENTED_EDGE('',*,*,#516,.T.);
#755=ORIENTED_EDGE('',*,*,#434,.T.);
#756=ORIENTED_EDGE('',*,*,#543,.F.);
#757=ORIENTED_EDGE('',*,*,#450,.T.);
#758=ORIENTED_EDGE('',*,*,#544,.F.);
#759=ORIENTED_EDGE('',*,*,#439,.T.);
#760=ORIENTED_EDGE('',*,*,#459,.T.);
#761=ORIENTED_EDGE('',*,*,#545,.F.);
#762=ORIENTED_EDGE('',*,*,#469,.T.);
#763=ORIENTED_EDGE('',*,*,#546,.F.);
#764=ORIENTED_EDGE('',*,*,#463,.T.);
#765=ORIENTED_EDGE('',*,*,#547,.F.);
#766=ORIENTED_EDGE('',*,*,#548,.T.);
#767=ORIENTED_EDGE('',*,*,#549,.F.);
#768=ORIENTED_EDGE('',*,*,#466,.F.);
#769=ORIENTED_EDGE('',*,*,#550,.F.);
#770=ORIENTED_EDGE('',*,*,#447,.T.);
#771=ORIENTED_EDGE('',*,*,#551,.F.);
#772=ORIENTED_EDGE('',*,*,#552,.F.);
#773=ORIENTED_EDGE('',*,*,#553,.F.);
#774=ORIENTED_EDGE('',*,*,#552,.T.);
#775=ORIENTED_EDGE('',*,*,#554,.F.);
#776=ORIENTED_EDGE('',*,*,#548,.F.);
#777=ORIENTED_EDGE('',*,*,#504,.T.);
#778=ORIENTED_EDGE('',*,*,#539,.T.);
#779=ORIENTED_EDGE('',*,*,#430,.T.);
#780=ORIENTED_EDGE('',*,*,#443,.T.);
#781=ORIENTED_EDGE('',*,*,#461,.T.);
#782=ORIENTED_EDGE('',*,*,#464,.T.);
#783=ORIENTED_EDGE('',*,*,#546,.T.);
#784=ORIENTED_EDGE('',*,*,#468,.T.);
#785=ORIENTED_EDGE('',*,*,#458,.T.);
#786=ORIENTED_EDGE('',*,*,#455,.T.);
#787=ORIENTED_EDGE('',*,*,#467,.T.);
#788=ORIENTED_EDGE('',*,*,#549,.T.);
#789=ORIENTED_EDGE('',*,*,#554,.T.);
#790=ORIENTED_EDGE('',*,*,#551,.T.);
#791=ORIENTED_EDGE('',*,*,#446,.T.);
#792=ORIENTED_EDGE('',*,*,#436,.T.);
#793=ORIENTED_EDGE('',*,*,#440,.T.);
#794=ORIENTED_EDGE('',*,*,#544,.T.);
#795=ORIENTED_EDGE('',*,*,#449,.T.);
#796=ORIENTED_EDGE('',*,*,#433,.T.);
#797=ORIENTED_EDGE('',*,*,#438,.T.);
#798=ORIENTED_EDGE('',*,*,#448,.T.);
#799=ORIENTED_EDGE('',*,*,#550,.T.);
#800=ORIENTED_EDGE('',*,*,#553,.T.);
#801=ORIENTED_EDGE('',*,*,#547,.T.);
#802=ORIENTED_EDGE('',*,*,#465,.T.);
#803=ORIENTED_EDGE('',*,*,#453,.T.);
#804=ORIENTED_EDGE('',*,*,#470,.T.);
#805=ORIENTED_EDGE('',*,*,#545,.T.);
#806=ORIENTED_EDGE('',*,*,#462,.T.);
#807=ORIENTED_EDGE('',*,*,#441,.T.);
#808=ORIENTED_EDGE('',*,*,#428,.T.);
#809=ORIENTED_EDGE('',*,*,#451,.T.);
#810=ORIENTED_EDGE('',*,*,#543,.T.);
#811=PLANE('',#913);
#812=PLANE('',#914);
#813=PLANE('',#915);
#814=PLANE('',#916);
#815=PLANE('',#917);
#816=PLANE('',#920);
#817=PLANE('',#921);
#818=PLANE('',#922);
#819=PLANE('',#923);
#820=PLANE('',#924);
#821=PLANE('',#925);
#822=PLANE('',#926);
#823=PLANE('',#927);
#824=PLANE('',#929);
#825=PLANE('',#931);
#826=PLANE('',#932);
#827=PLANE('',#934);
#828=PLANE('',#936);
#829=PLANE('',#938);
#830=PLANE('',#939);
#831=PLANE('',#940);
#832=PLANE('',#942);
#833=PLANE('',#944);
#834=PLANE('',#950);
#835=PLANE('',#951);
#836=PLANE('',#953);
#837=PLANE('',#955);
#838=PLANE('',#957);
#839=PLANE('',#958);
#840=PLANE('',#960);
#841=PLANE('',#963);
#842=PLANE('',#964);
#843=PLANE('',#965);
#844=PLANE('',#967);
#845=PLANE('',#972);
#846=PLANE('',#974);
#847=PLANE('',#975);
#848=PLANE('',#976);
#849=PLANE('',#977);
#850=PLANE('',#978);
#851=ADVANCED_FACE('',(#49),#811,.T.);
#852=ADVANCED_FACE('',(#50),#812,.T.);
#853=ADVANCED_FACE('',(#51),#813,.T.);
#854=ADVANCED_FACE('',(#52),#814,.T.);
#855=ADVANCED_FACE('',(#53,#23,#24),#815,.T.);
#856=ADVANCED_FACE('',(#54),#816,.T.);
#857=ADVANCED_FACE('',(#55),#19,.T.);
#858=ADVANCED_FACE('',(#56),#817,.F.);
#859=ADVANCED_FACE('',(#57),#818,.F.);
#860=ADVANCED_FACE('',(#58),#819,.F.);
#861=ADVANCED_FACE('',(#59),#820,.F.);
#862=ADVANCED_FACE('',(#60),#821,.T.);
#863=ADVANCED_FACE('',(#61),#20,.F.);
#864=ADVANCED_FACE('',(#62),#822,.T.);
#865=ADVANCED_FACE('',(#63),#823,.F.);
#866=ADVANCED_FACE('',(#64),#824,.F.);
#867=ADVANCED_FACE('',(#65),#825,.T.);
#868=ADVANCED_FACE('',(#66),#826,.F.);
#869=ADVANCED_FACE('',(#67),#827,.F.);
#870=ADVANCED_FACE('',(#68),#828,.F.);
#871=ADVANCED_FACE('',(#69),#829,.T.);
#872=ADVANCED_FACE('',(#70),#830,.T.);
#873=ADVANCED_FACE('',(#71),#831,.F.);
#874=ADVANCED_FACE('',(#72),#832,.F.);
#875=ADVANCED_FACE('',(#73),#833,.F.);
#876=ADVANCED_FACE('',(#74),#15,.F.);
#877=ADVANCED_FACE('',(#75),#16,.F.);
#878=ADVANCED_FACE('',(#76),#834,.F.);
#879=ADVANCED_FACE('',(#77),#835,.T.);
#880=ADVANCED_FACE('',(#78),#836,.T.);
#881=ADVANCED_FACE('',(#79),#837,.T.);
#882=ADVANCED_FACE('',(#80),#838,.F.);
#883=ADVANCED_FACE('',(#81),#839,.T.);
#884=ADVANCED_FACE('',(#82),#840,.T.);
#885=ADVANCED_FACE('',(#83),#841,.F.);
#886=ADVANCED_FACE('',(#84),#842,.F.);
#887=ADVANCED_FACE('',(#85),#843,.T.);
#888=ADVANCED_FACE('',(#86),#844,.T.);
#889=ADVANCED_FACE('',(#87),#17,.F.);
#890=ADVANCED_FACE('',(#88),#845,.T.);
#891=ADVANCED_FACE('',(#89),#18,.F.);
#892=ADVANCED_FACE('',(#90),#21,.T.);
#893=ADVANCED_FACE('',(#91),#22,.F.);
#894=ADVANCED_FACE('',(#92),#846,.T.);
#895=ADVANCED_FACE('',(#93),#847,.T.);
#896=ADVANCED_FACE('',(#94,#25,#26),#848,.T.);
#897=ADVANCED_FACE('',(#95),#849,.T.);
#898=ADVANCED_FACE('',(#96),#850,.F.);
#899=CLOSED_SHELL('',(#851,#852,#853,#854,#855,#856,#857,#858,#859,#860,
#861,#862,#863,#864,#865,#866,#867,#868,#869,#870,#871,#872,#873,#874,#875,
#876,#877,#878,#879,#880,#881,#882,#883,#884,#885,#886,#887,#888,#889,#890,
#891,#892,#893,#894,#895,#896,#897,#898));
#900=DERIVED_UNIT_ELEMENT(#902,1.);
#901=DERIVED_UNIT_ELEMENT(#1661,-3.);
#902=(
MASS_UNIT()
NAMED_UNIT(*)
SI_UNIT(.KILO.,.GRAM.)
);
#903=DERIVED_UNIT((#900,#901));
#904=MEASURE_REPRESENTATION_ITEM('density measure',
POSITIVE_RATIO_MEASURE(7850.),#903);
#905=PROPERTY_DEFINITION_REPRESENTATION(#910,#907);
#906=PROPERTY_DEFINITION_REPRESENTATION(#911,#908);
#907=REPRESENTATION('material name',(#909),#1658);
#908=REPRESENTATION('density',(#904),#1658);
#909=DESCRIPTIVE_REPRESENTATION_ITEM('Steel','Steel');
#910=PROPERTY_DEFINITION('material property','material name',#1668);
#911=PROPERTY_DEFINITION('material property','density of part',#1668);
#912=AXIS2_PLACEMENT_3D('',#1203,#979,#980);
#913=AXIS2_PLACEMENT_3D('',#1204,#981,#982);
#914=AXIS2_PLACEMENT_3D('',#1220,#987,#988);
#915=AXIS2_PLACEMENT_3D('',#1227,#990,#991);
#916=AXIS2_PLACEMENT_3D('',#1243,#996,#997);
#917=AXIS2_PLACEMENT_3D('',#1250,#999,#1000);
#918=AXIS2_PLACEMENT_3D('',#1257,#1004,#1005);
#919=AXIS2_PLACEMENT_3D('',#1259,#1006,#1007);
#920=AXIS2_PLACEMENT_3D('',#1260,#1008,#1009);
#921=AXIS2_PLACEMENT_3D('',#1335,#1014,#1015);
#922=AXIS2_PLACEMENT_3D('',#1351,#1020,#1021);
#923=AXIS2_PLACEMENT_3D('',#1358,#1023,#1024);
#924=AXIS2_PLACEMENT_3D('',#1371,#1028,#1029);
#925=AXIS2_PLACEMENT_3D('',#1378,#1031,#1032);
#926=AXIS2_PLACEMENT_3D('',#1447,#1037,#1038);
#927=AXIS2_PLACEMENT_3D('',#1458,#1044,#1045);
#928=AXIS2_PLACEMENT_3D('',#1463,#1047,#1048);
#929=AXIS2_PLACEMENT_3D('',#1465,#1050,#1051);
#930=AXIS2_PLACEMENT_3D('',#1468,#1053,#1054);
#931=AXIS2_PLACEMENT_3D('',#1469,#1055,#1056);
#932=AXIS2_PLACEMENT_3D('',#1477,#1061,#1062);
#933=AXIS2_PLACEMENT_3D('',#1479,#1064,#1065);
#934=AXIS2_PLACEMENT_3D('',#1480,#1066,#1067);
#935=AXIS2_PLACEMENT_3D('',#1481,#1068,#1069);
#936=AXIS2_PLACEMENT_3D('',#1483,#1071,#1072);
#937=AXIS2_PLACEMENT_3D('',#1487,#1074,#1075);
#938=AXIS2_PLACEMENT_3D('',#1488,#1076,#1077);
#939=AXIS2_PLACEMENT_3D('',#1495,#1082,#1083);
#940=AXIS2_PLACEMENT_3D('',#1505,#1089,#1090);
#941=AXIS2_PLACEMENT_3D('',#1506,#1091,#1092);
#942=AXIS2_PLACEMENT_3D('',#1507,#1093,#1094);
#943=AXIS2_PLACEMENT_3D('',#1508,#1095,#1096);
#944=AXIS2_PLACEMENT_3D('',#1509,#1097,#1098);
#945=AXIS2_PLACEMENT_3D('',#1511,#1099,#1100);
#946=AXIS2_PLACEMENT_3D('',#1512,#1101,#1102);
#947=AXIS2_PLACEMENT_3D('',#1513,#1103,#1104);
#948=AXIS2_PLACEMENT_3D('',#1515,#1105,#1106);
#949=AXIS2_PLACEMENT_3D('',#1517,#1108,#1109);
#950=AXIS2_PLACEMENT_3D('',#1519,#1111,#1112);
#951=AXIS2_PLACEMENT_3D('',#1530,#1118,#1119);
#952=AXIS2_PLACEMENT_3D('',#1533,#1121,#1122);
#953=AXIS2_PLACEMENT_3D('',#1534,#1123,#1124);
#954=AXIS2_PLACEMENT_3D('',#1540,#1127,#1128);
#955=AXIS2_PLACEMENT_3D('',#1541,#1129,#1130);
#956=AXIS2_PLACEMENT_3D('',#1543,#1132,#1133);
#957=AXIS2_PLACEMENT_3D('',#1544,#1134,#1135);
#958=AXIS2_PLACEMENT_3D('',#1552,#1140,#1141);
#959=AXIS2_PLACEMENT_3D('',#1554,#1143,#1144);
#960=AXIS2_PLACEMENT_3D('',#1555,#1145,#1146);
#961=AXIS2_PLACEMENT_3D('',#1560,#1148,#1149);
#962=AXIS2_PLACEMENT_3D('',#1561,#1150,#1151);
#963=AXIS2_PLACEMENT_3D('',#1562,#1152,#1153);
#964=AXIS2_PLACEMENT_3D('',#1572,#1159,#1160);
#965=AXIS2_PLACEMENT_3D('',#1579,#1165,#1166);
#966=AXIS2_PLACEMENT_3D('',#1580,#1167,#1168);
#967=AXIS2_PLACEMENT_3D('',#1581,#1169,#1170);
#968=AXIS2_PLACEMENT_3D('',#1582,#1171,#1172);
#969=AXIS2_PLACEMENT_3D('',#1583,#1173,#1174);
#970=AXIS2_PLACEMENT_3D('',#1585,#1175,#1176);
#971=AXIS2_PLACEMENT_3D('',#1587,#1178,#1179);
#972=AXIS2_PLACEMENT_3D('',#1588,#1180,#1181);
#973=AXIS2_PLACEMENT_3D('',#1589,#1182,#1183);
#974=AXIS2_PLACEMENT_3D('',#1639,#1185,#1186);
#975=AXIS2_PLACEMENT_3D('',#1645,#1190,#1191);
#976=AXIS2_PLACEMENT_3D('',#1651,#1195,#1196);
#977=AXIS2_PLACEMENT_3D('',#1654,#1199,#1200);
#978=AXIS2_PLACEMENT_3D('',#1655,#1201,#1202);
#979=DIRECTION('axis',(0.,0.,1.));
#980=DIRECTION('refdir',(1.,0.,0.));
#981=DIRECTION('center_axis',(0.965884952498621,-0.258971540013063,2.52393902779E-19));
#982=DIRECTION('ref_axis',(0.258971540013063,0.965884952498621,0.));
#983=DIRECTION('',(-2.61308453067924E-19,0.,1.));
#984=DIRECTION('',(-0.258971540013063,-0.965884952498621,-1.08247524235912E-18));
#985=DIRECTION('',(2.61308453067924E-19,0.,-1.));
#986=DIRECTION('',(0.258971540013063,0.965884952498621,0.));
#987=DIRECTION('center_axis',(0.,-9.74600926288151E-19,-1.));
#988=DIRECTION('ref_axis',(-1.,0.,0.));
#989=DIRECTION('',(-1.,0.,0.));
#990=DIRECTION('center_axis',(-0.96588495249862,0.258971540013063,-2.52393902779E-19));
#991=DIRECTION('ref_axis',(-0.258971540013063,-0.965884952498621,5.40147318326178E-19));
#992=DIRECTION('',(-0.258971540013063,-0.965884952498621,5.40147318326178E-19));
#993=DIRECTION('',(-2.61308453067925E-19,0.,1.));
#994=DIRECTION('',(0.258971540013063,0.965884952498621,1.08247524235912E-18));
#995=DIRECTION('',(2.61308453067925E-19,0.,-1.));
#996=DIRECTION('center_axis',(0.,-9.74600926288151E-19,-1.));
#997=DIRECTION('ref_axis',(-1.,0.,0.));
#998=DIRECTION('',(-1.,0.,0.));
#999=DIRECTION('center_axis',(4.17990039486394E-18,0.,-1.));
#1000=DIRECTION('ref_axis',(-1.,0.,-4.17990039486394E-18));
#1001=DIRECTION('',(1.,0.,4.17990039486394E-18));
#1002=DIRECTION('',(-0.258971540013063,0.965884952498621,-1.08247524235912E-18));
#1003=DIRECTION('',(-1.,0.,-4.17990039486394E-18));
#1004=DIRECTION('center_axis',(-4.17990039486394E-18,0.,1.));
#1005=DIRECTION('ref_axis',(-1.,0.,0.));
#1006=DIRECTION('center_axis',(-4.17990039486394E-18,0.,1.));
#1007=DIRECTION('ref_axis',(1.,0.,0.));
#1008=DIRECTION('center_axis',(4.17990039486394E-18,0.,-1.));
#1009=DIRECTION('ref_axis',(-1.,0.,-4.17990039486394E-18));
#1010=DIRECTION('',(-1.,0.,-4.17990039486394E-18));
#1011=DIRECTION('',(0.,1.,0.));
#1012=DIRECTION('',(1.,0.,4.17990039486394E-18));
#1013=DIRECTION('',(0.215760084628758,0.976446407070552,3.76101493348718E-8));
#1014=DIRECTION('center_axis',(-0.96588495249862,-0.258971540013063,2.52393902779E-19));
#1015=DIRECTION('ref_axis',(0.258971540013063,-0.965884952498621,5.40147318326178E-19));
#1016=DIRECTION('',(2.61308453067925E-19,0.,1.));
#1017=DIRECTION('',(0.258971540013063,-0.965884952498621,1.08247524235912E-18));
#1018=DIRECTION('',(-2.61308453067925E-19,0.,-1.));
#1019=DIRECTION('',(0.258971540013063,-0.965884952498621,5.40147318326178E-19));
#1020=DIRECTION('center_axis',(0.,9.74600926288151E-19,1.));
#1021=DIRECTION('ref_axis',(1.,0.,0.));
#1022=DIRECTION('',(-1.,0.,0.));
#1023=DIRECTION('center_axis',(0.965884952498621,0.258971540013063,-2.52393902779E-19));
#1024=DIRECTION('ref_axis',(-0.258971540013063,0.965884952498621,0.));
#1025=DIRECTION('',(-0.258971540013063,0.965884952498621,0.));
#1026=DIRECTION('',(2.61308453067924E-19,0.,1.));
#1027=DIRECTION('',(-2.61308453067924E-19,0.,-1.));
#1028=DIRECTION('center_axis',(0.,9.74600926288151E-19,1.));
#1029=DIRECTION('ref_axis',(1.,0.,0.));
#1030=DIRECTION('',(-1.,0.,0.));
#1031=DIRECTION('center_axis',(4.17990039486394E-18,0.,-1.));
#1032=DIRECTION('ref_axis',(-1.,0.,-4.17990039486394E-18));
#1033=DIRECTION('',(1.,0.,4.17990039486394E-18));
#1034=DIRECTION('',(0.,1.,0.));
#1035=DIRECTION('',(-1.,0.,-4.17990039486394E-18));
#1036=DIRECTION('',(-0.303789839987688,0.95273906874876,1.44512824880633E-8));
#1037=DIRECTION('center_axis',(-1.73472347597681E-16,1.,0.));
#1038=DIRECTION('ref_axis',(1.,1.73472347597681E-16,0.));
#1039=DIRECTION('',(-1.,-1.73472347597681E-16,0.));
#1040=DIRECTION('',(0.,0.,-1.));
#1041=DIRECTION('',(1.,1.73472347597681E-16,0.));
#1042=DIRECTION('',(1.,1.73472347597681E-16,0.));
#1043=DIRECTION('',(0.,0.,-1.));
#1044=DIRECTION('center_axis',(0.,0.,-1.));
#1045=DIRECTION('ref_axis',(1.,0.,0.));
#1046=DIRECTION('',(0.,-1.,0.));
#1047=DIRECTION('center_axis',(0.,0.,1.));
#1048=DIRECTION('ref_axis',(1.,0.,0.));
#1049=DIRECTION('',(-1.,0.,0.));
#1050=DIRECTION('center_axis',(0.,0.,-1.));
#1051=DIRECTION('ref_axis',(1.,0.,0.));
#1052=DIRECTION('',(0.,1.,0.));
#1053=DIRECTION('center_axis',(0.,0.,1.));
#1054=DIRECTION('ref_axis',(1.,0.,0.));
#1055=DIRECTION('center_axis',(0.,-1.,0.));
#1056=DIRECTION('ref_axis',(-1.,0.,0.));
#1057=DIRECTION('',(1.,0.,0.));
#1058=DIRECTION('',(0.,0.,-1.));
#1059=DIRECTION('',(-1.,0.,0.));
#1060=DIRECTION('',(0.,0.,-1.));
#1061=DIRECTION('center_axis',(0.,0.,-1.));
#1062=DIRECTION('ref_axis',(1.,0.,0.));
#1063=DIRECTION('',(0.,1.,0.));
#1064=DIRECTION('center_axis',(0.,0.,1.));
#1065=DIRECTION('ref_axis',(1.,0.,0.));
#1066=DIRECTION('center_axis',(0.,0.,-1.));
#1067=DIRECTION('ref_axis',(1.,0.,0.));
#1068=DIRECTION('center_axis',(0.,0.,1.));
#1069=DIRECTION('ref_axis',(1.,0.,0.));
#1070=DIRECTION('',(0.,-1.,0.));
#1071=DIRECTION('center_axis',(0.,0.,-1.));
#1072=DIRECTION('ref_axis',(1.,0.,0.));
#1073=DIRECTION('',(0.,-1.,0.));
#1074=DIRECTION('center_axis',(0.,0.,1.));
#1075=DIRECTION('ref_axis',(1.,0.,0.));
#1076=DIRECTION('center_axis',(-1.,0.,0.));
#1077=DIRECTION('ref_axis',(0.,1.,0.));
#1078=DIRECTION('',(0.,0.,-1.));
#1079=DIRECTION('',(0.,1.,0.));
#1080=DIRECTION('',(0.,1.,0.));
#1081=DIRECTION('',(0.,0.,-1.));
#1082=DIRECTION('center_axis',(1.,0.,0.));
#1083=DIRECTION('ref_axis',(0.,-1.,0.));
#1084=DIRECTION('',(0.,1.,0.));
#1085=DIRECTION('',(0.,0.,-1.));
#1086=DIRECTION('',(0.,-1.,0.));
#1087=DIRECTION('',(0.,-1.,0.));
#1088=DIRECTION('',(0.,0.,-1.));
#1089=DIRECTION('center_axis',(0.,0.,-1.));
#1090=DIRECTION('ref_axis',(1.,0.,0.));
#1091=DIRECTION('center_axis',(0.,0.,1.));
#1092=DIRECTION('ref_axis',(1.,0.,0.));
#1093=DIRECTION('center_axis',(0.,0.,-1.));
#1094=DIRECTION('ref_axis',(1.,0.,0.));
#1095=DIRECTION('center_axis',(0.,0.,1.));
#1096=DIRECTION('ref_axis',(1.,0.,0.));
#1097=DIRECTION('center_axis',(0.,0.,-1.));
#1098=DIRECTION('ref_axis',(1.,0.,0.));
#1099=DIRECTION('center_axis',(0.,0.,1.));
#1100=DIRECTION('ref_axis',(1.,0.,0.));
#1101=DIRECTION('center_axis',(0.,0.,1.));
#1102=DIRECTION('ref_axis',(1.,0.,0.));
#1103=DIRECTION('center_axis',(0.,0.,1.));
#1104=DIRECTION('ref_axis',(1.,0.,0.));
#1105=DIRECTION('center_axis',(8.88178419700125E-17,0.,-1.));
#1106=DIRECTION('ref_axis',(1.,0.,0.));
#1107=DIRECTION('',(0.,0.,-1.));
#1108=DIRECTION('center_axis',(0.,0.,-1.));
#1109=DIRECTION('ref_axis',(1.,0.,0.));
#1110=DIRECTION('',(0.,0.,-1.));
#1111=DIRECTION('center_axis',(0.,1.,0.));
#1112=DIRECTION('ref_axis',(1.,0.,0.));
#1113=DIRECTION('',(-1.,0.,0.));
#1114=DIRECTION('',(0.,0.,-1.));
#1115=DIRECTION('',(1.,0.,0.));
#1116=DIRECTION('',(1.,0.,0.));
#1117=DIRECTION('',(0.,0.,-1.));
#1118=DIRECTION('center_axis',(0.,0.,1.));
#1119=DIRECTION('ref_axis',(-1.,0.,0.));
#1120=DIRECTION('',(0.,-1.,0.));
#1121=DIRECTION('center_axis',(0.,0.,1.));
#1122=DIRECTION('ref_axis',(-1.,0.,0.));
#1123=DIRECTION('center_axis',(0.,0.,1.));
#1124=DIRECTION('ref_axis',(-1.,0.,0.));
#1125=DIRECTION('',(0.,1.,0.));
#1126=DIRECTION('',(-1.,1.73472347597681E-16,0.));
#1127=DIRECTION('center_axis',(0.,0.,1.));
#1128=DIRECTION('ref_axis',(-1.,0.,0.));
#1129=DIRECTION('center_axis',(0.,0.,1.));
#1130=DIRECTION('ref_axis',(-1.,0.,0.));
#1131=DIRECTION('',(0.,1.,0.));
#1132=DIRECTION('center_axis',(0.,0.,1.));
#1133=DIRECTION('ref_axis',(-1.,0.,0.));
#1134=DIRECTION('center_axis',(-1.73472347597681E-16,-1.,0.));
#1135=DIRECTION('ref_axis',(-1.,1.73472347597681E-16,0.));
#1136=DIRECTION('',(1.,-1.73472347597681E-16,0.));
#1137=DIRECTION('',(0.,0.,-1.));
#1138=DIRECTION('',(-1.,1.73472347597681E-16,0.));
#1139=DIRECTION('',(0.,0.,-1.));
#1140=DIRECTION('center_axis',(0.,0.,1.));
#1141=DIRECTION('ref_axis',(-1.,0.,0.));
#1142=DIRECTION('',(0.,-1.,0.));
#1143=DIRECTION('center_axis',(0.,0.,1.));
#1144=DIRECTION('ref_axis',(-1.,0.,0.));
#1145=DIRECTION('center_axis',(0.,0.,1.));
#1146=DIRECTION('ref_axis',(-1.,0.,0.));
#1147=DIRECTION('',(0.,-1.,0.));
#1148=DIRECTION('center_axis',(0.,0.,-1.));
#1149=DIRECTION('ref_axis',(-1.,0.,0.));
#1150=DIRECTION('center_axis',(0.,0.,-1.));
#1151=DIRECTION('ref_axis',(-1.,0.,0.));
#1152=DIRECTION('center_axis',(-1.,0.,0.));
#1153=DIRECTION('ref_axis',(0.,1.,0.));
#1154=DIRECTION('',(0.,1.,0.));
#1155=DIRECTION('',(0.,0.,-1.));
#1156=DIRECTION('',(0.,1.,0.));
#1157=DIRECTION('',(0.,1.,0.));
#1158=DIRECTION('',(0.,0.,-1.));
#1159=DIRECTION('center_axis',(1.,0.,0.));
#1160=DIRECTION('ref_axis',(0.,-1.,0.));
#1161=DIRECTION('',(0.,0.,-1.));
#1162=DIRECTION('',(0.,-1.,0.));
#1163=DIRECTION('',(0.,-1.,0.));
#1164=DIRECTION('',(0.,0.,-1.));
#1165=DIRECTION('center_axis',(0.,0.,1.));
#1166=DIRECTION('ref_axis',(-1.,0.,0.));
#1167=DIRECTION('center_axis',(0.,0.,-1.));
#1168=DIRECTION('ref_axis',(-1.,0.,0.));
#1169=DIRECTION('center_axis',(0.,0.,1.));
#1170=DIRECTION('ref_axis',(-1.,0.,0.));
#1171=DIRECTION('center_axis',(0.,0.,-1.));
#1172=DIRECTION('ref_axis',(-1.,0.,0.));
#1173=DIRECTION('center_axis',(0.,0.,-1.));
#1174=DIRECTION('ref_axis',(-1.,0.,0.));
#1175=DIRECTION('center_axis',(8.88178419700125E-17,0.,-1.));
#1176=DIRECTION('ref_axis',(-1.,0.,0.));
#1177=DIRECTION('',(0.,0.,-1.));
#1178=DIRECTION('center_axis',(0.,0.,-1.));
#1179=DIRECTION('ref_axis',(-1.,0.,0.));
#1180=DIRECTION('center_axis',(0.,0.,1.));
#1181=DIRECTION('ref_axis',(-1.,0.,0.));
#1182=DIRECTION('center_axis',(0.,0.,-1.));
#1183=DIRECTION('ref_axis',(-1.,0.,0.));
#1184=DIRECTION('',(0.,0.,-1.));
#1185=DIRECTION('center_axis',(-1.,0.,-2.77555756156289E-16));
#1186=DIRECTION('ref_axis',(-2.77555756156289E-16,0.,1.));
#1187=DIRECTION('',(2.77555756156289E-16,0.,-1.));
#1188=DIRECTION('',(0.,1.,0.));
#1189=DIRECTION('',(-2.77555756156289E-16,0.,1.));
#1190=DIRECTION('center_axis',(1.,0.,0.));
#1191=DIRECTION('ref_axis',(0.,0.,-1.));
#1192=DIRECTION('',(0.,0.,1.));
#1193=DIRECTION('',(0.,0.,-1.));
#1194=DIRECTION('',(0.,1.,0.));
#1195=DIRECTION('center_axis',(-8.88178419700125E-17,0.,1.));
#1196=DIRECTION('ref_axis',(1.,0.,8.88178419700125E-17));
#1197=DIRECTION('',(-1.,0.,-8.88178419700125E-17));
#1198=DIRECTION('',(1.,0.,8.88178419700125E-17));
#1199=DIRECTION('center_axis',(0.,1.,0.));
#1200=DIRECTION('ref_axis',(0.,0.,1.));
#1201=DIRECTION('center_axis',(0.,1.,0.));
#1202=DIRECTION('ref_axis',(1.,0.,0.));
#1203=CARTESIAN_POINT('',(0.,0.,0.));
#1204=CARTESIAN_POINT('Origin',(8.29993143839234,0.,0.));
#1205=CARTESIAN_POINT('',(8.29993143839234,3.8637374406828E-18,3.96443029804842));
#1206=CARTESIAN_POINT('',(10.4793270809056,8.12848182676133,4.5));
#1207=CARTESIAN_POINT('Ctrl Pts',(8.29993143839234,2.77555756156289E-16,
3.96443029804842));
#1208=CARTESIAN_POINT('Ctrl Pts',(8.69909817914527,1.48877034291769,4.0519979826198));
#1209=CARTESIAN_POINT('Ctrl Pts',(9.13395328118617,3.11064740152435,4.15043815702106));
#1210=CARTESIAN_POINT('Ctrl Pts',(9.8095701388312,5.63049246411625,4.31555593673579));
#1211=CARTESIAN_POINT('Ctrl Pts',(10.1628582574987,6.94814952287874,4.40533529816052));
#1212=CARTESIAN_POINT('Ctrl Pts',(10.4793270809056,8.12848182676133,4.5));
#1213=CARTESIAN_POINT('',(8.29993143839234,0.,0.));
#1214=CARTESIAN_POINT('',(8.29993143839234,0.,2.));
#1215=CARTESIAN_POINT('',(10.7398089911201,9.1,0.));
#1216=CARTESIAN_POINT('',(8.44077288040475,0.525295673498035,3.52815898957606E-17));
#1217=CARTESIAN_POINT('',(10.7398089911201,9.1,4.5));
#1218=CARTESIAN_POINT('',(10.7398089911201,9.1,2.));
#1219=CARTESIAN_POINT('',(8.29993143839234,4.38570416829668E-18,4.5));
#1220=CARTESIAN_POINT('Origin',(10.2198702147562,4.55,4.5));
#1221=CARTESIAN_POINT('',(10.7990341928506,9.1,4.5));
#1222=CARTESIAN_POINT('Ctrl Pts',(10.4793270809056,8.12848182676133,4.5));
#1223=CARTESIAN_POINT('Ctrl Pts',(10.5873022179035,8.45772139834543,4.5));
#1224=CARTESIAN_POINT('Ctrl Pts',(10.6942392976062,8.78274448622599,4.5));
#1225=CARTESIAN_POINT('Ctrl Pts',(10.7990341928506,9.1,4.5));
#1226=CARTESIAN_POINT('',(5.1099351073781,9.1,4.5));
#1227=CARTESIAN_POINT('Origin',(12.1398089911201,9.1,0.));
#1228=CARTESIAN_POINT('',(11.8798089683574,8.13027912015704,4.5));
#1229=CARTESIAN_POINT('',(9.69993143839234,3.8636471095969E-18,3.96433761284418));
#1230=CARTESIAN_POINT('Ctrl Pts',(11.8798089683574,8.13027912015704,4.5));
#1231=CARTESIAN_POINT('Ctrl Pts',(11.5573142545793,6.92747208088578,4.40353696921115));
#1232=CARTESIAN_POINT('Ctrl Pts',(11.1958678094667,5.57938694979086,4.31193611603041));
#1233=CARTESIAN_POINT('Ctrl Pts',(10.5213119798954,3.06349919868777,4.14748222750588));
#1234=CARTESIAN_POINT('Ctrl Pts',(10.0937272214819,1.46873830701425,4.05072341814182));
#1235=CARTESIAN_POINT('Ctrl Pts',(9.69993143839234,2.77555756156289E-16,
3.96433761284418));
#1236=CARTESIAN_POINT('',(12.1398089911201,9.1,4.5));
#1237=CARTESIAN_POINT('',(9.69993143839234,4.38570416829668E-18,4.5));
#1238=CARTESIAN_POINT('',(12.1398089911201,9.1,0.));
#1239=CARTESIAN_POINT('',(12.1398089911201,9.1,2.));
#1240=CARTESIAN_POINT('',(9.69993143839234,0.,5.08895038073931E-18));
#1241=CARTESIAN_POINT('',(11.0137652757929,4.90019997396123,4.60364418252254E-17));
#1242=CARTESIAN_POINT('',(9.69993143839234,5.55111512312578E-16,2.));
#1243=CARTESIAN_POINT('Origin',(10.2198702147562,4.55,4.5));
#1244=CARTESIAN_POINT('',(12.0806878052807,9.1,4.5));
#1245=CARTESIAN_POINT('Ctrl Pts',(12.0806878052807,9.1,4.5));
#1246=CARTESIAN_POINT('Ctrl Pts',(12.015770161638,8.78473751200693,4.5));
#1247=CARTESIAN_POINT('Ctrl Pts',(11.948557015046,8.46036012453846,4.5));
#1248=CARTESIAN_POINT('Ctrl Pts',(11.8798089683574,8.13027912015704,4.5));
#1249=CARTESIAN_POINT('',(5.1099351073781,9.1,4.5));
#1250=CARTESIAN_POINT('Origin',(12.5,0.,5.22487549357992E-17));
#1251=CARTESIAN_POINT('',(-8.29993143839234,0.,0.));
#1252=CARTESIAN_POINT('',(-12.5,0.,-5.22487549357992E-17));
#1253=CARTESIAN_POINT('',(-10.7398089911201,9.1,0.));
#1254=CARTESIAN_POINT('',(-7.60244464869553,-2.60141324680211,-3.17774613890137E-17));
#1255=CARTESIAN_POINT('',(-12.5,9.1,-5.22487549357992E-17));
#1256=CARTESIAN_POINT('',(-3.75,4.55,0.));
#1257=CARTESIAN_POINT('Origin',(-5.35,4.55,0.));
#1258=CARTESIAN_POINT('',(3.75,4.55,0.));
#1259=CARTESIAN_POINT('Origin',(5.35,4.55,0.));
#1260=CARTESIAN_POINT('Origin',(12.5,0.,5.22487549357992E-17));
#1261=CARTESIAN_POINT('',(12.5,9.1,0.));
#1262=CARTESIAN_POINT('',(-12.5,9.1,-5.22487549357992E-17));
#1263=CARTESIAN_POINT('',(12.5,0.,5.22487549357992E-17));
#1264=CARTESIAN_POINT('',(12.5,0.,5.22487549357992E-17));
#1265=CARTESIAN_POINT('',(-12.5,0.,-5.22487549357992E-17));
#1266=CARTESIAN_POINT('Ctrl Pts',(10.25,0.,4.99999978751877));
#1267=CARTESIAN_POINT('Ctrl Pts',(10.9202592707271,3.03333333333333,4.9999999043548));
#1268=CARTESIAN_POINT('Ctrl Pts',(11.5905185414543,6.06666666666667,5.00000002119083));
#1269=CARTESIAN_POINT('Ctrl Pts',(12.2607778121814,9.1,5.00000013802686));
#1270=CARTESIAN_POINT('Ctrl Pts',(10.25,0.,5.18383627320858));
#1271=CARTESIAN_POINT('Ctrl Pts',(10.920194680022,3.03333333333334,5.16174702911834));
#1272=CARTESIAN_POINT('Ctrl Pts',(11.5905831321594,6.06666666666666,5.13974442002897));
#1273=CARTESIAN_POINT('Ctrl Pts',(12.2607778121814,9.1,5.11765517593873));
#1274=CARTESIAN_POINT('Ctrl Pts',(10.1946865771828,0.,5.42858984536408));
#1275=CARTESIAN_POINT('Ctrl Pts',(10.8712871203602,3.03333333333333,5.37716615352868));
#1276=CARTESIAN_POINT('Ctrl Pts',(11.5478510939787,6.06666666666668,5.32572073732992));
#1277=CARTESIAN_POINT('Ctrl Pts',(12.2244516371561,9.1,5.27429704549452));
#1278=CARTESIAN_POINT('Ctrl Pts',(9.9531184062815,0.,5.8568202493272));
#1279=CARTESIAN_POINT('Ctrl Pts',(10.6573064697237,3.03333333333334,5.75397362570201));
#1280=CARTESIAN_POINT('Ctrl Pts',(11.3616176753087,6.06666666666666,5.651210398715));
#1281=CARTESIAN_POINT('Ctrl Pts',(12.0658057387509,9.1,5.5483637750898));
#1282=CARTESIAN_POINT('Ctrl Pts',(9.50894556046001,0.,6.22293372614309));
#1283=CARTESIAN_POINT('Ctrl Pts',(10.2640266246037,3.03333333333333,6.07621119130671));
#1284=CARTESIAN_POINT('Ctrl Pts',(11.0190215089558,6.06666666666667,5.92939831188373));
#1285=CARTESIAN_POINT('Ctrl Pts',(11.7741025730994,9.1,5.78267577704735));
#1286=CARTESIAN_POINT('Ctrl Pts',(8.74496835744696,0.,6.29993636717936));
#1287=CARTESIAN_POINT('Ctrl Pts',(9.58747071654118,3.03333333333333,6.14397141935443));
#1288=CARTESIAN_POINT('Ctrl Pts',(10.4298708293728,6.06666666666667,5.98792228406028));
#1289=CARTESIAN_POINT('Ctrl Pts',(11.272373188467,9.1,5.83195733623535));
#1290=CARTESIAN_POINT('Ctrl Pts',(8.06660775162682,0.,5.93951582995553));
#1291=CARTESIAN_POINT('Ctrl Pts',(8.98672974626819,3.03333333333333,5.82680502739912));
#1292=CARTESIAN_POINT('Ctrl Pts',(9.9067490924871,6.06666666666667,5.71399960848252));
#1293=CARTESIAN_POINT('Ctrl Pts',(10.8268710871285,9.1,5.6012888059261));
#1294=CARTESIAN_POINT('Ctrl Pts',(7.73371047132787,0.,5.32053508357557));
#1295=CARTESIAN_POINT('Ctrl Pts',(8.69201365440938,3.03333333333333,5.28214781679682));
#1296=CARTESIAN_POINT('Ctrl Pts',(9.64994312449662,6.06666666666667,5.2435294486613));
#1297=CARTESIAN_POINT('Ctrl Pts',(10.6082463075781,9.1,5.20514218188255));
#1298=CARTESIAN_POINT('Ctrl Pts',(7.7489068950364,0.,4.5660634367644));
#1299=CARTESIAN_POINT('Ctrl Pts',(8.70535172229522,3.03333333333333,4.61815228775095));
#1300=CARTESIAN_POINT('Ctrl Pts',(9.66178148009657,6.06666666666667,4.67019276121139));
#1301=CARTESIAN_POINT('Ctrl Pts',(10.6182263073554,9.1,4.72228161219794));
#1302=CARTESIAN_POINT('Ctrl Pts',(8.04609753505994,0.,4.13602782352558));
#1303=CARTESIAN_POINT('Ctrl Pts',(8.968801497258,3.03333333333333,4.23987777771567));
#1304=CARTESIAN_POINT('Ctrl Pts',(9.89069737963409,6.06666666666667,4.34320959754898));
#1305=CARTESIAN_POINT('Ctrl Pts',(10.8134013418321,9.1,4.44705955173907));
#1306=CARTESIAN_POINT('Ctrl Pts',(8.29993143839234,0.,3.96443029804842));
#1307=CARTESIAN_POINT('Ctrl Pts',(9.19332181126811,3.03333333333333,4.08869934120892));
#1308=CARTESIAN_POINT('Ctrl Pts',(10.0867121841439,6.06666666666667,4.21296838436942));
#1309=CARTESIAN_POINT('Ctrl Pts',(10.9801025570196,9.1,4.33723742752992));
#1310=CARTESIAN_POINT('',(12.2607778121814,9.1,5.00000013802686));
#1311=CARTESIAN_POINT('Ctrl Pts',(12.2607778121814,9.1,5.00000013802686));
#1312=CARTESIAN_POINT('Ctrl Pts',(12.2607778121814,9.1,5.11765517593873));
#1313=CARTESIAN_POINT('Ctrl Pts',(12.2244516371561,9.1,5.27429704549452));
#1314=CARTESIAN_POINT('Ctrl Pts',(12.0658057387509,9.1,5.5483637750898));
#1315=CARTESIAN_POINT('Ctrl Pts',(11.7741025730994,9.1,5.78267577704735));
#1316=CARTESIAN_POINT('Ctrl Pts',(11.272373188467,9.1,5.83195733623535));
#1317=CARTESIAN_POINT('Ctrl Pts',(10.8268710871285,9.1,5.6012888059261));
#1318=CARTESIAN_POINT('Ctrl Pts',(10.6082463075781,9.1,5.20514218188255));
#1319=CARTESIAN_POINT('Ctrl Pts',(10.6165229815558,9.1,4.80469332405254));
#1320=CARTESIAN_POINT('Ctrl Pts',(10.7258234804575,9.1,4.59103905285034));
#1321=CARTESIAN_POINT('Ctrl Pts',(10.7997479403247,9.1,4.50047637870977));
#1322=CARTESIAN_POINT('',(10.25,0.,4.99999978751877));
#1323=CARTESIAN_POINT('',(10.25,0.,4.99999978751877));
#1324=CARTESIAN_POINT('Ctrl Pts',(8.29993143839234,0.,3.96443029804842));
#1325=CARTESIAN_POINT('Ctrl Pts',(8.04609753505994,0.,4.13602782352558));
#1326=CARTESIAN_POINT('Ctrl Pts',(7.7489068950364,0.,4.5660634367644));
#1327=CARTESIAN_POINT('Ctrl Pts',(7.73371047132787,0.,5.32053508357557));
#1328=CARTESIAN_POINT('Ctrl Pts',(8.06660775162682,0.,5.93951582995553));
#1329=CARTESIAN_POINT('Ctrl Pts',(8.74496835744696,0.,6.29993636717936));
#1330=CARTESIAN_POINT('Ctrl Pts',(9.50894556046001,0.,6.22293372614309));
#1331=CARTESIAN_POINT('Ctrl Pts',(9.9531184062815,0.,5.8568202493272));
#1332=CARTESIAN_POINT('Ctrl Pts',(10.1946865771828,0.,5.42858984536408));
#1333=CARTESIAN_POINT('Ctrl Pts',(10.25,0.,5.18383627320858));
#1334=CARTESIAN_POINT('Ctrl Pts',(10.25,0.,4.99999978751877));
#1335=CARTESIAN_POINT('Origin',(-12.1398089911201,9.1,0.));
#1336=CARTESIAN_POINT('',(-9.69993143839234,3.85211374045068E-18,3.95250367257681));
#1337=CARTESIAN_POINT('',(-11.8917865083999,8.17495169573971,4.5));
#1338=CARTESIAN_POINT('Ctrl Pts',(-9.69993143839234,5.55111512312578E-16,
3.95250367257681));
#1339=CARTESIAN_POINT('Ctrl Pts',(-10.0987451237074,1.48745355368723,4.04028174068112));
#1340=CARTESIAN_POINT('Ctrl Pts',(-10.5361725727756,3.11892468306478,4.1398444058417));
#1341=CARTESIAN_POINT('Ctrl Pts',(-11.2108806397852,5.63538023343583,4.3070086445842));
#1342=CARTESIAN_POINT('Ctrl Pts',(-11.572459831083,6.98396046737449,4.40037501216439));
#1343=CARTESIAN_POINT('Ctrl Pts',(-11.8917865083999,8.17495169573971,4.5));
#1344=CARTESIAN_POINT('',(-9.69993143839234,0.,5.08895038073931E-18));
#1345=CARTESIAN_POINT('',(-9.69993143839234,5.55111512312578E-16,2.));
#1346=CARTESIAN_POINT('',(-12.1398089911201,9.1,0.));
#1347=CARTESIAN_POINT('',(-10.1754370440837,1.77349105366108,-4.25323133184785E-17));
#1348=CARTESIAN_POINT('',(-12.1398089911201,9.1,4.5));
#1349=CARTESIAN_POINT('',(-12.1398089911201,9.1,2.));
#1350=CARTESIAN_POINT('',(-9.69993143839234,4.38570416829668E-18,4.5));
#1351=CARTESIAN_POINT('Origin',(-10.2198702147562,4.55,4.5));
#1352=CARTESIAN_POINT('',(-12.0806828424558,9.1,4.5));
#1353=CARTESIAN_POINT('Ctrl Pts',(-11.8917865083999,8.17495169573971,4.5));
#1354=CARTESIAN_POINT('Ctrl Pts',(-11.9560553052273,8.48815330862532,4.5));
#1355=CARTESIAN_POINT('Ctrl Pts',(-12.0192439569255,8.79751179246222,4.5));
#1356=CARTESIAN_POINT('Ctrl Pts',(-12.0806828424558,9.1,4.5));
#1357=CARTESIAN_POINT('',(-5.1099351073781,9.1,4.5));
#1358=CARTESIAN_POINT('Origin',(-8.29993143839234,0.,0.));
#1359=CARTESIAN_POINT('',(-10.4913911123731,8.17347698901099,4.5));
#1360=CARTESIAN_POINT('',(-8.29993143839234,3.85219855696402E-18,3.95259069949321));
#1361=CARTESIAN_POINT('Ctrl Pts',(-10.4913911123731,8.17347698901099,4.5));
#1362=CARTESIAN_POINT('Ctrl Pts',(-10.1654659347831,6.95787536476017,4.39831638206043));
#1363=CARTESIAN_POINT('Ctrl Pts',(-9.79471795878142,5.57509835701928,4.30290896962529));
#1364=CARTESIAN_POINT('Ctrl Pts',(-9.12176983644463,3.06520686413741,4.13666781013453));
#1365=CARTESIAN_POINT('Ctrl Pts',(-8.69269845803931,1.46490133277038,4.03904004807031));
#1366=CARTESIAN_POINT('Ctrl Pts',(-8.29993143839234,5.55111512312578E-16,
3.95259069949322));
#1367=CARTESIAN_POINT('',(-10.7398089911201,9.1,4.5));
#1368=CARTESIAN_POINT('',(-8.29993143839234,4.38570416829668E-18,4.5));
#1369=CARTESIAN_POINT('',(-10.7398089911201,9.1,2.));
#1370=CARTESIAN_POINT('',(-8.29993143839234,0.,2.));
#1371=CARTESIAN_POINT('Origin',(-10.2198702147562,4.55,4.5));
#1372=CARTESIAN_POINT('',(-10.7990228985885,9.1,4.5));
#1373=CARTESIAN_POINT('Ctrl Pts',(-10.7990228985885,9.1,4.5));
#1374=CARTESIAN_POINT('Ctrl Pts',(-10.6985330932801,8.79833727406559,4.5));
#1375=CARTESIAN_POINT('Ctrl Pts',(-10.595687082209,8.48854290974189,4.5));
#1376=CARTESIAN_POINT('Ctrl Pts',(-10.4913911123731,8.17347698901099,4.5));
#1377=CARTESIAN_POINT('',(-5.1099351073781,9.1,4.5));
#1378=CARTESIAN_POINT('Origin',(12.5,0.,5.22487549357992E-17));
#1379=CARTESIAN_POINT('',(-12.5,0.,0.));
#1380=CARTESIAN_POINT('',(-12.5,0.,-5.22487549357992E-17));
#1381=CARTESIAN_POINT('',(-12.5,9.1,0.));
#1382=CARTESIAN_POINT('',(-12.5,0.,0.));
#1383=CARTESIAN_POINT('',(-12.5,9.1,-5.22487549357992E-17));
#1384=CARTESIAN_POINT('Ctrl Pts',(-9.69993143839234,0.,3.95250367257681));
#1385=CARTESIAN_POINT('Ctrl Pts',(-10.4292238646837,3.03333333333333,4.07820343164473));
#1386=CARTESIAN_POINT('Ctrl Pts',(-11.1585162909751,6.06666666666667,4.20390319071264));
#1387=CARTESIAN_POINT('Ctrl Pts',(-11.8878087172665,9.1,4.32960294978055));
#1388=CARTESIAN_POINT('Ctrl Pts',(-9.91159180879645,0.,4.08681776408958));
#1389=CARTESIAN_POINT('Ctrl Pts',(-10.6154517076421,3.03333333333333,4.19646513042036));
#1390=CARTESIAN_POINT('Ctrl Pts',(-11.3194113726739,6.06666666666667,4.30591654286808));
#1391=CARTESIAN_POINT('Ctrl Pts',(-12.0232712715195,9.1,4.41556390919886));
#1392=CARTESIAN_POINT('Ctrl Pts',(-10.2503565543447,0.,4.4806336671434));
#1393=CARTESIAN_POINT('Ctrl Pts',(-10.9135549727925,3.03333333333333,4.54295519163111));
#1394=CARTESIAN_POINT('Ctrl Pts',(-11.5768821576913,6.06666666666666,4.60528438923513));
#1395=CARTESIAN_POINT('Ctrl Pts',(-12.240080576139,9.1,4.66760591372283));
#1396=CARTESIAN_POINT('Ctrl Pts',(-10.3362533693385,0.,5.24774807545989));
#1397=CARTESIAN_POINT('Ctrl Pts',(-10.9892270477126,3.03333333333333,5.21804833711241));
#1398=CARTESIAN_POINT('Ctrl Pts',(-11.6420808257564,6.06666666666666,5.18825853556747));
#1399=CARTESIAN_POINT('Ctrl Pts',(-12.2950545041305,9.1,5.15855879721998));
#1400=CARTESIAN_POINT('Ctrl Pts',(-9.9679585995101,0.,5.93080466198332));
#1401=CARTESIAN_POINT('Ctrl Pts',(-10.665103519164,3.03333333333333,5.81913863503464));
#1402=CARTESIAN_POINT('Ctrl Pts',(-11.3622010758705,6.06666666666666,5.70738073873603));
#1403=CARTESIAN_POINT('Ctrl Pts',(-12.0593459955244,9.1,5.59571471178736));
#1404=CARTESIAN_POINT('Ctrl Pts',(-9.27221237729233,0.,6.29878525155432));
#1405=CARTESIAN_POINT('Ctrl Pts',(-10.0528369649351,3.03333333333333,6.14298788500039));
#1406=CARTESIAN_POINT('Ctrl Pts',(-10.8334440978517,6.06666666666666,5.98701949361372));
#1407=CARTESIAN_POINT('Ctrl Pts',(-11.6140686854945,9.1,5.8312221270598));
#1408=CARTESIAN_POINT('Ctrl Pts',(-8.48376167737237,0.,6.2259937267481));
#1409=CARTESIAN_POINT('Ctrl Pts',(-9.35898686277053,3.03333333333333,6.07888249810433));
#1410=CARTESIAN_POINT('Ctrl Pts',(-10.2342353606047,6.06666666666667,5.93174681188386));
#1411=CARTESIAN_POINT('Ctrl Pts',(-11.1094605460029,9.1,5.78463558324009));
#1412=CARTESIAN_POINT('Ctrl Pts',(-7.87108690655498,0.,5.73779299446957));
#1413=CARTESIAN_POINT('Ctrl Pts',(-8.81985928966968,3.03333333333333,5.649225853443));
#1414=CARTESIAN_POINT('Ctrl Pts',(-9.76857654925533,6.06666666666667,5.56075447060449));
#1415=CARTESIAN_POINT('Ctrl Pts',(-10.71734893237,9.1,5.47218732957793));
#1416=CARTESIAN_POINT('Ctrl Pts',(-7.71731256962916,0.,5.24614267548949));
#1417=CARTESIAN_POINT('Ctrl Pts',(-8.68459411080978,3.03333333333333,5.21661843187873));
#1418=CARTESIAN_POINT('Ctrl Pts',(-9.6516518757164,6.06666666666667,5.18705558555669));
#1419=CARTESIAN_POINT('Ctrl Pts',(-10.618933416897,9.1,5.15753134194593));
#1420=CARTESIAN_POINT('Ctrl Pts',(-7.71731256962916,0.,5.));
#1421=CARTESIAN_POINT('Ctrl Pts',(-8.68451951871845,3.03333333333333,5.00000004601003));
#1422=CARTESIAN_POINT('Ctrl Pts',(-9.65172646780773,6.06666666666667,5.00000009202007));
#1423=CARTESIAN_POINT('Ctrl Pts',(-10.618933416897,9.1,5.0000001380301));
#1424=CARTESIAN_POINT('',(-10.618933416897,9.1,5.0000001380301));
#1425=CARTESIAN_POINT('Ctrl Pts',(-10.618933416897,9.1,5.0000001380301));
#1426=CARTESIAN_POINT('Ctrl Pts',(-10.618933416897,9.1,5.15753134194593));
#1427=CARTESIAN_POINT('Ctrl Pts',(-10.71734893237,9.1,5.47218732957793));
#1428=CARTESIAN_POINT('Ctrl Pts',(-11.1094605460029,9.1,5.78463558324009));
#1429=CARTESIAN_POINT('Ctrl Pts',(-11.6140686854945,9.1,5.8312221270598));
#1430=CARTESIAN_POINT('Ctrl Pts',(-12.0593459955244,9.1,5.59571471178736));
#1431=CARTESIAN_POINT('Ctrl Pts',(-12.2950545041305,9.1,5.15855879721998));
#1432=CARTESIAN_POINT('Ctrl Pts',(-12.24995940232,9.1,4.75583024799019));
#1433=CARTESIAN_POINT('Ctrl Pts',(-12.1270633485782,9.1,4.55690809716938));
#1434=CARTESIAN_POINT('Ctrl Pts',(-12.0804836762779,9.1,4.50022701125587));
#1435=CARTESIAN_POINT('',(-7.71731256962916,0.,5.));
#1436=CARTESIAN_POINT('',(-7.71731256962916,0.,5.));
#1437=CARTESIAN_POINT('Ctrl Pts',(-9.69993143839234,0.,3.95250367257681));
#1438=CARTESIAN_POINT('Ctrl Pts',(-9.91159180879645,0.,4.08681776408958));
#1439=CARTESIAN_POINT('Ctrl Pts',(-10.2503565543447,0.,4.4806336671434));
#1440=CARTESIAN_POINT('Ctrl Pts',(-10.3362533693385,0.,5.24774807545989));
#1441=CARTESIAN_POINT('Ctrl Pts',(-9.9679585995101,0.,5.93080466198332));
#1442=CARTESIAN_POINT('Ctrl Pts',(-9.27221237729233,0.,6.29878525155432));
#1443=CARTESIAN_POINT('Ctrl Pts',(-8.48376167737237,0.,6.2259937267481));
#1444=CARTESIAN_POINT('Ctrl Pts',(-7.87108690655498,0.,5.73779299446957));
#1445=CARTESIAN_POINT('Ctrl Pts',(-7.71731256962916,0.,5.24614267548949));
#1446=CARTESIAN_POINT('Ctrl Pts',(-7.71731256962916,0.,5.));
#1447=CARTESIAN_POINT('Origin',(3.75,2.95,6.2));
#1448=CARTESIAN_POINT('',(6.95,2.95,6.));
#1449=CARTESIAN_POINT('',(3.75,2.95,6.));
#1450=CARTESIAN_POINT('',(6.95,2.95,6.));
#1451=CARTESIAN_POINT('',(6.95,2.95,5.8));
#1452=CARTESIAN_POINT('',(6.95,2.95,6.2));
#1453=CARTESIAN_POINT('',(5.35,2.95,5.8));
#1454=CARTESIAN_POINT('',(6.95,2.95,5.8));
#1455=CARTESIAN_POINT('',(3.75,2.95,5.8));
#1456=CARTESIAN_POINT('',(6.95,2.95,5.8));
#1457=CARTESIAN_POINT('',(3.75,2.95,6.2));
#1458=CARTESIAN_POINT('Origin',(4.54999999156187,5.35,5.8));
#1459=CARTESIAN_POINT('',(3.75,6.15,5.8));
#1460=CARTESIAN_POINT('',(3.75,4.55,5.8));
#1461=CARTESIAN_POINT('',(3.75,7.49321253055229,5.8));
#1462=CARTESIAN_POINT('',(5.34999998312374,6.15,5.8));
#1463=CARTESIAN_POINT('Origin',(5.35,4.55,5.8));
#1464=CARTESIAN_POINT('',(6.95,6.15,5.8));
#1465=CARTESIAN_POINT('Origin',(6.15,3.74999998340932,5.8));
#1466=CARTESIAN_POINT('',(6.95,4.54999996681863,5.8));
#1467=CARTESIAN_POINT('',(6.95,7.49321253055229,5.8));
#1468=CARTESIAN_POINT('Origin',(5.35,4.55,5.8));
#1469=CARTESIAN_POINT('Origin',(6.95,6.15,6.2));
#1470=CARTESIAN_POINT('',(3.75,6.15,6.));
#1471=CARTESIAN_POINT('',(6.95,6.15,6.));
#1472=CARTESIAN_POINT('',(6.95,6.15,6.));
#1473=CARTESIAN_POINT('',(3.75,6.15,6.2));
#1474=CARTESIAN_POINT('',(6.95,6.15,5.8));
#1475=CARTESIAN_POINT('',(6.95,6.15,5.8));
#1476=CARTESIAN_POINT('',(6.95,6.15,6.2));
#1477=CARTESIAN_POINT('Origin',(6.14999999156187,5.34999998340932,5.8));
#1478=CARTESIAN_POINT('',(6.95,7.49321253055229,5.8));
#1479=CARTESIAN_POINT('Origin',(5.35,4.55,5.8));
#1480=CARTESIAN_POINT('Origin',(4.55,3.75,5.8));
#1481=CARTESIAN_POINT('Origin',(5.35,4.55,5.8));
#1482=CARTESIAN_POINT('',(3.75,7.49321253055229,5.8));
#1483=CARTESIAN_POINT('Origin',(5.35,4.55,6.2));
#1484=CARTESIAN_POINT('',(6.95,7.49321253055229,6.2));
#1485=CARTESIAN_POINT('',(6.95,1.60678746944771,6.2));
#1486=CARTESIAN_POINT('',(6.95,5.35,6.2));
#1487=CARTESIAN_POINT('Origin',(5.35,4.55,6.2));
#1488=CARTESIAN_POINT('Origin',(6.95,6.15,6.2));
#1489=CARTESIAN_POINT('',(6.95,7.49321253055229,6.));
#1490=CARTESIAN_POINT('',(6.95,7.49321253055229,6.2));
#1491=CARTESIAN_POINT('',(6.95,7.49321253055229,6.));
#1492=CARTESIAN_POINT('',(6.95,1.60678746944771,6.));
#1493=CARTESIAN_POINT('',(6.95,7.49321253055229,6.));
#1494=CARTESIAN_POINT('',(6.95,1.60678746944771,6.2));
#1495=CARTESIAN_POINT('Origin',(3.75,7.49321253055229,6.2));
#1496=CARTESIAN_POINT('',(3.75,1.60678746944771,6.2));
#1497=CARTESIAN_POINT('',(3.75,7.49321253055229,6.2));
#1498=CARTESIAN_POINT('',(3.75,3.75,6.2));
#1499=CARTESIAN_POINT('',(3.75,1.60678746944771,6.));
#1500=CARTESIAN_POINT('',(3.75,1.60678746944771,6.2));
#1501=CARTESIAN_POINT('',(3.75,7.49321253055229,6.));
#1502=CARTESIAN_POINT('',(3.75,7.49321253055229,6.));
#1503=CARTESIAN_POINT('',(3.75,7.49321253055229,6.));
#1504=CARTESIAN_POINT('',(3.75,7.49321253055229,6.2));
#1505=CARTESIAN_POINT('Origin',(5.35,7.025,6.));
#1506=CARTESIAN_POINT('Origin',(5.35,4.55,6.));
#1507=CARTESIAN_POINT('Origin',(5.35,2.075,6.));
#1508=CARTESIAN_POINT('Origin',(5.35,4.55,6.));
#1509=CARTESIAN_POINT('Origin',(5.35,4.55,6.2));
#1510=CARTESIAN_POINT('',(2.,4.55,6.2));
#1511=CARTESIAN_POINT('Origin',(5.35,4.55,6.2));
#1512=CARTESIAN_POINT('Origin',(5.35,4.55,6.2));
#1513=CARTESIAN_POINT('Origin',(5.35,4.55,8.));
#1514=CARTESIAN_POINT('',(2.,4.55,8.));
#1515=CARTESIAN_POINT('Origin',(5.35,4.55,8.));
#1516=CARTESIAN_POINT('',(2.,4.55,8.));
#1517=CARTESIAN_POINT('Origin',(5.35,4.55,8.));
#1518=CARTESIAN_POINT('',(3.75,4.55,8.));
#1519=CARTESIAN_POINT('Origin',(-6.95,6.15,6.2));
#1520=CARTESIAN_POINT('',(-3.75,6.15,6.));
#1521=CARTESIAN_POINT('',(-6.95,6.15,6.));
#1522=CARTESIAN_POINT('',(-6.95,6.15,6.));
#1523=CARTESIAN_POINT('',(-6.95,6.15,5.8));
#1524=CARTESIAN_POINT('',(-6.95,6.15,6.2));
#1525=CARTESIAN_POINT('',(-5.34999998312374,6.15,5.8));
#1526=CARTESIAN_POINT('',(-6.95,6.15,5.8));
#1527=CARTESIAN_POINT('',(-3.75,6.15,5.8));
#1528=CARTESIAN_POINT('',(-6.95,6.15,5.8));
#1529=CARTESIAN_POINT('',(-3.75,6.15,6.2));
#1530=CARTESIAN_POINT('Origin',(-4.54999999156187,5.35,5.8));
#1531=CARTESIAN_POINT('',(-3.75,4.55,5.8));
#1532=CARTESIAN_POINT('',(-3.75,7.49321253055229,5.8));
#1533=CARTESIAN_POINT('Origin',(-5.35,4.55,5.8));
#1534=CARTESIAN_POINT('Origin',(-6.15,3.74999998340932,5.8));
#1535=CARTESIAN_POINT('',(-6.95,2.95,5.8));
#1536=CARTESIAN_POINT('',(-6.95,4.54999996681863,5.8));
#1537=CARTESIAN_POINT('',(-6.95,7.49321253055229,5.8));
#1538=CARTESIAN_POINT('',(-5.35,2.95,5.8));
#1539=CARTESIAN_POINT('',(-6.95,2.95,5.8));
#1540=CARTESIAN_POINT('Origin',(-5.35,4.55,5.8));
#1541=CARTESIAN_POINT('Origin',(-6.14999999156187,5.34999998340932,5.8));
#1542=CARTESIAN_POINT('',(-6.95,7.49321253055229,5.8));
#1543=CARTESIAN_POINT('Origin',(-5.35,4.55,5.8));
#1544=CARTESIAN_POINT('Origin',(-3.75,2.95,6.2));
#1545=CARTESIAN_POINT('',(-6.95,2.95,6.));
#1546=CARTESIAN_POINT('',(-3.75,2.95,6.));
#1547=CARTESIAN_POINT('',(-6.95,2.95,6.));
#1548=CARTESIAN_POINT('',(-3.75,2.95,5.8));
#1549=CARTESIAN_POINT('',(-3.75,2.95,6.2));
#1550=CARTESIAN_POINT('',(-6.95,2.95,5.8));
#1551=CARTESIAN_POINT('',(-6.95,2.95,6.2));
#1552=CARTESIAN_POINT('Origin',(-4.55,3.75,5.8));
#1553=CARTESIAN_POINT('',(-3.75,7.49321253055229,5.8));
#1554=CARTESIAN_POINT('Origin',(-5.35,4.55,5.8));
#1555=CARTESIAN_POINT('Origin',(-5.35,4.55,6.2));
#1556=CARTESIAN_POINT('',(-3.75,7.49321253055229,6.2));
#1557=CARTESIAN_POINT('',(-3.75,1.60678746944771,6.2));
#1558=CARTESIAN_POINT('',(-3.75,3.75,6.2));
#1559=CARTESIAN_POINT('',(-2.,4.55,6.2));
#1560=CARTESIAN_POINT('Origin',(-5.35,4.55,6.2));
#1561=CARTESIAN_POINT('Origin',(-5.35,4.55,6.2));
#1562=CARTESIAN_POINT('Origin',(-6.95,6.15,6.2));
#1563=CARTESIAN_POINT('',(-6.95,1.60678746944771,6.2));
#1564=CARTESIAN_POINT('',(-6.95,7.49321253055229,6.2));
#1565=CARTESIAN_POINT('',(-6.95,5.35,6.2));
#1566=CARTESIAN_POINT('',(-6.95,1.60678746944771,6.));
#1567=CARTESIAN_POINT('',(-6.95,1.60678746944771,6.2));
#1568=CARTESIAN_POINT('',(-6.95,7.49321253055229,6.));
#1569=CARTESIAN_POINT('',(-6.95,7.49321253055229,6.));
#1570=CARTESIAN_POINT('',(-6.95,7.49321253055229,6.));
#1571=CARTESIAN_POINT('',(-6.95,7.49321253055229,6.2));
#1572=CARTESIAN_POINT('Origin',(-3.75,7.49321253055229,6.2));
#1573=CARTESIAN_POINT('',(-3.75,7.49321253055229,6.));
#1574=CARTESIAN_POINT('',(-3.75,7.49321253055229,6.2));
#1575=CARTESIAN_POINT('',(-3.75,7.49321253055229,6.));
#1576=CARTESIAN_POINT('',(-3.75,1.60678746944771,6.));
#1577=CARTESIAN_POINT('',(-3.75,7.49321253055229,6.));
#1578=CARTESIAN_POINT('',(-3.75,1.60678746944771,6.2));
#1579=CARTESIAN_POINT('Origin',(-5.35,7.025,6.));
#1580=CARTESIAN_POINT('Origin',(-5.35,4.55,6.));
#1581=CARTESIAN_POINT('Origin',(-5.35,2.075,6.));
#1582=CARTESIAN_POINT('Origin',(-5.35,4.55,6.));
#1583=CARTESIAN_POINT('Origin',(-5.35,4.55,8.));
#1584=CARTESIAN_POINT('',(-2.,4.55,8.));
#1585=CARTESIAN_POINT('Origin',(-5.35,4.55,8.));
#1586=CARTESIAN_POINT('',(-2.,4.55,8.));
#1587=CARTESIAN_POINT('Origin',(-5.35,4.55,6.2));
#1588=CARTESIAN_POINT('Origin',(-5.35,4.55,6.2));
#1589=CARTESIAN_POINT('Origin',(-5.35,4.55,8.));
#1590=CARTESIAN_POINT('',(-3.75,4.55,8.));
#1591=CARTESIAN_POINT('Ctrl Pts',(9.69993143839234,0.,3.96433761284418));
#1592=CARTESIAN_POINT('Ctrl Pts',(10.4331307548313,3.03333333333333,4.08861777828178));
#1593=CARTESIAN_POINT('Ctrl Pts',(11.1663300712703,6.06666666666667,4.21289794371938));
#1594=CARTESIAN_POINT('Ctrl Pts',(11.8995293877093,9.1,4.33717810915699));
#1595=CARTESIAN_POINT('Ctrl Pts',(10.0370314177187,0.,4.19215988351162));
#1596=CARTESIAN_POINT('Ctrl Pts',(10.7313362886116,3.03333333333333,4.28931601754508));
#1597=CARTESIAN_POINT('Ctrl Pts',(11.4266093494005,6.06666666666667,4.38582784054772));
#1598=CARTESIAN_POINT('Ctrl Pts',(12.1209142202933,9.1,4.48298397458118));
#1599=CARTESIAN_POINT('Ctrl Pts',(10.25,0.,4.59313445369637));
#1600=CARTESIAN_POINT('Ctrl Pts',(10.9199088879993,3.03333333333333,4.6421188092477));
#1601=CARTESIAN_POINT('Ctrl Pts',(11.5908689241821,6.06666666666667,4.69062266140232));
#1602=CARTESIAN_POINT('Ctrl Pts',(12.2607778121814,9.1,4.73960701695365));
#1603=CARTESIAN_POINT('Ctrl Pts',(10.25,0.,4.99999978751877));
#1604=CARTESIAN_POINT('Ctrl Pts',(10.9202592707271,3.03333333333333,4.9999999043548));
#1605=CARTESIAN_POINT('Ctrl Pts',(11.5905185414543,6.06666666666667,5.00000002119083));
#1606=CARTESIAN_POINT('Ctrl Pts',(12.2607778121814,9.1,5.00000013802686));
#1607=CARTESIAN_POINT('Ctrl Pts',(10.25,0.,4.99999978751877));
#1608=CARTESIAN_POINT('Ctrl Pts',(10.25,0.,4.59313445369637));
#1609=CARTESIAN_POINT('Ctrl Pts',(10.0370314177187,0.,4.19215988351162));
#1610=CARTESIAN_POINT('Ctrl Pts',(9.69993143839234,0.,3.96433761284418));
#1611=CARTESIAN_POINT('Ctrl Pts',(12.0794831706271,9.1,4.50068119678733));
#1612=CARTESIAN_POINT('Ctrl Pts',(12.1939186984876,9.1,4.64173191013718));
#1613=CARTESIAN_POINT('Ctrl Pts',(12.2607778121814,9.1,4.8199649170924));
#1614=CARTESIAN_POINT('Ctrl Pts',(12.2607778121814,9.1,5.00000013802686));
#1615=CARTESIAN_POINT('Ctrl Pts',(-7.71731256962916,0.,5.));
#1616=CARTESIAN_POINT('Ctrl Pts',(-8.68451951871845,3.03333333333333,5.00000004601003));
#1617=CARTESIAN_POINT('Ctrl Pts',(-9.65172646780773,6.06666666666667,5.00000009202007));
#1618=CARTESIAN_POINT('Ctrl Pts',(-10.618933416897,9.1,5.0000001380301));
#1619=CARTESIAN_POINT('Ctrl Pts',(-7.71731256962916,0.,4.5860524022534));
#1620=CARTESIAN_POINT('Ctrl Pts',(-8.68494041156857,3.03333333333333,4.63590741674531));
#1621=CARTESIAN_POINT('Ctrl Pts',(-9.65130557495761,6.06666666666667,4.68521884327653));
#1622=CARTESIAN_POINT('Ctrl Pts',(-10.618933416897,9.1,4.73507385776844));
#1623=CARTESIAN_POINT('Ctrl Pts',(-7.94400363167101,0.,4.17851612175421));
#1624=CARTESIAN_POINT('Ctrl Pts',(-8.88439313891791,3.03333333333334,4.27733915035133));
#1625=CARTESIAN_POINT('Ctrl Pts',(-9.82362610067096,6.06666666666666,4.37542778912456));
#1626=CARTESIAN_POINT('Ctrl Pts',(-10.7640156079179,9.1,4.47425081772167));
#1627=CARTESIAN_POINT('Ctrl Pts',(-8.29993143839235,0.,3.95259069949321));
#1628=CARTESIAN_POINT('Ctrl Pts',(-9.19722404725278,3.03333333333333,4.07828001531838));
#1629=CARTESIAN_POINT('Ctrl Pts',(-10.0945166561132,6.06666666666667,4.20396933114355));
#1630=CARTESIAN_POINT('Ctrl Pts',(-10.9918092649736,9.1,4.32965864696872));
#1631=CARTESIAN_POINT('Ctrl Pts',(-7.71731256962916,0.,5.));
#1632=CARTESIAN_POINT('Ctrl Pts',(-7.71731256962916,0.,4.5860524022534));
#1633=CARTESIAN_POINT('Ctrl Pts',(-7.94400363167101,0.,4.17851612175421));
#1634=CARTESIAN_POINT('Ctrl Pts',(-8.29993143839235,0.,3.95259069949321));
#1635=CARTESIAN_POINT('Ctrl Pts',(-10.8002458810802,9.1,4.50091094408657));
#1636=CARTESIAN_POINT('Ctrl Pts',(-10.6858889628329,9.1,4.64194454546233));
#1637=CARTESIAN_POINT('Ctrl Pts',(-10.618933416897,9.1,4.82002551744352));
#1638=CARTESIAN_POINT('Ctrl Pts',(-10.618933416897,9.1,5.0000001380301));
#1639=CARTESIAN_POINT('Origin',(-12.5,0.,0.));
#1640=CARTESIAN_POINT('',(-12.5,0.,8.));
#1641=CARTESIAN_POINT('',(-12.5,0.,8.));
#1642=CARTESIAN_POINT('',(-12.5,9.1,8.));
#1643=CARTESIAN_POINT('',(-12.5,0.,8.));
#1644=CARTESIAN_POINT('',(-12.5,9.1,8.));
#1645=CARTESIAN_POINT('Origin',(12.5,0.,8.));
#1646=CARTESIAN_POINT('',(12.5,0.,8.));
#1647=CARTESIAN_POINT('',(12.5,0.,5.22487549357992E-17));
#1648=CARTESIAN_POINT('',(12.5,9.1,8.));
#1649=CARTESIAN_POINT('',(12.5,9.1,5.22487549357992E-17));
#1650=CARTESIAN_POINT('',(12.5,0.,8.));
#1651=CARTESIAN_POINT('Origin',(-12.5,0.,8.));
#1652=CARTESIAN_POINT('',(12.5,0.,8.));
#1653=CARTESIAN_POINT('',(12.5,9.1,8.));
#1654=CARTESIAN_POINT('Origin',(0.,9.1,4.));
#1655=CARTESIAN_POINT('Origin',(0.,0.,4.));
#1656=UNCERTAINTY_MEASURE_WITH_UNIT(LENGTH_MEASURE(0.01),#1660,
'DISTANCE_ACCURACY_VALUE',
'Maximum model space distance between geometric entities at asserted c
onnectivities');
#1657=UNCERTAINTY_MEASURE_WITH_UNIT(LENGTH_MEASURE(0.01),#1660,
'DISTANCE_ACCURACY_VALUE',
'Maximum model space distance between geometric entities at asserted c
onnectivities');
#1658=(
GEOMETRIC_REPRESENTATION_CONTEXT(3)
GLOBAL_UNCERTAINTY_ASSIGNED_CONTEXT((#1656))
GLOBAL_UNIT_ASSIGNED_CONTEXT((#1660,#1662,#1663))
REPRESENTATION_CONTEXT('','3D')
);
#1659=(
GEOMETRIC_REPRESENTATION_CONTEXT(3)
GLOBAL_UNCERTAINTY_ASSIGNED_CONTEXT((#1657))
GLOBAL_UNIT_ASSIGNED_CONTEXT((#1660,#1662,#1663))
REPRESENTATION_CONTEXT('','3D')
);
#1660=(
LENGTH_UNIT()
NAMED_UNIT(*)
SI_UNIT(.MILLI.,.METRE.)
);
#1661=(
LENGTH_UNIT()
NAMED_UNIT(*)
SI_UNIT($,.METRE.)
);
#1662=(
NAMED_UNIT(*)
PLANE_ANGLE_UNIT()
SI_UNIT($,.RADIAN.)
);
#1663=(
NAMED_UNIT(*)
SI_UNIT($,.STERADIAN.)
SOLID_ANGLE_UNIT()
);
#1664=SHAPE_DEFINITION_REPRESENTATION(#1665,#1666);
#1665=PRODUCT_DEFINITION_SHAPE('',$,#1668);
#1666=SHAPE_REPRESENTATION('',(#912),#1658);
#1667=PRODUCT_DEFINITION_CONTEXT('part definition',#1672,'design');
#1668=PRODUCT_DEFINITION('spring_guide_capture',
'spring_guide_capture v4',#1669,#1667);
#1669=PRODUCT_DEFINITION_FORMATION('',$,#1674);
#1670=PRODUCT_RELATED_PRODUCT_CATEGORY('spring_guide_capture v4',
'spring_guide_capture v4',(#1674));
#1671=APPLICATION_PROTOCOL_DEFINITION('international standard',
'automotive_design',2009,#1672);
#1672=APPLICATION_CONTEXT(
'Core Data for Automotive Mechanical Design Process');
#1673=PRODUCT_CONTEXT('part definition',#1672,'mechanical');
#1674=PRODUCT('spring_guide_capture','spring_guide_capture v4',$,(#1673));
#1675=PRESENTATION_STYLE_ASSIGNMENT((#1676));
#1676=SURFACE_STYLE_USAGE(.BOTH.,#1677);
#1677=SURFACE_SIDE_STYLE('',(#1678));
#1678=SURFACE_STYLE_FILL_AREA(#1679);
#1679=FILL_AREA_STYLE('Steel - Satin',(#1680));
#1680=FILL_AREA_STYLE_COLOUR('Steel - Satin',#1681);
#1681=COLOUR_RGB('Steel - Satin',0.627450980392157,0.627450980392157,0.627450980392157);
ENDSEC;
END-ISO-10303-21;
