ISO-10303-21;
HEADER;
/* Generated by software containing ST-Developer
 * from STEP Tools, Inc. (www.steptools.com) 
 */

FILE_DESCRIPTION(
/* description */ (''),
/* implementation_level */ '2;1');

FILE_NAME(
/* name */ 'PRT_adapter for mag connector_12pin.step',
/* time_stamp */ '2026-10-02T15:54:09-04:00',
/* author */ (''),
/* organization */ (''),
/* preprocessor_version */ 'ST-DEVELOPER v20.2',
/* originating_system */ 'Autodesk Translation Framework v15.15.0.0',
/* authorisation */ '');

FILE_SCHEMA (('AUTOMOTIVE_DESIGN { 1 0 10303 214 3 1 1 }'));
ENDSEC;

DATA;
#10=MECHANICAL_DESIGN_GEOMETRIC_PRESENTATION_REPRESENTATION('',(#13),#1719);
#11=SHAPE_REPRESENTATION_RELATIONSHIP('SRR','None',#1726,#12);
#12=ADVANCED_BREP_SHAPE_REPRESENTATION('',(#14),#1718);
#13=STYLED_ITEM('',(#1735),#14);
#14=MANIFOLD_SOLID_BREP('Body1',#1011);
#15=FACE_BOUND('',#116,.T.);
#16=FACE_BOUND('',#132,.T.);
#17=FACE_BOUND('',#136,.T.);
#18=FACE_BOUND('',#137,.T.);
#19=FACE_BOUND('',#142,.T.);
#20=FACE_BOUND('',#143,.T.);
#21=FACE_BOUND('',#147,.T.);
#22=FACE_BOUND('',#151,.T.);
#23=FACE_BOUND('',#152,.T.);
#24=FACE_BOUND('',#170,.T.);
#25=ELLIPSE('',#1035,1.4142135623731,1.);
#26=ELLIPSE('',#1086,1.4142135623731,1.);
#27=PLANE('',#1028);
#28=PLANE('',#1032);
#29=PLANE('',#1041);
#30=PLANE('',#1043);
#31=PLANE('',#1052);
#32=PLANE('',#1053);
#33=PLANE('',#1057);
#34=PLANE('',#1061);
#35=PLANE('',#1062);
#36=PLANE('',#1066);
#37=PLANE('',#1070);
#38=PLANE('',#1074);
#39=PLANE('',#1075);
#40=PLANE('',#1082);
#41=PLANE('',#1087);
#42=PLANE('',#1090);
#43=PLANE('',#1094);
#44=PLANE('',#1096);
#45=PLANE('',#1101);
#46=PLANE('',#1106);
#47=PLANE('',#1107);
#48=PLANE('',#1108);
#49=PLANE('',#1109);
#50=PLANE('',#1110);
#51=PLANE('',#1113);
#52=PLANE('',#1116);
#53=PLANE('',#1117);
#54=PLANE('',#1120);
#55=PLANE('',#1123);
#56=PLANE('',#1124);
#57=FACE_OUTER_BOUND('',#109,.T.);
#58=FACE_OUTER_BOUND('',#110,.T.);
#59=FACE_OUTER_BOUND('',#111,.T.);
#60=FACE_OUTER_BOUND('',#112,.T.);
#61=FACE_OUTER_BOUND('',#113,.T.);
#62=FACE_OUTER_BOUND('',#114,.T.);
#63=FACE_OUTER_BOUND('',#115,.T.);
#64=FACE_OUTER_BOUND('',#117,.T.);
#65=FACE_OUTER_BOUND('',#118,.T.);
#66=FACE_OUTER_BOUND('',#119,.T.);
#67=FACE_OUTER_BOUND('',#120,.T.);
#68=FACE_OUTER_BOUND('',#121,.T.);
#69=FACE_OUTER_BOUND('',#122,.T.);
#70=FACE_OUTER_BOUND('',#123,.T.);
#71=FACE_OUTER_BOUND('',#124,.T.);
#72=FACE_OUTER_BOUND('',#125,.T.);
#73=FACE_OUTER_BOUND('',#126,.T.);
#74=FACE_OUTER_BOUND('',#127,.T.);
#75=FACE_OUTER_BOUND('',#128,.T.);
#76=FACE_OUTER_BOUND('',#129,.T.);
#77=FACE_OUTER_BOUND('',#130,.T.);
#78=FACE_OUTER_BOUND('',#131,.T.);
#79=FACE_OUTER_BOUND('',#133,.T.);
#80=FACE_OUTER_BOUND('',#134,.T.);
#81=FACE_OUTER_BOUND('',#135,.T.);
#82=FACE_OUTER_BOUND('',#138,.T.);
#83=FACE_OUTER_BOUND('',#139,.T.);
#84=FACE_OUTER_BOUND('',#140,.T.);
#85=FACE_OUTER_BOUND('',#141,.T.);
#86=FACE_OUTER_BOUND('',#144,.T.);
#87=FACE_OUTER_BOUND('',#145,.T.);
#88=FACE_OUTER_BOUND('',#146,.T.);
#89=FACE_OUTER_BOUND('',#148,.T.);
#90=FACE_OUTER_BOUND('',#149,.T.);
#91=FACE_OUTER_BOUND('',#150,.T.);
#92=FACE_OUTER_BOUND('',#153,.T.);
#93=FACE_OUTER_BOUND('',#154,.T.);
#94=FACE_OUTER_BOUND('',#155,.T.);
#95=FACE_OUTER_BOUND('',#156,.T.);
#96=FACE_OUTER_BOUND('',#157,.T.);
#97=FACE_OUTER_BOUND('',#158,.T.);
#98=FACE_OUTER_BOUND('',#159,.T.);
#99=FACE_OUTER_BOUND('',#160,.T.);
#100=FACE_OUTER_BOUND('',#161,.T.);
#101=FACE_OUTER_BOUND('',#162,.T.);
#102=FACE_OUTER_BOUND('',#163,.T.);
#103=FACE_OUTER_BOUND('',#164,.T.);
#104=FACE_OUTER_BOUND('',#165,.T.);
#105=FACE_OUTER_BOUND('',#166,.T.);
#106=FACE_OUTER_BOUND('',#167,.T.);
#107=FACE_OUTER_BOUND('',#168,.T.);
#108=FACE_OUTER_BOUND('',#169,.T.);
#109=EDGE_LOOP('',(#649,#650,#651,#652));
#110=EDGE_LOOP('',(#653,#654,#655,#656));
#111=EDGE_LOOP('',(#657,#658,#659,#660));
#112=EDGE_LOOP('',(#661,#662,#663,#664));
#113=EDGE_LOOP('',(#665,#666,#667,#668,#669,#670));
#114=EDGE_LOOP('',(#671,#672,#673,#674));
#115=EDGE_LOOP('',(#675,#676,#677,#678));
#116=EDGE_LOOP('',(#679));
#117=EDGE_LOOP('',(#680,#681,#682,#683,#684,#685,#686));
#118=EDGE_LOOP('',(#687,#688,#689,#690));
#119=EDGE_LOOP('',(#691,#692,#693,#694));
#120=EDGE_LOOP('',(#695,#696,#697,#698));
#121=EDGE_LOOP('',(#699,#700,#701,#702));
#122=EDGE_LOOP('',(#703,#704,#705,#706,#707,#708,#709));
#123=EDGE_LOOP('',(#710,#711,#712,#713));
#124=EDGE_LOOP('',(#714,#715,#716,#717));
#125=EDGE_LOOP('',(#718,#719,#720,#721));
#126=EDGE_LOOP('',(#722,#723,#724,#725));
#127=EDGE_LOOP('',(#726,#727,#728,#729));
#128=EDGE_LOOP('',(#730,#731,#732,#733));
#129=EDGE_LOOP('',(#734,#735,#736,#737));
#130=EDGE_LOOP('',(#738,#739,#740,#741));
#131=EDGE_LOOP('',(#742,#743,#744,#745));
#132=EDGE_LOOP('',(#746,#747,#748,#749));
#133=EDGE_LOOP('',(#750,#751,#752,#753));
#134=EDGE_LOOP('',(#754,#755,#756,#757));
#135=EDGE_LOOP('',(#758,#759,#760,#761,#762,#763,#764,#765,#766,#767,#768,
#769));
#136=EDGE_LOOP('',(#770,#771,#772,#773));
#137=EDGE_LOOP('',(#774,#775,#776,#777));
#138=EDGE_LOOP('',(#778,#779,#780,#781));
#139=EDGE_LOOP('',(#782,#783,#784,#785));
#140=EDGE_LOOP('',(#786,#787,#788,#789,#790,#791));
#141=EDGE_LOOP('',(#792,#793,#794,#795,#796,#797,#798,#799,#800,#801,#802,
#803));
#142=EDGE_LOOP('',(#804,#805,#806,#807));
#143=EDGE_LOOP('',(#808,#809,#810,#811));
#144=EDGE_LOOP('',(#812,#813,#814,#815,#816,#817));
#145=EDGE_LOOP('',(#818,#819,#820,#821));
#146=EDGE_LOOP('',(#822,#823,#824,#825));
#147=EDGE_LOOP('',(#826));
#148=EDGE_LOOP('',(#827,#828,#829,#830,#831,#832,#833));
#149=EDGE_LOOP('',(#834,#835,#836,#837));
#150=EDGE_LOOP('',(#838,#839,#840,#841,#842,#843,#844,#845));
#151=EDGE_LOOP('',(#846));
#152=EDGE_LOOP('',(#847));
#153=EDGE_LOOP('',(#848,#849,#850,#851));
#154=EDGE_LOOP('',(#852,#853,#854,#855));
#155=EDGE_LOOP('',(#856,#857,#858,#859));
#156=EDGE_LOOP('',(#860,#861,#862,#863,#864,#865,#866,#867,#868,#869,#870,
#871));
#157=EDGE_LOOP('',(#872,#873,#874,#875,#876,#877,#878,#879));
#158=EDGE_LOOP('',(#880,#881,#882,#883,#884,#885));
#159=EDGE_LOOP('',(#886,#887,#888,#889,#890,#891,#892));
#160=EDGE_LOOP('',(#893,#894,#895,#896));
#161=EDGE_LOOP('',(#897,#898,#899,#900));
#162=EDGE_LOOP('',(#901,#902,#903,#904));
#163=EDGE_LOOP('',(#905,#906,#907,#908));
#164=EDGE_LOOP('',(#909,#910,#911,#912));
#165=EDGE_LOOP('',(#913,#914,#915,#916));
#166=EDGE_LOOP('',(#917,#918,#919,#920));
#167=EDGE_LOOP('',(#921,#922,#923,#924));
#168=EDGE_LOOP('',(#925,#926,#927,#928));
#169=EDGE_LOOP('',(#929,#930,#931,#932));
#170=EDGE_LOOP('',(#933,#934,#935,#936));
#171=LINE('',#1429,#267);
#172=LINE('',#1432,#268);
#173=LINE('',#1435,#269);
#174=LINE('',#1437,#270);
#175=LINE('',#1438,#271);
#176=LINE('',#1444,#272);
#177=LINE('',#1447,#273);
#178=LINE('',#1449,#274);
#179=LINE('',#1450,#275);
#180=LINE('',#1457,#276);
#181=LINE('',#1466,#277);
#182=LINE('',#1469,#278);
#183=LINE('',#1472,#279);
#184=LINE('',#1474,#280);
#185=LINE('',#1475,#281);
#186=LINE('',#1480,#282);
#187=LINE('',#1484,#283);
#188=LINE('',#1487,#284);
#189=LINE('',#1490,#285);
#190=LINE('',#1493,#286);
#191=LINE('',#1496,#287);
#192=LINE('',#1499,#288);
#193=LINE('',#1503,#289);
#194=LINE('',#1505,#290);
#195=LINE('',#1508,#291);
#196=LINE('',#1509,#292);
#197=LINE('',#1510,#293);
#198=LINE('',#1516,#294);
#199=LINE('',#1519,#295);
#200=LINE('',#1522,#296);
#201=LINE('',#1524,#297);
#202=LINE('',#1525,#298);
#203=LINE('',#1530,#299);
#204=LINE('',#1533,#300);
#205=LINE('',#1534,#301);
#206=LINE('',#1538,#302);
#207=LINE('',#1540,#303);
#208=LINE('',#1542,#304);
#209=LINE('',#1543,#305);
#210=LINE('',#1548,#306);
#211=LINE('',#1552,#307);
#212=LINE('',#1554,#308);
#213=LINE('',#1555,#309);
#214=LINE('',#1565,#310);
#215=LINE('',#1568,#311);
#216=LINE('',#1571,#312);
#217=LINE('',#1573,#313);
#218=LINE('',#1574,#314);
#219=LINE('',#1576,#315);
#220=LINE('',#1578,#316);
#221=LINE('',#1582,#317);
#222=LINE('',#1586,#318);
#223=LINE('',#1590,#319);
#224=LINE('',#1594,#320);
#225=LINE('',#1598,#321);
#226=LINE('',#1599,#322);
#227=LINE('',#1606,#323);
#228=LINE('',#1609,#324);
#229=LINE('',#1610,#325);
#230=LINE('',#1615,#326);
#231=LINE('',#1618,#327);
#232=LINE('',#1621,#328);
#233=LINE('',#1622,#329);
#234=LINE('',#1628,#330);
#235=LINE('',#1631,#331);
#236=LINE('',#1634,#332);
#237=LINE('',#1636,#333);
#238=LINE('',#1637,#334);
#239=LINE('',#1642,#335);
#240=LINE('',#1646,#336);
#241=LINE('',#1649,#337);
#242=LINE('',#1652,#338);
#243=LINE('',#1655,#339);
#244=LINE('',#1657,#340);
#245=LINE('',#1659,#341);
#246=LINE('',#1660,#342);
#247=LINE('',#1666,#343);
#248=LINE('',#1668,#344);
#249=LINE('',#1670,#345);
#250=LINE('',#1673,#346);
#251=LINE('',#1675,#347);
#252=LINE('',#1676,#348);
#253=LINE('',#1677,#349);
#254=LINE('',#1680,#350);
#255=LINE('',#1686,#351);
#256=LINE('',#1687,#352);
#257=LINE('',#1690,#353);
#258=LINE('',#1691,#354);
#259=LINE('',#1695,#355);
#260=LINE('',#1697,#356);
#261=LINE('',#1700,#357);
#262=LINE('',#1702,#358);
#263=LINE('',#1703,#359);
#264=LINE('',#1707,#360);
#265=LINE('',#1710,#361);
#266=LINE('',#1711,#362);
#267=VECTOR('',#1131,10.);
#268=VECTOR('',#1134,10.);
#269=VECTOR('',#1137,10.);
#270=VECTOR('',#1138,10.);
#271=VECTOR('',#1139,10.);
#272=VECTOR('',#1146,10.);
#273=VECTOR('',#1149,10.);
#274=VECTOR('',#1150,10.);
#275=VECTOR('',#1151,10.);
#276=VECTOR('',#1158,10.);
#277=VECTOR('',#1167,10.);
#278=VECTOR('',#1170,10.);
#279=VECTOR('',#1173,10.);
#280=VECTOR('',#1174,10.);
#281=VECTOR('',#1175,10.);
#282=VECTOR('',#1180,10.);
#283=VECTOR('',#1183,10.);
#284=VECTOR('',#1186,10.);
#285=VECTOR('',#1189,10.);
#286=VECTOR('',#1192,10.);
#287=VECTOR('',#1195,10.);
#288=VECTOR('',#1198,10.);
#289=VECTOR('',#1203,1.55);
#290=VECTOR('',#1206,10.);
#291=VECTOR('',#1209,10.);
#292=VECTOR('',#1210,10.);
#293=VECTOR('',#1211,10.);
#294=VECTOR('',#1216,10.);
#295=VECTOR('',#1219,10.);
#296=VECTOR('',#1222,10.);
#297=VECTOR('',#1223,10.);
#298=VECTOR('',#1224,10.);
#299=VECTOR('',#1229,10.);
#300=VECTOR('',#1234,10.);
#301=VECTOR('',#1235,10.);
#302=VECTOR('',#1238,10.);
#303=VECTOR('',#1239,10.);
#304=VECTOR('',#1240,10.);
#305=VECTOR('',#1241,10.);
#306=VECTOR('',#1246,10.);
#307=VECTOR('',#1251,10.);
#308=VECTOR('',#1252,10.);
#309=VECTOR('',#1253,10.);
#310=VECTOR('',#1266,10.);
#311=VECTOR('',#1269,10.);
#312=VECTOR('',#1272,10.);
#313=VECTOR('',#1273,10.);
#314=VECTOR('',#1274,10.);
#315=VECTOR('',#1277,10.);
#316=VECTOR('',#1278,10.);
#317=VECTOR('',#1281,10.);
#318=VECTOR('',#1284,10.);
#319=VECTOR('',#1287,10.);
#320=VECTOR('',#1292,10.);
#321=VECTOR('',#1297,10.);
#322=VECTOR('',#1298,10.);
#323=VECTOR('',#1305,10.);
#324=VECTOR('',#1310,10.);
#325=VECTOR('',#1311,10.);
#326=VECTOR('',#1314,10.);
#327=VECTOR('',#1317,10.);
#328=VECTOR('',#1320,10.);
#329=VECTOR('',#1321,10.);
#330=VECTOR('',#1326,10.);
#331=VECTOR('',#1329,10.);
#332=VECTOR('',#1332,10.);
#333=VECTOR('',#1333,10.);
#334=VECTOR('',#1334,10.);
#335=VECTOR('',#1339,10.);
#336=VECTOR('',#1342,10.);
#337=VECTOR('',#1345,10.);
#338=VECTOR('',#1348,10.);
#339=VECTOR('',#1351,10.);
#340=VECTOR('',#1354,10.);
#341=VECTOR('',#1355,10.);
#342=VECTOR('',#1356,10.);
#343=VECTOR('',#1363,10.);
#344=VECTOR('',#1366,1.55);
#345=VECTOR('',#1369,10.);
#346=VECTOR('',#1372,10.);
#347=VECTOR('',#1373,10.);
#348=VECTOR('',#1374,10.);
#349=VECTOR('',#1375,10.);
#350=VECTOR('',#1380,10.);
#351=VECTOR('',#1387,10.);
#352=VECTOR('',#1388,10.);
#353=VECTOR('',#1391,10.);
#354=VECTOR('',#1392,10.);
#355=VECTOR('',#1397,10.);
#356=VECTOR('',#1400,10.);
#357=VECTOR('',#1403,10.);
#358=VECTOR('',#1404,10.);
#359=VECTOR('',#1405,10.);
#360=VECTOR('',#1410,10.);
#361=VECTOR('',#1413,10.);
#362=VECTOR('',#1414,10.);
#363=CIRCLE('',#1026,1.);
#364=CIRCLE('',#1027,1.);
#365=CIRCLE('',#1030,1.);
#366=CIRCLE('',#1031,1.);
#367=CIRCLE('',#1034,1.);
#368=CIRCLE('',#1036,1.);
#369=CIRCLE('',#1037,1.);
#370=CIRCLE('',#1039,1.);
#371=CIRCLE('',#1040,1.);
#372=CIRCLE('',#1042,1.55);
#373=CIRCLE('',#1044,1.);
#374=CIRCLE('',#1045,1.);
#375=CIRCLE('',#1047,1.);
#376=CIRCLE('',#1049,1.);
#377=CIRCLE('',#1051,1.55);
#378=CIRCLE('',#1055,3.00000000000094);
#379=CIRCLE('',#1056,3.00000000000094);
#380=CIRCLE('',#1059,3.00000000000025);
#381=CIRCLE('',#1060,3.00000000000025);
#382=CIRCLE('',#1064,1.6);
#383=CIRCLE('',#1065,1.6);
#384=CIRCLE('',#1068,1.6);
#385=CIRCLE('',#1069,1.6);
#386=CIRCLE('',#1072,1.);
#387=CIRCLE('',#1073,1.);
#388=CIRCLE('',#1076,1.);
#389=CIRCLE('',#1077,1.);
#390=CIRCLE('',#1078,3.00000000000025);
#391=CIRCLE('',#1079,3.00000000000094);
#392=CIRCLE('',#1081,1.);
#393=CIRCLE('',#1084,1.);
#394=CIRCLE('',#1085,1.);
#395=CIRCLE('',#1088,1.6);
#396=CIRCLE('',#1089,1.6);
#397=CIRCLE('',#1092,1.);
#398=CIRCLE('',#1093,1.);
#399=CIRCLE('',#1095,1.55);
#400=CIRCLE('',#1097,1.);
#401=CIRCLE('',#1098,1.);
#402=CIRCLE('',#1100,1.);
#403=CIRCLE('',#1102,1.55);
#404=CIRCLE('',#1104,1.);
#405=CIRCLE('',#1112,3.00000000000094);
#406=CIRCLE('',#1115,3.00000000000025);
#407=CIRCLE('',#1119,1.6);
#408=CIRCLE('',#1122,1.6);
#409=VERTEX_POINT('',#1425);
#410=VERTEX_POINT('',#1426);
#411=VERTEX_POINT('',#1428);
#412=VERTEX_POINT('',#1430);
#413=VERTEX_POINT('',#1434);
#414=VERTEX_POINT('',#1436);
#415=VERTEX_POINT('',#1440);
#416=VERTEX_POINT('',#1442);
#417=VERTEX_POINT('',#1446);
#418=VERTEX_POINT('',#1448);
#419=VERTEX_POINT('',#1452);
#420=VERTEX_POINT('',#1454);
#421=VERTEX_POINT('',#1456);
#422=VERTEX_POINT('',#1458);
#423=VERTEX_POINT('',#1462);
#424=VERTEX_POINT('',#1463);
#425=VERTEX_POINT('',#1465);
#426=VERTEX_POINT('',#1467);
#427=VERTEX_POINT('',#1471);
#428=VERTEX_POINT('',#1473);
#429=VERTEX_POINT('',#1476);
#430=VERTEX_POINT('',#1479);
#431=VERTEX_POINT('',#1481);
#432=VERTEX_POINT('',#1483);
#433=VERTEX_POINT('',#1485);
#434=VERTEX_POINT('',#1489);
#435=VERTEX_POINT('',#1491);
#436=VERTEX_POINT('',#1495);
#437=VERTEX_POINT('',#1497);
#438=VERTEX_POINT('',#1501);
#439=VERTEX_POINT('',#1507);
#440=VERTEX_POINT('',#1512);
#441=VERTEX_POINT('',#1513);
#442=VERTEX_POINT('',#1515);
#443=VERTEX_POINT('',#1517);
#444=VERTEX_POINT('',#1521);
#445=VERTEX_POINT('',#1523);
#446=VERTEX_POINT('',#1527);
#447=VERTEX_POINT('',#1529);
#448=VERTEX_POINT('',#1536);
#449=VERTEX_POINT('',#1537);
#450=VERTEX_POINT('',#1539);
#451=VERTEX_POINT('',#1541);
#452=VERTEX_POINT('',#1545);
#453=VERTEX_POINT('',#1547);
#454=VERTEX_POINT('',#1551);
#455=VERTEX_POINT('',#1553);
#456=VERTEX_POINT('',#1561);
#457=VERTEX_POINT('',#1562);
#458=VERTEX_POINT('',#1564);
#459=VERTEX_POINT('',#1566);
#460=VERTEX_POINT('',#1570);
#461=VERTEX_POINT('',#1572);
#462=VERTEX_POINT('',#1577);
#463=VERTEX_POINT('',#1579);
#464=VERTEX_POINT('',#1581);
#465=VERTEX_POINT('',#1584);
#466=VERTEX_POINT('',#1585);
#467=VERTEX_POINT('',#1587);
#468=VERTEX_POINT('',#1589);
#469=VERTEX_POINT('',#1593);
#470=VERTEX_POINT('',#1597);
#471=VERTEX_POINT('',#1601);
#472=VERTEX_POINT('',#1603);
#473=VERTEX_POINT('',#1605);
#474=VERTEX_POINT('',#1611);
#475=VERTEX_POINT('',#1612);
#476=VERTEX_POINT('',#1614);
#477=VERTEX_POINT('',#1616);
#478=VERTEX_POINT('',#1620);
#479=VERTEX_POINT('',#1624);
#480=VERTEX_POINT('',#1625);
#481=VERTEX_POINT('',#1627);
#482=VERTEX_POINT('',#1629);
#483=VERTEX_POINT('',#1633);
#484=VERTEX_POINT('',#1635);
#485=VERTEX_POINT('',#1638);
#486=VERTEX_POINT('',#1641);
#487=VERTEX_POINT('',#1643);
#488=VERTEX_POINT('',#1645);
#489=VERTEX_POINT('',#1647);
#490=VERTEX_POINT('',#1651);
#491=VERTEX_POINT('',#1653);
#492=VERTEX_POINT('',#1658);
#493=VERTEX_POINT('',#1661);
#494=VERTEX_POINT('',#1664);
#495=VERTEX_POINT('',#1672);
#496=VERTEX_POINT('',#1674);
#497=VERTEX_POINT('',#1683);
#498=VERTEX_POINT('',#1684);
#499=VERTEX_POINT('',#1689);
#500=VERTEX_POINT('',#1693);
#501=VERTEX_POINT('',#1699);
#502=VERTEX_POINT('',#1701);
#503=VERTEX_POINT('',#1705);
#504=VERTEX_POINT('',#1709);
#505=EDGE_CURVE('',#409,#410,#363,.T.);
#506=EDGE_CURVE('',#411,#409,#171,.T.);
#507=EDGE_CURVE('',#412,#411,#364,.T.);
#508=EDGE_CURVE('',#410,#412,#172,.T.);
#509=EDGE_CURVE('',#412,#413,#173,.T.);
#510=EDGE_CURVE('',#413,#414,#174,.T.);
#511=EDGE_CURVE('',#414,#410,#175,.T.);
#512=EDGE_CURVE('',#414,#415,#365,.T.);
#513=EDGE_CURVE('',#416,#413,#366,.T.);
#514=EDGE_CURVE('',#415,#416,#176,.T.);
#515=EDGE_CURVE('',#417,#416,#177,.T.);
#516=EDGE_CURVE('',#417,#418,#178,.T.);
#517=EDGE_CURVE('',#415,#418,#179,.T.);
#518=EDGE_CURVE('',#419,#417,#367,.T.);
#519=EDGE_CURVE('',#420,#419,#25,.T.);
#520=EDGE_CURVE('',#421,#420,#180,.T.);
#521=EDGE_CURVE('',#422,#421,#368,.T.);
#522=EDGE_CURVE('',#418,#422,#369,.T.);
#523=EDGE_CURVE('',#423,#424,#370,.T.);
#524=EDGE_CURVE('',#425,#423,#181,.T.);
#525=EDGE_CURVE('',#425,#426,#371,.T.);
#526=EDGE_CURVE('',#424,#426,#182,.T.);
#527=EDGE_CURVE('',#427,#426,#183,.T.);
#528=EDGE_CURVE('',#428,#427,#184,.T.);
#529=EDGE_CURVE('',#424,#428,#185,.T.);
#530=EDGE_CURVE('',#429,#429,#372,.T.);
#531=EDGE_CURVE('',#430,#428,#186,.T.);
#532=EDGE_CURVE('',#430,#431,#373,.T.);
#533=EDGE_CURVE('',#432,#431,#187,.T.);
#534=EDGE_CURVE('',#432,#433,#374,.T.);
#535=EDGE_CURVE('',#433,#423,#188,.T.);
#536=EDGE_CURVE('',#434,#432,#189,.T.);
#537=EDGE_CURVE('',#435,#434,#375,.F.);
#538=EDGE_CURVE('',#433,#435,#190,.T.);
#539=EDGE_CURVE('',#436,#430,#191,.T.);
#540=EDGE_CURVE('',#437,#436,#376,.T.);
#541=EDGE_CURVE('',#431,#437,#192,.T.);
#542=EDGE_CURVE('',#438,#438,#377,.T.);
#543=EDGE_CURVE('',#438,#429,#193,.T.);
#544=EDGE_CURVE('',#435,#425,#194,.T.);
#545=EDGE_CURVE('',#420,#439,#195,.T.);
#546=EDGE_CURVE('',#439,#436,#196,.T.);
#547=EDGE_CURVE('',#427,#421,#197,.T.);
#548=EDGE_CURVE('',#440,#441,#378,.T.);
#549=EDGE_CURVE('',#441,#442,#198,.T.);
#550=EDGE_CURVE('',#442,#443,#379,.T.);
#551=EDGE_CURVE('',#440,#443,#199,.T.);
#552=EDGE_CURVE('',#441,#444,#200,.T.);
#553=EDGE_CURVE('',#444,#445,#201,.T.);
#554=EDGE_CURVE('',#445,#442,#202,.T.);
#555=EDGE_CURVE('',#444,#446,#380,.T.);
#556=EDGE_CURVE('',#446,#447,#203,.T.);
#557=EDGE_CURVE('',#447,#445,#381,.T.);
#558=EDGE_CURVE('',#446,#440,#204,.T.);
#559=EDGE_CURVE('',#443,#447,#205,.T.);
#560=EDGE_CURVE('',#448,#449,#206,.T.);
#561=EDGE_CURVE('',#448,#450,#207,.T.);
#562=EDGE_CURVE('',#450,#451,#208,.T.);
#563=EDGE_CURVE('',#449,#451,#209,.T.);
#564=EDGE_CURVE('',#452,#448,#382,.T.);
#565=EDGE_CURVE('',#452,#453,#210,.T.);
#566=EDGE_CURVE('',#453,#450,#383,.T.);
#567=EDGE_CURVE('',#454,#452,#211,.T.);
#568=EDGE_CURVE('',#454,#455,#212,.T.);
#569=EDGE_CURVE('',#455,#453,#213,.T.);
#570=EDGE_CURVE('',#449,#454,#384,.T.);
#571=EDGE_CURVE('',#451,#455,#385,.T.);
#572=EDGE_CURVE('',#456,#457,#386,.T.);
#573=EDGE_CURVE('',#457,#458,#214,.T.);
#574=EDGE_CURVE('',#458,#459,#387,.T.);
#575=EDGE_CURVE('',#459,#456,#215,.T.);
#576=EDGE_CURVE('',#460,#457,#216,.T.);
#577=EDGE_CURVE('',#461,#460,#217,.T.);
#578=EDGE_CURVE('',#458,#461,#218,.T.);
#579=EDGE_CURVE('',#456,#409,#219,.T.);
#580=EDGE_CURVE('',#462,#422,#220,.T.);
#581=EDGE_CURVE('',#463,#462,#388,.T.);
#582=EDGE_CURVE('',#464,#463,#221,.T.);
#583=EDGE_CURVE('',#460,#464,#389,.T.);
#584=EDGE_CURVE('',#465,#466,#222,.T.);
#585=EDGE_CURVE('',#466,#467,#390,.T.);
#586=EDGE_CURVE('',#467,#468,#223,.T.);
#587=EDGE_CURVE('',#468,#465,#391,.T.);
#588=EDGE_CURVE('',#464,#469,#224,.T.);
#589=EDGE_CURVE('',#469,#461,#392,.T.);
#590=EDGE_CURVE('',#470,#463,#225,.T.);
#591=EDGE_CURVE('',#470,#469,#226,.T.);
#592=EDGE_CURVE('',#471,#470,#393,.T.);
#593=EDGE_CURVE('',#462,#472,#394,.T.);
#594=EDGE_CURVE('',#472,#473,#227,.T.);
#595=EDGE_CURVE('',#473,#471,#26,.T.);
#596=EDGE_CURVE('',#471,#419,#228,.T.);
#597=EDGE_CURVE('',#411,#459,#229,.T.);
#598=EDGE_CURVE('',#474,#475,#395,.T.);
#599=EDGE_CURVE('',#476,#474,#230,.T.);
#600=EDGE_CURVE('',#477,#476,#396,.T.);
#601=EDGE_CURVE('',#475,#477,#231,.T.);
#602=EDGE_CURVE('',#473,#478,#232,.T.);
#603=EDGE_CURVE('',#478,#439,#233,.T.);
#604=EDGE_CURVE('',#479,#480,#397,.T.);
#605=EDGE_CURVE('',#480,#481,#234,.T.);
#606=EDGE_CURVE('',#482,#481,#398,.T.);
#607=EDGE_CURVE('',#482,#479,#235,.T.);
#608=EDGE_CURVE('',#480,#483,#236,.T.);
#609=EDGE_CURVE('',#483,#484,#237,.T.);
#610=EDGE_CURVE('',#484,#481,#238,.T.);
#611=EDGE_CURVE('',#485,#485,#399,.T.);
#612=EDGE_CURVE('',#486,#479,#239,.T.);
#613=EDGE_CURVE('',#487,#486,#400,.T.);
#614=EDGE_CURVE('',#487,#488,#240,.T.);
#615=EDGE_CURVE('',#489,#488,#401,.T.);
#616=EDGE_CURVE('',#489,#483,#241,.T.);
#617=EDGE_CURVE('',#486,#490,#242,.T.);
#618=EDGE_CURVE('',#490,#491,#402,.F.);
#619=EDGE_CURVE('',#491,#487,#243,.T.);
#620=EDGE_CURVE('',#491,#434,#244,.T.);
#621=EDGE_CURVE('',#437,#492,#245,.T.);
#622=EDGE_CURVE('',#488,#492,#246,.T.);
#623=EDGE_CURVE('',#493,#493,#403,.T.);
#624=EDGE_CURVE('',#492,#494,#404,.T.);
#625=EDGE_CURVE('',#494,#489,#247,.T.);
#626=EDGE_CURVE('',#493,#485,#248,.T.);
#627=EDGE_CURVE('',#490,#482,#249,.T.);
#628=EDGE_CURVE('',#425,#495,#250,.T.);
#629=EDGE_CURVE('',#496,#495,#251,.T.);
#630=EDGE_CURVE('',#482,#496,#252,.T.);
#631=EDGE_CURVE('',#484,#472,#253,.T.);
#632=EDGE_CURVE('',#478,#494,#254,.T.);
#633=EDGE_CURVE('',#497,#498,#405,.T.);
#634=EDGE_CURVE('',#497,#465,#255,.T.);
#635=EDGE_CURVE('',#498,#468,#256,.T.);
#636=EDGE_CURVE('',#498,#499,#257,.T.);
#637=EDGE_CURVE('',#499,#467,#258,.T.);
#638=EDGE_CURVE('',#499,#500,#406,.T.);
#639=EDGE_CURVE('',#500,#466,#259,.T.);
#640=EDGE_CURVE('',#500,#497,#260,.T.);
#641=EDGE_CURVE('',#474,#501,#261,.T.);
#642=EDGE_CURVE('',#502,#501,#262,.T.);
#643=EDGE_CURVE('',#476,#502,#263,.T.);
#644=EDGE_CURVE('',#503,#502,#407,.T.);
#645=EDGE_CURVE('',#477,#503,#264,.T.);
#646=EDGE_CURVE('',#504,#503,#265,.T.);
#647=EDGE_CURVE('',#475,#504,#266,.T.);
#648=EDGE_CURVE('',#501,#504,#408,.T.);
#649=ORIENTED_EDGE('',*,*,#505,.F.);
#650=ORIENTED_EDGE('',*,*,#506,.F.);
#651=ORIENTED_EDGE('',*,*,#507,.F.);
#652=ORIENTED_EDGE('',*,*,#508,.F.);
#653=ORIENTED_EDGE('',*,*,#508,.T.);
#654=ORIENTED_EDGE('',*,*,#509,.T.);
#655=ORIENTED_EDGE('',*,*,#510,.T.);
#656=ORIENTED_EDGE('',*,*,#511,.T.);
#657=ORIENTED_EDGE('',*,*,#512,.F.);
#658=ORIENTED_EDGE('',*,*,#510,.F.);
#659=ORIENTED_EDGE('',*,*,#513,.F.);
#660=ORIENTED_EDGE('',*,*,#514,.F.);
#661=ORIENTED_EDGE('',*,*,#514,.T.);
#662=ORIENTED_EDGE('',*,*,#515,.F.);
#663=ORIENTED_EDGE('',*,*,#516,.T.);
#664=ORIENTED_EDGE('',*,*,#517,.F.);
#665=ORIENTED_EDGE('',*,*,#518,.F.);
#666=ORIENTED_EDGE('',*,*,#519,.F.);
#667=ORIENTED_EDGE('',*,*,#520,.F.);
#668=ORIENTED_EDGE('',*,*,#521,.F.);
#669=ORIENTED_EDGE('',*,*,#522,.F.);
#670=ORIENTED_EDGE('',*,*,#516,.F.);
#671=ORIENTED_EDGE('',*,*,#523,.F.);
#672=ORIENTED_EDGE('',*,*,#524,.F.);
#673=ORIENTED_EDGE('',*,*,#525,.T.);
#674=ORIENTED_EDGE('',*,*,#526,.F.);
#675=ORIENTED_EDGE('',*,*,#526,.T.);
#676=ORIENTED_EDGE('',*,*,#527,.F.);
#677=ORIENTED_EDGE('',*,*,#528,.F.);
#678=ORIENTED_EDGE('',*,*,#529,.F.);
#679=ORIENTED_EDGE('',*,*,#530,.F.);
#680=ORIENTED_EDGE('',*,*,#523,.T.);
#681=ORIENTED_EDGE('',*,*,#529,.T.);
#682=ORIENTED_EDGE('',*,*,#531,.F.);
#683=ORIENTED_EDGE('',*,*,#532,.T.);
#684=ORIENTED_EDGE('',*,*,#533,.F.);
#685=ORIENTED_EDGE('',*,*,#534,.T.);
#686=ORIENTED_EDGE('',*,*,#535,.T.);
#687=ORIENTED_EDGE('',*,*,#534,.F.);
#688=ORIENTED_EDGE('',*,*,#536,.F.);
#689=ORIENTED_EDGE('',*,*,#537,.F.);
#690=ORIENTED_EDGE('',*,*,#538,.F.);
#691=ORIENTED_EDGE('',*,*,#532,.F.);
#692=ORIENTED_EDGE('',*,*,#539,.F.);
#693=ORIENTED_EDGE('',*,*,#540,.F.);
#694=ORIENTED_EDGE('',*,*,#541,.F.);
#695=ORIENTED_EDGE('',*,*,#542,.T.);
#696=ORIENTED_EDGE('',*,*,#543,.T.);
#697=ORIENTED_EDGE('',*,*,#530,.T.);
#698=ORIENTED_EDGE('',*,*,#543,.F.);
#699=ORIENTED_EDGE('',*,*,#524,.T.);
#700=ORIENTED_EDGE('',*,*,#535,.F.);
#701=ORIENTED_EDGE('',*,*,#538,.T.);
#702=ORIENTED_EDGE('',*,*,#544,.T.);
#703=ORIENTED_EDGE('',*,*,#520,.T.);
#704=ORIENTED_EDGE('',*,*,#545,.T.);
#705=ORIENTED_EDGE('',*,*,#546,.T.);
#706=ORIENTED_EDGE('',*,*,#539,.T.);
#707=ORIENTED_EDGE('',*,*,#531,.T.);
#708=ORIENTED_EDGE('',*,*,#528,.T.);
#709=ORIENTED_EDGE('',*,*,#547,.T.);
#710=ORIENTED_EDGE('',*,*,#548,.T.);
#711=ORIENTED_EDGE('',*,*,#549,.T.);
#712=ORIENTED_EDGE('',*,*,#550,.T.);
#713=ORIENTED_EDGE('',*,*,#551,.F.);
#714=ORIENTED_EDGE('',*,*,#552,.T.);
#715=ORIENTED_EDGE('',*,*,#553,.T.);
#716=ORIENTED_EDGE('',*,*,#554,.T.);
#717=ORIENTED_EDGE('',*,*,#549,.F.);
#718=ORIENTED_EDGE('',*,*,#555,.T.);
#719=ORIENTED_EDGE('',*,*,#556,.T.);
#720=ORIENTED_EDGE('',*,*,#557,.T.);
#721=ORIENTED_EDGE('',*,*,#553,.F.);
#722=ORIENTED_EDGE('',*,*,#558,.T.);
#723=ORIENTED_EDGE('',*,*,#551,.T.);
#724=ORIENTED_EDGE('',*,*,#559,.T.);
#725=ORIENTED_EDGE('',*,*,#556,.F.);
#726=ORIENTED_EDGE('',*,*,#560,.F.);
#727=ORIENTED_EDGE('',*,*,#561,.T.);
#728=ORIENTED_EDGE('',*,*,#562,.T.);
#729=ORIENTED_EDGE('',*,*,#563,.F.);
#730=ORIENTED_EDGE('',*,*,#564,.F.);
#731=ORIENTED_EDGE('',*,*,#565,.T.);
#732=ORIENTED_EDGE('',*,*,#566,.T.);
#733=ORIENTED_EDGE('',*,*,#561,.F.);
#734=ORIENTED_EDGE('',*,*,#567,.F.);
#735=ORIENTED_EDGE('',*,*,#568,.T.);
#736=ORIENTED_EDGE('',*,*,#569,.T.);
#737=ORIENTED_EDGE('',*,*,#565,.F.);
#738=ORIENTED_EDGE('',*,*,#570,.F.);
#739=ORIENTED_EDGE('',*,*,#563,.T.);
#740=ORIENTED_EDGE('',*,*,#571,.T.);
#741=ORIENTED_EDGE('',*,*,#568,.F.);
#742=ORIENTED_EDGE('',*,*,#548,.F.);
#743=ORIENTED_EDGE('',*,*,#558,.F.);
#744=ORIENTED_EDGE('',*,*,#555,.F.);
#745=ORIENTED_EDGE('',*,*,#552,.F.);
#746=ORIENTED_EDGE('',*,*,#571,.F.);
#747=ORIENTED_EDGE('',*,*,#562,.F.);
#748=ORIENTED_EDGE('',*,*,#566,.F.);
#749=ORIENTED_EDGE('',*,*,#569,.F.);
#750=ORIENTED_EDGE('',*,*,#572,.T.);
#751=ORIENTED_EDGE('',*,*,#573,.T.);
#752=ORIENTED_EDGE('',*,*,#574,.T.);
#753=ORIENTED_EDGE('',*,*,#575,.T.);
#754=ORIENTED_EDGE('',*,*,#573,.F.);
#755=ORIENTED_EDGE('',*,*,#576,.F.);
#756=ORIENTED_EDGE('',*,*,#577,.F.);
#757=ORIENTED_EDGE('',*,*,#578,.F.);
#758=ORIENTED_EDGE('',*,*,#572,.F.);
#759=ORIENTED_EDGE('',*,*,#579,.T.);
#760=ORIENTED_EDGE('',*,*,#505,.T.);
#761=ORIENTED_EDGE('',*,*,#511,.F.);
#762=ORIENTED_EDGE('',*,*,#512,.T.);
#763=ORIENTED_EDGE('',*,*,#517,.T.);
#764=ORIENTED_EDGE('',*,*,#522,.T.);
#765=ORIENTED_EDGE('',*,*,#580,.F.);
#766=ORIENTED_EDGE('',*,*,#581,.F.);
#767=ORIENTED_EDGE('',*,*,#582,.F.);
#768=ORIENTED_EDGE('',*,*,#583,.F.);
#769=ORIENTED_EDGE('',*,*,#576,.T.);
#770=ORIENTED_EDGE('',*,*,#559,.F.);
#771=ORIENTED_EDGE('',*,*,#550,.F.);
#772=ORIENTED_EDGE('',*,*,#554,.F.);
#773=ORIENTED_EDGE('',*,*,#557,.F.);
#774=ORIENTED_EDGE('',*,*,#584,.T.);
#775=ORIENTED_EDGE('',*,*,#585,.T.);
#776=ORIENTED_EDGE('',*,*,#586,.T.);
#777=ORIENTED_EDGE('',*,*,#587,.T.);
#778=ORIENTED_EDGE('',*,*,#583,.T.);
#779=ORIENTED_EDGE('',*,*,#588,.T.);
#780=ORIENTED_EDGE('',*,*,#589,.T.);
#781=ORIENTED_EDGE('',*,*,#577,.T.);
#782=ORIENTED_EDGE('',*,*,#588,.F.);
#783=ORIENTED_EDGE('',*,*,#582,.T.);
#784=ORIENTED_EDGE('',*,*,#590,.F.);
#785=ORIENTED_EDGE('',*,*,#591,.T.);
#786=ORIENTED_EDGE('',*,*,#592,.T.);
#787=ORIENTED_EDGE('',*,*,#590,.T.);
#788=ORIENTED_EDGE('',*,*,#581,.T.);
#789=ORIENTED_EDGE('',*,*,#593,.T.);
#790=ORIENTED_EDGE('',*,*,#594,.T.);
#791=ORIENTED_EDGE('',*,*,#595,.T.);
#792=ORIENTED_EDGE('',*,*,#574,.F.);
#793=ORIENTED_EDGE('',*,*,#578,.T.);
#794=ORIENTED_EDGE('',*,*,#589,.F.);
#795=ORIENTED_EDGE('',*,*,#591,.F.);
#796=ORIENTED_EDGE('',*,*,#592,.F.);
#797=ORIENTED_EDGE('',*,*,#596,.T.);
#798=ORIENTED_EDGE('',*,*,#518,.T.);
#799=ORIENTED_EDGE('',*,*,#515,.T.);
#800=ORIENTED_EDGE('',*,*,#513,.T.);
#801=ORIENTED_EDGE('',*,*,#509,.F.);
#802=ORIENTED_EDGE('',*,*,#507,.T.);
#803=ORIENTED_EDGE('',*,*,#597,.T.);
#804=ORIENTED_EDGE('',*,*,#570,.T.);
#805=ORIENTED_EDGE('',*,*,#567,.T.);
#806=ORIENTED_EDGE('',*,*,#564,.T.);
#807=ORIENTED_EDGE('',*,*,#560,.T.);
#808=ORIENTED_EDGE('',*,*,#598,.F.);
#809=ORIENTED_EDGE('',*,*,#599,.F.);
#810=ORIENTED_EDGE('',*,*,#600,.F.);
#811=ORIENTED_EDGE('',*,*,#601,.F.);
#812=ORIENTED_EDGE('',*,*,#595,.F.);
#813=ORIENTED_EDGE('',*,*,#602,.T.);
#814=ORIENTED_EDGE('',*,*,#603,.T.);
#815=ORIENTED_EDGE('',*,*,#545,.F.);
#816=ORIENTED_EDGE('',*,*,#519,.T.);
#817=ORIENTED_EDGE('',*,*,#596,.F.);
#818=ORIENTED_EDGE('',*,*,#604,.T.);
#819=ORIENTED_EDGE('',*,*,#605,.T.);
#820=ORIENTED_EDGE('',*,*,#606,.F.);
#821=ORIENTED_EDGE('',*,*,#607,.T.);
#822=ORIENTED_EDGE('',*,*,#605,.F.);
#823=ORIENTED_EDGE('',*,*,#608,.T.);
#824=ORIENTED_EDGE('',*,*,#609,.T.);
#825=ORIENTED_EDGE('',*,*,#610,.T.);
#826=ORIENTED_EDGE('',*,*,#611,.T.);
#827=ORIENTED_EDGE('',*,*,#604,.F.);
#828=ORIENTED_EDGE('',*,*,#612,.F.);
#829=ORIENTED_EDGE('',*,*,#613,.F.);
#830=ORIENTED_EDGE('',*,*,#614,.T.);
#831=ORIENTED_EDGE('',*,*,#615,.F.);
#832=ORIENTED_EDGE('',*,*,#616,.T.);
#833=ORIENTED_EDGE('',*,*,#608,.F.);
#834=ORIENTED_EDGE('',*,*,#613,.T.);
#835=ORIENTED_EDGE('',*,*,#617,.T.);
#836=ORIENTED_EDGE('',*,*,#618,.T.);
#837=ORIENTED_EDGE('',*,*,#619,.T.);
#838=ORIENTED_EDGE('',*,*,#619,.F.);
#839=ORIENTED_EDGE('',*,*,#620,.T.);
#840=ORIENTED_EDGE('',*,*,#536,.T.);
#841=ORIENTED_EDGE('',*,*,#533,.T.);
#842=ORIENTED_EDGE('',*,*,#541,.T.);
#843=ORIENTED_EDGE('',*,*,#621,.T.);
#844=ORIENTED_EDGE('',*,*,#622,.F.);
#845=ORIENTED_EDGE('',*,*,#614,.F.);
#846=ORIENTED_EDGE('',*,*,#542,.F.);
#847=ORIENTED_EDGE('',*,*,#623,.T.);
#848=ORIENTED_EDGE('',*,*,#615,.T.);
#849=ORIENTED_EDGE('',*,*,#622,.T.);
#850=ORIENTED_EDGE('',*,*,#624,.T.);
#851=ORIENTED_EDGE('',*,*,#625,.T.);
#852=ORIENTED_EDGE('',*,*,#623,.F.);
#853=ORIENTED_EDGE('',*,*,#626,.T.);
#854=ORIENTED_EDGE('',*,*,#611,.F.);
#855=ORIENTED_EDGE('',*,*,#626,.F.);
#856=ORIENTED_EDGE('',*,*,#607,.F.);
#857=ORIENTED_EDGE('',*,*,#627,.F.);
#858=ORIENTED_EDGE('',*,*,#617,.F.);
#859=ORIENTED_EDGE('',*,*,#612,.T.);
#860=ORIENTED_EDGE('',*,*,#593,.F.);
#861=ORIENTED_EDGE('',*,*,#580,.T.);
#862=ORIENTED_EDGE('',*,*,#521,.T.);
#863=ORIENTED_EDGE('',*,*,#547,.F.);
#864=ORIENTED_EDGE('',*,*,#527,.T.);
#865=ORIENTED_EDGE('',*,*,#525,.F.);
#866=ORIENTED_EDGE('',*,*,#628,.T.);
#867=ORIENTED_EDGE('',*,*,#629,.F.);
#868=ORIENTED_EDGE('',*,*,#630,.F.);
#869=ORIENTED_EDGE('',*,*,#606,.T.);
#870=ORIENTED_EDGE('',*,*,#610,.F.);
#871=ORIENTED_EDGE('',*,*,#631,.T.);
#872=ORIENTED_EDGE('',*,*,#627,.T.);
#873=ORIENTED_EDGE('',*,*,#630,.T.);
#874=ORIENTED_EDGE('',*,*,#629,.T.);
#875=ORIENTED_EDGE('',*,*,#628,.F.);
#876=ORIENTED_EDGE('',*,*,#544,.F.);
#877=ORIENTED_EDGE('',*,*,#537,.T.);
#878=ORIENTED_EDGE('',*,*,#620,.F.);
#879=ORIENTED_EDGE('',*,*,#618,.F.);
#880=ORIENTED_EDGE('',*,*,#624,.F.);
#881=ORIENTED_EDGE('',*,*,#621,.F.);
#882=ORIENTED_EDGE('',*,*,#540,.T.);
#883=ORIENTED_EDGE('',*,*,#546,.F.);
#884=ORIENTED_EDGE('',*,*,#603,.F.);
#885=ORIENTED_EDGE('',*,*,#632,.T.);
#886=ORIENTED_EDGE('',*,*,#594,.F.);
#887=ORIENTED_EDGE('',*,*,#631,.F.);
#888=ORIENTED_EDGE('',*,*,#609,.F.);
#889=ORIENTED_EDGE('',*,*,#616,.F.);
#890=ORIENTED_EDGE('',*,*,#625,.F.);
#891=ORIENTED_EDGE('',*,*,#632,.F.);
#892=ORIENTED_EDGE('',*,*,#602,.F.);
#893=ORIENTED_EDGE('',*,*,#633,.F.);
#894=ORIENTED_EDGE('',*,*,#634,.T.);
#895=ORIENTED_EDGE('',*,*,#587,.F.);
#896=ORIENTED_EDGE('',*,*,#635,.F.);
#897=ORIENTED_EDGE('',*,*,#636,.F.);
#898=ORIENTED_EDGE('',*,*,#635,.T.);
#899=ORIENTED_EDGE('',*,*,#586,.F.);
#900=ORIENTED_EDGE('',*,*,#637,.F.);
#901=ORIENTED_EDGE('',*,*,#638,.F.);
#902=ORIENTED_EDGE('',*,*,#637,.T.);
#903=ORIENTED_EDGE('',*,*,#585,.F.);
#904=ORIENTED_EDGE('',*,*,#639,.F.);
#905=ORIENTED_EDGE('',*,*,#640,.F.);
#906=ORIENTED_EDGE('',*,*,#639,.T.);
#907=ORIENTED_EDGE('',*,*,#584,.F.);
#908=ORIENTED_EDGE('',*,*,#634,.F.);
#909=ORIENTED_EDGE('',*,*,#599,.T.);
#910=ORIENTED_EDGE('',*,*,#641,.T.);
#911=ORIENTED_EDGE('',*,*,#642,.F.);
#912=ORIENTED_EDGE('',*,*,#643,.F.);
#913=ORIENTED_EDGE('',*,*,#600,.T.);
#914=ORIENTED_EDGE('',*,*,#643,.T.);
#915=ORIENTED_EDGE('',*,*,#644,.F.);
#916=ORIENTED_EDGE('',*,*,#645,.F.);
#917=ORIENTED_EDGE('',*,*,#601,.T.);
#918=ORIENTED_EDGE('',*,*,#645,.T.);
#919=ORIENTED_EDGE('',*,*,#646,.F.);
#920=ORIENTED_EDGE('',*,*,#647,.F.);
#921=ORIENTED_EDGE('',*,*,#598,.T.);
#922=ORIENTED_EDGE('',*,*,#647,.T.);
#923=ORIENTED_EDGE('',*,*,#648,.F.);
#924=ORIENTED_EDGE('',*,*,#641,.F.);
#925=ORIENTED_EDGE('',*,*,#575,.F.);
#926=ORIENTED_EDGE('',*,*,#597,.F.);
#927=ORIENTED_EDGE('',*,*,#506,.T.);
#928=ORIENTED_EDGE('',*,*,#579,.F.);
#929=ORIENTED_EDGE('',*,*,#633,.T.);
#930=ORIENTED_EDGE('',*,*,#636,.T.);
#931=ORIENTED_EDGE('',*,*,#638,.T.);
#932=ORIENTED_EDGE('',*,*,#640,.T.);
#933=ORIENTED_EDGE('',*,*,#648,.T.);
#934=ORIENTED_EDGE('',*,*,#646,.T.);
#935=ORIENTED_EDGE('',*,*,#644,.T.);
#936=ORIENTED_EDGE('',*,*,#642,.T.);
#937=CYLINDRICAL_SURFACE('',#1025,1.);
#938=CYLINDRICAL_SURFACE('',#1029,1.);
#939=CYLINDRICAL_SURFACE('',#1033,1.);
#940=CYLINDRICAL_SURFACE('',#1038,1.);
#941=CYLINDRICAL_SURFACE('',#1046,1.);
#942=CYLINDRICAL_SURFACE('',#1048,1.);
#943=CYLINDRICAL_SURFACE('',#1050,1.55);
#944=CYLINDRICAL_SURFACE('',#1054,3.00000000000094);
#945=CYLINDRICAL_SURFACE('',#1058,3.00000000000025);
#946=CYLINDRICAL_SURFACE('',#1063,1.6);
#947=CYLINDRICAL_SURFACE('',#1067,1.6);
#948=CYLINDRICAL_SURFACE('',#1071,1.);
#949=CYLINDRICAL_SURFACE('',#1080,1.);
#950=CYLINDRICAL_SURFACE('',#1083,1.);
#951=CYLINDRICAL_SURFACE('',#1091,1.);
#952=CYLINDRICAL_SURFACE('',#1099,1.);
#953=CYLINDRICAL_SURFACE('',#1103,1.);
#954=CYLINDRICAL_SURFACE('',#1105,1.55);
#955=CYLINDRICAL_SURFACE('',#1111,3.00000000000094);
#956=CYLINDRICAL_SURFACE('',#1114,3.00000000000025);
#957=CYLINDRICAL_SURFACE('',#1118,1.6);
#958=CYLINDRICAL_SURFACE('',#1121,1.6);
#959=ADVANCED_FACE('',(#57),#937,.T.);
#960=ADVANCED_FACE('',(#58),#27,.F.);
#961=ADVANCED_FACE('',(#59),#938,.F.);
#962=ADVANCED_FACE('',(#60),#28,.F.);
#963=ADVANCED_FACE('',(#61),#939,.T.);
#964=ADVANCED_FACE('',(#62),#940,.T.);
#965=ADVANCED_FACE('',(#63,#15),#29,.F.);
#966=ADVANCED_FACE('',(#64),#30,.F.);
#967=ADVANCED_FACE('',(#65),#941,.T.);
#968=ADVANCED_FACE('',(#66),#942,.T.);
#969=ADVANCED_FACE('',(#67),#943,.F.);
#970=ADVANCED_FACE('',(#68),#31,.F.);
#971=ADVANCED_FACE('',(#69),#32,.F.);
#972=ADVANCED_FACE('',(#70),#944,.F.);
#973=ADVANCED_FACE('',(#71),#33,.F.);
#974=ADVANCED_FACE('',(#72),#945,.F.);
#975=ADVANCED_FACE('',(#73),#34,.F.);
#976=ADVANCED_FACE('',(#74),#35,.F.);
#977=ADVANCED_FACE('',(#75),#946,.F.);
#978=ADVANCED_FACE('',(#76),#36,.F.);
#979=ADVANCED_FACE('',(#77),#947,.F.);
#980=ADVANCED_FACE('',(#78,#16),#37,.F.);
#981=ADVANCED_FACE('',(#79),#948,.T.);
#982=ADVANCED_FACE('',(#80),#38,.T.);
#983=ADVANCED_FACE('',(#81,#17,#18),#39,.T.);
#984=ADVANCED_FACE('',(#82),#949,.F.);
#985=ADVANCED_FACE('',(#83),#40,.T.);
#986=ADVANCED_FACE('',(#84),#950,.T.);
#987=ADVANCED_FACE('',(#85,#19,#20),#41,.F.);
#988=ADVANCED_FACE('',(#86),#42,.T.);
#989=ADVANCED_FACE('',(#87),#951,.T.);
#990=ADVANCED_FACE('',(#88,#21),#43,.T.);
#991=ADVANCED_FACE('',(#89),#44,.T.);
#992=ADVANCED_FACE('',(#90),#952,.T.);
#993=ADVANCED_FACE('',(#91,#22,#23),#45,.T.);
#994=ADVANCED_FACE('',(#92),#953,.T.);
#995=ADVANCED_FACE('',(#93),#954,.F.);
#996=ADVANCED_FACE('',(#94),#46,.T.);
#997=ADVANCED_FACE('',(#95),#47,.T.);
#998=ADVANCED_FACE('',(#96),#48,.T.);
#999=ADVANCED_FACE('',(#97),#49,.T.);
#1000=ADVANCED_FACE('',(#98),#50,.T.);
#1001=ADVANCED_FACE('',(#99),#955,.F.);
#1002=ADVANCED_FACE('',(#100),#51,.T.);
#1003=ADVANCED_FACE('',(#101),#956,.F.);
#1004=ADVANCED_FACE('',(#102),#52,.T.);
#1005=ADVANCED_FACE('',(#103),#53,.T.);
#1006=ADVANCED_FACE('',(#104),#957,.F.);
#1007=ADVANCED_FACE('',(#105),#54,.T.);
#1008=ADVANCED_FACE('',(#106),#958,.F.);
#1009=ADVANCED_FACE('',(#107),#55,.T.);
#1010=ADVANCED_FACE('',(#108,#24),#56,.T.);
#1011=CLOSED_SHELL('',(#959,#960,#961,#962,#963,#964,#965,#966,#967,#968,
#969,#970,#971,#972,#973,#974,#975,#976,#977,#978,#979,#980,#981,#982,#983,
#984,#985,#986,#987,#988,#989,#990,#991,#992,#993,#994,#995,#996,#997,#998,
#999,#1000,#1001,#1002,#1003,#1004,#1005,#1006,#1007,#1008,#1009,#1010));
#1012=DERIVED_UNIT_ELEMENT(#1014,1.);
#1013=DERIVED_UNIT_ELEMENT(#1721,-3.);
#1014=(
MASS_UNIT()
NAMED_UNIT(*)
SI_UNIT(.KILO.,.GRAM.)
);
#1015=DERIVED_UNIT((#1012,#1013));
#1016=MEASURE_REPRESENTATION_ITEM('density measure',
POSITIVE_RATIO_MEASURE(7850.),#1015);
#1017=PROPERTY_DEFINITION_REPRESENTATION(#1022,#1019);
#1018=PROPERTY_DEFINITION_REPRESENTATION(#1023,#1020);
#1019=REPRESENTATION('material name',(#1021),#1718);
#1020=REPRESENTATION('density',(#1016),#1718);
#1021=DESCRIPTIVE_REPRESENTATION_ITEM('Steel','Steel');
#1022=PROPERTY_DEFINITION('material property','material name',#1728);
#1023=PROPERTY_DEFINITION('material property','density of part',#1728);
#1024=AXIS2_PLACEMENT_3D('',#1423,#1125,#1126);
#1025=AXIS2_PLACEMENT_3D('',#1424,#1127,#1128);
#1026=AXIS2_PLACEMENT_3D('',#1427,#1129,#1130);
#1027=AXIS2_PLACEMENT_3D('',#1431,#1132,#1133);
#1028=AXIS2_PLACEMENT_3D('',#1433,#1135,#1136);
#1029=AXIS2_PLACEMENT_3D('',#1439,#1140,#1141);
#1030=AXIS2_PLACEMENT_3D('',#1441,#1142,#1143);
#1031=AXIS2_PLACEMENT_3D('',#1443,#1144,#1145);
#1032=AXIS2_PLACEMENT_3D('',#1445,#1147,#1148);
#1033=AXIS2_PLACEMENT_3D('',#1451,#1152,#1153);
#1034=AXIS2_PLACEMENT_3D('',#1453,#1154,#1155);
#1035=AXIS2_PLACEMENT_3D('',#1455,#1156,#1157);
#1036=AXIS2_PLACEMENT_3D('',#1459,#1159,#1160);
#1037=AXIS2_PLACEMENT_3D('',#1460,#1161,#1162);
#1038=AXIS2_PLACEMENT_3D('',#1461,#1163,#1164);
#1039=AXIS2_PLACEMENT_3D('',#1464,#1165,#1166);
#1040=AXIS2_PLACEMENT_3D('',#1468,#1168,#1169);
#1041=AXIS2_PLACEMENT_3D('',#1470,#1171,#1172);
#1042=AXIS2_PLACEMENT_3D('',#1477,#1176,#1177);
#1043=AXIS2_PLACEMENT_3D('',#1478,#1178,#1179);
#1044=AXIS2_PLACEMENT_3D('',#1482,#1181,#1182);
#1045=AXIS2_PLACEMENT_3D('',#1486,#1184,#1185);
#1046=AXIS2_PLACEMENT_3D('',#1488,#1187,#1188);
#1047=AXIS2_PLACEMENT_3D('',#1492,#1190,#1191);
#1048=AXIS2_PLACEMENT_3D('',#1494,#1193,#1194);
#1049=AXIS2_PLACEMENT_3D('',#1498,#1196,#1197);
#1050=AXIS2_PLACEMENT_3D('',#1500,#1199,#1200);
#1051=AXIS2_PLACEMENT_3D('',#1502,#1201,#1202);
#1052=AXIS2_PLACEMENT_3D('',#1504,#1204,#1205);
#1053=AXIS2_PLACEMENT_3D('',#1506,#1207,#1208);
#1054=AXIS2_PLACEMENT_3D('',#1511,#1212,#1213);
#1055=AXIS2_PLACEMENT_3D('',#1514,#1214,#1215);
#1056=AXIS2_PLACEMENT_3D('',#1518,#1217,#1218);
#1057=AXIS2_PLACEMENT_3D('',#1520,#1220,#1221);
#1058=AXIS2_PLACEMENT_3D('',#1526,#1225,#1226);
#1059=AXIS2_PLACEMENT_3D('',#1528,#1227,#1228);
#1060=AXIS2_PLACEMENT_3D('',#1531,#1230,#1231);
#1061=AXIS2_PLACEMENT_3D('',#1532,#1232,#1233);
#1062=AXIS2_PLACEMENT_3D('',#1535,#1236,#1237);
#1063=AXIS2_PLACEMENT_3D('',#1544,#1242,#1243);
#1064=AXIS2_PLACEMENT_3D('',#1546,#1244,#1245);
#1065=AXIS2_PLACEMENT_3D('',#1549,#1247,#1248);
#1066=AXIS2_PLACEMENT_3D('',#1550,#1249,#1250);
#1067=AXIS2_PLACEMENT_3D('',#1556,#1254,#1255);
#1068=AXIS2_PLACEMENT_3D('',#1557,#1256,#1257);
#1069=AXIS2_PLACEMENT_3D('',#1558,#1258,#1259);
#1070=AXIS2_PLACEMENT_3D('',#1559,#1260,#1261);
#1071=AXIS2_PLACEMENT_3D('',#1560,#1262,#1263);
#1072=AXIS2_PLACEMENT_3D('',#1563,#1264,#1265);
#1073=AXIS2_PLACEMENT_3D('',#1567,#1267,#1268);
#1074=AXIS2_PLACEMENT_3D('',#1569,#1270,#1271);
#1075=AXIS2_PLACEMENT_3D('',#1575,#1275,#1276);
#1076=AXIS2_PLACEMENT_3D('',#1580,#1279,#1280);
#1077=AXIS2_PLACEMENT_3D('',#1583,#1282,#1283);
#1078=AXIS2_PLACEMENT_3D('',#1588,#1285,#1286);
#1079=AXIS2_PLACEMENT_3D('',#1591,#1288,#1289);
#1080=AXIS2_PLACEMENT_3D('',#1592,#1290,#1291);
#1081=AXIS2_PLACEMENT_3D('',#1595,#1293,#1294);
#1082=AXIS2_PLACEMENT_3D('',#1596,#1295,#1296);
#1083=AXIS2_PLACEMENT_3D('',#1600,#1299,#1300);
#1084=AXIS2_PLACEMENT_3D('',#1602,#1301,#1302);
#1085=AXIS2_PLACEMENT_3D('',#1604,#1303,#1304);
#1086=AXIS2_PLACEMENT_3D('',#1607,#1306,#1307);
#1087=AXIS2_PLACEMENT_3D('',#1608,#1308,#1309);
#1088=AXIS2_PLACEMENT_3D('',#1613,#1312,#1313);
#1089=AXIS2_PLACEMENT_3D('',#1617,#1315,#1316);
#1090=AXIS2_PLACEMENT_3D('',#1619,#1318,#1319);
#1091=AXIS2_PLACEMENT_3D('',#1623,#1322,#1323);
#1092=AXIS2_PLACEMENT_3D('',#1626,#1324,#1325);
#1093=AXIS2_PLACEMENT_3D('',#1630,#1327,#1328);
#1094=AXIS2_PLACEMENT_3D('',#1632,#1330,#1331);
#1095=AXIS2_PLACEMENT_3D('',#1639,#1335,#1336);
#1096=AXIS2_PLACEMENT_3D('',#1640,#1337,#1338);
#1097=AXIS2_PLACEMENT_3D('',#1644,#1340,#1341);
#1098=AXIS2_PLACEMENT_3D('',#1648,#1343,#1344);
#1099=AXIS2_PLACEMENT_3D('',#1650,#1346,#1347);
#1100=AXIS2_PLACEMENT_3D('',#1654,#1349,#1350);
#1101=AXIS2_PLACEMENT_3D('',#1656,#1352,#1353);
#1102=AXIS2_PLACEMENT_3D('',#1662,#1357,#1358);
#1103=AXIS2_PLACEMENT_3D('',#1663,#1359,#1360);
#1104=AXIS2_PLACEMENT_3D('',#1665,#1361,#1362);
#1105=AXIS2_PLACEMENT_3D('',#1667,#1364,#1365);
#1106=AXIS2_PLACEMENT_3D('',#1669,#1367,#1368);
#1107=AXIS2_PLACEMENT_3D('',#1671,#1370,#1371);
#1108=AXIS2_PLACEMENT_3D('',#1678,#1376,#1377);
#1109=AXIS2_PLACEMENT_3D('',#1679,#1378,#1379);
#1110=AXIS2_PLACEMENT_3D('',#1681,#1381,#1382);
#1111=AXIS2_PLACEMENT_3D('',#1682,#1383,#1384);
#1112=AXIS2_PLACEMENT_3D('',#1685,#1385,#1386);
#1113=AXIS2_PLACEMENT_3D('',#1688,#1389,#1390);
#1114=AXIS2_PLACEMENT_3D('',#1692,#1393,#1394);
#1115=AXIS2_PLACEMENT_3D('',#1694,#1395,#1396);
#1116=AXIS2_PLACEMENT_3D('',#1696,#1398,#1399);
#1117=AXIS2_PLACEMENT_3D('',#1698,#1401,#1402);
#1118=AXIS2_PLACEMENT_3D('',#1704,#1406,#1407);
#1119=AXIS2_PLACEMENT_3D('',#1706,#1408,#1409);
#1120=AXIS2_PLACEMENT_3D('',#1708,#1411,#1412);
#1121=AXIS2_PLACEMENT_3D('',#1712,#1415,#1416);
#1122=AXIS2_PLACEMENT_3D('',#1713,#1417,#1418);
#1123=AXIS2_PLACEMENT_3D('',#1714,#1419,#1420);
#1124=AXIS2_PLACEMENT_3D('',#1715,#1421,#1422);
#1125=DIRECTION('axis',(0.,0.,1.));
#1126=DIRECTION('refdir',(1.,0.,0.));
#1127=DIRECTION('center_axis',(0.,0.,-1.));
#1128=DIRECTION('ref_axis',(-0.707106781186548,0.707106781186548,0.));
#1129=DIRECTION('center_axis',(0.,0.,1.));
#1130=DIRECTION('ref_axis',(-0.707106781186548,0.707106781186548,0.));
#1131=DIRECTION('',(0.,0.,1.));
#1132=DIRECTION('center_axis',(0.,0.,-1.));
#1133=DIRECTION('ref_axis',(-0.707106781186548,0.707106781186548,0.));
#1134=DIRECTION('',(0.,0.,-1.));
#1135=DIRECTION('center_axis',(1.,-2.01858731750028E-16,0.));
#1136=DIRECTION('ref_axis',(2.01858731750028E-16,1.,0.));
#1137=DIRECTION('',(-2.01858731750028E-16,-1.,0.));
#1138=DIRECTION('',(0.,0.,1.));
#1139=DIRECTION('',(2.01858731750028E-16,1.,0.));
#1140=DIRECTION('center_axis',(0.,0.,1.));
#1141=DIRECTION('ref_axis',(0.923879532511287,-0.382683432365089,0.));
#1142=DIRECTION('center_axis',(0.,0.,-1.));
#1143=DIRECTION('ref_axis',(0.923879532511287,-0.382683432365089,0.));
#1144=DIRECTION('center_axis',(0.,0.,1.));
#1145=DIRECTION('ref_axis',(0.923879532511287,-0.382683432365089,0.));
#1146=DIRECTION('',(0.,0.,-1.));
#1147=DIRECTION('center_axis',(0.707106781186548,-0.707106781186547,0.));
#1148=DIRECTION('ref_axis',(-0.707106781186547,-0.707106781186548,0.));
#1149=DIRECTION('',(0.707106781186547,0.707106781186548,0.));
#1150=DIRECTION('',(0.,0.,1.));
#1151=DIRECTION('',(-0.707106781186547,-0.707106781186548,0.));
#1152=DIRECTION('center_axis',(0.,0.,1.));
#1153=DIRECTION('ref_axis',(-0.923879532511287,0.382683432365091,0.));
#1154=DIRECTION('center_axis',(0.,0.,-1.));
#1155=DIRECTION('ref_axis',(-0.923879532511287,0.382683432365091,0.));
#1156=DIRECTION('center_axis',(0.,-0.707106781186548,-0.707106781186547));
#1157=DIRECTION('ref_axis',(-4.9065389333868E-17,0.707106781186547,-0.707106781186548));
#1158=DIRECTION('',(0.,0.,-1.));
#1159=DIRECTION('center_axis',(0.,3.18014422452088E-8,1.));
#1160=DIRECTION('ref_axis',(-0.38268343236509,-0.923879532511286,2.93807015946882E-8));
#1161=DIRECTION('center_axis',(0.,0.,1.));
#1162=DIRECTION('ref_axis',(-0.923879532511287,0.382683432365091,0.));
#1163=DIRECTION('center_axis',(0.,0.,-1.));
#1164=DIRECTION('ref_axis',(0.707106781186548,0.707106781186548,0.));
#1165=DIRECTION('center_axis',(0.,0.,1.));
#1166=DIRECTION('ref_axis',(0.707106781186548,0.707106781186548,0.));
#1167=DIRECTION('',(0.,0.,1.));
#1168=DIRECTION('center_axis',(0.,3.18014422452088E-8,1.));
#1169=DIRECTION('ref_axis',(0.707106781186547,0.707106781186547,-2.24870154630995E-8));
#1170=DIRECTION('',(0.,0.,-1.));
#1171=DIRECTION('center_axis',(0.,-1.,0.));
#1172=DIRECTION('ref_axis',(0.,0.,1.));
#1173=DIRECTION('',(1.,0.,0.));
#1174=DIRECTION('',(0.,0.,-1.));
#1175=DIRECTION('',(-1.,0.,0.));
#1176=DIRECTION('center_axis',(0.,1.,0.));
#1177=DIRECTION('ref_axis',(-1.,0.,0.));
#1178=DIRECTION('center_axis',(0.,0.,-1.));
#1179=DIRECTION('ref_axis',(-1.,0.,0.));
#1180=DIRECTION('',(0.,1.,0.));
#1181=DIRECTION('center_axis',(0.,0.,1.));
#1182=DIRECTION('ref_axis',(-0.707106781186546,-0.707106781186549,0.));
#1183=DIRECTION('',(-1.,0.,0.));
#1184=DIRECTION('center_axis',(0.,0.,1.));
#1185=DIRECTION('ref_axis',(0.707106781186549,-0.707106781186546,0.));
#1186=DIRECTION('',(0.,1.,0.));
#1187=DIRECTION('center_axis',(0.,0.,-1.));
#1188=DIRECTION('ref_axis',(0.707106781186549,-0.707106781186546,0.));
#1189=DIRECTION('',(0.,0.,1.));
#1190=DIRECTION('center_axis',(0.,-2.46716227694479E-16,1.));
#1191=DIRECTION('ref_axis',(0.707106781186549,-0.707106781186546,0.));
#1192=DIRECTION('',(0.,0.,-1.));
#1193=DIRECTION('center_axis',(0.,0.,-1.));
#1194=DIRECTION('ref_axis',(-0.707106781186546,-0.707106781186549,0.));
#1195=DIRECTION('',(0.,0.,1.));
#1196=DIRECTION('center_axis',(0.,0.,-1.));
#1197=DIRECTION('ref_axis',(-0.707106781186546,-0.707106781186549,0.));
#1198=DIRECTION('',(0.,0.,-1.));
#1199=DIRECTION('center_axis',(0.,-1.,0.));
#1200=DIRECTION('ref_axis',(-1.,0.,0.));
#1201=DIRECTION('center_axis',(0.,-1.,0.));
#1202=DIRECTION('ref_axis',(-1.,0.,0.));
#1203=DIRECTION('',(0.,1.,0.));
#1204=DIRECTION('center_axis',(-1.,0.,0.));
#1205=DIRECTION('ref_axis',(0.,0.,1.));
#1206=DIRECTION('',(0.,1.,2.46716227694479E-16));
#1207=DIRECTION('center_axis',(1.,0.,0.));
#1208=DIRECTION('ref_axis',(0.,1.,0.));
#1209=DIRECTION('',(0.,-0.707106781186547,0.707106781186548));
#1210=DIRECTION('',(0.,-1.,0.));
#1211=DIRECTION('',(0.,0.999999999999999,-3.18014422452088E-8));
#1212=DIRECTION('center_axis',(0.,0.,-1.));
#1213=DIRECTION('ref_axis',(1.,2.28705943072711E-13,0.));
#1214=DIRECTION('center_axis',(0.,0.,-1.));
#1215=DIRECTION('ref_axis',(1.,2.28705943072711E-13,0.));
#1216=DIRECTION('',(0.,0.,1.));
#1217=DIRECTION('center_axis',(0.,0.,1.));
#1218=DIRECTION('ref_axis',(1.,2.28705943072711E-13,0.));
#1219=DIRECTION('',(0.,0.,1.));
#1220=DIRECTION('center_axis',(-1.,2.27965794389699E-13,0.));
#1221=DIRECTION('ref_axis',(-2.27965794389699E-13,-1.,0.));
#1222=DIRECTION('',(2.27965794389699E-13,1.,0.));
#1223=DIRECTION('',(0.,0.,1.));
#1224=DIRECTION('',(-2.27965794389699E-13,-1.,0.));
#1225=DIRECTION('center_axis',(0.,0.,-1.));
#1226=DIRECTION('ref_axis',(-1.,2.2796579438968E-13,0.));
#1227=DIRECTION('center_axis',(0.,0.,-1.));
#1228=DIRECTION('ref_axis',(-1.,2.2796579438968E-13,0.));
#1229=DIRECTION('',(0.,0.,1.));
#1230=DIRECTION('center_axis',(0.,0.,1.));
#1231=DIRECTION('ref_axis',(-1.,2.2796579438968E-13,0.));
#1232=DIRECTION('center_axis',(1.,2.28520905902011E-13,0.));
#1233=DIRECTION('ref_axis',(-2.28520905902011E-13,1.,0.));
#1234=DIRECTION('',(2.28520905902011E-13,-1.,0.));
#1235=DIRECTION('',(-2.28520905902011E-13,1.,0.));
#1236=DIRECTION('center_axis',(1.,0.,0.));
#1237=DIRECTION('ref_axis',(0.,1.,0.));
#1238=DIRECTION('',(0.,1.,0.));
#1239=DIRECTION('',(0.,0.,1.));
#1240=DIRECTION('',(0.,1.,0.));
#1241=DIRECTION('',(0.,0.,1.));
#1242=DIRECTION('center_axis',(0.,0.,-1.));
#1243=DIRECTION('ref_axis',(1.,0.,0.));
#1244=DIRECTION('center_axis',(0.,0.,1.));
#1245=DIRECTION('ref_axis',(1.,0.,0.));
#1246=DIRECTION('',(0.,0.,1.));
#1247=DIRECTION('center_axis',(0.,0.,1.));
#1248=DIRECTION('ref_axis',(1.,0.,0.));
#1249=DIRECTION('center_axis',(-1.,0.,0.));
#1250=DIRECTION('ref_axis',(0.,-1.,0.));
#1251=DIRECTION('',(0.,-1.,0.));
#1252=DIRECTION('',(0.,0.,1.));
#1253=DIRECTION('',(0.,-1.,0.));
#1254=DIRECTION('center_axis',(0.,0.,-1.));
#1255=DIRECTION('ref_axis',(-1.,0.,0.));
#1256=DIRECTION('center_axis',(0.,0.,1.));
#1257=DIRECTION('ref_axis',(-1.,0.,0.));
#1258=DIRECTION('center_axis',(0.,0.,1.));
#1259=DIRECTION('ref_axis',(-1.,0.,0.));
#1260=DIRECTION('center_axis',(0.,0.,-1.));
#1261=DIRECTION('ref_axis',(-1.,0.,0.));
#1262=DIRECTION('center_axis',(0.,0.,1.));
#1263=DIRECTION('ref_axis',(0.707106781186548,0.707106781186548,0.));
#1264=DIRECTION('center_axis',(0.,0.,-1.));
#1265=DIRECTION('ref_axis',(0.707106781186548,0.707106781186548,0.));
#1266=DIRECTION('',(0.,0.,-1.));
#1267=DIRECTION('center_axis',(0.,0.,1.));
#1268=DIRECTION('ref_axis',(0.707106781186548,0.707106781186548,0.));
#1269=DIRECTION('',(0.,0.,1.));
#1270=DIRECTION('center_axis',(1.,2.01858731750028E-16,0.));
#1271=DIRECTION('ref_axis',(-2.01858731750028E-16,1.,0.));
#1272=DIRECTION('',(-2.01858731750028E-16,1.,0.));
#1273=DIRECTION('',(0.,0.,1.));
#1274=DIRECTION('',(2.01858731750028E-16,-1.,0.));
#1275=DIRECTION('center_axis',(0.,0.,1.));
#1276=DIRECTION('ref_axis',(1.,0.,0.));
#1277=DIRECTION('',(-1.,0.,0.));
#1278=DIRECTION('',(-1.,0.,0.));
#1279=DIRECTION('center_axis',(0.,0.,-1.));
#1280=DIRECTION('ref_axis',(0.923879532511287,0.382683432365091,0.));
#1281=DIRECTION('',(0.707106781186547,-0.707106781186548,0.));
#1282=DIRECTION('center_axis',(0.,0.,1.));
#1283=DIRECTION('ref_axis',(-0.923879532511287,-0.382683432365089,0.));
#1284=DIRECTION('',(2.28520905902011E-13,1.,0.));
#1285=DIRECTION('center_axis',(0.,0.,-1.));
#1286=DIRECTION('ref_axis',(1.,2.2796579438968E-13,0.));
#1287=DIRECTION('',(2.27965794389699E-13,-1.,0.));
#1288=DIRECTION('center_axis',(0.,0.,-1.));
#1289=DIRECTION('ref_axis',(-1.,2.28705943072711E-13,0.));
#1290=DIRECTION('center_axis',(0.,0.,-1.));
#1291=DIRECTION('ref_axis',(-0.923879532511287,-0.382683432365089,0.));
#1292=DIRECTION('',(0.,0.,-1.));
#1293=DIRECTION('center_axis',(0.,0.,-1.));
#1294=DIRECTION('ref_axis',(-0.923879532511287,-0.382683432365089,0.));
#1295=DIRECTION('center_axis',(0.707106781186548,0.707106781186547,0.));
#1296=DIRECTION('ref_axis',(0.707106781186547,-0.707106781186548,0.));
#1297=DIRECTION('',(0.,0.,1.));
#1298=DIRECTION('',(-0.707106781186547,0.707106781186548,0.));
#1299=DIRECTION('center_axis',(0.,0.,-1.));
#1300=DIRECTION('ref_axis',(0.923879532511287,0.382683432365091,0.));
#1301=DIRECTION('center_axis',(0.,0.,1.));
#1302=DIRECTION('ref_axis',(0.923879532511287,0.382683432365091,0.));
#1303=DIRECTION('center_axis',(0.,-3.18014422452088E-8,-1.));
#1304=DIRECTION('ref_axis',(0.38268343236509,-0.923879532511286,2.93807015946882E-8));
#1305=DIRECTION('',(0.,0.,-1.));
#1306=DIRECTION('center_axis',(0.,0.707106781186548,0.707106781186547));
#1307=DIRECTION('ref_axis',(4.9065389333868E-17,0.707106781186547,-0.707106781186548));
#1308=DIRECTION('center_axis',(0.,0.,1.));
#1309=DIRECTION('ref_axis',(1.,0.,0.));
#1310=DIRECTION('',(-1.,0.,0.));
#1311=DIRECTION('',(1.,0.,0.));
#1312=DIRECTION('center_axis',(0.,0.,-1.));
#1313=DIRECTION('ref_axis',(1.,0.,0.));
#1314=DIRECTION('',(0.,1.,0.));
#1315=DIRECTION('center_axis',(0.,0.,-1.));
#1316=DIRECTION('ref_axis',(-1.,0.,0.));
#1317=DIRECTION('',(0.,-1.,0.));
#1318=DIRECTION('center_axis',(0.,-0.707106781186548,-0.707106781186547));
#1319=DIRECTION('ref_axis',(0.,-0.707106781186547,0.707106781186548));
#1320=DIRECTION('',(0.,-0.707106781186547,0.707106781186548));
#1321=DIRECTION('',(-1.,0.,0.));
#1322=DIRECTION('center_axis',(0.,0.,1.));
#1323=DIRECTION('ref_axis',(-0.707106781186548,0.707106781186548,0.));
#1324=DIRECTION('center_axis',(0.,0.,-1.));
#1325=DIRECTION('ref_axis',(-0.707106781186548,0.707106781186548,0.));
#1326=DIRECTION('',(0.,0.,-1.));
#1327=DIRECTION('center_axis',(0.,-3.18014422452088E-8,-1.));
#1328=DIRECTION('ref_axis',(-0.707106781186547,0.707106781186547,-2.24870154630995E-8));
#1329=DIRECTION('',(0.,0.,1.));
#1330=DIRECTION('center_axis',(0.,1.,0.));
#1331=DIRECTION('ref_axis',(0.,0.,1.));
#1332=DIRECTION('',(1.,0.,0.));
#1333=DIRECTION('',(0.,0.,-1.));
#1334=DIRECTION('',(-1.,0.,0.));
#1335=DIRECTION('center_axis',(0.,-1.,0.));
#1336=DIRECTION('ref_axis',(1.,0.,0.));
#1337=DIRECTION('center_axis',(0.,0.,1.));
#1338=DIRECTION('ref_axis',(1.,0.,0.));
#1339=DIRECTION('',(0.,1.,0.));
#1340=DIRECTION('center_axis',(0.,0.,-1.));
#1341=DIRECTION('ref_axis',(-0.707106781186549,-0.707106781186546,0.));
#1342=DIRECTION('',(1.,0.,0.));
#1343=DIRECTION('center_axis',(0.,0.,-1.));
#1344=DIRECTION('ref_axis',(0.707106781186546,-0.707106781186549,0.));
#1345=DIRECTION('',(0.,1.,0.));
#1346=DIRECTION('center_axis',(0.,0.,1.));
#1347=DIRECTION('ref_axis',(-0.707106781186549,-0.707106781186546,0.));
#1348=DIRECTION('',(0.,0.,-1.));
#1349=DIRECTION('center_axis',(0.,2.46716227694479E-16,-1.));
#1350=DIRECTION('ref_axis',(-0.707106781186549,-0.707106781186546,0.));
#1351=DIRECTION('',(0.,0.,1.));
#1352=DIRECTION('center_axis',(0.,-1.,0.));
#1353=DIRECTION('ref_axis',(0.,0.,1.));
#1354=DIRECTION('',(-1.,0.,0.));
#1355=DIRECTION('',(1.,0.,0.));
#1356=DIRECTION('',(0.,0.,-1.));
#1357=DIRECTION('center_axis',(0.,1.,0.));
#1358=DIRECTION('ref_axis',(1.,0.,0.));
#1359=DIRECTION('center_axis',(0.,0.,1.));
#1360=DIRECTION('ref_axis',(0.707106781186546,-0.707106781186549,0.));
#1361=DIRECTION('center_axis',(0.,0.,1.));
#1362=DIRECTION('ref_axis',(0.707106781186546,-0.707106781186549,0.));
#1363=DIRECTION('',(0.,0.,1.));
#1364=DIRECTION('center_axis',(0.,1.,0.));
#1365=DIRECTION('ref_axis',(1.,0.,0.));
#1366=DIRECTION('',(0.,1.,0.));
#1367=DIRECTION('center_axis',(-1.,0.,0.));
#1368=DIRECTION('ref_axis',(0.,0.,1.));
#1369=DIRECTION('',(0.,1.,2.46716227694479E-16));
#1370=DIRECTION('center_axis',(0.,3.18014422452088E-8,1.));
#1371=DIRECTION('ref_axis',(0.,0.999999999999999,-3.18014422452088E-8));
#1372=DIRECTION('',(0.,1.,2.46716227694479E-16));
#1373=DIRECTION('',(-1.,0.,0.));
#1374=DIRECTION('',(0.,1.,2.46716227694479E-16));
#1375=DIRECTION('',(0.,0.999999999999999,-3.18014422452088E-8));
#1376=DIRECTION('center_axis',(0.,-2.46716227694479E-16,1.));
#1377=DIRECTION('ref_axis',(0.,1.,2.46716227694479E-16));
#1378=DIRECTION('center_axis',(0.,0.,-1.));
#1379=DIRECTION('ref_axis',(0.,-1.,0.));
#1380=DIRECTION('',(0.,-1.,0.));
#1381=DIRECTION('center_axis',(1.,0.,0.));
#1382=DIRECTION('ref_axis',(0.,1.,0.));
#1383=DIRECTION('center_axis',(0.,0.,1.));
#1384=DIRECTION('ref_axis',(-1.,2.28705943072711E-13,0.));
#1385=DIRECTION('center_axis',(0.,0.,1.));
#1386=DIRECTION('ref_axis',(-1.,2.28705943072711E-13,0.));
#1387=DIRECTION('',(0.,0.,1.));
#1388=DIRECTION('',(0.,0.,1.));
#1389=DIRECTION('center_axis',(-1.,-2.27965794389699E-13,0.));
#1390=DIRECTION('ref_axis',(2.27965794389699E-13,-1.,0.));
#1391=DIRECTION('',(-2.27965794389699E-13,1.,0.));
#1392=DIRECTION('',(0.,0.,1.));
#1393=DIRECTION('center_axis',(0.,0.,1.));
#1394=DIRECTION('ref_axis',(1.,2.2796579438968E-13,0.));
#1395=DIRECTION('center_axis',(0.,0.,1.));
#1396=DIRECTION('ref_axis',(1.,2.2796579438968E-13,0.));
#1397=DIRECTION('',(0.,0.,1.));
#1398=DIRECTION('center_axis',(1.,-2.28520905902011E-13,0.));
#1399=DIRECTION('ref_axis',(2.28520905902011E-13,1.,0.));
#1400=DIRECTION('',(-2.28520905902011E-13,-1.,0.));
#1401=DIRECTION('center_axis',(1.,0.,0.));
#1402=DIRECTION('ref_axis',(0.,1.,0.));
#1403=DIRECTION('',(0.,0.,1.));
#1404=DIRECTION('',(0.,1.,0.));
#1405=DIRECTION('',(0.,0.,1.));
#1406=DIRECTION('center_axis',(0.,0.,1.));
#1407=DIRECTION('ref_axis',(-1.,0.,0.));
#1408=DIRECTION('center_axis',(0.,0.,-1.));
#1409=DIRECTION('ref_axis',(-1.,0.,0.));
#1410=DIRECTION('',(0.,0.,1.));
#1411=DIRECTION('center_axis',(-1.,0.,0.));
#1412=DIRECTION('ref_axis',(0.,-1.,0.));
#1413=DIRECTION('',(0.,-1.,0.));
#1414=DIRECTION('',(0.,0.,1.));
#1415=DIRECTION('center_axis',(0.,0.,1.));
#1416=DIRECTION('ref_axis',(1.,0.,0.));
#1417=DIRECTION('center_axis',(0.,0.,-1.));
#1418=DIRECTION('ref_axis',(1.,0.,0.));
#1419=DIRECTION('center_axis',(0.,1.,0.));
#1420=DIRECTION('ref_axis',(-1.,0.,0.));
#1421=DIRECTION('center_axis',(0.,0.,1.));
#1422=DIRECTION('ref_axis',(1.,0.,0.));
#1423=CARTESIAN_POINT('',(0.,0.,0.));
#1424=CARTESIAN_POINT('Origin',(-15.5,10.,0.));
#1425=CARTESIAN_POINT('',(-15.5,11.,7.));
#1426=CARTESIAN_POINT('',(-16.5,10.,7.));
#1427=CARTESIAN_POINT('Origin',(-15.5,10.,7.));
#1428=CARTESIAN_POINT('',(-15.5,11.,0.));
#1429=CARTESIAN_POINT('',(-15.5,11.,0.));
#1430=CARTESIAN_POINT('',(-16.5,10.,0.));
#1431=CARTESIAN_POINT('Origin',(-15.5,10.,0.));
#1432=CARTESIAN_POINT('',(-16.5,10.,0.));
#1433=CARTESIAN_POINT('Origin',(-16.5,0.,0.));
#1434=CARTESIAN_POINT('',(-16.5,4.4142135623731,0.));
#1435=CARTESIAN_POINT('',(-16.5,11.,0.));
#1436=CARTESIAN_POINT('',(-16.5,4.4142135623731,7.));
#1437=CARTESIAN_POINT('',(-16.5,4.4142135623731,3.5));
#1438=CARTESIAN_POINT('',(-16.5,2.75,7.));
#1439=CARTESIAN_POINT('Origin',(-17.5,4.4142135623731,3.5));
#1440=CARTESIAN_POINT('',(-16.7928932188135,3.70710678118655,7.));
#1441=CARTESIAN_POINT('Origin',(-17.5,4.4142135623731,7.));
#1442=CARTESIAN_POINT('',(-16.7928932188135,3.70710678118655,-5.55111512312578E-16));
#1443=CARTESIAN_POINT('Origin',(-17.5,4.4142135623731,0.));
#1444=CARTESIAN_POINT('',(-16.7928932188135,3.70710678118655,3.5));
#1445=CARTESIAN_POINT('Origin',(-16.5,4.,7.));
#1446=CARTESIAN_POINT('',(-20.2071067811865,0.292893218813453,-5.55111512312578E-16));
#1447=CARTESIAN_POINT('',(-17.5,3.,-5.55111512312578E-16));
#1448=CARTESIAN_POINT('',(-20.2071067811865,0.292893218813453,7.));
#1449=CARTESIAN_POINT('',(-20.2071067811865,0.292893218813452,5.2500000198759));
#1450=CARTESIAN_POINT('',(-16.5,4.,7.));
#1451=CARTESIAN_POINT('Origin',(-19.5,-0.414213562373095,5.2500000198759));
#1452=CARTESIAN_POINT('',(-20.4101797211245,0.,0.));
#1453=CARTESIAN_POINT('Origin',(-19.5,-0.414213562373095,0.));
#1454=CARTESIAN_POINT('',(-20.5,-0.414213562373095,0.414213562373092));
#1455=CARTESIAN_POINT('Origin',(-19.5,-0.414213562373095,0.414213562373092));
#1456=CARTESIAN_POINT('',(-20.5,-0.414213562373095,7.00000001317259));
#1457=CARTESIAN_POINT('',(-20.5,-0.414213562373095,5.2500000198759));
#1458=CARTESIAN_POINT('',(-20.4101797211245,-2.22044604925031E-15,7.));
#1459=CARTESIAN_POINT('Origin',(-19.5,-0.414213562373095,7.00000001317259));
#1460=CARTESIAN_POINT('Origin',(-19.5,-0.414213562373095,7.));
#1461=CARTESIAN_POINT('Origin',(-13.5,-3.50000007950361,10.000000086542));
#1462=CARTESIAN_POINT('',(-12.5,-3.50000007950361,19.000000086542));
#1463=CARTESIAN_POINT('',(-13.5,-2.50000007950361,19.000000086542));
#1464=CARTESIAN_POINT('Origin',(-13.5,-3.50000007950361,19.000000086542));
#1465=CARTESIAN_POINT('',(-12.5,-3.50000007950361,7.00000007950361));
#1466=CARTESIAN_POINT('',(-12.5,-3.50000007950361,10.000000086542));
#1467=CARTESIAN_POINT('',(-13.5,-2.50000007950361,7.00000007950361));
#1468=CARTESIAN_POINT('Origin',(-13.5,-3.50000007950361,7.00000011130505));
#1469=CARTESIAN_POINT('',(-13.5,-2.50000007950361,10.000000086542));
#1470=CARTESIAN_POINT('Origin',(-16.5,-2.50000007950361,13.000000086542));
#1471=CARTESIAN_POINT('',(-20.5,-2.50000007950361,7.00000007950361));
#1472=CARTESIAN_POINT('',(-20.5,-2.50000007950361,7.00000007950361));
#1473=CARTESIAN_POINT('',(-20.5,-2.50000007950361,19.000000086542));
#1474=CARTESIAN_POINT('',(-20.5,-2.50000007950361,19.000000086542));
#1475=CARTESIAN_POINT('',(-12.5,-2.50000007950361,19.000000086542));
#1476=CARTESIAN_POINT('',(-16.0255,-2.50000007950361,15.5));
#1477=CARTESIAN_POINT('Origin',(-17.5755,-2.50000007950361,15.5));
#1478=CARTESIAN_POINT('Origin',(-12.5,-7.00000007950361,19.000000086542));
#1479=CARTESIAN_POINT('',(-20.5,-6.00000007950361,19.000000086542));
#1480=CARTESIAN_POINT('',(-20.5,-7.00000007950361,19.000000086542));
#1481=CARTESIAN_POINT('',(-19.5,-7.00000007950361,19.000000086542));
#1482=CARTESIAN_POINT('Origin',(-19.5,-6.00000007950361,19.000000086542));
#1483=CARTESIAN_POINT('',(-13.5,-7.00000007950361,19.000000086542));
#1484=CARTESIAN_POINT('',(-12.5,-7.00000007950361,19.000000086542));
#1485=CARTESIAN_POINT('',(-12.5,-6.00000007950361,19.000000086542));
#1486=CARTESIAN_POINT('Origin',(-13.5,-6.00000007950361,19.000000086542));
#1487=CARTESIAN_POINT('',(-12.5,-7.00000007950361,19.000000086542));
#1488=CARTESIAN_POINT('Origin',(-13.5,-6.00000007950361,4.75000008302283));
#1489=CARTESIAN_POINT('',(-13.5,-7.00000007950361,7.00000007950361));
#1490=CARTESIAN_POINT('',(-13.5,-7.00000007950361,4.75000008302283));
#1491=CARTESIAN_POINT('',(-12.5,-6.00000007950361,7.00000007950361));
#1492=CARTESIAN_POINT('Origin',(-13.5,-6.00000007950361,7.00000007950361));
#1493=CARTESIAN_POINT('',(-12.5,-6.00000007950361,4.75000008302283));
#1494=CARTESIAN_POINT('Origin',(-19.5,-6.00000007950361,3.00000005962771));
#1495=CARTESIAN_POINT('',(-20.5,-6.00000007950361,2.50000007950361));
#1496=CARTESIAN_POINT('',(-20.5,-6.00000007950361,3.00000005962771));
#1497=CARTESIAN_POINT('',(-19.5,-7.00000007950361,2.50000007950361));
#1498=CARTESIAN_POINT('Origin',(-19.5,-6.00000007950361,2.50000007950361));
#1499=CARTESIAN_POINT('',(-19.5,-7.00000007950361,3.00000005962771));
#1500=CARTESIAN_POINT('Origin',(-17.5755,-7.00000007950361,15.5));
#1501=CARTESIAN_POINT('',(-16.0255,-7.00000007950361,15.5));
#1502=CARTESIAN_POINT('Origin',(-17.5755,-7.00000007950361,15.5));
#1503=CARTESIAN_POINT('',(-16.0255,-7.00000007950361,15.5));
#1504=CARTESIAN_POINT('Origin',(-12.5,-7.00000007950361,7.00000008654204));
#1505=CARTESIAN_POINT('',(-12.5,-7.00000007950361,7.00000007950361));
#1506=CARTESIAN_POINT('Origin',(-20.5,-3.50000003975181,3.5000000397518));
#1507=CARTESIAN_POINT('',(-20.5,-2.50000007950361,2.50000007950361));
#1508=CARTESIAN_POINT('',(-20.5,-2.8182584471254E-15,0.));
#1509=CARTESIAN_POINT('',(-20.5,-2.50000007950361,2.50000007950361));
#1510=CARTESIAN_POINT('',(-20.5,-2.50000007950361,7.00000007950361));
#1511=CARTESIAN_POINT('Origin',(-7.5,4.,3.));
#1512=CARTESIAN_POINT('',(-4.49999999999906,4.00000000000069,3.));
#1513=CARTESIAN_POINT('',(-10.5000000000009,3.99999999999931,3.));
#1514=CARTESIAN_POINT('Origin',(-7.5,4.,3.));
#1515=CARTESIAN_POINT('',(-10.5000000000009,3.99999999999931,7.));
#1516=CARTESIAN_POINT('',(-10.5000000000009,3.99999999999931,3.));
#1517=CARTESIAN_POINT('',(-4.49999999999906,4.00000000000069,7.));
#1518=CARTESIAN_POINT('Origin',(-7.5,4.,7.));
#1519=CARTESIAN_POINT('',(-4.49999999999906,4.00000000000069,3.));
#1520=CARTESIAN_POINT('Origin',(-10.5000000000003,7.00000000000068,3.));
#1521=CARTESIAN_POINT('',(-10.5000000000003,7.00000000000068,3.));
#1522=CARTESIAN_POINT('',(-10.5000000000004,6.2500000000006,3.));
#1523=CARTESIAN_POINT('',(-10.5000000000003,7.00000000000068,7.));
#1524=CARTESIAN_POINT('',(-10.5000000000003,7.00000000000068,3.));
#1525=CARTESIAN_POINT('',(-10.5000000000004,6.2500000000006,7.));
#1526=CARTESIAN_POINT('Origin',(-7.5,7.,3.));
#1527=CARTESIAN_POINT('',(-4.49999999999975,6.99999999999932,3.));
#1528=CARTESIAN_POINT('Origin',(-7.5,7.,3.));
#1529=CARTESIAN_POINT('',(-4.49999999999975,6.99999999999932,7.));
#1530=CARTESIAN_POINT('',(-4.49999999999975,6.99999999999932,3.));
#1531=CARTESIAN_POINT('Origin',(-7.5,7.,7.));
#1532=CARTESIAN_POINT('Origin',(-4.49999999999906,4.00000000000069,3.));
#1533=CARTESIAN_POINT('',(-4.49999999999923,4.75000000000077,3.));
#1534=CARTESIAN_POINT('',(-4.49999999999923,4.75000000000077,7.));
#1535=CARTESIAN_POINT('Origin',(-5.9,4.,0.));
#1536=CARTESIAN_POINT('',(-5.9,4.,0.));
#1537=CARTESIAN_POINT('',(-5.9,7.,0.));
#1538=CARTESIAN_POINT('',(-5.9,7.,0.));
#1539=CARTESIAN_POINT('',(-5.9,4.,3.));
#1540=CARTESIAN_POINT('',(-5.9,4.,0.));
#1541=CARTESIAN_POINT('',(-5.9,7.,3.));
#1542=CARTESIAN_POINT('',(-5.9,7.,3.));
#1543=CARTESIAN_POINT('',(-5.9,7.,0.));
#1544=CARTESIAN_POINT('Origin',(-7.5,4.,0.));
#1545=CARTESIAN_POINT('',(-9.1,4.,0.));
#1546=CARTESIAN_POINT('Origin',(-7.5,4.,0.));
#1547=CARTESIAN_POINT('',(-9.1,4.,3.));
#1548=CARTESIAN_POINT('',(-9.1,4.,0.));
#1549=CARTESIAN_POINT('Origin',(-7.5,4.,3.));
#1550=CARTESIAN_POINT('Origin',(-9.1,7.,0.));
#1551=CARTESIAN_POINT('',(-9.1,7.,0.));
#1552=CARTESIAN_POINT('',(-9.1,7.,0.));
#1553=CARTESIAN_POINT('',(-9.1,7.,3.));
#1554=CARTESIAN_POINT('',(-9.1,7.,0.));
#1555=CARTESIAN_POINT('',(-9.1,7.,3.));
#1556=CARTESIAN_POINT('Origin',(-7.5,7.,0.));
#1557=CARTESIAN_POINT('Origin',(-7.5,7.,0.));
#1558=CARTESIAN_POINT('Origin',(-7.5,7.,3.));
#1559=CARTESIAN_POINT('Origin',(-8.25,5.5,3.));
#1560=CARTESIAN_POINT('Origin',(15.5,10.,0.));
#1561=CARTESIAN_POINT('',(15.5,11.,7.));
#1562=CARTESIAN_POINT('',(16.5,10.,7.));
#1563=CARTESIAN_POINT('Origin',(15.5,10.,7.));
#1564=CARTESIAN_POINT('',(16.5,10.,0.));
#1565=CARTESIAN_POINT('',(16.5,10.,0.));
#1566=CARTESIAN_POINT('',(15.5,11.,0.));
#1567=CARTESIAN_POINT('Origin',(15.5,10.,0.));
#1568=CARTESIAN_POINT('',(15.5,11.,0.));
#1569=CARTESIAN_POINT('Origin',(16.5,0.,0.));
#1570=CARTESIAN_POINT('',(16.5,4.4142135623731,7.));
#1571=CARTESIAN_POINT('',(16.5,2.75,7.));
#1572=CARTESIAN_POINT('',(16.5,4.4142135623731,0.));
#1573=CARTESIAN_POINT('',(16.5,4.4142135623731,3.5));
#1574=CARTESIAN_POINT('',(16.5,11.,0.));
#1575=CARTESIAN_POINT('Origin',(8.25,5.5,7.));
#1576=CARTESIAN_POINT('',(12.375,11.,7.));
#1577=CARTESIAN_POINT('',(20.4101797211245,-2.22044604925031E-15,7.));
#1578=CARTESIAN_POINT('',(20.5,-2.22044604925031E-15,7.));
#1579=CARTESIAN_POINT('',(20.2071067811865,0.292893218813453,7.));
#1580=CARTESIAN_POINT('Origin',(19.5,-0.414213562373095,7.));
#1581=CARTESIAN_POINT('',(16.7928932188135,3.70710678118655,7.));
#1582=CARTESIAN_POINT('',(16.5,4.,7.));
#1583=CARTESIAN_POINT('Origin',(17.5,4.4142135623731,7.));
#1584=CARTESIAN_POINT('',(4.49999999999906,4.00000000000069,7.));
#1585=CARTESIAN_POINT('',(4.49999999999975,6.99999999999932,7.));
#1586=CARTESIAN_POINT('',(4.49999999999923,4.75000000000077,7.));
#1587=CARTESIAN_POINT('',(10.5000000000003,7.00000000000068,7.));
#1588=CARTESIAN_POINT('Origin',(7.5,7.,7.));
#1589=CARTESIAN_POINT('',(10.5000000000009,3.99999999999931,7.));
#1590=CARTESIAN_POINT('',(10.5000000000004,6.2500000000006,7.));
#1591=CARTESIAN_POINT('Origin',(7.5,4.,7.));
#1592=CARTESIAN_POINT('Origin',(17.5,4.4142135623731,3.5));
#1593=CARTESIAN_POINT('',(16.7928932188135,3.70710678118655,-5.55111512312578E-16));
#1594=CARTESIAN_POINT('',(16.7928932188135,3.70710678118655,3.5));
#1595=CARTESIAN_POINT('Origin',(17.5,4.4142135623731,0.));
#1596=CARTESIAN_POINT('Origin',(16.5,4.,7.));
#1597=CARTESIAN_POINT('',(20.2071067811865,0.292893218813453,-5.55111512312578E-16));
#1598=CARTESIAN_POINT('',(20.2071067811865,0.292893218813452,5.2500000198759));
#1599=CARTESIAN_POINT('',(17.5,3.,-5.55111512312578E-16));
#1600=CARTESIAN_POINT('Origin',(19.5,-0.414213562373095,5.2500000198759));
#1601=CARTESIAN_POINT('',(20.4101797211245,0.,0.));
#1602=CARTESIAN_POINT('Origin',(19.5,-0.414213562373095,0.));
#1603=CARTESIAN_POINT('',(20.5,-0.414213562373095,7.00000001317259));
#1604=CARTESIAN_POINT('Origin',(19.5,-0.414213562373095,7.00000001317259));
#1605=CARTESIAN_POINT('',(20.5,-0.414213562373095,0.414213562373092));
#1606=CARTESIAN_POINT('',(20.5,-0.414213562373095,5.2500000198759));
#1607=CARTESIAN_POINT('Origin',(19.5,-0.414213562373095,0.414213562373092));
#1608=CARTESIAN_POINT('Origin',(8.25,5.5,0.));
#1609=CARTESIAN_POINT('',(16.5,0.,0.));
#1610=CARTESIAN_POINT('',(0.,11.,0.));
#1611=CARTESIAN_POINT('',(5.9,7.,0.));
#1612=CARTESIAN_POINT('',(9.1,7.,0.));
#1613=CARTESIAN_POINT('Origin',(7.5,7.,0.));
#1614=CARTESIAN_POINT('',(5.9,4.,0.));
#1615=CARTESIAN_POINT('',(5.9,7.,0.));
#1616=CARTESIAN_POINT('',(9.1,4.,0.));
#1617=CARTESIAN_POINT('Origin',(7.5,4.,0.));
#1618=CARTESIAN_POINT('',(9.1,7.,0.));
#1619=CARTESIAN_POINT('Origin',(20.5,-2.8182584471254E-15,0.));
#1620=CARTESIAN_POINT('',(20.5,-2.50000007950361,2.50000007950361));
#1621=CARTESIAN_POINT('',(20.5,-2.8182584471254E-15,0.));
#1622=CARTESIAN_POINT('',(20.5,-2.50000007950361,2.50000007950361));
#1623=CARTESIAN_POINT('Origin',(13.5,-3.50000007950361,10.000000086542));
#1624=CARTESIAN_POINT('',(12.5,-3.50000007950361,19.000000086542));
#1625=CARTESIAN_POINT('',(13.5,-2.50000007950361,19.000000086542));
#1626=CARTESIAN_POINT('Origin',(13.5,-3.50000007950361,19.000000086542));
#1627=CARTESIAN_POINT('',(13.5,-2.50000007950361,7.00000007950361));
#1628=CARTESIAN_POINT('',(13.5,-2.50000007950361,10.000000086542));
#1629=CARTESIAN_POINT('',(12.5,-3.50000007950361,7.00000007950361));
#1630=CARTESIAN_POINT('Origin',(13.5,-3.50000007950361,7.00000011130505));
#1631=CARTESIAN_POINT('',(12.5,-3.50000007950361,10.000000086542));
#1632=CARTESIAN_POINT('Origin',(16.5,-2.50000007950361,13.000000086542));
#1633=CARTESIAN_POINT('',(20.5,-2.50000007950361,19.000000086542));
#1634=CARTESIAN_POINT('',(12.5,-2.50000007950361,19.000000086542));
#1635=CARTESIAN_POINT('',(20.5,-2.50000007950361,7.00000007950361));
#1636=CARTESIAN_POINT('',(20.5,-2.50000007950361,19.000000086542));
#1637=CARTESIAN_POINT('',(20.5,-2.50000007950361,7.00000007950361));
#1638=CARTESIAN_POINT('',(16.0255,-2.50000007950361,15.5));
#1639=CARTESIAN_POINT('Origin',(17.5755,-2.50000007950361,15.5));
#1640=CARTESIAN_POINT('Origin',(12.5,-7.00000007950361,19.000000086542));
#1641=CARTESIAN_POINT('',(12.5,-6.00000007950361,19.000000086542));
#1642=CARTESIAN_POINT('',(12.5,-7.00000007950361,19.000000086542));
#1643=CARTESIAN_POINT('',(13.5,-7.00000007950361,19.000000086542));
#1644=CARTESIAN_POINT('Origin',(13.5,-6.00000007950361,19.000000086542));
#1645=CARTESIAN_POINT('',(19.5,-7.00000007950361,19.000000086542));
#1646=CARTESIAN_POINT('',(12.5,-7.00000007950361,19.000000086542));
#1647=CARTESIAN_POINT('',(20.5,-6.00000007950361,19.000000086542));
#1648=CARTESIAN_POINT('Origin',(19.5,-6.00000007950361,19.000000086542));
#1649=CARTESIAN_POINT('',(20.5,-7.00000007950361,19.000000086542));
#1650=CARTESIAN_POINT('Origin',(13.5,-6.00000007950361,4.75000008302283));
#1651=CARTESIAN_POINT('',(12.5,-6.00000007950361,7.00000007950361));
#1652=CARTESIAN_POINT('',(12.5,-6.00000007950361,4.75000008302283));
#1653=CARTESIAN_POINT('',(13.5,-7.00000007950361,7.00000007950361));
#1654=CARTESIAN_POINT('Origin',(13.5,-6.00000007950361,7.00000007950361));
#1655=CARTESIAN_POINT('',(13.5,-7.00000007950361,4.75000008302283));
#1656=CARTESIAN_POINT('Origin',(20.5,-7.00000007950361,2.50000007950361));
#1657=CARTESIAN_POINT('',(20.5,-7.00000007950361,7.00000007950361));
#1658=CARTESIAN_POINT('',(19.5,-7.00000007950361,2.50000007950361));
#1659=CARTESIAN_POINT('',(-20.5,-7.00000007950361,2.50000007950361));
#1660=CARTESIAN_POINT('',(19.5,-7.00000007950361,3.00000005962771));
#1661=CARTESIAN_POINT('',(16.0255,-7.00000007950361,15.5));
#1662=CARTESIAN_POINT('Origin',(17.5755,-7.00000007950361,15.5));
#1663=CARTESIAN_POINT('Origin',(19.5,-6.00000007950361,3.00000005962771));
#1664=CARTESIAN_POINT('',(20.5,-6.00000007950361,2.50000007950361));
#1665=CARTESIAN_POINT('Origin',(19.5,-6.00000007950361,2.50000007950361));
#1666=CARTESIAN_POINT('',(20.5,-6.00000007950361,3.00000005962771));
#1667=CARTESIAN_POINT('Origin',(17.5755,-7.00000007950361,15.5));
#1668=CARTESIAN_POINT('',(16.0255,-7.00000007950361,15.5));
#1669=CARTESIAN_POINT('Origin',(12.5,-7.00000007950361,7.00000008654204));
#1670=CARTESIAN_POINT('',(12.5,-7.00000007950361,7.00000007950361));
#1671=CARTESIAN_POINT('Origin',(20.5,-2.50000007950361,7.00000007950361));
#1672=CARTESIAN_POINT('',(-12.5,-2.50000007950361,7.00000008654204));
#1673=CARTESIAN_POINT('',(-12.5,-7.00000007950361,7.00000007950361));
#1674=CARTESIAN_POINT('',(12.5,-2.50000007950361,7.00000008654204));
#1675=CARTESIAN_POINT('',(20.5,-2.50000007950361,7.00000007950361));
#1676=CARTESIAN_POINT('',(12.5,-7.00000007950361,7.00000007950361));
#1677=CARTESIAN_POINT('',(20.5,-2.50000007950361,7.00000007950361));
#1678=CARTESIAN_POINT('Origin',(20.5,-7.00000007950361,7.00000007950361));
#1679=CARTESIAN_POINT('Origin',(20.5,-2.50000007950361,2.50000007950361));
#1680=CARTESIAN_POINT('',(20.5,-2.50000007950361,2.50000007950361));
#1681=CARTESIAN_POINT('Origin',(20.5,-3.50000003975181,3.5000000397518));
#1682=CARTESIAN_POINT('Origin',(7.5,4.,3.));
#1683=CARTESIAN_POINT('',(4.49999999999906,4.00000000000069,3.));
#1684=CARTESIAN_POINT('',(10.5000000000009,3.99999999999931,3.));
#1685=CARTESIAN_POINT('Origin',(7.5,4.,3.));
#1686=CARTESIAN_POINT('',(4.49999999999906,4.00000000000069,3.));
#1687=CARTESIAN_POINT('',(10.5000000000009,3.99999999999931,3.));
#1688=CARTESIAN_POINT('Origin',(10.5000000000003,7.00000000000068,3.));
#1689=CARTESIAN_POINT('',(10.5000000000003,7.00000000000068,3.));
#1690=CARTESIAN_POINT('',(10.5000000000004,6.2500000000006,3.));
#1691=CARTESIAN_POINT('',(10.5000000000003,7.00000000000068,3.));
#1692=CARTESIAN_POINT('Origin',(7.5,7.,3.));
#1693=CARTESIAN_POINT('',(4.49999999999975,6.99999999999932,3.));
#1694=CARTESIAN_POINT('Origin',(7.5,7.,3.));
#1695=CARTESIAN_POINT('',(4.49999999999975,6.99999999999932,3.));
#1696=CARTESIAN_POINT('Origin',(4.49999999999906,4.00000000000069,3.));
#1697=CARTESIAN_POINT('',(4.49999999999923,4.75000000000077,3.));
#1698=CARTESIAN_POINT('Origin',(5.9,4.,0.));
#1699=CARTESIAN_POINT('',(5.9,7.,3.));
#1700=CARTESIAN_POINT('',(5.9,7.,0.));
#1701=CARTESIAN_POINT('',(5.9,4.,3.));
#1702=CARTESIAN_POINT('',(5.9,7.,3.));
#1703=CARTESIAN_POINT('',(5.9,4.,0.));
#1704=CARTESIAN_POINT('Origin',(7.5,4.,0.));
#1705=CARTESIAN_POINT('',(9.1,4.,3.));
#1706=CARTESIAN_POINT('Origin',(7.5,4.,3.));
#1707=CARTESIAN_POINT('',(9.1,4.,0.));
#1708=CARTESIAN_POINT('Origin',(9.1,7.,0.));
#1709=CARTESIAN_POINT('',(9.1,7.,3.));
#1710=CARTESIAN_POINT('',(9.1,7.,3.));
#1711=CARTESIAN_POINT('',(9.1,7.,0.));
#1712=CARTESIAN_POINT('Origin',(7.5,7.,0.));
#1713=CARTESIAN_POINT('Origin',(7.5,7.,3.));
#1714=CARTESIAN_POINT('Origin',(16.5,11.,0.));
#1715=CARTESIAN_POINT('Origin',(8.25,5.5,3.));
#1716=UNCERTAINTY_MEASURE_WITH_UNIT(LENGTH_MEASURE(0.01),#1720,
'DISTANCE_ACCURACY_VALUE',
'Maximum model space distance between geometric entities at asserted c
onnectivities');
#1717=UNCERTAINTY_MEASURE_WITH_UNIT(LENGTH_MEASURE(0.01),#1720,
'DISTANCE_ACCURACY_VALUE',
'Maximum model space distance between geometric entities at asserted c
onnectivities');
#1718=(
GEOMETRIC_REPRESENTATION_CONTEXT(3)
GLOBAL_UNCERTAINTY_ASSIGNED_CONTEXT((#1716))
GLOBAL_UNIT_ASSIGNED_CONTEXT((#1720,#1722,#1723))
REPRESENTATION_CONTEXT('','3D')
);
#1719=(
GEOMETRIC_REPRESENTATION_CONTEXT(3)
GLOBAL_UNCERTAINTY_ASSIGNED_CONTEXT((#1717))
GLOBAL_UNIT_ASSIGNED_CONTEXT((#1720,#1722,#1723))
REPRESENTATION_CONTEXT('','3D')
);
#1720=(
LENGTH_UNIT()
NAMED_UNIT(*)
SI_UNIT(.MILLI.,.METRE.)
);
#1721=(
LENGTH_UNIT()
NAMED_UNIT(*)
SI_UNIT($,.METRE.)
);
#1722=(
NAMED_UNIT(*)
PLANE_ANGLE_UNIT()
SI_UNIT($,.RADIAN.)
);
#1723=(
NAMED_UNIT(*)
SI_UNIT($,.STERADIAN.)
SOLID_ANGLE_UNIT()
);
#1724=SHAPE_DEFINITION_REPRESENTATION(#1725,#1726);
#1725=PRODUCT_DEFINITION_SHAPE('',$,#1728);
#1726=SHAPE_REPRESENTATION('',(#1024),#1718);
#1727=PRODUCT_DEFINITION_CONTEXT('part definition',#1732,'design');
#1728=PRODUCT_DEFINITION('adapter for mag connector_12pin',
'adapter for mag connector_12pin v6',#1729,#1727);
#1729=PRODUCT_DEFINITION_FORMATION('',$,#1734);
#1730=PRODUCT_RELATED_PRODUCT_CATEGORY(
'adapter for mag connector_12pin v6',
'adapter for mag connector_12pin v6',(#1734));
#1731=APPLICATION_PROTOCOL_DEFINITION('international standard',
'automotive_design',2009,#1732);
#1732=APPLICATION_CONTEXT(
'Core Data for Automotive Mechanical Design Process');
#1733=PRODUCT_CONTEXT('part definition',#1732,'mechanical');
#1734=PRODUCT('adapter for mag connector_12pin',
'adapter for mag connector_12pin v6',$,(#1733));
#1735=PRESENTATION_STYLE_ASSIGNMENT((#1736));
#1736=SURFACE_STYLE_USAGE(.BOTH.,#1737);
#1737=SURFACE_SIDE_STYLE('',(#1738));
#1738=SURFACE_STYLE_FILL_AREA(#1739);
#1739=FILL_AREA_STYLE('Steel - Satin',(#1740));
#1740=FILL_AREA_STYLE_COLOUR('Steel - Satin',#1741);
#1741=COLOUR_RGB('Steel - Satin',0.627450980392157,0.627450980392157,0.627450980392157);
ENDSEC;
END-ISO-10303-21;
